ISO-10303-21;
HEADER;
FILE_DESCRIPTION(('zoo.dev export'), '2;1');
FILE_NAME('output.step', '2026-06-10T17:23:21.706032560+00:00', (''), (''), 'zoo.dev beta', 'zoo.dev', '');
FILE_SCHEMA(('AP242_MANAGED_MODEL_BASED_3D_ENGINEERING_MIM_LF'));
ENDSEC;
DATA;
#1 = (
  LENGTH_UNIT()
  NAMED_UNIT(*)
  SI_UNIT(.MILLI., .METRE.)
);
#2 = (
  NAMED_UNIT(*)
  PLANE_ANGLE_UNIT()
  SI_UNIT($, .RADIAN.)
);
#3 = UNCERTAINTY_MEASURE_WITH_UNIT(LENGTH_MEASURE(0.01), #1, 'DISTANCE_ACCURACY_VALUE', $);
#4 = (
  GEOMETRIC_REPRESENTATION_CONTEXT(3)
  GLOBAL_UNCERTAINTY_ASSIGNED_CONTEXT((#3))
  GLOBAL_UNIT_ASSIGNED_CONTEXT((#1, #2))
  REPRESENTATION_CONTEXT('3D', '3D context')
);
#5 = CARTESIAN_POINT('', (-18., 6., -25.));
#6 = VERTEX_POINT('', #5);
#7 = CARTESIAN_POINT('', (-18., -6., -25.));
#8 = VERTEX_POINT('', #7);
#9 = CARTESIAN_POINT('', (-26., 6., 25.));
#10 = VERTEX_POINT('', #9);
#11 = CARTESIAN_POINT('', (-26., -6., 25.));
#12 = VERTEX_POINT('', #11);
#13 = CARTESIAN_POINT('', (-26., 6., -25.));
#14 = VERTEX_POINT('', #13);
#15 = CARTESIAN_POINT('', (-26., -6., -25.));
#16 = VERTEX_POINT('', #15);
#17 = CARTESIAN_POINT('', (-30., 4., 0.));
#18 = VERTEX_POINT('', #17);
#19 = CARTESIAN_POINT('', (-26., 4., 0.));
#20 = VERTEX_POINT('', #19);
#21 = CARTESIAN_POINT('', (-30., -4., 0.));
#22 = VERTEX_POINT('', #21);
#23 = CARTESIAN_POINT('', (-26., -4., 0.));
#24 = VERTEX_POINT('', #23);
#25 = CARTESIAN_POINT('', (-26., -0., -4.));
#26 = VERTEX_POINT('', #25);
#27 = CARTESIAN_POINT('', (-26., 0., 4.));
#28 = VERTEX_POINT('', #27);
#29 = CARTESIAN_POINT('', (18.5, 6., -15.));
#30 = VERTEX_POINT('', #29);
#31 = CARTESIAN_POINT('', (18.5, 6., 15.));
#32 = VERTEX_POINT('', #31);
#33 = CARTESIAN_POINT('', (18.5, -6., 15.));
#34 = VERTEX_POINT('', #33);
#35 = CARTESIAN_POINT('', (18.5, -6., -15.));
#36 = VERTEX_POINT('', #35);
#37 = CARTESIAN_POINT('', (-18., 6., 15.));
#38 = VERTEX_POINT('', #37);
#39 = CARTESIAN_POINT('', (-18., -6., 15.));
#40 = VERTEX_POINT('', #39);
#41 = CARTESIAN_POINT('', (-18., -6., -15.));
#42 = VERTEX_POINT('', #41);
#43 = CARTESIAN_POINT('', (-18., 6., -15.));
#44 = VERTEX_POINT('', #43);
#45 = CARTESIAN_POINT('', (18.5, 6., 17.));
#46 = VERTEX_POINT('', #45);
#47 = CARTESIAN_POINT('', (18.5, 6., 25.));
#48 = VERTEX_POINT('', #47);
#49 = CARTESIAN_POINT('', (18.5, -6., 25.));
#50 = VERTEX_POINT('', #49);
#51 = CARTESIAN_POINT('', (18.5, -6., 17.));
#52 = VERTEX_POINT('', #51);
#53 = CARTESIAN_POINT('', (-18., 6., 17.));
#54 = VERTEX_POINT('', #53);
#55 = CARTESIAN_POINT('', (-18., -6., 17.));
#56 = VERTEX_POINT('', #55);
#57 = CARTESIAN_POINT('', (26., 6., -25.));
#58 = VERTEX_POINT('', #57);
#59 = CARTESIAN_POINT('', (26., 6., 25.));
#60 = VERTEX_POINT('', #59);
#61 = CARTESIAN_POINT('', (26., -6., 25.));
#62 = VERTEX_POINT('', #61);
#63 = CARTESIAN_POINT('', (26., -6., -25.));
#64 = VERTEX_POINT('', #63);
#65 = CARTESIAN_POINT('', (18., 6., 25.));
#66 = VERTEX_POINT('', #65);
#67 = CARTESIAN_POINT('', (18., -6., 25.));
#68 = VERTEX_POINT('', #67);
#69 = CARTESIAN_POINT('', (18., 6., -25.));
#70 = VERTEX_POINT('', #69);
#71 = CARTESIAN_POINT('', (18., -6., -25.));
#72 = VERTEX_POINT('', #71);
#73 = CARTESIAN_POINT('', (26., 4., 0.));
#74 = VERTEX_POINT('', #73);
#75 = CARTESIAN_POINT('', (30., 4., 0.));
#76 = VERTEX_POINT('', #75);
#77 = CARTESIAN_POINT('', (26., -4., 0.));
#78 = VERTEX_POINT('', #77);
#79 = CARTESIAN_POINT('', (30., -4., 0.));
#80 = VERTEX_POINT('', #79);
#81 = CARTESIAN_POINT('', (26., -0., -4.));
#82 = VERTEX_POINT('', #81);
#83 = CARTESIAN_POINT('', (26., 0., 4.));
#84 = VERTEX_POINT('', #83);
#85 = CARTESIAN_POINT('', (18., 6., 15.));
#86 = VERTEX_POINT('', #85);
#87 = CARTESIAN_POINT('', (18., -6., 15.));
#88 = VERTEX_POINT('', #87);
#89 = CARTESIAN_POINT('', (18., 6., -15.));
#90 = VERTEX_POINT('', #89);
#91 = CARTESIAN_POINT('', (18., -6., -15.));
#92 = VERTEX_POINT('', #91);
#93 = CARTESIAN_POINT('', (18., 6., 17.));
#94 = VERTEX_POINT('', #93);
#95 = CARTESIAN_POINT('', (18., -6., 17.));
#96 = VERTEX_POINT('', #95);
#97 = CARTESIAN_POINT('', (-8.9, 6., 10.));
#98 = VERTEX_POINT('', #97);
#99 = CARTESIAN_POINT('', (-11.1, 6., 10.));
#100 = VERTEX_POINT('', #99);
#101 = CARTESIAN_POINT('', (-8.9, -6., 10.));
#102 = VERTEX_POINT('', #101);
#103 = CARTESIAN_POINT('', (-11.1, -6., 10.));
#104 = VERTEX_POINT('', #103);
#105 = CARTESIAN_POINT('', (-9.99999999, 6., 8.9));
#106 = VERTEX_POINT('', #105);
#107 = CARTESIAN_POINT('', (-10., 6., 11.1));
#108 = VERTEX_POINT('', #107);
#109 = CARTESIAN_POINT('', (-10., -6., 8.9));
#110 = VERTEX_POINT('', #109);
#111 = CARTESIAN_POINT('', (-9.99999999, -6., 11.1));
#112 = VERTEX_POINT('', #111);
#113 = CARTESIAN_POINT('', (11.1, 6., 10.));
#114 = VERTEX_POINT('', #113);
#115 = CARTESIAN_POINT('', (8.9, 6., 10.));
#116 = VERTEX_POINT('', #115);
#117 = CARTESIAN_POINT('', (11.1, -6., 10.));
#118 = VERTEX_POINT('', #117);
#119 = CARTESIAN_POINT('', (8.9, -6., 10.));
#120 = VERTEX_POINT('', #119);
#121 = CARTESIAN_POINT('', (10.00000001, 6., 8.9));
#122 = VERTEX_POINT('', #121);
#123 = CARTESIAN_POINT('', (9.99999999, 6., 11.1));
#124 = VERTEX_POINT('', #123);
#125 = CARTESIAN_POINT('', (9.99999999, -6., 8.9));
#126 = VERTEX_POINT('', #125);
#127 = CARTESIAN_POINT('', (10.00000001, -6., 11.1));
#128 = VERTEX_POINT('', #127);
#129 = CARTESIAN_POINT('', (-8.9, 6., -10.));
#130 = VERTEX_POINT('', #129);
#131 = CARTESIAN_POINT('', (-11.1, 6., -10.));
#132 = VERTEX_POINT('', #131);
#133 = CARTESIAN_POINT('', (-8.9, -6., -10.));
#134 = VERTEX_POINT('', #133);
#135 = CARTESIAN_POINT('', (-11.1, -6., -10.));
#136 = VERTEX_POINT('', #135);
#137 = CARTESIAN_POINT('', (-9.99999999, 6., -11.1));
#138 = VERTEX_POINT('', #137);
#139 = CARTESIAN_POINT('', (-10., 6., -8.9));
#140 = VERTEX_POINT('', #139);
#141 = CARTESIAN_POINT('', (-10., -6., -11.1));
#142 = VERTEX_POINT('', #141);
#143 = CARTESIAN_POINT('', (-9.99999999, -6., -8.9));
#144 = VERTEX_POINT('', #143);
#145 = CARTESIAN_POINT('', (11.1, 6., -10.));
#146 = VERTEX_POINT('', #145);
#147 = CARTESIAN_POINT('', (8.9, 6., -10.));
#148 = VERTEX_POINT('', #147);
#149 = CARTESIAN_POINT('', (11.1, -6., -10.));
#150 = VERTEX_POINT('', #149);
#151 = CARTESIAN_POINT('', (8.9, -6., -10.));
#152 = VERTEX_POINT('', #151);
#153 = CARTESIAN_POINT('', (10., 6., -11.1));
#154 = VERTEX_POINT('', #153);
#155 = CARTESIAN_POINT('', (10., 6., -8.9));
#156 = VERTEX_POINT('', #155);
#157 = CARTESIAN_POINT('', (9.99999999, -6., -11.1));
#158 = VERTEX_POINT('', #157);
#159 = CARTESIAN_POINT('', (10.00000001, -6., -8.9));
#160 = VERTEX_POINT('', #159);
#161 = CARTESIAN_POINT('', (9., 6., 0.));
#162 = VERTEX_POINT('', #161);
#163 = CARTESIAN_POINT('', (-9., 6., 0.));
#164 = VERTEX_POINT('', #163);
#165 = CARTESIAN_POINT('', (9., -6., 0.));
#166 = VERTEX_POINT('', #165);
#167 = CARTESIAN_POINT('', (-9., -6., 0.));
#168 = VERTEX_POINT('', #167);
#169 = CARTESIAN_POINT('', (0.00000003, 6., -9.));
#170 = VERTEX_POINT('', #169);
#171 = CARTESIAN_POINT('', (-0.00000005, 6., 9.));
#172 = VERTEX_POINT('', #171);
#173 = CARTESIAN_POINT('', (-0.00000005, -6., -9.));
#174 = VERTEX_POINT('', #173);
#175 = CARTESIAN_POINT('', (-0., -6., 9.));
#176 = VERTEX_POINT('', #175);
#177 = CARTESIAN_POINT('', (-8.4, 6., 21.));
#178 = VERTEX_POINT('', #177);
#179 = CARTESIAN_POINT('', (-11.6, 6., 21.));
#180 = VERTEX_POINT('', #179);
#181 = CARTESIAN_POINT('', (-8.4, -6., 21.));
#182 = VERTEX_POINT('', #181);
#183 = CARTESIAN_POINT('', (-11.6, -6., 21.));
#184 = VERTEX_POINT('', #183);
#185 = CARTESIAN_POINT('', (-9.99999999, 6., 19.4));
#186 = VERTEX_POINT('', #185);
#187 = CARTESIAN_POINT('', (-10.00000001, 6., 22.6));
#188 = VERTEX_POINT('', #187);
#189 = CARTESIAN_POINT('', (-10.00000001, -6., 19.4));
#190 = VERTEX_POINT('', #189);
#191 = CARTESIAN_POINT('', (-9.99999999, -6., 22.6));
#192 = VERTEX_POINT('', #191);
#193 = CARTESIAN_POINT('', (11.6, 6., 21.));
#194 = VERTEX_POINT('', #193);
#195 = CARTESIAN_POINT('', (8.4, 6., 21.));
#196 = VERTEX_POINT('', #195);
#197 = CARTESIAN_POINT('', (11.6, -6., 21.));
#198 = VERTEX_POINT('', #197);
#199 = CARTESIAN_POINT('', (8.4, -6., 21.));
#200 = VERTEX_POINT('', #199);
#201 = CARTESIAN_POINT('', (10.00000001, 6., 19.4));
#202 = VERTEX_POINT('', #201);
#203 = CARTESIAN_POINT('', (9.99999999, 6., 22.6));
#204 = VERTEX_POINT('', #203);
#205 = CARTESIAN_POINT('', (9.99999999, -6., 19.4));
#206 = VERTEX_POINT('', #205);
#207 = CARTESIAN_POINT('', (10.00000001, -6., 22.6));
#208 = VERTEX_POINT('', #207);
#209 = CARTESIAN_POINT('', (-15., 1.6, 0.));
#210 = VERTEX_POINT('', #209);
#211 = CARTESIAN_POINT('', (-15., -1.6, 0.));
#212 = VERTEX_POINT('', #211);
#213 = CARTESIAN_POINT('', (-30., 1.6, 0.));
#214 = VERTEX_POINT('', #213);
#215 = CARTESIAN_POINT('', (-30., -1.6, 0.));
#216 = VERTEX_POINT('', #215);
#217 = CARTESIAN_POINT('', (-30., -0., -1.6));
#218 = VERTEX_POINT('', #217);
#219 = CARTESIAN_POINT('', (-30., 0., 1.6));
#220 = VERTEX_POINT('', #219);
#221 = CARTESIAN_POINT('', (15., 1.6, 0.));
#222 = VERTEX_POINT('', #221);
#223 = CARTESIAN_POINT('', (15., -1.6, 0.));
#224 = VERTEX_POINT('', #223);
#225 = CARTESIAN_POINT('', (30., 1.6, 0.));
#226 = VERTEX_POINT('', #225);
#227 = CARTESIAN_POINT('', (30., -1.6, 0.));
#228 = VERTEX_POINT('', #227);
#229 = CARTESIAN_POINT('', (30., -0., -1.6));
#230 = VERTEX_POINT('', #229);
#231 = CARTESIAN_POINT('', (30., 0., 1.6));
#232 = VERTEX_POINT('', #231);
#233 = DIRECTION('', (0., 0., 1.));
#234 = VECTOR('', #233, 1.);
#235 = CARTESIAN_POINT('', (-18., 6., -25.));
#236 = LINE('', #235, #234);
#237 = DIRECTION('', (0., -0., 1.));
#238 = VECTOR('', #237, 1.);
#239 = CARTESIAN_POINT('', (-18., -6., -25.));
#240 = LINE('', #239, #238);
#241 = DIRECTION('', (0., -1., 0.));
#242 = VECTOR('', #241, 1.);
#243 = CARTESIAN_POINT('', (-18., 6., -25.));
#244 = LINE('', #243, #242);
#245 = DIRECTION('', (0., -1., 0.));
#246 = VECTOR('', #245, 1.);
#247 = CARTESIAN_POINT('', (-26., 6., 25.));
#248 = LINE('', #247, #246);
#249 = DIRECTION('', (0., -0., -1.));
#250 = VECTOR('', #249, 1.);
#251 = CARTESIAN_POINT('', (-26., 6., 25.));
#252 = LINE('', #251, #250);
#253 = DIRECTION('', (0., -1., 0.));
#254 = VECTOR('', #253, 1.);
#255 = CARTESIAN_POINT('', (-26., 6., -25.));
#256 = LINE('', #255, #254);
#257 = DIRECTION('', (0., -0., -1.));
#258 = VECTOR('', #257, 1.);
#259 = CARTESIAN_POINT('', (-26., -6., 25.));
#260 = LINE('', #259, #258);
#261 = DIRECTION('', (1., -0., 0.));
#262 = VECTOR('', #261, 1.);
#263 = CARTESIAN_POINT('', (-26., 6., -25.));
#264 = LINE('', #263, #262);
#265 = DIRECTION('', (1., -0., 0.));
#266 = VECTOR('', #265, 1.);
#267 = CARTESIAN_POINT('', (-26., -6., -25.));
#268 = LINE('', #267, #266);
#269 = DIRECTION('', (0., 1., -0.));
#270 = DIRECTION('', (1., -0., 0.));
#271 = CARTESIAN_POINT('', (-30., 0., 0.));
#272 = AXIS2_PLACEMENT_3D('', #271, #270, #269);
#273 = CIRCLE('', #272, 4.);
#274 = DIRECTION('', (1., -0., 0.));
#275 = VECTOR('', #274, 1.);
#276 = CARTESIAN_POINT('', (-30., 4., 0.));
#277 = LINE('', #276, #275);
#278 = DIRECTION('', (-0., 1., 0.));
#279 = DIRECTION('', (1., 0., 0.));
#280 = CARTESIAN_POINT('', (-26., -0., -0.));
#281 = AXIS2_PLACEMENT_3D('', #280, #279, #278);
#282 = CIRCLE('', #281, 4.);
#283 = DIRECTION('', (0., -1., 0.));
#284 = DIRECTION('', (1., 0., 0.));
#285 = CARTESIAN_POINT('', (-30., 0., -0.));
#286 = AXIS2_PLACEMENT_3D('', #285, #284, #283);
#287 = CIRCLE('', #286, 4.);
#288 = DIRECTION('', (1., -0., 0.));
#289 = VECTOR('', #288, 1.);
#290 = CARTESIAN_POINT('', (-30., -4., 0.));
#291 = LINE('', #290, #289);
#292 = DIRECTION('', (-0., 1., -0.));
#293 = DIRECTION('', (-1., -0., 0.));
#294 = CARTESIAN_POINT('', (-26., -0., 0.));
#295 = AXIS2_PLACEMENT_3D('', #294, #293, #292);
#296 = CIRCLE('', #295, 4.);
#297 = DIRECTION('', (-0., -0., -1.));
#298 = DIRECTION('', (-1., 0., 0.));
#299 = CARTESIAN_POINT('', (-26., -0., -0.));
#300 = AXIS2_PLACEMENT_3D('', #299, #298, #297);
#301 = CIRCLE('', #300, 4.);
#302 = DIRECTION('', (-0., -0., 1.));
#303 = DIRECTION('', (1., -0., 0.));
#304 = CARTESIAN_POINT('', (-26., 0., -0.));
#305 = AXIS2_PLACEMENT_3D('', #304, #303, #302);
#306 = CIRCLE('', #305, 4.);
#307 = DIRECTION('', (0., -0., 1.));
#308 = VECTOR('', #307, 1.);
#309 = CARTESIAN_POINT('', (18.5, 6., -15.));
#310 = LINE('', #309, #308);
#311 = DIRECTION('', (0., -0., 1.));
#312 = VECTOR('', #311, 1.);
#313 = CARTESIAN_POINT('', (18.5, -6., -15.));
#314 = LINE('', #313, #312);
#315 = DIRECTION('', (0., -1., 0.));
#316 = VECTOR('', #315, 1.);
#317 = CARTESIAN_POINT('', (-18., 6., 15.));
#318 = LINE('', #317, #316);
#319 = DIRECTION('', (0., 1., 0.));
#320 = VECTOR('', #319, 1.);
#321 = CARTESIAN_POINT('', (-18., -6., -15.));
#322 = LINE('', #321, #320);
#323 = DIRECTION('', (1., -0., 0.));
#324 = VECTOR('', #323, 1.);
#325 = CARTESIAN_POINT('', (-18., 6., -15.));
#326 = LINE('', #325, #324);
#327 = DIRECTION('', (1., -0., 0.));
#328 = VECTOR('', #327, 1.);
#329 = CARTESIAN_POINT('', (-18., -6., -15.));
#330 = LINE('', #329, #328);
#331 = DIRECTION('', (0., -0., 1.));
#332 = VECTOR('', #331, 1.);
#333 = CARTESIAN_POINT('', (-18., -6., 15.));
#334 = LINE('', #333, #332);
#335 = DIRECTION('', (0., 0., 1.));
#336 = VECTOR('', #335, 1.);
#337 = CARTESIAN_POINT('', (-18., 6., 15.));
#338 = LINE('', #337, #336);
#339 = DIRECTION('', (0., -0., 1.));
#340 = VECTOR('', #339, 1.);
#341 = CARTESIAN_POINT('', (18.5, 6., 17.));
#342 = LINE('', #341, #340);
#343 = DIRECTION('', (0., -0., 1.));
#344 = VECTOR('', #343, 1.);
#345 = CARTESIAN_POINT('', (18.5, -6., 17.));
#346 = LINE('', #345, #344);
#347 = DIRECTION('', (-1., -0., 0.));
#348 = VECTOR('', #347, 1.);
#349 = CARTESIAN_POINT('', (18.5, 6., 25.));
#350 = LINE('', #349, #348);
#351 = DIRECTION('', (-1., -0., 0.));
#352 = VECTOR('', #351, 1.);
#353 = CARTESIAN_POINT('', (18.5, -6., 25.));
#354 = LINE('', #353, #352);
#355 = DIRECTION('', (0., 1., 0.));
#356 = VECTOR('', #355, 1.);
#357 = CARTESIAN_POINT('', (-18., -6., 17.));
#358 = LINE('', #357, #356);
#359 = DIRECTION('', (1., -0., 0.));
#360 = VECTOR('', #359, 1.);
#361 = CARTESIAN_POINT('', (-18., -6., 17.));
#362 = LINE('', #361, #360);
#363 = DIRECTION('', (1., -0., 0.));
#364 = VECTOR('', #363, 1.);
#365 = CARTESIAN_POINT('', (-18., 6., 17.));
#366 = LINE('', #365, #364);
#367 = DIRECTION('', (1., -0., 0.));
#368 = VECTOR('', #367, 1.);
#369 = CARTESIAN_POINT('', (-26., -6., 25.));
#370 = LINE('', #369, #368);
#371 = DIRECTION('', (1., -0., 0.));
#372 = VECTOR('', #371, 1.);
#373 = CARTESIAN_POINT('', (-26., 6., 25.));
#374 = LINE('', #373, #372);
#375 = DIRECTION('', (0., -0., 1.));
#376 = VECTOR('', #375, 1.);
#377 = CARTESIAN_POINT('', (26., 6., -25.));
#378 = LINE('', #377, #376);
#379 = DIRECTION('', (0., -1., 0.));
#380 = VECTOR('', #379, 1.);
#381 = CARTESIAN_POINT('', (26., 6., 25.));
#382 = LINE('', #381, #380);
#383 = DIRECTION('', (0., -0., 1.));
#384 = VECTOR('', #383, 1.);
#385 = CARTESIAN_POINT('', (26., -6., -25.));
#386 = LINE('', #385, #384);
#387 = DIRECTION('', (0., -1., 0.));
#388 = VECTOR('', #387, 1.);
#389 = CARTESIAN_POINT('', (26., 6., -25.));
#390 = LINE('', #389, #388);
#391 = DIRECTION('', (-1., -0., 0.));
#392 = VECTOR('', #391, 1.);
#393 = CARTESIAN_POINT('', (26., 6., 25.));
#394 = LINE('', #393, #392);
#395 = DIRECTION('', (-1., -0., 0.));
#396 = VECTOR('', #395, 1.);
#397 = CARTESIAN_POINT('', (26., -6., 25.));
#398 = LINE('', #397, #396);
#399 = DIRECTION('', (0., -1., 0.));
#400 = VECTOR('', #399, 1.);
#401 = CARTESIAN_POINT('', (18., 6., -25.));
#402 = LINE('', #401, #400);
#403 = DIRECTION('', (1., -0., 0.));
#404 = VECTOR('', #403, 1.);
#405 = CARTESIAN_POINT('', (18., 6., -25.));
#406 = LINE('', #405, #404);
#407 = DIRECTION('', (1., -0., 0.));
#408 = VECTOR('', #407, 1.);
#409 = CARTESIAN_POINT('', (18., -6., -25.));
#410 = LINE('', #409, #408);
#411 = DIRECTION('', (0., 1., 0.));
#412 = DIRECTION('', (1., -0., -0.));
#413 = CARTESIAN_POINT('', (26., -0., -0.));
#414 = AXIS2_PLACEMENT_3D('', #413, #412, #411);
#415 = CIRCLE('', #414, 4.);
#416 = DIRECTION('', (1., -0., 0.));
#417 = VECTOR('', #416, 1.);
#418 = CARTESIAN_POINT('', (26., 4., 0.));
#419 = LINE('', #418, #417);
#420 = DIRECTION('', (0., 1., -0.));
#421 = DIRECTION('', (1., -0., 0.));
#422 = CARTESIAN_POINT('', (30., 0., 0.));
#423 = AXIS2_PLACEMENT_3D('', #422, #421, #420);
#424 = CIRCLE('', #423, 4.);
#425 = DIRECTION('', (0., -1., 0.));
#426 = DIRECTION('', (1., 0., 0.));
#427 = CARTESIAN_POINT('', (30., 0., -0.));
#428 = AXIS2_PLACEMENT_3D('', #427, #426, #425);
#429 = CIRCLE('', #428, 4.);
#430 = DIRECTION('', (1., -0., 0.));
#431 = VECTOR('', #430, 1.);
#432 = CARTESIAN_POINT('', (26., -4., 0.));
#433 = LINE('', #432, #431);
#434 = DIRECTION('', (0., -1., 0.));
#435 = DIRECTION('', (1., 0., 0.));
#436 = CARTESIAN_POINT('', (26., -0., -0.));
#437 = AXIS2_PLACEMENT_3D('', #436, #435, #434);
#438 = CIRCLE('', #437, 4.);
#439 = DIRECTION('', (0., 0., -1.));
#440 = DIRECTION('', (1., -0., 0.));
#441 = CARTESIAN_POINT('', (26., -0., 0.));
#442 = AXIS2_PLACEMENT_3D('', #441, #440, #439);
#443 = CIRCLE('', #442, 4.);
#444 = DIRECTION('', (0., -0., 1.));
#445 = DIRECTION('', (1., 0., -0.));
#446 = CARTESIAN_POINT('', (26., 0., -0.));
#447 = AXIS2_PLACEMENT_3D('', #446, #445, #444);
#448 = CIRCLE('', #447, 4.);
#449 = DIRECTION('', (0., -1., 0.));
#450 = VECTOR('', #449, 1.);
#451 = CARTESIAN_POINT('', (18., 6., 25.));
#452 = LINE('', #451, #450);
#453 = DIRECTION('', (0., -1., 0.));
#454 = VECTOR('', #453, 1.);
#455 = CARTESIAN_POINT('', (18., 6., 15.));
#456 = LINE('', #455, #454);
#457 = DIRECTION('', (-1., -0., 0.));
#458 = VECTOR('', #457, 1.);
#459 = CARTESIAN_POINT('', (18.5, 6., 15.));
#460 = LINE('', #459, #458);
#461 = DIRECTION('', (-1., -0., 0.));
#462 = VECTOR('', #461, 1.);
#463 = CARTESIAN_POINT('', (18.5, -6., 15.));
#464 = LINE('', #463, #462);
#465 = DIRECTION('', (0., -0., -1.));
#466 = VECTOR('', #465, 1.);
#467 = CARTESIAN_POINT('', (18., 6., 15.));
#468 = LINE('', #467, #466);
#469 = DIRECTION('', (0., -0., -1.));
#470 = VECTOR('', #469, 1.);
#471 = CARTESIAN_POINT('', (18., -6., 15.));
#472 = LINE('', #471, #470);
#473 = DIRECTION('', (0., 1., 0.));
#474 = VECTOR('', #473, 1.);
#475 = CARTESIAN_POINT('', (18., -6., -15.));
#476 = LINE('', #475, #474);
#477 = DIRECTION('', (1., -0., 0.));
#478 = VECTOR('', #477, 1.);
#479 = CARTESIAN_POINT('', (18., 6., -15.));
#480 = LINE('', #479, #478);
#481 = DIRECTION('', (1., -0., 0.));
#482 = VECTOR('', #481, 1.);
#483 = CARTESIAN_POINT('', (18., -6., -15.));
#484 = LINE('', #483, #482);
#485 = DIRECTION('', (0., -0., -1.));
#486 = VECTOR('', #485, 1.);
#487 = CARTESIAN_POINT('', (18., 6., 25.));
#488 = LINE('', #487, #486);
#489 = DIRECTION('', (1., -0., 0.));
#490 = VECTOR('', #489, 1.);
#491 = CARTESIAN_POINT('', (18., 6., 17.));
#492 = LINE('', #491, #490);
#493 = DIRECTION('', (0., -0., -1.));
#494 = VECTOR('', #493, 1.);
#495 = CARTESIAN_POINT('', (18., -6., 25.));
#496 = LINE('', #495, #494);
#497 = DIRECTION('', (1., -0., 0.));
#498 = VECTOR('', #497, 1.);
#499 = CARTESIAN_POINT('', (18., -6., 17.));
#500 = LINE('', #499, #498);
#501 = DIRECTION('', (0., 1., 0.));
#502 = VECTOR('', #501, 1.);
#503 = CARTESIAN_POINT('', (18., -6., 17.));
#504 = LINE('', #503, #502);
#505 = DIRECTION('', (0., -0., -1.));
#506 = VECTOR('', #505, 1.);
#507 = CARTESIAN_POINT('', (18., -6., 17.));
#508 = LINE('', #507, #506);
#509 = DIRECTION('', (0., -0., -1.));
#510 = VECTOR('', #509, 1.);
#511 = CARTESIAN_POINT('', (18., 6., 17.));
#512 = LINE('', #511, #510);
#513 = DIRECTION('', (0., -0., -1.));
#514 = VECTOR('', #513, 1.);
#515 = CARTESIAN_POINT('', (18., -6., -15.));
#516 = LINE('', #515, #514);
#517 = DIRECTION('', (-1., -0., 0.));
#518 = VECTOR('', #517, 1.);
#519 = CARTESIAN_POINT('', (18., 6., 15.));
#520 = LINE('', #519, #518);
#521 = DIRECTION('', (-1., -0., 0.));
#522 = VECTOR('', #521, 1.);
#523 = CARTESIAN_POINT('', (18., -6., 15.));
#524 = LINE('', #523, #522);
#525 = DIRECTION('', (0., -0., -1.));
#526 = VECTOR('', #525, 1.);
#527 = CARTESIAN_POINT('', (18., 6., -15.));
#528 = LINE('', #527, #526);
#529 = DIRECTION('', (1., 0., -0.));
#530 = DIRECTION('', (0., -1., 0.));
#531 = CARTESIAN_POINT('', (-10., 6., 10.));
#532 = AXIS2_PLACEMENT_3D('', #531, #530, #529);
#533 = CIRCLE('', #532, 1.1);
#534 = DIRECTION('', (1., 0., -0.));
#535 = DIRECTION('', (-0., 1., -0.));
#536 = CARTESIAN_POINT('', (-10., 6., 10.));
#537 = AXIS2_PLACEMENT_3D('', #536, #535, #534);
#538 = CIRCLE('', #537, 1.1);
#539 = DIRECTION('', (1., 0., 0.));
#540 = DIRECTION('', (0., -1., -0.));
#541 = CARTESIAN_POINT('', (-10., -6., 10.));
#542 = AXIS2_PLACEMENT_3D('', #541, #540, #539);
#543 = CIRCLE('', #542, 1.1);
#544 = DIRECTION('', (1., -0., -0.));
#545 = DIRECTION('', (0., 1., -0.));
#546 = CARTESIAN_POINT('', (-10., -6., 10.));
#547 = AXIS2_PLACEMENT_3D('', #546, #545, #544);
#548 = CIRCLE('', #547, 1.1);
#549 = DIRECTION('', (0.00000001, 0., -1.));
#550 = DIRECTION('', (0., 1., 0.));
#551 = CARTESIAN_POINT('', (-10., 6., 10.));
#552 = AXIS2_PLACEMENT_3D('', #551, #550, #549);
#553 = CIRCLE('', #552, 1.1);
#554 = DIRECTION('', (-0., -0., 1.));
#555 = DIRECTION('', (-0., -1., -0.));
#556 = CARTESIAN_POINT('', (-10., 6., 10.));
#557 = AXIS2_PLACEMENT_3D('', #556, #555, #554);
#558 = CIRCLE('', #557, 1.1);
#559 = DIRECTION('', (-0., -0., -1.));
#560 = DIRECTION('', (-0., 1., -0.));
#561 = CARTESIAN_POINT('', (-10., -6., 10.));
#562 = AXIS2_PLACEMENT_3D('', #561, #560, #559);
#563 = CIRCLE('', #562, 1.1);
#564 = DIRECTION('', (0.00000001, -0., 1.));
#565 = DIRECTION('', (0., -1., -0.));
#566 = CARTESIAN_POINT('', (-10., -6., 10.));
#567 = AXIS2_PLACEMENT_3D('', #566, #565, #564);
#568 = CIRCLE('', #567, 1.1);
#569 = DIRECTION('', (0., -1., 0.));
#570 = VECTOR('', #569, 1.);
#571 = CARTESIAN_POINT('', (-11.1, 6., 10.));
#572 = LINE('', #571, #570);
#573 = DIRECTION('', (0., -1., 0.));
#574 = VECTOR('', #573, 1.);
#575 = CARTESIAN_POINT('', (-8.9, 6., 10.));
#576 = LINE('', #575, #574);
#577 = DIRECTION('', (1., 0., -0.));
#578 = DIRECTION('', (0., -1., 0.));
#579 = CARTESIAN_POINT('', (10., 6., 10.));
#580 = AXIS2_PLACEMENT_3D('', #579, #578, #577);
#581 = CIRCLE('', #580, 1.1);
#582 = DIRECTION('', (1., 0., -0.));
#583 = DIRECTION('', (-0., 1., 0.));
#584 = CARTESIAN_POINT('', (10., 6., 10.));
#585 = AXIS2_PLACEMENT_3D('', #584, #583, #582);
#586 = CIRCLE('', #585, 1.1);
#587 = DIRECTION('', (1., -0., -0.));
#588 = DIRECTION('', (-0., -1., -0.));
#589 = CARTESIAN_POINT('', (10., -6., 10.));
#590 = AXIS2_PLACEMENT_3D('', #589, #588, #587);
#591 = CIRCLE('', #590, 1.1);
#592 = DIRECTION('', (1., -0., 0.));
#593 = DIRECTION('', (0., 1., -0.));
#594 = CARTESIAN_POINT('', (10., -6., 10.));
#595 = AXIS2_PLACEMENT_3D('', #594, #593, #592);
#596 = CIRCLE('', #595, 1.1);
#597 = DIRECTION('', (0., 0., -1.));
#598 = DIRECTION('', (0., 1., 0.));
#599 = CARTESIAN_POINT('', (10., 6., 10.));
#600 = AXIS2_PLACEMENT_3D('', #599, #598, #597);
#601 = CIRCLE('', #600, 1.1);
#602 = DIRECTION('', (-0., 0., 1.));
#603 = DIRECTION('', (-0., -1., 0.));
#604 = CARTESIAN_POINT('', (10., 6., 10.));
#605 = AXIS2_PLACEMENT_3D('', #604, #603, #602);
#606 = CIRCLE('', #605, 1.1);
#607 = DIRECTION('', (-0.00000001, -0., -1.));
#608 = DIRECTION('', (-0., 1., -0.));
#609 = CARTESIAN_POINT('', (10., -6., 10.));
#610 = AXIS2_PLACEMENT_3D('', #609, #608, #607);
#611 = CIRCLE('', #610, 1.1);
#612 = DIRECTION('', (0.00000001, -0., 1.));
#613 = DIRECTION('', (0., -1., -0.));
#614 = CARTESIAN_POINT('', (10., -6., 10.));
#615 = AXIS2_PLACEMENT_3D('', #614, #613, #612);
#616 = CIRCLE('', #615, 1.1);
#617 = DIRECTION('', (0., -1., 0.));
#618 = VECTOR('', #617, 1.);
#619 = CARTESIAN_POINT('', (8.9, 6., 10.));
#620 = LINE('', #619, #618);
#621 = DIRECTION('', (0., -1., 0.));
#622 = VECTOR('', #621, 1.);
#623 = CARTESIAN_POINT('', (11.1, 6., 10.));
#624 = LINE('', #623, #622);
#625 = DIRECTION('', (1., -0., -0.));
#626 = DIRECTION('', (-0., -1., -0.));
#627 = CARTESIAN_POINT('', (-10., 6., -10.));
#628 = AXIS2_PLACEMENT_3D('', #627, #626, #625);
#629 = CIRCLE('', #628, 1.1);
#630 = DIRECTION('', (1., 0., -0.));
#631 = DIRECTION('', (-0., 1., 0.));
#632 = CARTESIAN_POINT('', (-10., 6., -10.));
#633 = AXIS2_PLACEMENT_3D('', #632, #631, #630);
#634 = CIRCLE('', #633, 1.1);
#635 = DIRECTION('', (1., -0., 0.));
#636 = DIRECTION('', (-0., -1., -0.));
#637 = CARTESIAN_POINT('', (-10., -6., -10.));
#638 = AXIS2_PLACEMENT_3D('', #637, #636, #635);
#639 = CIRCLE('', #638, 1.1);
#640 = DIRECTION('', (1., -0., 0.));
#641 = DIRECTION('', (0., 1., -0.));
#642 = CARTESIAN_POINT('', (-10., -6., -10.));
#643 = AXIS2_PLACEMENT_3D('', #642, #641, #640);
#644 = CIRCLE('', #643, 1.1);
#645 = DIRECTION('', (0.00000001, 0., -1.));
#646 = DIRECTION('', (-0., 1., 0.));
#647 = CARTESIAN_POINT('', (-10., 6., -10.));
#648 = AXIS2_PLACEMENT_3D('', #647, #646, #645);
#649 = CIRCLE('', #648, 1.1);
#650 = DIRECTION('', (-0., -0., 1.));
#651 = DIRECTION('', (0., -1., -0.));
#652 = CARTESIAN_POINT('', (-10., 6., -10.));
#653 = AXIS2_PLACEMENT_3D('', #652, #651, #650);
#654 = CIRCLE('', #653, 1.1);
#655 = DIRECTION('', (-0., 0., -1.));
#656 = DIRECTION('', (0., 1., 0.));
#657 = CARTESIAN_POINT('', (-10., -6., -10.));
#658 = AXIS2_PLACEMENT_3D('', #657, #656, #655);
#659 = CIRCLE('', #658, 1.1);
#660 = DIRECTION('', (0.00000001, -0., 1.));
#661 = DIRECTION('', (0., -1., -0.));
#662 = CARTESIAN_POINT('', (-10., -6., -10.));
#663 = AXIS2_PLACEMENT_3D('', #662, #661, #660);
#664 = CIRCLE('', #663, 1.1);
#665 = DIRECTION('', (0., -1., 0.));
#666 = VECTOR('', #665, 1.);
#667 = CARTESIAN_POINT('', (-11.1, 6., -10.));
#668 = LINE('', #667, #666);
#669 = DIRECTION('', (0., -1., 0.));
#670 = VECTOR('', #669, 1.);
#671 = CARTESIAN_POINT('', (-8.9, 6., -10.));
#672 = LINE('', #671, #670);
#673 = DIRECTION('', (1., 0., -0.));
#674 = DIRECTION('', (0., -1., 0.));
#675 = CARTESIAN_POINT('', (10., 6., -10.));
#676 = AXIS2_PLACEMENT_3D('', #675, #674, #673);
#677 = CIRCLE('', #676, 1.1);
#678 = DIRECTION('', (1., -0., -0.));
#679 = DIRECTION('', (0., 1., -0.));
#680 = CARTESIAN_POINT('', (10., 6., -10.));
#681 = AXIS2_PLACEMENT_3D('', #680, #679, #678);
#682 = CIRCLE('', #681, 1.1);
#683 = DIRECTION('', (1., 0., 0.));
#684 = DIRECTION('', (0., -1., -0.));
#685 = CARTESIAN_POINT('', (10., -6., -10.));
#686 = AXIS2_PLACEMENT_3D('', #685, #684, #683);
#687 = CIRCLE('', #686, 1.1);
#688 = DIRECTION('', (1., 0., 0.));
#689 = DIRECTION('', (0., 1., -0.));
#690 = CARTESIAN_POINT('', (10., -6., -10.));
#691 = AXIS2_PLACEMENT_3D('', #690, #689, #688);
#692 = CIRCLE('', #691, 1.1);
#693 = DIRECTION('', (0., 0., -1.));
#694 = DIRECTION('', (0., 1., 0.));
#695 = CARTESIAN_POINT('', (10., 6., -10.));
#696 = AXIS2_PLACEMENT_3D('', #695, #694, #693);
#697 = CIRCLE('', #696, 1.1);
#698 = DIRECTION('', (-0., 0., 1.));
#699 = DIRECTION('', (0., -1., 0.));
#700 = CARTESIAN_POINT('', (10., 6., -10.));
#701 = AXIS2_PLACEMENT_3D('', #700, #699, #698);
#702 = CIRCLE('', #701, 1.1);
#703 = DIRECTION('', (-0.00000001, -0., -1.));
#704 = DIRECTION('', (-0., 1., -0.));
#705 = CARTESIAN_POINT('', (10., -6., -10.));
#706 = AXIS2_PLACEMENT_3D('', #705, #704, #703);
#707 = CIRCLE('', #706, 1.1);
#708 = DIRECTION('', (0.00000001, -0., 1.));
#709 = DIRECTION('', (0., -1., -0.));
#710 = CARTESIAN_POINT('', (10., -6., -10.));
#711 = AXIS2_PLACEMENT_3D('', #710, #709, #708);
#712 = CIRCLE('', #711, 1.1);
#713 = DIRECTION('', (0., -1., 0.));
#714 = VECTOR('', #713, 1.);
#715 = CARTESIAN_POINT('', (8.9, 6., -10.));
#716 = LINE('', #715, #714);
#717 = DIRECTION('', (0., -1., 0.));
#718 = VECTOR('', #717, 1.);
#719 = CARTESIAN_POINT('', (11.1, 6., -10.));
#720 = LINE('', #719, #718);
#721 = DIRECTION('', (1., 0., -0.));
#722 = DIRECTION('', (0., -1., 0.));
#723 = CARTESIAN_POINT('', (0., 6., 0.));
#724 = AXIS2_PLACEMENT_3D('', #723, #722, #721);
#725 = CIRCLE('', #724, 9.);
#726 = DIRECTION('', (1., 0., 0.));
#727 = DIRECTION('', (-0., 1., 0.));
#728 = CARTESIAN_POINT('', (0., 6., -0.));
#729 = AXIS2_PLACEMENT_3D('', #728, #727, #726);
#730 = CIRCLE('', #729, 9.);
#731 = DIRECTION('', (1., -0., -0.));
#732 = DIRECTION('', (-0., -1., -0.));
#733 = CARTESIAN_POINT('', (0., -6., 0.));
#734 = AXIS2_PLACEMENT_3D('', #733, #732, #731);
#735 = CIRCLE('', #734, 9.);
#736 = DIRECTION('', (1., 0., 0.));
#737 = DIRECTION('', (-0., 1., 0.));
#738 = CARTESIAN_POINT('', (-0., -6., -0.));
#739 = AXIS2_PLACEMENT_3D('', #738, #737, #736);
#740 = CIRCLE('', #739, 9.);
#741 = DIRECTION('', (0., 0., -1.));
#742 = DIRECTION('', (0., 1., 0.));
#743 = CARTESIAN_POINT('', (-0., 6., -0.));
#744 = AXIS2_PLACEMENT_3D('', #743, #742, #741);
#745 = CIRCLE('', #744, 9.);
#746 = DIRECTION('', (-0.00000001, 0., 1.));
#747 = DIRECTION('', (-0., -1., 0.));
#748 = CARTESIAN_POINT('', (0., 6., -0.));
#749 = AXIS2_PLACEMENT_3D('', #748, #747, #746);
#750 = CIRCLE('', #749, 9.);
#751 = DIRECTION('', (-0.00000001, -0., -1.));
#752 = DIRECTION('', (0., 1., -0.));
#753 = CARTESIAN_POINT('', (0., -6., -0.));
#754 = AXIS2_PLACEMENT_3D('', #753, #752, #751);
#755 = CIRCLE('', #754, 9.);
#756 = DIRECTION('', (-0., 0., 1.));
#757 = DIRECTION('', (-0., -1., 0.));
#758 = CARTESIAN_POINT('', (0., -6., -0.));
#759 = AXIS2_PLACEMENT_3D('', #758, #757, #756);
#760 = CIRCLE('', #759, 9.);
#761 = DIRECTION('', (0., -1., 0.));
#762 = VECTOR('', #761, 1.);
#763 = CARTESIAN_POINT('', (-9., 6., 0.));
#764 = LINE('', #763, #762);
#765 = DIRECTION('', (0., -1., 0.));
#766 = VECTOR('', #765, 1.);
#767 = CARTESIAN_POINT('', (9., 6., 0.));
#768 = LINE('', #767, #766);
#769 = DIRECTION('', (1., -0., 0.));
#770 = DIRECTION('', (-0., -1., -0.));
#771 = CARTESIAN_POINT('', (-10., 6., 21.));
#772 = AXIS2_PLACEMENT_3D('', #771, #770, #769);
#773 = CIRCLE('', #772, 1.6);
#774 = DIRECTION('', (1., -0., -0.));
#775 = DIRECTION('', (0., 1., -0.));
#776 = CARTESIAN_POINT('', (-10., 6., 21.));
#777 = AXIS2_PLACEMENT_3D('', #776, #775, #774);
#778 = CIRCLE('', #777, 1.6);
#779 = DIRECTION('', (1., -0., 0.));
#780 = DIRECTION('', (-0., -1., 0.));
#781 = CARTESIAN_POINT('', (-10., -6., 21.));
#782 = AXIS2_PLACEMENT_3D('', #781, #780, #779);
#783 = CIRCLE('', #782, 1.6);
#784 = DIRECTION('', (1., -0., 0.));
#785 = DIRECTION('', (0., 1., -0.));
#786 = CARTESIAN_POINT('', (-10., -6., 21.));
#787 = AXIS2_PLACEMENT_3D('', #786, #785, #784);
#788 = CIRCLE('', #787, 1.6);
#789 = DIRECTION('', (0.00000001, -0., -1.));
#790 = DIRECTION('', (-0., 1., -0.));
#791 = CARTESIAN_POINT('', (-10., 6., 21.));
#792 = AXIS2_PLACEMENT_3D('', #791, #790, #789);
#793 = CIRCLE('', #792, 1.6);
#794 = DIRECTION('', (-0., -0., 1.));
#795 = DIRECTION('', (-0., -1., -0.));
#796 = CARTESIAN_POINT('', (-10., 6., 21.));
#797 = AXIS2_PLACEMENT_3D('', #796, #795, #794);
#798 = CIRCLE('', #797, 1.6);
#799 = DIRECTION('', (-0., 0., -1.));
#800 = DIRECTION('', (0., 1., 0.));
#801 = CARTESIAN_POINT('', (-10., -6., 21.));
#802 = AXIS2_PLACEMENT_3D('', #801, #800, #799);
#803 = CIRCLE('', #802, 1.6);
#804 = DIRECTION('', (0.00000001, -0., 1.));
#805 = DIRECTION('', (0., -1., -0.));
#806 = CARTESIAN_POINT('', (-10., -6., 21.));
#807 = AXIS2_PLACEMENT_3D('', #806, #805, #804);
#808 = CIRCLE('', #807, 1.6);
#809 = DIRECTION('', (0., -1., 0.));
#810 = VECTOR('', #809, 1.);
#811 = CARTESIAN_POINT('', (-11.6, 6., 21.));
#812 = LINE('', #811, #810);
#813 = DIRECTION('', (0., -1., 0.));
#814 = VECTOR('', #813, 1.);
#815 = CARTESIAN_POINT('', (-8.4, 6., 21.));
#816 = LINE('', #815, #814);
#817 = DIRECTION('', (1., -0., 0.));
#818 = DIRECTION('', (-0., -1., -0.));
#819 = CARTESIAN_POINT('', (10., 6., 21.));
#820 = AXIS2_PLACEMENT_3D('', #819, #818, #817);
#821 = CIRCLE('', #820, 1.6);
#822 = DIRECTION('', (1., -0., -0.));
#823 = DIRECTION('', (0., 1., -0.));
#824 = CARTESIAN_POINT('', (10., 6., 21.));
#825 = AXIS2_PLACEMENT_3D('', #824, #823, #822);
#826 = CIRCLE('', #825, 1.6);
#827 = DIRECTION('', (1., 0., 0.));
#828 = DIRECTION('', (0., -1., 0.));
#829 = CARTESIAN_POINT('', (10., -6., 21.));
#830 = AXIS2_PLACEMENT_3D('', #829, #828, #827);
#831 = CIRCLE('', #830, 1.6);
#832 = DIRECTION('', (1., 0., 0.));
#833 = DIRECTION('', (-0., 1., 0.));
#834 = CARTESIAN_POINT('', (10., -6., 21.));
#835 = AXIS2_PLACEMENT_3D('', #834, #833, #832);
#836 = CIRCLE('', #835, 1.6);
#837 = DIRECTION('', (0., -0., -1.));
#838 = DIRECTION('', (-0., 1., -0.));
#839 = CARTESIAN_POINT('', (10., 6., 21.));
#840 = AXIS2_PLACEMENT_3D('', #839, #838, #837);
#841 = CIRCLE('', #840, 1.6);
#842 = DIRECTION('', (-0., -0., 1.));
#843 = DIRECTION('', (0., -1., -0.));
#844 = CARTESIAN_POINT('', (10., 6., 21.));
#845 = AXIS2_PLACEMENT_3D('', #844, #843, #842);
#846 = CIRCLE('', #845, 1.6);
#847 = DIRECTION('', (-0.00000001, 0., -1.));
#848 = DIRECTION('', (0., 1., 0.));
#849 = CARTESIAN_POINT('', (10., -6., 21.));
#850 = AXIS2_PLACEMENT_3D('', #849, #848, #847);
#851 = CIRCLE('', #850, 1.6);
#852 = DIRECTION('', (0.00000001, 0., 1.));
#853 = DIRECTION('', (0., -1., 0.));
#854 = CARTESIAN_POINT('', (10., -6., 21.));
#855 = AXIS2_PLACEMENT_3D('', #854, #853, #852);
#856 = CIRCLE('', #855, 1.6);
#857 = DIRECTION('', (0., -1., 0.));
#858 = VECTOR('', #857, 1.);
#859 = CARTESIAN_POINT('', (8.4, 6., 21.));
#860 = LINE('', #859, #858);
#861 = DIRECTION('', (0., -1., 0.));
#862 = VECTOR('', #861, 1.);
#863 = CARTESIAN_POINT('', (11.6, 6., 21.));
#864 = LINE('', #863, #862);
#865 = DIRECTION('', (0., 1., 0.));
#866 = DIRECTION('', (1., -0., -0.));
#867 = CARTESIAN_POINT('', (-15., 0., -0.));
#868 = AXIS2_PLACEMENT_3D('', #867, #866, #865);
#869 = CIRCLE('', #868, 1.6);
#870 = DIRECTION('', (0., -1., 0.));
#871 = DIRECTION('', (1., 0., 0.));
#872 = CARTESIAN_POINT('', (-15., 0., 0.));
#873 = AXIS2_PLACEMENT_3D('', #872, #871, #870);
#874 = CIRCLE('', #873, 1.6);
#875 = DIRECTION('', (-0., 1., 0.));
#876 = DIRECTION('', (1., 0., 0.));
#877 = CARTESIAN_POINT('', (-30., -0., -0.));
#878 = AXIS2_PLACEMENT_3D('', #877, #876, #875);
#879 = CIRCLE('', #878, 1.6);
#880 = DIRECTION('', (-0., 1., 0.));
#881 = DIRECTION('', (-1., -0., 0.));
#882 = CARTESIAN_POINT('', (-30., 0., -0.));
#883 = AXIS2_PLACEMENT_3D('', #882, #881, #880);
#884 = CIRCLE('', #883, 1.6);
#885 = DIRECTION('', (0., -0., -1.));
#886 = DIRECTION('', (-1., -0., -0.));
#887 = CARTESIAN_POINT('', (-30., -0., -0.));
#888 = AXIS2_PLACEMENT_3D('', #887, #886, #885);
#889 = CIRCLE('', #888, 1.6);
#890 = DIRECTION('', (0., 0., 1.));
#891 = DIRECTION('', (1., -0., -0.));
#892 = CARTESIAN_POINT('', (-30., 0., -0.));
#893 = AXIS2_PLACEMENT_3D('', #892, #891, #890);
#894 = CIRCLE('', #893, 1.6);
#895 = DIRECTION('', (1., -0., 0.));
#896 = VECTOR('', #895, 1.);
#897 = CARTESIAN_POINT('', (-30., -1.6, 0.));
#898 = LINE('', #897, #896);
#899 = DIRECTION('', (1., -0., 0.));
#900 = VECTOR('', #899, 1.);
#901 = CARTESIAN_POINT('', (-30., 1.6, 0.));
#902 = LINE('', #901, #900);
#903 = DIRECTION('', (0., 1., 0.));
#904 = DIRECTION('', (1., -0., -0.));
#905 = CARTESIAN_POINT('', (15., 0., -0.));
#906 = AXIS2_PLACEMENT_3D('', #905, #904, #903);
#907 = CIRCLE('', #906, 1.6);
#908 = DIRECTION('', (1., -0., 0.));
#909 = VECTOR('', #908, 1.);
#910 = CARTESIAN_POINT('', (15., 1.6, 0.));
#911 = LINE('', #910, #909);
#912 = DIRECTION('', (0., -1., 0.));
#913 = DIRECTION('', (1., 0., 0.));
#914 = CARTESIAN_POINT('', (15., 0., 0.));
#915 = AXIS2_PLACEMENT_3D('', #914, #913, #912);
#916 = CIRCLE('', #915, 1.6);
#917 = DIRECTION('', (1., -0., 0.));
#918 = VECTOR('', #917, 1.);
#919 = CARTESIAN_POINT('', (15., -1.6, 0.));
#920 = LINE('', #919, #918);
#921 = DIRECTION('', (0., 1., 0.));
#922 = DIRECTION('', (1., -0., -0.));
#923 = CARTESIAN_POINT('', (30., 0., -0.));
#924 = AXIS2_PLACEMENT_3D('', #923, #922, #921);
#925 = CIRCLE('', #924, 1.6);
#926 = DIRECTION('', (0., 1., 0.));
#927 = DIRECTION('', (-1., 0., -0.));
#928 = CARTESIAN_POINT('', (30., -0., -0.));
#929 = AXIS2_PLACEMENT_3D('', #928, #927, #926);
#930 = CIRCLE('', #929, 1.6);
#931 = DIRECTION('', (-0., -0., -1.));
#932 = DIRECTION('', (-1., 0., 0.));
#933 = CARTESIAN_POINT('', (30., 0., 0.));
#934 = AXIS2_PLACEMENT_3D('', #933, #932, #931);
#935 = CIRCLE('', #934, 1.6);
#936 = DIRECTION('', (0., 0., 1.));
#937 = DIRECTION('', (1., 0., -0.));
#938 = CARTESIAN_POINT('', (30., -0., 0.));
#939 = AXIS2_PLACEMENT_3D('', #938, #937, #936);
#940 = CIRCLE('', #939, 1.6);
#941 = EDGE_CURVE('', #6, #44, #236, .T.);
#942 = EDGE_CURVE('', #8, #42, #240, .T.);
#943 = EDGE_CURVE('', #6, #8, #244, .T.);
#944 = EDGE_CURVE('', #10, #12, #248, .T.);
#945 = EDGE_CURVE('', #10, #14, #252, .T.);
#946 = EDGE_CURVE('', #14, #16, #256, .T.);
#947 = EDGE_CURVE('', #12, #16, #260, .T.);
#948 = EDGE_CURVE('', #14, #6, #264, .T.);
#949 = EDGE_CURVE('', #16, #8, #268, .T.);
#950 = EDGE_CURVE('', #18, #22, #273, .T.);
#951 = EDGE_CURVE('', #18, #20, #277, .T.);
#952 = EDGE_CURVE('', #20, #28, #282, .T.);
#953 = EDGE_CURVE('', #22, #18, #287, .T.);
#954 = EDGE_CURVE('', #22, #24, #291, .T.);
#955 = EDGE_CURVE('', #20, #26, #296, .T.);
#956 = EDGE_CURVE('', #26, #24, #301, .T.);
#957 = EDGE_CURVE('', #28, #24, #306, .T.);
#958 = EDGE_CURVE('', #30, #32, #310, .T.);
#959 = EDGE_CURVE('', #36, #34, #314, .T.);
#960 = EDGE_CURVE('', #38, #40, #318, .T.);
#961 = EDGE_CURVE('', #42, #44, #322, .T.);
#962 = EDGE_CURVE('', #44, #90, #326, .T.);
#963 = EDGE_CURVE('', #42, #92, #330, .T.);
#964 = EDGE_CURVE('', #40, #56, #334, .T.);
#965 = EDGE_CURVE('', #38, #54, #338, .T.);
#966 = EDGE_CURVE('', #46, #48, #342, .T.);
#967 = EDGE_CURVE('', #52, #50, #346, .T.);
#968 = EDGE_CURVE('', #48, #66, #350, .T.);
#969 = EDGE_CURVE('', #50, #68, #354, .T.);
#970 = EDGE_CURVE('', #56, #54, #358, .T.);
#971 = EDGE_CURVE('', #56, #96, #362, .T.);
#972 = EDGE_CURVE('', #54, #94, #366, .T.);
#973 = EDGE_CURVE('', #12, #68, #370, .T.);
#974 = EDGE_CURVE('', #10, #66, #374, .T.);
#975 = EDGE_CURVE('', #58, #60, #378, .T.);
#976 = EDGE_CURVE('', #60, #62, #382, .T.);
#977 = EDGE_CURVE('', #64, #62, #386, .T.);
#978 = EDGE_CURVE('', #58, #64, #390, .T.);
#979 = EDGE_CURVE('', #60, #48, #394, .T.);
#980 = EDGE_CURVE('', #62, #50, #398, .T.);
#981 = EDGE_CURVE('', #70, #72, #402, .T.);
#982 = EDGE_CURVE('', #70, #58, #406, .T.);
#983 = EDGE_CURVE('', #72, #64, #410, .T.);
#984 = EDGE_CURVE('', #74, #84, #415, .T.);
#985 = EDGE_CURVE('', #74, #76, #419, .T.);
#986 = EDGE_CURVE('', #76, #80, #424, .T.);
#987 = EDGE_CURVE('', #80, #76, #429, .T.);
#988 = EDGE_CURVE('', #78, #80, #433, .T.);
#989 = EDGE_CURVE('', #78, #82, #438, .T.);
#990 = EDGE_CURVE('', #82, #74, #443, .T.);
#991 = EDGE_CURVE('', #84, #78, #448, .T.);
#992 = EDGE_CURVE('', #66, #68, #452, .T.);
#993 = EDGE_CURVE('', #86, #88, #456, .T.);
#994 = EDGE_CURVE('', #32, #86, #460, .T.);
#995 = EDGE_CURVE('', #34, #88, #464, .T.);
#996 = EDGE_CURVE('', #86, #90, #468, .T.);
#997 = EDGE_CURVE('', #88, #92, #472, .T.);
#998 = EDGE_CURVE('', #92, #90, #476, .T.);
#999 = EDGE_CURVE('', #90, #30, #480, .T.);
#1000 = EDGE_CURVE('', #92, #36, #484, .T.);
#1001 = EDGE_CURVE('', #66, #94, #488, .T.);
#1002 = EDGE_CURVE('', #94, #46, #492, .T.);
#1003 = EDGE_CURVE('', #68, #96, #496, .T.);
#1004 = EDGE_CURVE('', #96, #52, #500, .T.);
#1005 = EDGE_CURVE('', #96, #94, #504, .T.);
#1006 = EDGE_CURVE('', #96, #88, #508, .T.);
#1007 = EDGE_CURVE('', #94, #86, #512, .T.);
#1008 = EDGE_CURVE('', #92, #72, #516, .T.);
#1009 = EDGE_CURVE('', #86, #38, #520, .T.);
#1010 = EDGE_CURVE('', #88, #40, #524, .T.);
#1011 = EDGE_CURVE('', #90, #70, #528, .T.);
#1012 = EDGE_CURVE('', #98, #108, #533, .T.);
#1013 = EDGE_CURVE('', #98, #106, #538, .T.);
#1014 = EDGE_CURVE('', #102, #112, #543, .T.);
#1015 = EDGE_CURVE('', #102, #110, #548, .T.);
#1016 = EDGE_CURVE('', #106, #100, #553, .T.);
#1017 = EDGE_CURVE('', #108, #100, #558, .T.);
#1018 = EDGE_CURVE('', #110, #104, #563, .T.);
#1019 = EDGE_CURVE('', #112, #104, #568, .T.);
#1020 = EDGE_CURVE('', #100, #104, #572, .T.);
#1021 = EDGE_CURVE('', #98, #102, #576, .T.);
#1022 = EDGE_CURVE('', #114, #124, #581, .T.);
#1023 = EDGE_CURVE('', #114, #122, #586, .T.);
#1024 = EDGE_CURVE('', #118, #128, #591, .T.);
#1025 = EDGE_CURVE('', #118, #126, #596, .T.);
#1026 = EDGE_CURVE('', #122, #116, #601, .T.);
#1027 = EDGE_CURVE('', #124, #116, #606, .T.);
#1028 = EDGE_CURVE('', #126, #120, #611, .T.);
#1029 = EDGE_CURVE('', #128, #120, #616, .T.);
#1030 = EDGE_CURVE('', #116, #120, #620, .T.);
#1031 = EDGE_CURVE('', #114, #118, #624, .T.);
#1032 = EDGE_CURVE('', #130, #140, #629, .T.);
#1033 = EDGE_CURVE('', #130, #138, #634, .T.);
#1034 = EDGE_CURVE('', #134, #144, #639, .T.);
#1035 = EDGE_CURVE('', #134, #142, #644, .T.);
#1036 = EDGE_CURVE('', #138, #132, #649, .T.);
#1037 = EDGE_CURVE('', #140, #132, #654, .T.);
#1038 = EDGE_CURVE('', #142, #136, #659, .T.);
#1039 = EDGE_CURVE('', #144, #136, #664, .T.);
#1040 = EDGE_CURVE('', #132, #136, #668, .T.);
#1041 = EDGE_CURVE('', #130, #134, #672, .T.);
#1042 = EDGE_CURVE('', #146, #156, #677, .T.);
#1043 = EDGE_CURVE('', #146, #154, #682, .T.);
#1044 = EDGE_CURVE('', #150, #160, #687, .T.);
#1045 = EDGE_CURVE('', #150, #158, #692, .T.);
#1046 = EDGE_CURVE('', #154, #148, #697, .T.);
#1047 = EDGE_CURVE('', #156, #148, #702, .T.);
#1048 = EDGE_CURVE('', #158, #152, #707, .T.);
#1049 = EDGE_CURVE('', #160, #152, #712, .T.);
#1050 = EDGE_CURVE('', #148, #152, #716, .T.);
#1051 = EDGE_CURVE('', #146, #150, #720, .T.);
#1052 = EDGE_CURVE('', #162, #172, #725, .T.);
#1053 = EDGE_CURVE('', #162, #170, #730, .T.);
#1054 = EDGE_CURVE('', #166, #176, #735, .T.);
#1055 = EDGE_CURVE('', #166, #174, #740, .T.);
#1056 = EDGE_CURVE('', #170, #164, #745, .T.);
#1057 = EDGE_CURVE('', #172, #164, #750, .T.);
#1058 = EDGE_CURVE('', #174, #168, #755, .T.);
#1059 = EDGE_CURVE('', #176, #168, #760, .T.);
#1060 = EDGE_CURVE('', #164, #168, #764, .T.);
#1061 = EDGE_CURVE('', #162, #166, #768, .T.);
#1062 = EDGE_CURVE('', #178, #188, #773, .T.);
#1063 = EDGE_CURVE('', #178, #186, #778, .T.);
#1064 = EDGE_CURVE('', #182, #192, #783, .T.);
#1065 = EDGE_CURVE('', #182, #190, #788, .T.);
#1066 = EDGE_CURVE('', #186, #180, #793, .T.);
#1067 = EDGE_CURVE('', #188, #180, #798, .T.);
#1068 = EDGE_CURVE('', #190, #184, #803, .T.);
#1069 = EDGE_CURVE('', #192, #184, #808, .T.);
#1070 = EDGE_CURVE('', #180, #184, #812, .T.);
#1071 = EDGE_CURVE('', #178, #182, #816, .T.);
#1072 = EDGE_CURVE('', #194, #204, #821, .T.);
#1073 = EDGE_CURVE('', #194, #202, #826, .T.);
#1074 = EDGE_CURVE('', #198, #208, #831, .T.);
#1075 = EDGE_CURVE('', #198, #206, #836, .T.);
#1076 = EDGE_CURVE('', #202, #196, #841, .T.);
#1077 = EDGE_CURVE('', #204, #196, #846, .T.);
#1078 = EDGE_CURVE('', #206, #200, #851, .T.);
#1079 = EDGE_CURVE('', #208, #200, #856, .T.);
#1080 = EDGE_CURVE('', #196, #200, #860, .T.);
#1081 = EDGE_CURVE('', #194, #198, #864, .T.);
#1082 = EDGE_CURVE('', #210, #212, #869, .T.);
#1083 = EDGE_CURVE('', #212, #210, #874, .T.);
#1084 = EDGE_CURVE('', #214, #220, #879, .T.);
#1085 = EDGE_CURVE('', #214, #218, #884, .T.);
#1086 = EDGE_CURVE('', #218, #216, #889, .T.);
#1087 = EDGE_CURVE('', #220, #216, #894, .T.);
#1088 = EDGE_CURVE('', #216, #212, #898, .T.);
#1089 = EDGE_CURVE('', #214, #210, #902, .T.);
#1090 = EDGE_CURVE('', #222, #224, #907, .T.);
#1091 = EDGE_CURVE('', #222, #226, #911, .T.);
#1092 = EDGE_CURVE('', #224, #222, #916, .T.);
#1093 = EDGE_CURVE('', #224, #228, #920, .T.);
#1094 = EDGE_CURVE('', #226, #232, #925, .T.);
#1095 = EDGE_CURVE('', #226, #230, #930, .T.);
#1096 = EDGE_CURVE('', #230, #228, #935, .T.);
#1097 = EDGE_CURVE('', #232, #228, #940, .T.);
#1098 = CARTESIAN_POINT('', (-18., 0., 0.));
#1099 = DIRECTION('', (1., -0., -0.));
#1100 = AXIS2_PLACEMENT_3D('', #1098, #1099, $);
#1101 = PLANE('', #1100);
#1102 = CARTESIAN_POINT('', (0., -0., 25.));
#1103 = DIRECTION('', (0., 0., 1.));
#1104 = AXIS2_PLACEMENT_3D('', #1102, #1103, $);
#1105 = PLANE('', #1104);
#1106 = CARTESIAN_POINT('', (-26., 0., 0.));
#1107 = DIRECTION('', (-1., -0., -0.));
#1108 = AXIS2_PLACEMENT_3D('', #1106, #1107, $);
#1109 = PLANE('', #1108);
#1110 = CARTESIAN_POINT('', (-22., 0., -25.));
#1111 = DIRECTION('', (0., -0., -1.));
#1112 = AXIS2_PLACEMENT_3D('', #1110, #1111, $);
#1113 = PLANE('', #1112);
#1114 = CARTESIAN_POINT('', (-28., 0., 0.));
#1115 = DIRECTION('', (1., -0., 0.));
#1116 = DIRECTION('', (0., 1., -0.));
#1117 = AXIS2_PLACEMENT_3D('', #1114, #1115, #1116);
#1118 = CYLINDRICAL_SURFACE('', #1117, 4.);
#1119 = CARTESIAN_POINT('', (-30., 0., 0.));
#1120 = DIRECTION('', (1., -0., 0.));
#1121 = AXIS2_PLACEMENT_3D('', #1119, #1120, $);
#1122 = PLANE('', #1121);
#1123 = CARTESIAN_POINT('', (0., 0., 15.));
#1124 = DIRECTION('', (0., 0., 1.));
#1125 = AXIS2_PLACEMENT_3D('', #1123, #1124, $);
#1126 = PLANE('', #1125);
#1127 = CARTESIAN_POINT('', (0., 0., -15.));
#1128 = DIRECTION('', (0., -0., -1.));
#1129 = AXIS2_PLACEMENT_3D('', #1127, #1128, $);
#1130 = PLANE('', #1129);
#1131 = CARTESIAN_POINT('', (0., 6., 0.));
#1132 = DIRECTION('', (0., -1., 0.));
#1133 = AXIS2_PLACEMENT_3D('', #1131, #1132, $);
#1134 = PLANE('', #1133);
#1135 = CARTESIAN_POINT('', (0., -6., 0.));
#1136 = DIRECTION('', (0., -1., 0.));
#1137 = AXIS2_PLACEMENT_3D('', #1135, #1136, $);
#1138 = PLANE('', #1137);
#1139 = CARTESIAN_POINT('', (0., 0., 17.));
#1140 = DIRECTION('', (0., -0., -1.));
#1141 = AXIS2_PLACEMENT_3D('', #1139, #1140, $);
#1142 = PLANE('', #1141);
#1143 = CARTESIAN_POINT('', (0., 6., 0.));
#1144 = DIRECTION('', (0., -1., 0.));
#1145 = AXIS2_PLACEMENT_3D('', #1143, #1144, $);
#1146 = PLANE('', #1145);
#1147 = CARTESIAN_POINT('', (0., -6., 0.));
#1148 = DIRECTION('', (0., -1., 0.));
#1149 = AXIS2_PLACEMENT_3D('', #1147, #1148, $);
#1150 = PLANE('', #1149);
#1151 = CARTESIAN_POINT('', (26., 0., 0.));
#1152 = DIRECTION('', (1., -0., -0.));
#1153 = AXIS2_PLACEMENT_3D('', #1151, #1152, $);
#1154 = PLANE('', #1153);
#1155 = CARTESIAN_POINT('', (18., 0., 0.));
#1156 = DIRECTION('', (-1., -0., -0.));
#1157 = AXIS2_PLACEMENT_3D('', #1155, #1156, $);
#1158 = PLANE('', #1157);
#1159 = CARTESIAN_POINT('', (22., 0., -25.));
#1160 = DIRECTION('', (0., -0., -1.));
#1161 = AXIS2_PLACEMENT_3D('', #1159, #1160, $);
#1162 = PLANE('', #1161);
#1163 = CARTESIAN_POINT('', (0., 6., 0.));
#1164 = DIRECTION('', (0., -1., 0.));
#1165 = AXIS2_PLACEMENT_3D('', #1163, #1164, $);
#1166 = PLANE('', #1165);
#1167 = CARTESIAN_POINT('', (0., -6., 0.));
#1168 = DIRECTION('', (0., -1., 0.));
#1169 = AXIS2_PLACEMENT_3D('', #1167, #1168, $);
#1170 = PLANE('', #1169);
#1171 = CARTESIAN_POINT('', (28., 0., 0.));
#1172 = DIRECTION('', (1., -0., 0.));
#1173 = DIRECTION('', (0., 1., -0.));
#1174 = AXIS2_PLACEMENT_3D('', #1171, #1172, #1173);
#1175 = CYLINDRICAL_SURFACE('', #1174, 4.);
#1176 = CARTESIAN_POINT('', (30., 0., 0.));
#1177 = DIRECTION('', (1., -0., 0.));
#1178 = AXIS2_PLACEMENT_3D('', #1176, #1177, $);
#1179 = PLANE('', #1178);
#1180 = CARTESIAN_POINT('', (-10., -0., 10.));
#1181 = DIRECTION('', (0., -1., 0.));
#1182 = DIRECTION('', (1., 0., 0.));
#1183 = AXIS2_PLACEMENT_3D('', #1180, #1181, #1182);
#1184 = CYLINDRICAL_SURFACE('', #1183, 1.1);
#1185 = CARTESIAN_POINT('', (10., -0., 10.));
#1186 = DIRECTION('', (0., -1., 0.));
#1187 = DIRECTION('', (1., 0., 0.));
#1188 = AXIS2_PLACEMENT_3D('', #1185, #1186, #1187);
#1189 = CYLINDRICAL_SURFACE('', #1188, 1.1);
#1190 = CARTESIAN_POINT('', (-10., 0., -10.));
#1191 = DIRECTION('', (0., -1., 0.));
#1192 = DIRECTION('', (1., 0., 0.));
#1193 = AXIS2_PLACEMENT_3D('', #1190, #1191, #1192);
#1194 = CYLINDRICAL_SURFACE('', #1193, 1.1);
#1195 = CARTESIAN_POINT('', (10., -0., -10.));
#1196 = DIRECTION('', (0., -1., 0.));
#1197 = DIRECTION('', (1., 0., 0.));
#1198 = AXIS2_PLACEMENT_3D('', #1195, #1196, #1197);
#1199 = CYLINDRICAL_SURFACE('', #1198, 1.1);
#1200 = CARTESIAN_POINT('', (-0., -0., -0.));
#1201 = DIRECTION('', (0., -1., 0.));
#1202 = DIRECTION('', (1., 0., 0.));
#1203 = AXIS2_PLACEMENT_3D('', #1200, #1201, #1202);
#1204 = CYLINDRICAL_SURFACE('', #1203, 9.);
#1205 = CARTESIAN_POINT('', (-10., -0., 21.));
#1206 = DIRECTION('', (0., -1., 0.));
#1207 = DIRECTION('', (1., 0., 0.));
#1208 = AXIS2_PLACEMENT_3D('', #1205, #1206, #1207);
#1209 = CYLINDRICAL_SURFACE('', #1208, 1.6);
#1210 = CARTESIAN_POINT('', (10., -0., 21.));
#1211 = DIRECTION('', (0., -1., 0.));
#1212 = DIRECTION('', (1., 0., 0.));
#1213 = AXIS2_PLACEMENT_3D('', #1210, #1211, #1212);
#1214 = CYLINDRICAL_SURFACE('', #1213, 1.6);
#1215 = CARTESIAN_POINT('', (-23., 0., -0.));
#1216 = DIRECTION('', (1., -0., -0.));
#1217 = DIRECTION('', (0., 1., 0.));
#1218 = AXIS2_PLACEMENT_3D('', #1215, #1216, #1217);
#1219 = CYLINDRICAL_SURFACE('', #1218, 1.6);
#1220 = CARTESIAN_POINT('', (-15., 0., 0.));
#1221 = DIRECTION('', (1., -0., 0.));
#1222 = AXIS2_PLACEMENT_3D('', #1220, #1221, $);
#1223 = PLANE('', #1222);
#1224 = CARTESIAN_POINT('', (23., 0., -0.));
#1225 = DIRECTION('', (1., -0., -0.));
#1226 = DIRECTION('', (0., 1., 0.));
#1227 = AXIS2_PLACEMENT_3D('', #1224, #1225, #1226);
#1228 = CYLINDRICAL_SURFACE('', #1227, 1.6);
#1229 = CARTESIAN_POINT('', (15., 0., 0.));
#1230 = DIRECTION('', (1., -0., 0.));
#1231 = AXIS2_PLACEMENT_3D('', #1229, #1230, $);
#1232 = PLANE('', #1231);
#1233 = ORIENTED_EDGE('', *, *, #941, .T.);
#1234 = ORIENTED_EDGE('', *, *, #961, .F.);
#1235 = ORIENTED_EDGE('', *, *, #942, .F.);
#1236 = ORIENTED_EDGE('', *, *, #943, .F.);
#1237 = EDGE_LOOP('', (#1233, #1234, #1235, #1236));
#1238 = FACE_BOUND('', #1237, .T.);
#1239 = ADVANCED_FACE('', (#1238), #1101, .T.);
#1240 = ORIENTED_EDGE('', *, *, #944, .T.);
#1241 = ORIENTED_EDGE('', *, *, #973, .T.);
#1242 = ORIENTED_EDGE('', *, *, #992, .F.);
#1243 = ORIENTED_EDGE('', *, *, #974, .F.);
#1244 = EDGE_LOOP('', (#1240, #1241, #1242, #1243));
#1245 = FACE_BOUND('', #1244, .T.);
#1246 = ADVANCED_FACE('', (#1245), #1105, .T.);
#1247 = ORIENTED_EDGE('', *, *, #945, .T.);
#1248 = ORIENTED_EDGE('', *, *, #946, .T.);
#1249 = ORIENTED_EDGE('', *, *, #947, .F.);
#1250 = ORIENTED_EDGE('', *, *, #944, .F.);
#1251 = ORIENTED_EDGE('', *, *, #957, .T.);
#1252 = ORIENTED_EDGE('', *, *, #956, .F.);
#1253 = ORIENTED_EDGE('', *, *, #955, .F.);
#1254 = ORIENTED_EDGE('', *, *, #952, .T.);
#1255 = EDGE_LOOP('', (#1247, #1248, #1249, #1250));
#1256 = FACE_BOUND('', #1255, .T.);
#1257 = EDGE_LOOP('', (#1251, #1252, #1253, #1254));
#1258 = FACE_BOUND('', #1257, .T.);
#1259 = ADVANCED_FACE('', (#1256, #1258), #1109, .T.);
#1260 = ORIENTED_EDGE('', *, *, #948, .T.);
#1261 = ORIENTED_EDGE('', *, *, #943, .T.);
#1262 = ORIENTED_EDGE('', *, *, #949, .F.);
#1263 = ORIENTED_EDGE('', *, *, #946, .F.);
#1264 = EDGE_LOOP('', (#1260, #1261, #1262, #1263));
#1265 = FACE_BOUND('', #1264, .T.);
#1266 = ADVANCED_FACE('', (#1265), #1113, .T.);
#1267 = ORIENTED_EDGE('', *, *, #954, .T.);
#1268 = ORIENTED_EDGE('', *, *, #957, .F.);
#1269 = ORIENTED_EDGE('', *, *, #952, .F.);
#1270 = ORIENTED_EDGE('', *, *, #951, .F.);
#1271 = ORIENTED_EDGE('', *, *, #950, .T.);
#1272 = EDGE_LOOP('', (#1267, #1268, #1269, #1270, #1271));
#1273 = FACE_BOUND('', #1272, .T.);
#1274 = ADVANCED_FACE('', (#1273), #1118, .T.);
#1275 = ORIENTED_EDGE('', *, *, #953, .F.);
#1276 = ORIENTED_EDGE('', *, *, #950, .F.);
#1277 = ORIENTED_EDGE('', *, *, #1087, .T.);
#1278 = ORIENTED_EDGE('', *, *, #1086, .F.);
#1279 = ORIENTED_EDGE('', *, *, #1085, .F.);
#1280 = ORIENTED_EDGE('', *, *, #1084, .T.);
#1281 = EDGE_LOOP('', (#1275, #1276));
#1282 = FACE_BOUND('', #1281, .T.);
#1283 = EDGE_LOOP('', (#1277, #1278, #1279, #1280));
#1284 = FACE_BOUND('', #1283, .T.);
#1285 = ADVANCED_FACE('', (#1282, #1284), #1122, .F.);
#1286 = ORIENTED_EDGE('', *, *, #954, .F.);
#1287 = ORIENTED_EDGE('', *, *, #953, .T.);
#1288 = ORIENTED_EDGE('', *, *, #951, .T.);
#1289 = ORIENTED_EDGE('', *, *, #955, .T.);
#1290 = ORIENTED_EDGE('', *, *, #956, .T.);
#1291 = EDGE_LOOP('', (#1286, #1287, #1288, #1289, #1290));
#1292 = FACE_BOUND('', #1291, .T.);
#1293 = ADVANCED_FACE('', (#1292), #1118, .T.);
#1294 = ORIENTED_EDGE('', *, *, #962, .T.);
#1295 = ORIENTED_EDGE('', *, *, #998, .F.);
#1296 = ORIENTED_EDGE('', *, *, #963, .F.);
#1297 = ORIENTED_EDGE('', *, *, #961, .T.);
#1298 = EDGE_LOOP('', (#1294, #1295, #1296, #1297));
#1299 = FACE_BOUND('', #1298, .T.);
#1300 = ADVANCED_FACE('', (#1299), #1130, .T.);
#1301 = ORIENTED_EDGE('', *, *, #965, .T.);
#1302 = ORIENTED_EDGE('', *, *, #970, .F.);
#1303 = ORIENTED_EDGE('', *, *, #964, .F.);
#1304 = ORIENTED_EDGE('', *, *, #960, .F.);
#1305 = EDGE_LOOP('', (#1301, #1302, #1303, #1304));
#1306 = FACE_BOUND('', #1305, .T.);
#1307 = ADVANCED_FACE('', (#1306), #1101, .T.);
#1308 = ORIENTED_EDGE('', *, *, #974, .T.);
#1309 = ORIENTED_EDGE('', *, *, #1001, .T.);
#1310 = ORIENTED_EDGE('', *, *, #972, .F.);
#1311 = ORIENTED_EDGE('', *, *, #965, .F.);
#1312 = ORIENTED_EDGE('', *, *, #1009, .F.);
#1313 = ORIENTED_EDGE('', *, *, #996, .T.);
#1314 = ORIENTED_EDGE('', *, *, #962, .F.);
#1315 = ORIENTED_EDGE('', *, *, #941, .F.);
#1316 = ORIENTED_EDGE('', *, *, #948, .F.);
#1317 = ORIENTED_EDGE('', *, *, #945, .F.);
#1318 = ORIENTED_EDGE('', *, *, #1017, .T.);
#1319 = ORIENTED_EDGE('', *, *, #1016, .F.);
#1320 = ORIENTED_EDGE('', *, *, #1013, .F.);
#1321 = ORIENTED_EDGE('', *, *, #1012, .T.);
#1322 = ORIENTED_EDGE('', *, *, #1027, .T.);
#1323 = ORIENTED_EDGE('', *, *, #1026, .F.);
#1324 = ORIENTED_EDGE('', *, *, #1023, .F.);
#1325 = ORIENTED_EDGE('', *, *, #1022, .T.);
#1326 = ORIENTED_EDGE('', *, *, #1037, .T.);
#1327 = ORIENTED_EDGE('', *, *, #1036, .F.);
#1328 = ORIENTED_EDGE('', *, *, #1033, .F.);
#1329 = ORIENTED_EDGE('', *, *, #1032, .T.);
#1330 = ORIENTED_EDGE('', *, *, #1047, .T.);
#1331 = ORIENTED_EDGE('', *, *, #1046, .F.);
#1332 = ORIENTED_EDGE('', *, *, #1043, .F.);
#1333 = ORIENTED_EDGE('', *, *, #1042, .T.);
#1334 = ORIENTED_EDGE('', *, *, #1057, .T.);
#1335 = ORIENTED_EDGE('', *, *, #1056, .F.);
#1336 = ORIENTED_EDGE('', *, *, #1053, .F.);
#1337 = ORIENTED_EDGE('', *, *, #1052, .T.);
#1338 = ORIENTED_EDGE('', *, *, #1067, .T.);
#1339 = ORIENTED_EDGE('', *, *, #1066, .F.);
#1340 = ORIENTED_EDGE('', *, *, #1063, .F.);
#1341 = ORIENTED_EDGE('', *, *, #1062, .T.);
#1342 = ORIENTED_EDGE('', *, *, #1077, .T.);
#1343 = ORIENTED_EDGE('', *, *, #1076, .F.);
#1344 = ORIENTED_EDGE('', *, *, #1073, .F.);
#1345 = ORIENTED_EDGE('', *, *, #1072, .T.);
#1346 = EDGE_LOOP('', (#1308, #1309, #1310, #1311, #1312, #1313, #1314, #1315, #1316, #1317));
#1347 = FACE_BOUND('', #1346, .T.);
#1348 = EDGE_LOOP('', (#1318, #1319, #1320, #1321));
#1349 = FACE_BOUND('', #1348, .T.);
#1350 = EDGE_LOOP('', (#1322, #1323, #1324, #1325));
#1351 = FACE_BOUND('', #1350, .T.);
#1352 = EDGE_LOOP('', (#1326, #1327, #1328, #1329));
#1353 = FACE_BOUND('', #1352, .T.);
#1354 = EDGE_LOOP('', (#1330, #1331, #1332, #1333));
#1355 = FACE_BOUND('', #1354, .T.);
#1356 = EDGE_LOOP('', (#1334, #1335, #1336, #1337));
#1357 = FACE_BOUND('', #1356, .T.);
#1358 = EDGE_LOOP('', (#1338, #1339, #1340, #1341));
#1359 = FACE_BOUND('', #1358, .T.);
#1360 = EDGE_LOOP('', (#1342, #1343, #1344, #1345));
#1361 = FACE_BOUND('', #1360, .T.);
#1362 = ADVANCED_FACE('', (#1347, #1349, #1351, #1353, #1355, #1357, #1359, #1361), #1146, .F.);
#1363 = ORIENTED_EDGE('', *, *, #947, .T.);
#1364 = ORIENTED_EDGE('', *, *, #949, .T.);
#1365 = ORIENTED_EDGE('', *, *, #942, .T.);
#1366 = ORIENTED_EDGE('', *, *, #963, .T.);
#1367 = ORIENTED_EDGE('', *, *, #997, .F.);
#1368 = ORIENTED_EDGE('', *, *, #1010, .T.);
#1369 = ORIENTED_EDGE('', *, *, #964, .T.);
#1370 = ORIENTED_EDGE('', *, *, #971, .T.);
#1371 = ORIENTED_EDGE('', *, *, #1003, .F.);
#1372 = ORIENTED_EDGE('', *, *, #973, .F.);
#1373 = ORIENTED_EDGE('', *, *, #1014, .F.);
#1374 = ORIENTED_EDGE('', *, *, #1015, .T.);
#1375 = ORIENTED_EDGE('', *, *, #1018, .T.);
#1376 = ORIENTED_EDGE('', *, *, #1019, .F.);
#1377 = ORIENTED_EDGE('', *, *, #1024, .F.);
#1378 = ORIENTED_EDGE('', *, *, #1025, .T.);
#1379 = ORIENTED_EDGE('', *, *, #1028, .T.);
#1380 = ORIENTED_EDGE('', *, *, #1029, .F.);
#1381 = ORIENTED_EDGE('', *, *, #1034, .F.);
#1382 = ORIENTED_EDGE('', *, *, #1035, .T.);
#1383 = ORIENTED_EDGE('', *, *, #1038, .T.);
#1384 = ORIENTED_EDGE('', *, *, #1039, .F.);
#1385 = ORIENTED_EDGE('', *, *, #1044, .F.);
#1386 = ORIENTED_EDGE('', *, *, #1045, .T.);
#1387 = ORIENTED_EDGE('', *, *, #1048, .T.);
#1388 = ORIENTED_EDGE('', *, *, #1049, .F.);
#1389 = ORIENTED_EDGE('', *, *, #1054, .F.);
#1390 = ORIENTED_EDGE('', *, *, #1055, .T.);
#1391 = ORIENTED_EDGE('', *, *, #1058, .T.);
#1392 = ORIENTED_EDGE('', *, *, #1059, .F.);
#1393 = ORIENTED_EDGE('', *, *, #1064, .F.);
#1394 = ORIENTED_EDGE('', *, *, #1065, .T.);
#1395 = ORIENTED_EDGE('', *, *, #1068, .T.);
#1396 = ORIENTED_EDGE('', *, *, #1069, .F.);
#1397 = ORIENTED_EDGE('', *, *, #1074, .F.);
#1398 = ORIENTED_EDGE('', *, *, #1075, .T.);
#1399 = ORIENTED_EDGE('', *, *, #1078, .T.);
#1400 = ORIENTED_EDGE('', *, *, #1079, .F.);
#1401 = EDGE_LOOP('', (#1363, #1364, #1365, #1366, #1367, #1368, #1369, #1370, #1371, #1372));
#1402 = FACE_BOUND('', #1401, .T.);
#1403 = EDGE_LOOP('', (#1373, #1374, #1375, #1376));
#1404 = FACE_BOUND('', #1403, .T.);
#1405 = EDGE_LOOP('', (#1377, #1378, #1379, #1380));
#1406 = FACE_BOUND('', #1405, .T.);
#1407 = EDGE_LOOP('', (#1381, #1382, #1383, #1384));
#1408 = FACE_BOUND('', #1407, .T.);
#1409 = EDGE_LOOP('', (#1385, #1386, #1387, #1388));
#1410 = FACE_BOUND('', #1409, .T.);
#1411 = EDGE_LOOP('', (#1389, #1390, #1391, #1392));
#1412 = FACE_BOUND('', #1411, .T.);
#1413 = EDGE_LOOP('', (#1393, #1394, #1395, #1396));
#1414 = FACE_BOUND('', #1413, .T.);
#1415 = EDGE_LOOP('', (#1397, #1398, #1399, #1400));
#1416 = FACE_BOUND('', #1415, .T.);
#1417 = ADVANCED_FACE('', (#1402, #1404, #1406, #1408, #1410, #1412, #1414, #1416), #1150, .T.);
#1418 = ORIENTED_EDGE('', *, *, #972, .T.);
#1419 = ORIENTED_EDGE('', *, *, #1005, .F.);
#1420 = ORIENTED_EDGE('', *, *, #971, .F.);
#1421 = ORIENTED_EDGE('', *, *, #970, .T.);
#1422 = EDGE_LOOP('', (#1418, #1419, #1420, #1421));
#1423 = FACE_BOUND('', #1422, .T.);
#1424 = ADVANCED_FACE('', (#1423), #1142, .T.);
#1425 = ORIENTED_EDGE('', *, *, #975, .T.);
#1426 = ORIENTED_EDGE('', *, *, #976, .T.);
#1427 = ORIENTED_EDGE('', *, *, #977, .F.);
#1428 = ORIENTED_EDGE('', *, *, #978, .F.);
#1429 = ORIENTED_EDGE('', *, *, #984, .F.);
#1430 = ORIENTED_EDGE('', *, *, #990, .F.);
#1431 = ORIENTED_EDGE('', *, *, #989, .F.);
#1432 = ORIENTED_EDGE('', *, *, #991, .F.);
#1433 = EDGE_LOOP('', (#1425, #1426, #1427, #1428));
#1434 = FACE_BOUND('', #1433, .T.);
#1435 = EDGE_LOOP('', (#1429, #1430, #1431, #1432));
#1436 = FACE_BOUND('', #1435, .T.);
#1437 = ADVANCED_FACE('', (#1434, #1436), #1154, .T.);
#1438 = ORIENTED_EDGE('', *, *, #982, .T.);
#1439 = ORIENTED_EDGE('', *, *, #978, .T.);
#1440 = ORIENTED_EDGE('', *, *, #983, .F.);
#1441 = ORIENTED_EDGE('', *, *, #981, .F.);
#1442 = EDGE_LOOP('', (#1438, #1439, #1440, #1441));
#1443 = FACE_BOUND('', #1442, .T.);
#1444 = ADVANCED_FACE('', (#1443), #1162, .T.);
#1445 = ORIENTED_EDGE('', *, *, #982, .F.);
#1446 = ORIENTED_EDGE('', *, *, #1011, .F.);
#1447 = ORIENTED_EDGE('', *, *, #999, .T.);
#1448 = ORIENTED_EDGE('', *, *, #958, .T.);
#1449 = ORIENTED_EDGE('', *, *, #994, .T.);
#1450 = ORIENTED_EDGE('', *, *, #1007, .F.);
#1451 = ORIENTED_EDGE('', *, *, #1002, .T.);
#1452 = ORIENTED_EDGE('', *, *, #966, .T.);
#1453 = ORIENTED_EDGE('', *, *, #979, .F.);
#1454 = ORIENTED_EDGE('', *, *, #975, .F.);
#1455 = EDGE_LOOP('', (#1445, #1446, #1447, #1448, #1449, #1450, #1451, #1452, #1453, #1454));
#1456 = FACE_BOUND('', #1455, .T.);
#1457 = ADVANCED_FACE('', (#1456), #1166, .F.);
#1458 = ORIENTED_EDGE('', *, *, #977, .T.);
#1459 = ORIENTED_EDGE('', *, *, #980, .T.);
#1460 = ORIENTED_EDGE('', *, *, #967, .F.);
#1461 = ORIENTED_EDGE('', *, *, #1004, .F.);
#1462 = ORIENTED_EDGE('', *, *, #1006, .T.);
#1463 = ORIENTED_EDGE('', *, *, #995, .F.);
#1464 = ORIENTED_EDGE('', *, *, #959, .F.);
#1465 = ORIENTED_EDGE('', *, *, #1000, .F.);
#1466 = ORIENTED_EDGE('', *, *, #1008, .T.);
#1467 = ORIENTED_EDGE('', *, *, #983, .T.);
#1468 = EDGE_LOOP('', (#1458, #1459, #1460, #1461, #1462, #1463, #1464, #1465, #1466, #1467));
#1469 = FACE_BOUND('', #1468, .T.);
#1470 = ADVANCED_FACE('', (#1469), #1170, .T.);
#1471 = ORIENTED_EDGE('', *, *, #988, .T.);
#1472 = ORIENTED_EDGE('', *, *, #986, .F.);
#1473 = ORIENTED_EDGE('', *, *, #985, .F.);
#1474 = ORIENTED_EDGE('', *, *, #984, .T.);
#1475 = ORIENTED_EDGE('', *, *, #991, .T.);
#1476 = EDGE_LOOP('', (#1471, #1472, #1473, #1474, #1475));
#1477 = FACE_BOUND('', #1476, .T.);
#1478 = ADVANCED_FACE('', (#1477), #1175, .T.);
#1479 = ORIENTED_EDGE('', *, *, #986, .T.);
#1480 = ORIENTED_EDGE('', *, *, #987, .T.);
#1481 = ORIENTED_EDGE('', *, *, #1094, .F.);
#1482 = ORIENTED_EDGE('', *, *, #1095, .T.);
#1483 = ORIENTED_EDGE('', *, *, #1096, .T.);
#1484 = ORIENTED_EDGE('', *, *, #1097, .F.);
#1485 = EDGE_LOOP('', (#1479, #1480));
#1486 = FACE_BOUND('', #1485, .T.);
#1487 = EDGE_LOOP('', (#1481, #1482, #1483, #1484));
#1488 = FACE_BOUND('', #1487, .T.);
#1489 = ADVANCED_FACE('', (#1486, #1488), #1179, .T.);
#1490 = ORIENTED_EDGE('', *, *, #988, .F.);
#1491 = ORIENTED_EDGE('', *, *, #989, .T.);
#1492 = ORIENTED_EDGE('', *, *, #990, .T.);
#1493 = ORIENTED_EDGE('', *, *, #985, .T.);
#1494 = ORIENTED_EDGE('', *, *, #987, .F.);
#1495 = EDGE_LOOP('', (#1490, #1491, #1492, #1493, #1494));
#1496 = FACE_BOUND('', #1495, .T.);
#1497 = ADVANCED_FACE('', (#1496), #1175, .T.);
#1498 = ORIENTED_EDGE('', *, *, #968, .T.);
#1499 = ORIENTED_EDGE('', *, *, #992, .T.);
#1500 = ORIENTED_EDGE('', *, *, #969, .F.);
#1501 = ORIENTED_EDGE('', *, *, #980, .F.);
#1502 = ORIENTED_EDGE('', *, *, #976, .F.);
#1503 = ORIENTED_EDGE('', *, *, #979, .T.);
#1504 = EDGE_LOOP('', (#1498, #1499, #1500, #1501, #1502, #1503));
#1505 = FACE_BOUND('', #1504, .T.);
#1506 = ADVANCED_FACE('', (#1505), #1105, .T.);
#1507 = ORIENTED_EDGE('', *, *, #1001, .F.);
#1508 = ORIENTED_EDGE('', *, *, #968, .F.);
#1509 = ORIENTED_EDGE('', *, *, #966, .F.);
#1510 = ORIENTED_EDGE('', *, *, #1002, .F.);
#1511 = EDGE_LOOP('', (#1507, #1508, #1509, #1510));
#1512 = FACE_BOUND('', #1511, .T.);
#1513 = ADVANCED_FACE('', (#1512), #1146, .F.);
#1514 = ORIENTED_EDGE('', *, *, #1007, .T.);
#1515 = ORIENTED_EDGE('', *, *, #993, .T.);
#1516 = ORIENTED_EDGE('', *, *, #1006, .F.);
#1517 = ORIENTED_EDGE('', *, *, #1005, .T.);
#1518 = EDGE_LOOP('', (#1514, #1515, #1516, #1517));
#1519 = FACE_BOUND('', #1518, .T.);
#1520 = ADVANCED_FACE('', (#1519), #1158, .T.);
#1521 = ORIENTED_EDGE('', *, *, #1011, .T.);
#1522 = ORIENTED_EDGE('', *, *, #981, .T.);
#1523 = ORIENTED_EDGE('', *, *, #1008, .F.);
#1524 = ORIENTED_EDGE('', *, *, #998, .T.);
#1525 = EDGE_LOOP('', (#1521, #1522, #1523, #1524));
#1526 = FACE_BOUND('', #1525, .T.);
#1527 = ADVANCED_FACE('', (#1526), #1158, .T.);
#1528 = ORIENTED_EDGE('', *, *, #996, .F.);
#1529 = ORIENTED_EDGE('', *, *, #994, .F.);
#1530 = ORIENTED_EDGE('', *, *, #958, .F.);
#1531 = ORIENTED_EDGE('', *, *, #999, .F.);
#1532 = EDGE_LOOP('', (#1528, #1529, #1530, #1531));
#1533 = FACE_BOUND('', #1532, .T.);
#1534 = ADVANCED_FACE('', (#1533), #1134, .F.);
#1535 = ORIENTED_EDGE('', *, *, #1000, .T.);
#1536 = ORIENTED_EDGE('', *, *, #959, .T.);
#1537 = ORIENTED_EDGE('', *, *, #995, .T.);
#1538 = ORIENTED_EDGE('', *, *, #997, .T.);
#1539 = EDGE_LOOP('', (#1535, #1536, #1537, #1538));
#1540 = FACE_BOUND('', #1539, .T.);
#1541 = ADVANCED_FACE('', (#1540), #1138, .T.);
#1542 = ORIENTED_EDGE('', *, *, #1009, .T.);
#1543 = ORIENTED_EDGE('', *, *, #960, .T.);
#1544 = ORIENTED_EDGE('', *, *, #1010, .F.);
#1545 = ORIENTED_EDGE('', *, *, #993, .F.);
#1546 = EDGE_LOOP('', (#1542, #1543, #1544, #1545));
#1547 = FACE_BOUND('', #1546, .T.);
#1548 = ADVANCED_FACE('', (#1547), #1126, .T.);
#1549 = ORIENTED_EDGE('', *, *, #1004, .T.);
#1550 = ORIENTED_EDGE('', *, *, #967, .T.);
#1551 = ORIENTED_EDGE('', *, *, #969, .T.);
#1552 = ORIENTED_EDGE('', *, *, #1003, .T.);
#1553 = EDGE_LOOP('', (#1549, #1550, #1551, #1552));
#1554 = FACE_BOUND('', #1553, .T.);
#1555 = ADVANCED_FACE('', (#1554), #1150, .T.);
#1556 = ORIENTED_EDGE('', *, *, #1017, .F.);
#1557 = ORIENTED_EDGE('', *, *, #1012, .F.);
#1558 = ORIENTED_EDGE('', *, *, #1021, .T.);
#1559 = ORIENTED_EDGE('', *, *, #1014, .T.);
#1560 = ORIENTED_EDGE('', *, *, #1019, .T.);
#1561 = ORIENTED_EDGE('', *, *, #1020, .F.);
#1562 = EDGE_LOOP('', (#1556, #1557, #1558, #1559, #1560, #1561));
#1563 = FACE_BOUND('', #1562, .T.);
#1564 = ADVANCED_FACE('', (#1563), #1184, .F.);
#1565 = ORIENTED_EDGE('', *, *, #1018, .F.);
#1566 = ORIENTED_EDGE('', *, *, #1015, .F.);
#1567 = ORIENTED_EDGE('', *, *, #1021, .F.);
#1568 = ORIENTED_EDGE('', *, *, #1013, .T.);
#1569 = ORIENTED_EDGE('', *, *, #1016, .T.);
#1570 = ORIENTED_EDGE('', *, *, #1020, .T.);
#1571 = EDGE_LOOP('', (#1565, #1566, #1567, #1568, #1569, #1570));
#1572 = FACE_BOUND('', #1571, .T.);
#1573 = ADVANCED_FACE('', (#1572), #1184, .F.);
#1574 = ORIENTED_EDGE('', *, *, #1027, .F.);
#1575 = ORIENTED_EDGE('', *, *, #1022, .F.);
#1576 = ORIENTED_EDGE('', *, *, #1031, .T.);
#1577 = ORIENTED_EDGE('', *, *, #1024, .T.);
#1578 = ORIENTED_EDGE('', *, *, #1029, .T.);
#1579 = ORIENTED_EDGE('', *, *, #1030, .F.);
#1580 = EDGE_LOOP('', (#1574, #1575, #1576, #1577, #1578, #1579));
#1581 = FACE_BOUND('', #1580, .T.);
#1582 = ADVANCED_FACE('', (#1581), #1189, .F.);
#1583 = ORIENTED_EDGE('', *, *, #1028, .F.);
#1584 = ORIENTED_EDGE('', *, *, #1025, .F.);
#1585 = ORIENTED_EDGE('', *, *, #1031, .F.);
#1586 = ORIENTED_EDGE('', *, *, #1023, .T.);
#1587 = ORIENTED_EDGE('', *, *, #1026, .T.);
#1588 = ORIENTED_EDGE('', *, *, #1030, .T.);
#1589 = EDGE_LOOP('', (#1583, #1584, #1585, #1586, #1587, #1588));
#1590 = FACE_BOUND('', #1589, .T.);
#1591 = ADVANCED_FACE('', (#1590), #1189, .F.);
#1592 = ORIENTED_EDGE('', *, *, #1037, .F.);
#1593 = ORIENTED_EDGE('', *, *, #1032, .F.);
#1594 = ORIENTED_EDGE('', *, *, #1041, .T.);
#1595 = ORIENTED_EDGE('', *, *, #1034, .T.);
#1596 = ORIENTED_EDGE('', *, *, #1039, .T.);
#1597 = ORIENTED_EDGE('', *, *, #1040, .F.);
#1598 = EDGE_LOOP('', (#1592, #1593, #1594, #1595, #1596, #1597));
#1599 = FACE_BOUND('', #1598, .T.);
#1600 = ADVANCED_FACE('', (#1599), #1194, .F.);
#1601 = ORIENTED_EDGE('', *, *, #1038, .F.);
#1602 = ORIENTED_EDGE('', *, *, #1035, .F.);
#1603 = ORIENTED_EDGE('', *, *, #1041, .F.);
#1604 = ORIENTED_EDGE('', *, *, #1033, .T.);
#1605 = ORIENTED_EDGE('', *, *, #1036, .T.);
#1606 = ORIENTED_EDGE('', *, *, #1040, .T.);
#1607 = EDGE_LOOP('', (#1601, #1602, #1603, #1604, #1605, #1606));
#1608 = FACE_BOUND('', #1607, .T.);
#1609 = ADVANCED_FACE('', (#1608), #1194, .F.);
#1610 = ORIENTED_EDGE('', *, *, #1047, .F.);
#1611 = ORIENTED_EDGE('', *, *, #1042, .F.);
#1612 = ORIENTED_EDGE('', *, *, #1051, .T.);
#1613 = ORIENTED_EDGE('', *, *, #1044, .T.);
#1614 = ORIENTED_EDGE('', *, *, #1049, .T.);
#1615 = ORIENTED_EDGE('', *, *, #1050, .F.);
#1616 = EDGE_LOOP('', (#1610, #1611, #1612, #1613, #1614, #1615));
#1617 = FACE_BOUND('', #1616, .T.);
#1618 = ADVANCED_FACE('', (#1617), #1199, .F.);
#1619 = ORIENTED_EDGE('', *, *, #1048, .F.);
#1620 = ORIENTED_EDGE('', *, *, #1045, .F.);
#1621 = ORIENTED_EDGE('', *, *, #1051, .F.);
#1622 = ORIENTED_EDGE('', *, *, #1043, .T.);
#1623 = ORIENTED_EDGE('', *, *, #1046, .T.);
#1624 = ORIENTED_EDGE('', *, *, #1050, .T.);
#1625 = EDGE_LOOP('', (#1619, #1620, #1621, #1622, #1623, #1624));
#1626 = FACE_BOUND('', #1625, .T.);
#1627 = ADVANCED_FACE('', (#1626), #1199, .F.);
#1628 = ORIENTED_EDGE('', *, *, #1057, .F.);
#1629 = ORIENTED_EDGE('', *, *, #1052, .F.);
#1630 = ORIENTED_EDGE('', *, *, #1061, .T.);
#1631 = ORIENTED_EDGE('', *, *, #1054, .T.);
#1632 = ORIENTED_EDGE('', *, *, #1059, .T.);
#1633 = ORIENTED_EDGE('', *, *, #1060, .F.);
#1634 = EDGE_LOOP('', (#1628, #1629, #1630, #1631, #1632, #1633));
#1635 = FACE_BOUND('', #1634, .T.);
#1636 = ADVANCED_FACE('', (#1635), #1204, .F.);
#1637 = ORIENTED_EDGE('', *, *, #1058, .F.);
#1638 = ORIENTED_EDGE('', *, *, #1055, .F.);
#1639 = ORIENTED_EDGE('', *, *, #1061, .F.);
#1640 = ORIENTED_EDGE('', *, *, #1053, .T.);
#1641 = ORIENTED_EDGE('', *, *, #1056, .T.);
#1642 = ORIENTED_EDGE('', *, *, #1060, .T.);
#1643 = EDGE_LOOP('', (#1637, #1638, #1639, #1640, #1641, #1642));
#1644 = FACE_BOUND('', #1643, .T.);
#1645 = ADVANCED_FACE('', (#1644), #1204, .F.);
#1646 = ORIENTED_EDGE('', *, *, #1067, .F.);
#1647 = ORIENTED_EDGE('', *, *, #1062, .F.);
#1648 = ORIENTED_EDGE('', *, *, #1071, .T.);
#1649 = ORIENTED_EDGE('', *, *, #1064, .T.);
#1650 = ORIENTED_EDGE('', *, *, #1069, .T.);
#1651 = ORIENTED_EDGE('', *, *, #1070, .F.);
#1652 = EDGE_LOOP('', (#1646, #1647, #1648, #1649, #1650, #1651));
#1653 = FACE_BOUND('', #1652, .T.);
#1654 = ADVANCED_FACE('', (#1653), #1209, .F.);
#1655 = ORIENTED_EDGE('', *, *, #1068, .F.);
#1656 = ORIENTED_EDGE('', *, *, #1065, .F.);
#1657 = ORIENTED_EDGE('', *, *, #1071, .F.);
#1658 = ORIENTED_EDGE('', *, *, #1063, .T.);
#1659 = ORIENTED_EDGE('', *, *, #1066, .T.);
#1660 = ORIENTED_EDGE('', *, *, #1070, .T.);
#1661 = EDGE_LOOP('', (#1655, #1656, #1657, #1658, #1659, #1660));
#1662 = FACE_BOUND('', #1661, .T.);
#1663 = ADVANCED_FACE('', (#1662), #1209, .F.);
#1664 = ORIENTED_EDGE('', *, *, #1077, .F.);
#1665 = ORIENTED_EDGE('', *, *, #1072, .F.);
#1666 = ORIENTED_EDGE('', *, *, #1081, .T.);
#1667 = ORIENTED_EDGE('', *, *, #1074, .T.);
#1668 = ORIENTED_EDGE('', *, *, #1079, .T.);
#1669 = ORIENTED_EDGE('', *, *, #1080, .F.);
#1670 = EDGE_LOOP('', (#1664, #1665, #1666, #1667, #1668, #1669));
#1671 = FACE_BOUND('', #1670, .T.);
#1672 = ADVANCED_FACE('', (#1671), #1214, .F.);
#1673 = ORIENTED_EDGE('', *, *, #1078, .F.);
#1674 = ORIENTED_EDGE('', *, *, #1075, .F.);
#1675 = ORIENTED_EDGE('', *, *, #1081, .F.);
#1676 = ORIENTED_EDGE('', *, *, #1073, .T.);
#1677 = ORIENTED_EDGE('', *, *, #1076, .T.);
#1678 = ORIENTED_EDGE('', *, *, #1080, .T.);
#1679 = EDGE_LOOP('', (#1673, #1674, #1675, #1676, #1677, #1678));
#1680 = FACE_BOUND('', #1679, .T.);
#1681 = ADVANCED_FACE('', (#1680), #1214, .F.);
#1682 = ORIENTED_EDGE('', *, *, #1083, .F.);
#1683 = ORIENTED_EDGE('', *, *, #1082, .F.);
#1684 = EDGE_LOOP('', (#1682, #1683));
#1685 = FACE_BOUND('', #1684, .T.);
#1686 = ADVANCED_FACE('', (#1685), #1223, .F.);
#1687 = ORIENTED_EDGE('', *, *, #1083, .T.);
#1688 = ORIENTED_EDGE('', *, *, #1089, .F.);
#1689 = ORIENTED_EDGE('', *, *, #1085, .T.);
#1690 = ORIENTED_EDGE('', *, *, #1086, .T.);
#1691 = ORIENTED_EDGE('', *, *, #1088, .T.);
#1692 = EDGE_LOOP('', (#1687, #1688, #1689, #1690, #1691));
#1693 = FACE_BOUND('', #1692, .T.);
#1694 = ADVANCED_FACE('', (#1693), #1219, .F.);
#1695 = ORIENTED_EDGE('', *, *, #1087, .F.);
#1696 = ORIENTED_EDGE('', *, *, #1084, .F.);
#1697 = ORIENTED_EDGE('', *, *, #1089, .T.);
#1698 = ORIENTED_EDGE('', *, *, #1082, .T.);
#1699 = ORIENTED_EDGE('', *, *, #1088, .F.);
#1700 = EDGE_LOOP('', (#1695, #1696, #1697, #1698, #1699));
#1701 = FACE_BOUND('', #1700, .T.);
#1702 = ADVANCED_FACE('', (#1701), #1219, .F.);
#1703 = ORIENTED_EDGE('', *, *, #1090, .F.);
#1704 = ORIENTED_EDGE('', *, *, #1091, .T.);
#1705 = ORIENTED_EDGE('', *, *, #1094, .T.);
#1706 = ORIENTED_EDGE('', *, *, #1097, .T.);
#1707 = ORIENTED_EDGE('', *, *, #1093, .F.);
#1708 = EDGE_LOOP('', (#1703, #1704, #1705, #1706, #1707));
#1709 = FACE_BOUND('', #1708, .T.);
#1710 = ADVANCED_FACE('', (#1709), #1228, .F.);
#1711 = ORIENTED_EDGE('', *, *, #1090, .T.);
#1712 = ORIENTED_EDGE('', *, *, #1092, .T.);
#1713 = EDGE_LOOP('', (#1711, #1712));
#1714 = FACE_BOUND('', #1713, .T.);
#1715 = ADVANCED_FACE('', (#1714), #1232, .T.);
#1716 = ORIENTED_EDGE('', *, *, #1096, .F.);
#1717 = ORIENTED_EDGE('', *, *, #1095, .F.);
#1718 = ORIENTED_EDGE('', *, *, #1091, .F.);
#1719 = ORIENTED_EDGE('', *, *, #1092, .F.);
#1720 = ORIENTED_EDGE('', *, *, #1093, .T.);
#1721 = EDGE_LOOP('', (#1716, #1717, #1718, #1719, #1720));
#1722 = FACE_BOUND('', #1721, .T.);
#1723 = ADVANCED_FACE('', (#1722), #1228, .F.);
#1724 = CLOSED_SHELL('', (#1239, #1246, #1259, #1266, #1274, #1285, #1293, #1300, #1307, #1362, #1417, #1424, #1437, #1444, #1457, #1470, #1478, #1489, #1497, #1506, #1513, #1520, #1527, #1534, #1541, #1548, #1555, #1564, #1573, #1582, #1591, #1600, #1609, #1618, #1627, #1636, #1645, #1654, #1663, #1672, #1681, #1686, #1694, #1702, #1710, #1715, #1723));
#1725 = MANIFOLD_SOLID_BREP('', #1724);
#1726 = APPLICATION_CONTEXT('configuration controlled 3D design of mechanical parts and assemblies');
#1727 = PRODUCT_DEFINITION_CONTEXT('part definition', #1726, 'design');
#1728 = PRODUCT_CONTEXT('', #1726, 'mechanical');
#1729 = PRODUCT('UNIDENTIFIED_PRODUCT', '', $, (#1728));
#1730 = PRODUCT_DEFINITION_FORMATION('', $, #1729);
#1731 = PRODUCT_DEFINITION('design', $, #1730, #1727);
#1732 = PRODUCT_DEFINITION_SHAPE('', '', #1731);
#1733 = ADVANCED_BREP_SHAPE_REPRESENTATION('', (#1725), #4);
#1734 = SHAPE_DEFINITION_REPRESENTATION(#1732, #1733);
#1735 = COLOUR_RGB('', 0.16470589, 0.19215687, 0.21960784);
#1736 = FILL_AREA_STYLE_COLOUR('', #1735);
#1737 = FILL_AREA_STYLE('', (#1736));
#1738 = SURFACE_STYLE_FILL_AREA(#1737);
#1739 = SURFACE_SIDE_STYLE('', (#1738));
#1740 = SURFACE_STYLE_USAGE(.BOTH., #1739);
#1741 = PRESENTATION_STYLE_ASSIGNMENT((#1740));
#1742 = STYLED_ITEM('', (#1741), #1725);
#1743 = MECHANICAL_DESIGN_GEOMETRIC_PRESENTATION_REPRESENTATION('', (#1742), #4);
ENDSEC;
END-ISO-10303-21;
