ISO-10303-21;
HEADER;
FILE_DESCRIPTION(('zoo.dev export'), '2;1');
FILE_NAME('output.step', '2026-06-10T16:55:45.171876737+00:00', (''), (''), 'zoo.dev beta', 'zoo.dev', '');
FILE_SCHEMA(('AP242_MANAGED_MODEL_BASED_3D_ENGINEERING_MIM_LF'));
ENDSEC;
DATA;
#1 = (
  LENGTH_UNIT()
  NAMED_UNIT(*)
  SI_UNIT(.MILLI., .METRE.)
);
#2 = (
  NAMED_UNIT(*)
  PLANE_ANGLE_UNIT()
  SI_UNIT($, .RADIAN.)
);
#3 = UNCERTAINTY_MEASURE_WITH_UNIT(LENGTH_MEASURE(0.01), #1, 'DISTANCE_ACCURACY_VALUE', $);
#4 = (
  GEOMETRIC_REPRESENTATION_CONTEXT(3)
  GLOBAL_UNCERTAINTY_ASSIGNED_CONTEXT((#3))
  GLOBAL_UNIT_ASSIGNED_CONTEXT((#1, #2))
  REPRESENTATION_CONTEXT('3D', '3D context')
);
#5 = CARTESIAN_POINT('', (0., 10., 0.));
#6 = VERTEX_POINT('', #5);
#7 = CARTESIAN_POINT('', (220., 10., 0.));
#8 = VERTEX_POINT('', #7);
#9 = CARTESIAN_POINT('', (0., -10., 0.));
#10 = VERTEX_POINT('', #9);
#11 = CARTESIAN_POINT('', (220., -10., 0.));
#12 = VERTEX_POINT('', #11);
#13 = CARTESIAN_POINT('', (0., 20., 17.));
#14 = VERTEX_POINT('', #13);
#15 = CARTESIAN_POINT('', (0., -20., 17.));
#16 = VERTEX_POINT('', #15);
#17 = CARTESIAN_POINT('', (8., -20., 17.));
#18 = VERTEX_POINT('', #17);
#19 = CARTESIAN_POINT('', (8., 20., 17.));
#20 = VERTEX_POINT('', #19);
#21 = CARTESIAN_POINT('', (0., -25., 12.));
#22 = VERTEX_POINT('', #21);
#23 = CARTESIAN_POINT('', (8., -25., 12.));
#24 = VERTEX_POINT('', #23);
#25 = CARTESIAN_POINT('', (0., -25., -12.));
#26 = VERTEX_POINT('', #25);
#27 = CARTESIAN_POINT('', (8., -25., -12.));
#28 = VERTEX_POINT('', #27);
#29 = CARTESIAN_POINT('', (0., -20., -17.));
#30 = VERTEX_POINT('', #29);
#31 = CARTESIAN_POINT('', (8., -20., -17.));
#32 = VERTEX_POINT('', #31);
#33 = CARTESIAN_POINT('', (0., 20., -17.));
#34 = VERTEX_POINT('', #33);
#35 = CARTESIAN_POINT('', (8., 20., -17.));
#36 = VERTEX_POINT('', #35);
#37 = CARTESIAN_POINT('', (0., 25., -12.));
#38 = VERTEX_POINT('', #37);
#39 = CARTESIAN_POINT('', (8., 25., -12.));
#40 = VERTEX_POINT('', #39);
#41 = CARTESIAN_POINT('', (0., 25., 12.));
#42 = VERTEX_POINT('', #41);
#43 = CARTESIAN_POINT('', (8., 25., 12.));
#44 = VERTEX_POINT('', #43);
#45 = CARTESIAN_POINT('', (0., -0., -10.));
#46 = VERTEX_POINT('', #45);
#47 = CARTESIAN_POINT('', (0., 0., 10.));
#48 = VERTEX_POINT('', #47);
#49 = CARTESIAN_POINT('', (214., 22., 0.));
#50 = VERTEX_POINT('', #49);
#51 = CARTESIAN_POINT('', (220., 22., 0.));
#52 = VERTEX_POINT('', #51);
#53 = CARTESIAN_POINT('', (214., -22., 0.));
#54 = VERTEX_POINT('', #53);
#55 = CARTESIAN_POINT('', (220., -22., 0.));
#56 = VERTEX_POINT('', #55);
#57 = CARTESIAN_POINT('', (220., -0., -10.));
#58 = VERTEX_POINT('', #57);
#59 = CARTESIAN_POINT('', (220., 0., 10.));
#60 = VERTEX_POINT('', #59);
#61 = CARTESIAN_POINT('', (0., 13., 0.));
#62 = VERTEX_POINT('', #61);
#63 = CARTESIAN_POINT('', (16., 13., 0.));
#64 = VERTEX_POINT('', #63);
#65 = CARTESIAN_POINT('', (0., -13., 0.));
#66 = VERTEX_POINT('', #65);
#67 = CARTESIAN_POINT('', (16., -13., 0.));
#68 = VERTEX_POINT('', #67);
#69 = CARTESIAN_POINT('', (8., 13., 0.));
#70 = VERTEX_POINT('', #69);
#71 = CARTESIAN_POINT('', (8., -13., 0.));
#72 = VERTEX_POINT('', #71);
#73 = CARTESIAN_POINT('', (16., 10., -0.));
#74 = VERTEX_POINT('', #73);
#75 = CARTESIAN_POINT('', (16., -10., 0.));
#76 = VERTEX_POINT('', #75);
#77 = CARTESIAN_POINT('', (0., -0., -13.));
#78 = VERTEX_POINT('', #77);
#79 = CARTESIAN_POINT('', (0., 0., 13.));
#80 = VERTEX_POINT('', #79);
#81 = CARTESIAN_POINT('', (8., -0.00000002, -13.));
#82 = VERTEX_POINT('', #81);
#83 = CARTESIAN_POINT('', (8., 0.00000002, 13.));
#84 = VERTEX_POINT('', #83);
#85 = CARTESIAN_POINT('', (16., 0.00000099, -10.));
#86 = VERTEX_POINT('', #85);
#87 = CARTESIAN_POINT('', (16., -0.00000099, 10.));
#88 = VERTEX_POINT('', #87);
#89 = CARTESIAN_POINT('', (204., 13., 0.));
#90 = VERTEX_POINT('', #89);
#91 = CARTESIAN_POINT('', (220., 13., 0.));
#92 = VERTEX_POINT('', #91);
#93 = CARTESIAN_POINT('', (204., -13., 0.));
#94 = VERTEX_POINT('', #93);
#95 = CARTESIAN_POINT('', (220., -13., 0.));
#96 = VERTEX_POINT('', #95);
#97 = CARTESIAN_POINT('', (214., 13., 0.));
#98 = VERTEX_POINT('', #97);
#99 = CARTESIAN_POINT('', (214., -13., 0.));
#100 = VERTEX_POINT('', #99);
#101 = CARTESIAN_POINT('', (204., 10., 0.));
#102 = VERTEX_POINT('', #101);
#103 = CARTESIAN_POINT('', (204., -10., 0.));
#104 = VERTEX_POINT('', #103);
#105 = CARTESIAN_POINT('', (214., -0.00000001, -13.));
#106 = VERTEX_POINT('', #105);
#107 = CARTESIAN_POINT('', (214., 0.00000001, 13.));
#108 = VERTEX_POINT('', #107);
#109 = CARTESIAN_POINT('', (220., -0., -13.));
#110 = VERTEX_POINT('', #109);
#111 = CARTESIAN_POINT('', (220., 0., 13.));
#112 = VERTEX_POINT('', #111);
#113 = CARTESIAN_POINT('', (204., 0.00000099, 10.));
#114 = VERTEX_POINT('', #113);
#115 = CARTESIAN_POINT('', (204., -0.00000099, -10.));
#116 = VERTEX_POINT('', #115);
#117 = CARTESIAN_POINT('', (0., 7., 0.));
#118 = VERTEX_POINT('', #117);
#119 = CARTESIAN_POINT('', (0., -7., 0.));
#120 = VERTEX_POINT('', #119);
#121 = CARTESIAN_POINT('', (220., 7., 0.));
#122 = VERTEX_POINT('', #121);
#123 = CARTESIAN_POINT('', (220., -7., 0.));
#124 = VERTEX_POINT('', #123);
#125 = CARTESIAN_POINT('', (-0., 0.00000001, -7.));
#126 = VERTEX_POINT('', #125);
#127 = CARTESIAN_POINT('', (-0., -0.00000001, 7.));
#128 = VERTEX_POINT('', #127);
#129 = CARTESIAN_POINT('', (220., 0.00000003, -7.));
#130 = VERTEX_POINT('', #129);
#131 = CARTESIAN_POINT('', (220., -0.00000003, 7.));
#132 = VERTEX_POINT('', #131);
#133 = CARTESIAN_POINT('', (-0., 18.1, 10.));
#134 = VERTEX_POINT('', #133);
#135 = CARTESIAN_POINT('', (0., 13.9, 10.));
#136 = VERTEX_POINT('', #135);
#137 = CARTESIAN_POINT('', (8., 18.1, 10.));
#138 = VERTEX_POINT('', #137);
#139 = CARTESIAN_POINT('', (8., 13.9, 10.));
#140 = VERTEX_POINT('', #139);
#141 = CARTESIAN_POINT('', (0., 16.00000002, 7.9));
#142 = VERTEX_POINT('', #141);
#143 = CARTESIAN_POINT('', (-0., 15.99999997, 12.1));
#144 = VERTEX_POINT('', #143);
#145 = CARTESIAN_POINT('', (8., 15.99999997, 7.9));
#146 = VERTEX_POINT('', #145);
#147 = CARTESIAN_POINT('', (8., 16.00000003, 12.1));
#148 = VERTEX_POINT('', #147);
#149 = CARTESIAN_POINT('', (-0., -13.9, 10.));
#150 = VERTEX_POINT('', #149);
#151 = CARTESIAN_POINT('', (0., -18.1, 10.));
#152 = VERTEX_POINT('', #151);
#153 = CARTESIAN_POINT('', (8., -13.9, 10.));
#154 = VERTEX_POINT('', #153);
#155 = CARTESIAN_POINT('', (8., -18.1, 10.));
#156 = VERTEX_POINT('', #155);
#157 = CARTESIAN_POINT('', (-0., -15.99999998, 7.9));
#158 = VERTEX_POINT('', #157);
#159 = CARTESIAN_POINT('', (0., -16.00000002, 12.1));
#160 = VERTEX_POINT('', #159);
#161 = CARTESIAN_POINT('', (8., -16.00000003, 7.9));
#162 = VERTEX_POINT('', #161);
#163 = CARTESIAN_POINT('', (8., -15.99999996, 12.1));
#164 = VERTEX_POINT('', #163);
#165 = CARTESIAN_POINT('', (-0., -13.9, -10.));
#166 = VERTEX_POINT('', #165);
#167 = CARTESIAN_POINT('', (0., -18.1, -10.));
#168 = VERTEX_POINT('', #167);
#169 = CARTESIAN_POINT('', (8., -13.9, -10.));
#170 = VERTEX_POINT('', #169);
#171 = CARTESIAN_POINT('', (8., -18.1, -10.));
#172 = VERTEX_POINT('', #171);
#173 = CARTESIAN_POINT('', (0., -15.99999997, -12.1));
#174 = VERTEX_POINT('', #173);
#175 = CARTESIAN_POINT('', (0., -16.00000002, -7.9));
#176 = VERTEX_POINT('', #175);
#177 = CARTESIAN_POINT('', (8., -16.00000003, -12.1));
#178 = VERTEX_POINT('', #177);
#179 = CARTESIAN_POINT('', (8., -15.99999997, -7.9));
#180 = VERTEX_POINT('', #179);
#181 = CARTESIAN_POINT('', (-0., 18.1, -10.));
#182 = VERTEX_POINT('', #181);
#183 = CARTESIAN_POINT('', (0., 13.9, -10.));
#184 = VERTEX_POINT('', #183);
#185 = CARTESIAN_POINT('', (8., 18.1, -10.));
#186 = VERTEX_POINT('', #185);
#187 = CARTESIAN_POINT('', (8., 13.9, -10.));
#188 = VERTEX_POINT('', #187);
#189 = CARTESIAN_POINT('', (-0., 16.00000002, -12.1));
#190 = VERTEX_POINT('', #189);
#191 = CARTESIAN_POINT('', (-0., 15.99999998, -7.9));
#192 = VERTEX_POINT('', #191);
#193 = CARTESIAN_POINT('', (8., 15.99999996, -12.1));
#194 = VERTEX_POINT('', #193);
#195 = CARTESIAN_POINT('', (8., 16.00000003, -7.9));
#196 = VERTEX_POINT('', #195);
#197 = CARTESIAN_POINT('', (213., 9.6, 8.));
#198 = VERTEX_POINT('', #197);
#199 = CARTESIAN_POINT('', (213., 6.4, 8.));
#200 = VERTEX_POINT('', #199);
#201 = CARTESIAN_POINT('', (220., 7.65160943, 6.43839057));
#202 = VERTEX_POINT('', #201);
#203 = CARTESIAN_POINT('', (220., 6.43839057, 7.65160943));
#204 = VERTEX_POINT('', #203);
#205 = CARTESIAN_POINT('', (220., 9.6, 8.));
#206 = VERTEX_POINT('', #205);
#207 = CARTESIAN_POINT('', (220., 6.4, 8.));
#208 = VERTEX_POINT('', #207);
#209 = CARTESIAN_POINT('', (213., -6.4, 8.));
#210 = VERTEX_POINT('', #209);
#211 = CARTESIAN_POINT('', (213., -9.6, 8.));
#212 = VERTEX_POINT('', #211);
#213 = CARTESIAN_POINT('', (220., -6.43839057, 7.65160943));
#214 = VERTEX_POINT('', #213);
#215 = CARTESIAN_POINT('', (220., -7.65160943, 6.43839057));
#216 = VERTEX_POINT('', #215);
#217 = CARTESIAN_POINT('', (220., -6.4, 8.));
#218 = VERTEX_POINT('', #217);
#219 = CARTESIAN_POINT('', (220., -9.6, 8.));
#220 = VERTEX_POINT('', #219);
#221 = CARTESIAN_POINT('', (213., -6.4, -8.));
#222 = VERTEX_POINT('', #221);
#223 = CARTESIAN_POINT('', (213., -9.6, -8.));
#224 = VERTEX_POINT('', #223);
#225 = CARTESIAN_POINT('', (220., -6.43839057, -7.65160943));
#226 = VERTEX_POINT('', #225);
#227 = CARTESIAN_POINT('', (220., -7.65160943, -6.43839057));
#228 = VERTEX_POINT('', #227);
#229 = CARTESIAN_POINT('', (220., -6.4, -8.));
#230 = VERTEX_POINT('', #229);
#231 = CARTESIAN_POINT('', (220., -9.6, -8.));
#232 = VERTEX_POINT('', #231);
#233 = CARTESIAN_POINT('', (213., 9.6, -8.));
#234 = VERTEX_POINT('', #233);
#235 = CARTESIAN_POINT('', (213., 6.4, -8.));
#236 = VERTEX_POINT('', #235);
#237 = CARTESIAN_POINT('', (220., 7.65160943, -6.43839057));
#238 = VERTEX_POINT('', #237);
#239 = CARTESIAN_POINT('', (220., 6.43839057, -7.65160943));
#240 = VERTEX_POINT('', #239);
#241 = CARTESIAN_POINT('', (220., 9.6, -8.));
#242 = VERTEX_POINT('', #241);
#243 = CARTESIAN_POINT('', (220., 6.4, -8.));
#244 = VERTEX_POINT('', #243);
#245 = DIRECTION('', (0., 1., -0.));
#246 = DIRECTION('', (1., -0., 0.));
#247 = CARTESIAN_POINT('', (0., 0., 0.));
#248 = AXIS2_PLACEMENT_3D('', #247, #246, #245);
#249 = CIRCLE('', #248, 10.);
#250 = DIRECTION('', (-0., 1., -0.));
#251 = DIRECTION('', (1., 0., 0.));
#252 = CARTESIAN_POINT('', (220., 0., 0.));
#253 = AXIS2_PLACEMENT_3D('', #252, #251, #250);
#254 = CIRCLE('', #253, 10.);
#255 = DIRECTION('', (0., -1., 0.));
#256 = VECTOR('', #255, 1.);
#257 = CARTESIAN_POINT('', (0., 20., 17.));
#258 = LINE('', #257, #256);
#259 = DIRECTION('', (1., -0., 0.));
#260 = VECTOR('', #259, 1.);
#261 = CARTESIAN_POINT('', (0., -20., 17.));
#262 = LINE('', #261, #260);
#263 = DIRECTION('', (0., -1., 0.));
#264 = VECTOR('', #263, 1.);
#265 = CARTESIAN_POINT('', (8., 20., 17.));
#266 = LINE('', #265, #264);
#267 = DIRECTION('', (1., -0., 0.));
#268 = VECTOR('', #267, 1.);
#269 = CARTESIAN_POINT('', (0., 20., 17.));
#270 = LINE('', #269, #268);
#271 = DIRECTION('', (0., -0.70710678, -0.70710678));
#272 = VECTOR('', #271, 1.);
#273 = CARTESIAN_POINT('', (0., -20., 17.));
#274 = LINE('', #273, #272);
#275 = DIRECTION('', (1., -0., 0.));
#276 = VECTOR('', #275, 1.);
#277 = CARTESIAN_POINT('', (0., -25., 12.));
#278 = LINE('', #277, #276);
#279 = DIRECTION('', (0., -0.70710678, -0.70710678));
#280 = VECTOR('', #279, 1.);
#281 = CARTESIAN_POINT('', (8., -20., 17.));
#282 = LINE('', #281, #280);
#283 = DIRECTION('', (0., -0., -1.));
#284 = VECTOR('', #283, 1.);
#285 = CARTESIAN_POINT('', (0., -25., 12.));
#286 = LINE('', #285, #284);
#287 = DIRECTION('', (1., -0., 0.));
#288 = VECTOR('', #287, 1.);
#289 = CARTESIAN_POINT('', (0., -25., -12.));
#290 = LINE('', #289, #288);
#291 = DIRECTION('', (0., -0., -1.));
#292 = VECTOR('', #291, 1.);
#293 = CARTESIAN_POINT('', (8., -25., 12.));
#294 = LINE('', #293, #292);
#295 = DIRECTION('', (0., 0.70710678, -0.70710678));
#296 = VECTOR('', #295, 1.);
#297 = CARTESIAN_POINT('', (0., -25., -12.));
#298 = LINE('', #297, #296);
#299 = DIRECTION('', (1., -0., 0.));
#300 = VECTOR('', #299, 1.);
#301 = CARTESIAN_POINT('', (0., -20., -17.));
#302 = LINE('', #301, #300);
#303 = DIRECTION('', (0., 0.70710678, -0.70710678));
#304 = VECTOR('', #303, 1.);
#305 = CARTESIAN_POINT('', (8., -25., -12.));
#306 = LINE('', #305, #304);
#307 = DIRECTION('', (0., 1., 0.));
#308 = VECTOR('', #307, 1.);
#309 = CARTESIAN_POINT('', (0., -20., -17.));
#310 = LINE('', #309, #308);
#311 = DIRECTION('', (1., -0., 0.));
#312 = VECTOR('', #311, 1.);
#313 = CARTESIAN_POINT('', (0., 20., -17.));
#314 = LINE('', #313, #312);
#315 = DIRECTION('', (0., 1., 0.));
#316 = VECTOR('', #315, 1.);
#317 = CARTESIAN_POINT('', (8., -20., -17.));
#318 = LINE('', #317, #316);
#319 = DIRECTION('', (0., 0.70710678, 0.70710678));
#320 = VECTOR('', #319, 1.);
#321 = CARTESIAN_POINT('', (0., 20., -17.));
#322 = LINE('', #321, #320);
#323 = DIRECTION('', (1., -0., 0.));
#324 = VECTOR('', #323, 1.);
#325 = CARTESIAN_POINT('', (0., 25., -12.));
#326 = LINE('', #325, #324);
#327 = DIRECTION('', (0., 0.70710678, 0.70710678));
#328 = VECTOR('', #327, 1.);
#329 = CARTESIAN_POINT('', (8., 20., -17.));
#330 = LINE('', #329, #328);
#331 = DIRECTION('', (0., -0., 1.));
#332 = VECTOR('', #331, 1.);
#333 = CARTESIAN_POINT('', (0., 25., -12.));
#334 = LINE('', #333, #332);
#335 = DIRECTION('', (1., -0., 0.));
#336 = VECTOR('', #335, 1.);
#337 = CARTESIAN_POINT('', (0., 25., 12.));
#338 = LINE('', #337, #336);
#339 = DIRECTION('', (0., -0., 1.));
#340 = VECTOR('', #339, 1.);
#341 = CARTESIAN_POINT('', (8., 25., -12.));
#342 = LINE('', #341, #340);
#343 = DIRECTION('', (0., -0.70710678, 0.70710678));
#344 = VECTOR('', #343, 1.);
#345 = CARTESIAN_POINT('', (0., 25., 12.));
#346 = LINE('', #345, #344);
#347 = DIRECTION('', (0., -0.70710678, 0.70710678));
#348 = VECTOR('', #347, 1.);
#349 = CARTESIAN_POINT('', (8., 25., 12.));
#350 = LINE('', #349, #348);
#351 = DIRECTION('', (0., -1., 0.));
#352 = DIRECTION('', (1., 0., 0.));
#353 = CARTESIAN_POINT('', (0., -0., -0.));
#354 = AXIS2_PLACEMENT_3D('', #353, #352, #351);
#355 = CIRCLE('', #354, 10.);
#356 = DIRECTION('', (0., -0., -1.));
#357 = DIRECTION('', (1., -0., 0.));
#358 = CARTESIAN_POINT('', (0., -0., 0.));
#359 = AXIS2_PLACEMENT_3D('', #358, #357, #356);
#360 = CIRCLE('', #359, 10.);
#361 = DIRECTION('', (0., 0., 1.));
#362 = DIRECTION('', (1., -0., -0.));
#363 = CARTESIAN_POINT('', (0., -0., 0.));
#364 = AXIS2_PLACEMENT_3D('', #363, #362, #361);
#365 = CIRCLE('', #364, 10.);
#366 = DIRECTION('', (0., 1., 0.));
#367 = DIRECTION('', (1., -0., -0.));
#368 = CARTESIAN_POINT('', (214., 0., -0.));
#369 = AXIS2_PLACEMENT_3D('', #368, #367, #366);
#370 = CIRCLE('', #369, 22.);
#371 = DIRECTION('', (1., -0., 0.));
#372 = VECTOR('', #371, 1.);
#373 = CARTESIAN_POINT('', (214., 22., 0.));
#374 = LINE('', #373, #372);
#375 = DIRECTION('', (0., 1., 0.));
#376 = DIRECTION('', (1., -0., -0.));
#377 = CARTESIAN_POINT('', (220., 0., -0.));
#378 = AXIS2_PLACEMENT_3D('', #377, #376, #375);
#379 = CIRCLE('', #378, 22.);
#380 = DIRECTION('', (0., -1., 0.));
#381 = DIRECTION('', (1., 0., 0.));
#382 = CARTESIAN_POINT('', (214., -0., 0.));
#383 = AXIS2_PLACEMENT_3D('', #382, #381, #380);
#384 = CIRCLE('', #383, 22.);
#385 = DIRECTION('', (0., -1., 0.));
#386 = DIRECTION('', (1., 0., 0.));
#387 = CARTESIAN_POINT('', (220., -0., 0.));
#388 = AXIS2_PLACEMENT_3D('', #387, #386, #385);
#389 = CIRCLE('', #388, 22.);
#390 = DIRECTION('', (1., -0., 0.));
#391 = VECTOR('', #390, 1.);
#392 = CARTESIAN_POINT('', (214., -22., 0.));
#393 = LINE('', #392, #391);
#394 = DIRECTION('', (-0., 1., 0.));
#395 = DIRECTION('', (-1., -0., 0.));
#396 = CARTESIAN_POINT('', (220., 0., -0.));
#397 = AXIS2_PLACEMENT_3D('', #396, #395, #394);
#398 = CIRCLE('', #397, 10.);
#399 = DIRECTION('', (0., 0., -1.));
#400 = DIRECTION('', (-1., -0., -0.));
#401 = CARTESIAN_POINT('', (220., -0., -0.));
#402 = AXIS2_PLACEMENT_3D('', #401, #400, #399);
#403 = CIRCLE('', #402, 10.);
#404 = DIRECTION('', (-0., -0., 1.));
#405 = DIRECTION('', (1., -0., 0.));
#406 = CARTESIAN_POINT('', (220., 0., -0.));
#407 = AXIS2_PLACEMENT_3D('', #406, #405, #404);
#408 = CIRCLE('', #407, 10.);
#409 = DIRECTION('', (0., 1., 0.));
#410 = DIRECTION('', (1., -0., -0.));
#411 = CARTESIAN_POINT('', (0., -0., -0.));
#412 = AXIS2_PLACEMENT_3D('', #411, #410, #409);
#413 = CIRCLE('', #412, 13.);
#414 = DIRECTION('', (0., 1., 0.));
#415 = DIRECTION('', (1., -0., -0.));
#416 = CARTESIAN_POINT('', (16., -0., -0.));
#417 = AXIS2_PLACEMENT_3D('', #416, #415, #414);
#418 = CIRCLE('', #417, 13.);
#419 = DIRECTION('', (0., -1., 0.));
#420 = DIRECTION('', (1., 0., 0.));
#421 = CARTESIAN_POINT('', (16., 0., -0.));
#422 = AXIS2_PLACEMENT_3D('', #421, #420, #419);
#423 = CIRCLE('', #422, 13.);
#424 = DIRECTION('', (0., -1., 0.));
#425 = DIRECTION('', (1., 0., 0.));
#426 = CARTESIAN_POINT('', (0., -0., -0.));
#427 = AXIS2_PLACEMENT_3D('', #426, #425, #424);
#428 = CIRCLE('', #427, 13.);
#429 = DIRECTION('', (0., 1., 0.));
#430 = DIRECTION('', (1., -0., -0.));
#431 = CARTESIAN_POINT('', (8., -0., -0.));
#432 = AXIS2_PLACEMENT_3D('', #431, #430, #429);
#433 = CIRCLE('', #432, 13.);
#434 = DIRECTION('', (0., 1., 0.));
#435 = DIRECTION('', (-1., 0., 0.));
#436 = CARTESIAN_POINT('', (8., 0., -0.));
#437 = AXIS2_PLACEMENT_3D('', #436, #435, #434);
#438 = CIRCLE('', #437, 13.);
#439 = DIRECTION('', (0., 1., -0.));
#440 = DIRECTION('', (1., -0., -0.));
#441 = CARTESIAN_POINT('', (16., 0., 0.));
#442 = AXIS2_PLACEMENT_3D('', #441, #440, #439);
#443 = CIRCLE('', #442, 10.);
#444 = DIRECTION('', (-0., 1., 0.));
#445 = DIRECTION('', (-1., -0., 0.));
#446 = CARTESIAN_POINT('', (16., 0., -0.));
#447 = AXIS2_PLACEMENT_3D('', #446, #445, #444);
#448 = CIRCLE('', #447, 10.);
#449 = DIRECTION('', (0., -0., -1.));
#450 = DIRECTION('', (1., -0., 0.));
#451 = CARTESIAN_POINT('', (0., -0., 0.));
#452 = AXIS2_PLACEMENT_3D('', #451, #450, #449);
#453 = CIRCLE('', #452, 13.);
#454 = DIRECTION('', (0., 0., 1.));
#455 = DIRECTION('', (1., -0., -0.));
#456 = CARTESIAN_POINT('', (0., -0., 0.));
#457 = AXIS2_PLACEMENT_3D('', #456, #455, #454);
#458 = CIRCLE('', #457, 13.);
#459 = DIRECTION('', (0., -0., -1.));
#460 = DIRECTION('', (-1., -0., -0.));
#461 = CARTESIAN_POINT('', (8., 0., 0.));
#462 = AXIS2_PLACEMENT_3D('', #461, #460, #459);
#463 = CIRCLE('', #462, 13.);
#464 = DIRECTION('', (-0., 0., 1.));
#465 = DIRECTION('', (1., -0., 0.));
#466 = CARTESIAN_POINT('', (8., -0., 0.));
#467 = AXIS2_PLACEMENT_3D('', #466, #465, #464);
#468 = CIRCLE('', #467, 13.);
#469 = DIRECTION('', (0., 0.0000001, -1.));
#470 = DIRECTION('', (-1., -0., -0.));
#471 = CARTESIAN_POINT('', (16., -0., -0.));
#472 = AXIS2_PLACEMENT_3D('', #471, #470, #469);
#473 = CIRCLE('', #472, 10.);
#474 = DIRECTION('', (-0., -0.0000001, 1.));
#475 = DIRECTION('', (1., -0., 0.));
#476 = CARTESIAN_POINT('', (16., -0., 0.));
#477 = AXIS2_PLACEMENT_3D('', #476, #475, #474);
#478 = CIRCLE('', #477, 10.);
#479 = DIRECTION('', (1., -0., -0.));
#480 = VECTOR('', #479, 1.);
#481 = CARTESIAN_POINT('', (16., -10., 0.));
#482 = LINE('', #481, #480);
#483 = DIRECTION('', (1., -0., 0.));
#484 = VECTOR('', #483, 1.);
#485 = CARTESIAN_POINT('', (16., 10., 0.));
#486 = LINE('', #485, #484);
#487 = DIRECTION('', (1., -0., 0.));
#488 = VECTOR('', #487, 1.);
#489 = CARTESIAN_POINT('', (8., -13., 0.));
#490 = LINE('', #489, #488);
#491 = DIRECTION('', (1., -0., 0.));
#492 = VECTOR('', #491, 1.);
#493 = CARTESIAN_POINT('', (8., 13., 0.));
#494 = LINE('', #493, #492);
#495 = DIRECTION('', (0., 1., 0.));
#496 = DIRECTION('', (1., -0., -0.));
#497 = CARTESIAN_POINT('', (204., -0., -0.));
#498 = AXIS2_PLACEMENT_3D('', #497, #496, #495);
#499 = CIRCLE('', #498, 13.);
#500 = DIRECTION('', (1., -0., 0.));
#501 = VECTOR('', #500, 1.);
#502 = CARTESIAN_POINT('', (204., 13., 0.));
#503 = LINE('', #502, #501);
#504 = DIRECTION('', (0., 1., 0.));
#505 = DIRECTION('', (1., -0., -0.));
#506 = CARTESIAN_POINT('', (220., -0., -0.));
#507 = AXIS2_PLACEMENT_3D('', #506, #505, #504);
#508 = CIRCLE('', #507, 13.);
#509 = DIRECTION('', (0., -1., 0.));
#510 = DIRECTION('', (1., 0., 0.));
#511 = CARTESIAN_POINT('', (204., 0., -0.));
#512 = AXIS2_PLACEMENT_3D('', #511, #510, #509);
#513 = CIRCLE('', #512, 13.);
#514 = DIRECTION('', (1., -0., 0.));
#515 = VECTOR('', #514, 1.);
#516 = CARTESIAN_POINT('', (204., -13., 0.));
#517 = LINE('', #516, #515);
#518 = DIRECTION('', (0., 1., 0.));
#519 = DIRECTION('', (1., -0., -0.));
#520 = CARTESIAN_POINT('', (214., -0., -0.));
#521 = AXIS2_PLACEMENT_3D('', #520, #519, #518);
#522 = CIRCLE('', #521, 13.);
#523 = DIRECTION('', (-0., 1., -0.));
#524 = DIRECTION('', (-1., -0., 0.));
#525 = CARTESIAN_POINT('', (214., -0., 0.));
#526 = AXIS2_PLACEMENT_3D('', #525, #524, #523);
#527 = CIRCLE('', #526, 13.);
#528 = DIRECTION('', (0., 1., -0.));
#529 = DIRECTION('', (-1., -0., -0.));
#530 = CARTESIAN_POINT('', (220., -0., 0.));
#531 = AXIS2_PLACEMENT_3D('', #530, #529, #528);
#532 = CIRCLE('', #531, 13.);
#533 = DIRECTION('', (0., 1., 0.));
#534 = DIRECTION('', (-1., 0., -0.));
#535 = CARTESIAN_POINT('', (204., -0., -0.));
#536 = AXIS2_PLACEMENT_3D('', #535, #534, #533);
#537 = CIRCLE('', #536, 10.);
#538 = DIRECTION('', (-0., 1., 0.));
#539 = DIRECTION('', (1., 0., -0.));
#540 = CARTESIAN_POINT('', (204., -0., -0.));
#541 = AXIS2_PLACEMENT_3D('', #540, #539, #538);
#542 = CIRCLE('', #541, 10.);
#543 = DIRECTION('', (0., -0., -1.));
#544 = DIRECTION('', (-1., 0., -0.));
#545 = CARTESIAN_POINT('', (214., -0., -0.));
#546 = AXIS2_PLACEMENT_3D('', #545, #544, #543);
#547 = CIRCLE('', #546, 13.);
#548 = DIRECTION('', (-0., 0., 1.));
#549 = DIRECTION('', (1., -0., 0.));
#550 = CARTESIAN_POINT('', (214., 0., -0.));
#551 = AXIS2_PLACEMENT_3D('', #550, #549, #548);
#552 = CIRCLE('', #551, 13.);
#553 = DIRECTION('', (0., -0., -1.));
#554 = DIRECTION('', (-1., -0., 0.));
#555 = CARTESIAN_POINT('', (220., -0., -0.));
#556 = AXIS2_PLACEMENT_3D('', #555, #554, #553);
#557 = CIRCLE('', #556, 13.);
#558 = DIRECTION('', (0., 0., 1.));
#559 = DIRECTION('', (1., -0., -0.));
#560 = CARTESIAN_POINT('', (220., -0., 0.));
#561 = AXIS2_PLACEMENT_3D('', #560, #559, #558);
#562 = CIRCLE('', #561, 13.);
#563 = DIRECTION('', (-0., 0.0000001, 1.));
#564 = DIRECTION('', (1., -0., 0.));
#565 = CARTESIAN_POINT('', (204., 0., -0.));
#566 = AXIS2_PLACEMENT_3D('', #565, #564, #563);
#567 = CIRCLE('', #566, 10.);
#568 = DIRECTION('', (0., -0.0000001, -1.));
#569 = DIRECTION('', (-1., -0., -0.));
#570 = CARTESIAN_POINT('', (204., 0., 0.));
#571 = AXIS2_PLACEMENT_3D('', #570, #569, #568);
#572 = CIRCLE('', #571, 10.);
#573 = DIRECTION('', (-0., 1., 0.));
#574 = DIRECTION('', (1., 0., 0.));
#575 = CARTESIAN_POINT('', (0., -0., -0.));
#576 = AXIS2_PLACEMENT_3D('', #575, #574, #573);
#577 = CIRCLE('', #576, 7.);
#578 = DIRECTION('', (-0., 1., -0.));
#579 = DIRECTION('', (-1., -0., 0.));
#580 = CARTESIAN_POINT('', (0., -0., 0.));
#581 = AXIS2_PLACEMENT_3D('', #580, #579, #578);
#582 = CIRCLE('', #581, 7.);
#583 = DIRECTION('', (0., 1., 0.));
#584 = DIRECTION('', (1., -0., -0.));
#585 = CARTESIAN_POINT('', (220., -0., -0.));
#586 = AXIS2_PLACEMENT_3D('', #585, #584, #583);
#587 = CIRCLE('', #586, 7.);
#588 = DIRECTION('', (0., 1., -0.));
#589 = DIRECTION('', (-1., 0., -0.));
#590 = CARTESIAN_POINT('', (220., -0., 0.));
#591 = AXIS2_PLACEMENT_3D('', #590, #589, #588);
#592 = CIRCLE('', #591, 7.);
#593 = DIRECTION('', (-0., 0., -1.));
#594 = DIRECTION('', (-1., 0., 0.));
#595 = CARTESIAN_POINT('', (0., 0., 0.));
#596 = AXIS2_PLACEMENT_3D('', #595, #594, #593);
#597 = CIRCLE('', #596, 7.);
#598 = DIRECTION('', (-0., -0., 1.));
#599 = DIRECTION('', (1., -0., 0.));
#600 = CARTESIAN_POINT('', (0., 0., -0.));
#601 = AXIS2_PLACEMENT_3D('', #600, #599, #598);
#602 = CIRCLE('', #601, 7.);
#603 = DIRECTION('', (0., 0., -1.));
#604 = DIRECTION('', (-1., -0., -0.));
#605 = CARTESIAN_POINT('', (220., 0., 0.));
#606 = AXIS2_PLACEMENT_3D('', #605, #604, #603);
#607 = CIRCLE('', #606, 7.);
#608 = DIRECTION('', (0., -0., 1.));
#609 = DIRECTION('', (1., 0., -0.));
#610 = CARTESIAN_POINT('', (220., 0., -0.));
#611 = AXIS2_PLACEMENT_3D('', #610, #609, #608);
#612 = CIRCLE('', #611, 7.);
#613 = DIRECTION('', (1., -0., 0.));
#614 = VECTOR('', #613, 1.);
#615 = CARTESIAN_POINT('', (0., -7., 0.));
#616 = LINE('', #615, #614);
#617 = DIRECTION('', (1., -0., 0.));
#618 = VECTOR('', #617, 1.);
#619 = CARTESIAN_POINT('', (-0., 7., 0.));
#620 = LINE('', #619, #618);
#621 = DIRECTION('', (0., 1., -0.));
#622 = DIRECTION('', (1., -0., -0.));
#623 = CARTESIAN_POINT('', (-0., 16.00000001, 10.));
#624 = AXIS2_PLACEMENT_3D('', #623, #622, #621);
#625 = CIRCLE('', #624, 2.09999999);
#626 = DIRECTION('', (-0., 1., -0.));
#627 = DIRECTION('', (-1., -0., 0.));
#628 = CARTESIAN_POINT('', (0., 16., 10.));
#629 = AXIS2_PLACEMENT_3D('', #628, #627, #626);
#630 = CIRCLE('', #629, 2.1);
#631 = DIRECTION('', (-0., 1., 0.));
#632 = DIRECTION('', (1., 0., 0.));
#633 = CARTESIAN_POINT('', (8., 16., 10.));
#634 = AXIS2_PLACEMENT_3D('', #633, #632, #631);
#635 = CIRCLE('', #634, 2.1);
#636 = DIRECTION('', (-0., 1., -0.));
#637 = DIRECTION('', (-1., -0., 0.));
#638 = CARTESIAN_POINT('', (8., 16., 10.));
#639 = AXIS2_PLACEMENT_3D('', #638, #637, #636);
#640 = CIRCLE('', #639, 2.1);
#641 = DIRECTION('', (0., 0.00000001, -1.));
#642 = DIRECTION('', (-1., -0., -0.));
#643 = CARTESIAN_POINT('', (-0., 16., 10.));
#644 = AXIS2_PLACEMENT_3D('', #643, #642, #641);
#645 = CIRCLE('', #644, 2.1);
#646 = DIRECTION('', (-0., -0.00000001, 1.));
#647 = DIRECTION('', (1., 0., 0.));
#648 = CARTESIAN_POINT('', (-0., 15.99999999, 10.));
#649 = AXIS2_PLACEMENT_3D('', #648, #647, #646);
#650 = CIRCLE('', #649, 2.09999999);
#651 = DIRECTION('', (-0., -0.00000001, -1.));
#652 = DIRECTION('', (-1., 0., 0.));
#653 = CARTESIAN_POINT('', (8., 16., 10.));
#654 = AXIS2_PLACEMENT_3D('', #653, #652, #651);
#655 = CIRCLE('', #654, 2.1);
#656 = DIRECTION('', (-0., 0.00000002, 1.));
#657 = DIRECTION('', (1., -0., 0.));
#658 = CARTESIAN_POINT('', (8., 16., 10.));
#659 = AXIS2_PLACEMENT_3D('', #658, #657, #656);
#660 = CIRCLE('', #659, 2.1);
#661 = DIRECTION('', (1., -0., 0.));
#662 = VECTOR('', #661, 1.);
#663 = CARTESIAN_POINT('', (0., 13.9, 10.));
#664 = LINE('', #663, #662);
#665 = DIRECTION('', (1., -0., 0.));
#666 = VECTOR('', #665, 1.);
#667 = CARTESIAN_POINT('', (0., 18.1, 10.));
#668 = LINE('', #667, #666);
#669 = DIRECTION('', (0., 1., -0.));
#670 = DIRECTION('', (1., -0., -0.));
#671 = CARTESIAN_POINT('', (-0., -16., 10.));
#672 = AXIS2_PLACEMENT_3D('', #671, #670, #669);
#673 = CIRCLE('', #672, 2.1);
#674 = DIRECTION('', (-0., 1., -0.));
#675 = DIRECTION('', (-1., -0., 0.));
#676 = CARTESIAN_POINT('', (0., -16., 10.));
#677 = AXIS2_PLACEMENT_3D('', #676, #675, #674);
#678 = CIRCLE('', #677, 2.1);
#679 = DIRECTION('', (0., 1., 0.));
#680 = DIRECTION('', (1., -0., -0.));
#681 = CARTESIAN_POINT('', (8., -16., 10.));
#682 = AXIS2_PLACEMENT_3D('', #681, #680, #679);
#683 = CIRCLE('', #682, 2.1);
#684 = DIRECTION('', (0., 1., -0.));
#685 = DIRECTION('', (-1., 0., -0.));
#686 = CARTESIAN_POINT('', (8., -16., 10.));
#687 = AXIS2_PLACEMENT_3D('', #686, #685, #684);
#688 = CIRCLE('', #687, 2.1);
#689 = DIRECTION('', (0., 0.00000001, -1.));
#690 = DIRECTION('', (-1., -0., -0.));
#691 = CARTESIAN_POINT('', (-0., -16., 10.));
#692 = AXIS2_PLACEMENT_3D('', #691, #690, #689);
#693 = CIRCLE('', #692, 2.1);
#694 = DIRECTION('', (-0., -0.00000001, 1.));
#695 = DIRECTION('', (1., -0., 0.));
#696 = CARTESIAN_POINT('', (0., -16., 10.));
#697 = AXIS2_PLACEMENT_3D('', #696, #695, #694);
#698 = CIRCLE('', #697, 2.1);
#699 = DIRECTION('', (-0., -0.00000001, -1.));
#700 = DIRECTION('', (-1., 0., 0.));
#701 = CARTESIAN_POINT('', (8., -16., 10.));
#702 = AXIS2_PLACEMENT_3D('', #701, #700, #699);
#703 = CIRCLE('', #702, 2.1);
#704 = DIRECTION('', (0., 0.00000002, 1.));
#705 = DIRECTION('', (1., 0., -0.));
#706 = CARTESIAN_POINT('', (8., -16., 10.));
#707 = AXIS2_PLACEMENT_3D('', #706, #705, #704);
#708 = CIRCLE('', #707, 2.1);
#709 = DIRECTION('', (1., -0., 0.));
#710 = VECTOR('', #709, 1.);
#711 = CARTESIAN_POINT('', (0., -18.1, 10.));
#712 = LINE('', #711, #710);
#713 = DIRECTION('', (1., 0., 0.));
#714 = VECTOR('', #713, 1.);
#715 = CARTESIAN_POINT('', (0., -13.9, 10.));
#716 = LINE('', #715, #714);
#717 = DIRECTION('', (0., 1., 0.));
#718 = DIRECTION('', (1., -0., -0.));
#719 = CARTESIAN_POINT('', (-0., -16., -10.));
#720 = AXIS2_PLACEMENT_3D('', #719, #718, #717);
#721 = CIRCLE('', #720, 2.1);
#722 = DIRECTION('', (-0., 1., 0.));
#723 = DIRECTION('', (-1., -0., 0.));
#724 = CARTESIAN_POINT('', (0., -15.99999999, -10.));
#725 = AXIS2_PLACEMENT_3D('', #724, #723, #722);
#726 = CIRCLE('', #725, 2.09999999);
#727 = DIRECTION('', (-0., 1., 0.));
#728 = DIRECTION('', (1., 0., 0.));
#729 = CARTESIAN_POINT('', (8., -16., -10.));
#730 = AXIS2_PLACEMENT_3D('', #729, #728, #727);
#731 = CIRCLE('', #730, 2.1);
#732 = DIRECTION('', (0., 1., 0.));
#733 = DIRECTION('', (-1., 0., -0.));
#734 = CARTESIAN_POINT('', (8., -16., -10.));
#735 = AXIS2_PLACEMENT_3D('', #734, #733, #732);
#736 = CIRCLE('', #735, 2.1);
#737 = DIRECTION('', (-0., 0.00000002, -1.));
#738 = DIRECTION('', (-1., 0., 0.));
#739 = CARTESIAN_POINT('', (0., -16.00000001, -10.));
#740 = AXIS2_PLACEMENT_3D('', #739, #738, #737);
#741 = CIRCLE('', #740, 2.09999999);
#742 = DIRECTION('', (-0., -0.00000001, 1.));
#743 = DIRECTION('', (1., -0., 0.));
#744 = CARTESIAN_POINT('', (0., -16., -10.));
#745 = AXIS2_PLACEMENT_3D('', #744, #743, #742);
#746 = CIRCLE('', #745, 2.1);
#747 = DIRECTION('', (0., -0.00000002, -1.));
#748 = DIRECTION('', (-1., -0., -0.));
#749 = CARTESIAN_POINT('', (8., -16., -10.));
#750 = AXIS2_PLACEMENT_3D('', #749, #748, #747);
#751 = CIRCLE('', #750, 2.1);
#752 = DIRECTION('', (0., 0.00000001, 1.));
#753 = DIRECTION('', (1., 0., -0.));
#754 = CARTESIAN_POINT('', (8., -16., -10.));
#755 = AXIS2_PLACEMENT_3D('', #754, #753, #752);
#756 = CIRCLE('', #755, 2.1);
#757 = DIRECTION('', (1., -0., 0.));
#758 = VECTOR('', #757, 1.);
#759 = CARTESIAN_POINT('', (0., -18.1, -10.));
#760 = LINE('', #759, #758);
#761 = DIRECTION('', (1., 0., 0.));
#762 = VECTOR('', #761, 1.);
#763 = CARTESIAN_POINT('', (0., -13.9, -10.));
#764 = LINE('', #763, #762);
#765 = DIRECTION('', (0., 1., 0.));
#766 = DIRECTION('', (1., -0., -0.));
#767 = CARTESIAN_POINT('', (-0., 16., -10.));
#768 = AXIS2_PLACEMENT_3D('', #767, #766, #765);
#769 = CIRCLE('', #768, 2.1);
#770 = DIRECTION('', (-0., 1., -0.));
#771 = DIRECTION('', (-1., -0., 0.));
#772 = CARTESIAN_POINT('', (0., 16., -10.));
#773 = AXIS2_PLACEMENT_3D('', #772, #771, #770);
#774 = CIRCLE('', #773, 2.1);
#775 = DIRECTION('', (0., 1., 0.));
#776 = DIRECTION('', (1., -0., -0.));
#777 = CARTESIAN_POINT('', (8., 16., -10.));
#778 = AXIS2_PLACEMENT_3D('', #777, #776, #775);
#779 = CIRCLE('', #778, 2.1);
#780 = DIRECTION('', (0., 1., 0.));
#781 = DIRECTION('', (-1., 0., -0.));
#782 = CARTESIAN_POINT('', (8., 16., -10.));
#783 = AXIS2_PLACEMENT_3D('', #782, #781, #780);
#784 = CIRCLE('', #783, 2.1);
#785 = DIRECTION('', (0., 0.00000001, -1.));
#786 = DIRECTION('', (-1., -0., -0.));
#787 = CARTESIAN_POINT('', (-0., 16., -10.));
#788 = AXIS2_PLACEMENT_3D('', #787, #786, #785);
#789 = CIRCLE('', #788, 2.1);
#790 = DIRECTION('', (-0., -0.00000001, 1.));
#791 = DIRECTION('', (1., 0., 0.));
#792 = CARTESIAN_POINT('', (-0., 16., -10.));
#793 = AXIS2_PLACEMENT_3D('', #792, #791, #790);
#794 = CIRCLE('', #793, 2.1);
#795 = DIRECTION('', (0., -0.00000002, -1.));
#796 = DIRECTION('', (-1., -0., -0.));
#797 = CARTESIAN_POINT('', (8., 16., -10.));
#798 = AXIS2_PLACEMENT_3D('', #797, #796, #795);
#799 = CIRCLE('', #798, 2.1);
#800 = DIRECTION('', (0., 0.00000001, 1.));
#801 = DIRECTION('', (1., 0., -0.));
#802 = CARTESIAN_POINT('', (8., 16., -10.));
#803 = AXIS2_PLACEMENT_3D('', #802, #801, #800);
#804 = CIRCLE('', #803, 2.1);
#805 = DIRECTION('', (1., -0., 0.));
#806 = VECTOR('', #805, 1.);
#807 = CARTESIAN_POINT('', (0., 13.9, -10.));
#808 = LINE('', #807, #806);
#809 = DIRECTION('', (1., -0., 0.));
#810 = VECTOR('', #809, 1.);
#811 = CARTESIAN_POINT('', (0., 18.1, -10.));
#812 = LINE('', #811, #810);
#813 = DIRECTION('', (0., 1., 0.));
#814 = DIRECTION('', (1., -0., -0.));
#815 = CARTESIAN_POINT('', (213., 8., 8.));
#816 = AXIS2_PLACEMENT_3D('', #815, #814, #813);
#817 = CIRCLE('', #816, 1.6);
#818 = DIRECTION('', (1., -0., 0.));
#819 = VECTOR('', #818, 1.);
#820 = CARTESIAN_POINT('', (213., 9.6, 8.));
#821 = LINE('', #820, #819);
#822 = DIRECTION('', (0., -1., 0.));
#823 = DIRECTION('', (1., 0., 0.));
#824 = CARTESIAN_POINT('', (213., 8., 8.));
#825 = AXIS2_PLACEMENT_3D('', #824, #823, #822);
#826 = CIRCLE('', #825, 1.6);
#827 = DIRECTION('', (1., -0., 0.));
#828 = VECTOR('', #827, 1.);
#829 = CARTESIAN_POINT('', (213., 6.4, 8.));
#830 = LINE('', #829, #828);
#831 = DIRECTION('', (0., -0.21774411, -0.97600589));
#832 = DIRECTION('', (-1., -0., -0.));
#833 = CARTESIAN_POINT('', (220., 8., 8.));
#834 = AXIS2_PLACEMENT_3D('', #833, #832, #831);
#835 = CIRCLE('', #834, 1.6);
#836 = DIRECTION('', (0., 1., -0.));
#837 = DIRECTION('', (1., -0., -0.));
#838 = CARTESIAN_POINT('', (220., 8., 8.));
#839 = AXIS2_PLACEMENT_3D('', #838, #837, #836);
#840 = CIRCLE('', #839, 1.6);
#841 = DIRECTION('', (0., 1., 0.));
#842 = DIRECTION('', (-1., 0., -0.));
#843 = CARTESIAN_POINT('', (220., 8., 8.));
#844 = AXIS2_PLACEMENT_3D('', #843, #842, #841);
#845 = CIRCLE('', #844, 1.6);
#846 = DIRECTION('', (0., -0.97600589, -0.2177441));
#847 = DIRECTION('', (-1., -0., -0.));
#848 = CARTESIAN_POINT('', (220., 8.00000007, 8.00000001));
#849 = AXIS2_PLACEMENT_3D('', #848, #847, #846);
#850 = CIRCLE('', #849, 1.60000007);
#851 = DIRECTION('', (-0., 0.64383906, 0.76516094));
#852 = DIRECTION('', (1., 0., 0.));
#853 = CARTESIAN_POINT('', (220., -0., -0.));
#854 = AXIS2_PLACEMENT_3D('', #853, #852, #851);
#855 = CIRCLE('', #854, 10.);
#856 = DIRECTION('', (0., 1., 0.));
#857 = DIRECTION('', (1., -0., -0.));
#858 = CARTESIAN_POINT('', (213., -8., 8.));
#859 = AXIS2_PLACEMENT_3D('', #858, #857, #856);
#860 = CIRCLE('', #859, 1.6);
#861 = DIRECTION('', (1., -0., 0.));
#862 = VECTOR('', #861, 1.);
#863 = CARTESIAN_POINT('', (213., -6.4, 8.));
#864 = LINE('', #863, #862);
#865 = DIRECTION('', (0., -1., 0.));
#866 = DIRECTION('', (1., 0., 0.));
#867 = CARTESIAN_POINT('', (213., -8., 8.));
#868 = AXIS2_PLACEMENT_3D('', #867, #866, #865);
#869 = CIRCLE('', #868, 1.6);
#870 = DIRECTION('', (1., -0., 0.));
#871 = VECTOR('', #870, 1.);
#872 = CARTESIAN_POINT('', (213., -9.6, 8.));
#873 = LINE('', #872, #871);
#874 = DIRECTION('', (0., 0.97600589, -0.21774411));
#875 = DIRECTION('', (-1., 0., -0.));
#876 = CARTESIAN_POINT('', (220., -8., 8.));
#877 = AXIS2_PLACEMENT_3D('', #876, #875, #874);
#878 = CIRCLE('', #877, 1.6);
#879 = DIRECTION('', (0., 1., -0.));
#880 = DIRECTION('', (1., -0., -0.));
#881 = CARTESIAN_POINT('', (220., -8., 8.));
#882 = AXIS2_PLACEMENT_3D('', #881, #880, #879);
#883 = CIRCLE('', #882, 1.6);
#884 = DIRECTION('', (-0., 1., 0.));
#885 = DIRECTION('', (-1., -0., 0.));
#886 = CARTESIAN_POINT('', (220., -7.99999992, 8.));
#887 = AXIS2_PLACEMENT_3D('', #886, #885, #884);
#888 = CIRCLE('', #887, 1.59999992);
#889 = DIRECTION('', (0., 0.21774411, -0.97600589));
#890 = DIRECTION('', (-1., -0., -0.));
#891 = CARTESIAN_POINT('', (220., -8., 8.));
#892 = AXIS2_PLACEMENT_3D('', #891, #890, #889);
#893 = CIRCLE('', #892, 1.6);
#894 = DIRECTION('', (-0., -0.76516094, 0.64383906));
#895 = DIRECTION('', (1., -0., 0.));
#896 = CARTESIAN_POINT('', (220., -0., 0.));
#897 = AXIS2_PLACEMENT_3D('', #896, #895, #894);
#898 = CIRCLE('', #897, 10.);
#899 = DIRECTION('', (0., 1., 0.));
#900 = DIRECTION('', (1., -0., -0.));
#901 = CARTESIAN_POINT('', (213., -8., -8.));
#902 = AXIS2_PLACEMENT_3D('', #901, #900, #899);
#903 = CIRCLE('', #902, 1.6);
#904 = DIRECTION('', (1., -0., 0.));
#905 = VECTOR('', #904, 1.);
#906 = CARTESIAN_POINT('', (213., -6.4, -8.));
#907 = LINE('', #906, #905);
#908 = DIRECTION('', (0., -1., 0.));
#909 = DIRECTION('', (1., 0., 0.));
#910 = CARTESIAN_POINT('', (213., -8., -8.));
#911 = AXIS2_PLACEMENT_3D('', #910, #909, #908);
#912 = CIRCLE('', #911, 1.6);
#913 = DIRECTION('', (1., -0., 0.));
#914 = VECTOR('', #913, 1.);
#915 = CARTESIAN_POINT('', (213., -9.6, -8.));
#916 = LINE('', #915, #914);
#917 = DIRECTION('', (0., 0.97600589, 0.21774411));
#918 = DIRECTION('', (1., -0., -0.));
#919 = CARTESIAN_POINT('', (220., -8., -8.));
#920 = AXIS2_PLACEMENT_3D('', #919, #918, #917);
#921 = CIRCLE('', #920, 1.6);
#922 = DIRECTION('', (-0., 1., 0.00000001));
#923 = DIRECTION('', (1., 0., -0.));
#924 = CARTESIAN_POINT('', (220., -8.00000007, -8.00000001));
#925 = AXIS2_PLACEMENT_3D('', #924, #923, #922);
#926 = CIRCLE('', #925, 1.60000007);
#927 = DIRECTION('', (0., 0.21774411, 0.97600589));
#928 = DIRECTION('', (1., 0., -0.));
#929 = CARTESIAN_POINT('', (220., -8., -8.));
#930 = AXIS2_PLACEMENT_3D('', #929, #928, #927);
#931 = CIRCLE('', #930, 1.6);
#932 = DIRECTION('', (0., 1., 0.));
#933 = DIRECTION('', (-1., -0., 0.));
#934 = CARTESIAN_POINT('', (220., -8., -8.));
#935 = AXIS2_PLACEMENT_3D('', #934, #933, #932);
#936 = CIRCLE('', #935, 1.6);
#937 = DIRECTION('', (0., -0.76516094, -0.64383906));
#938 = DIRECTION('', (-1., -0., -0.));
#939 = CARTESIAN_POINT('', (220., -0., -0.));
#940 = AXIS2_PLACEMENT_3D('', #939, #938, #937);
#941 = CIRCLE('', #940, 10.);
#942 = DIRECTION('', (0., 1., 0.));
#943 = DIRECTION('', (1., -0., -0.));
#944 = CARTESIAN_POINT('', (213., 8., -8.));
#945 = AXIS2_PLACEMENT_3D('', #944, #943, #942);
#946 = CIRCLE('', #945, 1.6);
#947 = DIRECTION('', (1., -0., 0.));
#948 = VECTOR('', #947, 1.);
#949 = CARTESIAN_POINT('', (213., 9.6, -8.));
#950 = LINE('', #949, #948);
#951 = DIRECTION('', (0., -1., 0.));
#952 = DIRECTION('', (1., 0., 0.));
#953 = CARTESIAN_POINT('', (213., 8., -8.));
#954 = AXIS2_PLACEMENT_3D('', #953, #952, #951);
#955 = CIRCLE('', #954, 1.6);
#956 = DIRECTION('', (1., -0., 0.));
#957 = VECTOR('', #956, 1.);
#958 = CARTESIAN_POINT('', (213., 6.4, -8.));
#959 = LINE('', #958, #957);
#960 = DIRECTION('', (0., -0.21774411, 0.97600589));
#961 = DIRECTION('', (1., -0., -0.));
#962 = CARTESIAN_POINT('', (220., 8., -8.));
#963 = AXIS2_PLACEMENT_3D('', #962, #961, #960);
#964 = CIRCLE('', #963, 1.6);
#965 = DIRECTION('', (0., 1., 0.));
#966 = DIRECTION('', (1., -0., -0.));
#967 = CARTESIAN_POINT('', (220., 8., -8.));
#968 = AXIS2_PLACEMENT_3D('', #967, #966, #965);
#969 = CIRCLE('', #968, 1.6);
#970 = DIRECTION('', (-0., -0.97600589, 0.21774411));
#971 = DIRECTION('', (1., -0., 0.));
#972 = CARTESIAN_POINT('', (220., 7.99999992, -8.));
#973 = AXIS2_PLACEMENT_3D('', #972, #971, #970);
#974 = CIRCLE('', #973, 1.59999992);
#975 = DIRECTION('', (0., 1., 0.));
#976 = DIRECTION('', (-1., 0., 0.));
#977 = CARTESIAN_POINT('', (220., 8., -8.));
#978 = AXIS2_PLACEMENT_3D('', #977, #976, #975);
#979 = CIRCLE('', #978, 1.6);
#980 = DIRECTION('', (-0., 0.64383906, -0.76516094));
#981 = DIRECTION('', (-1., -0., 0.));
#982 = CARTESIAN_POINT('', (220., 0., -0.));
#983 = AXIS2_PLACEMENT_3D('', #982, #981, #980);
#984 = CIRCLE('', #983, 10.);
#985 = EDGE_CURVE('', #6, #48, #249, .T.);
#986 = EDGE_CURVE('', #8, #202, #254, .T.);
#987 = EDGE_CURVE('', #14, #16, #258, .T.);
#988 = EDGE_CURVE('', #16, #18, #262, .T.);
#989 = EDGE_CURVE('', #20, #18, #266, .T.);
#990 = EDGE_CURVE('', #14, #20, #270, .T.);
#991 = EDGE_CURVE('', #16, #22, #274, .T.);
#992 = EDGE_CURVE('', #22, #24, #278, .T.);
#993 = EDGE_CURVE('', #18, #24, #282, .T.);
#994 = EDGE_CURVE('', #22, #26, #286, .T.);
#995 = EDGE_CURVE('', #26, #28, #290, .T.);
#996 = EDGE_CURVE('', #24, #28, #294, .T.);
#997 = EDGE_CURVE('', #26, #30, #298, .T.);
#998 = EDGE_CURVE('', #30, #32, #302, .T.);
#999 = EDGE_CURVE('', #28, #32, #306, .T.);
#1000 = EDGE_CURVE('', #30, #34, #310, .T.);
#1001 = EDGE_CURVE('', #34, #36, #314, .T.);
#1002 = EDGE_CURVE('', #32, #36, #318, .T.);
#1003 = EDGE_CURVE('', #34, #38, #322, .T.);
#1004 = EDGE_CURVE('', #38, #40, #326, .T.);
#1005 = EDGE_CURVE('', #36, #40, #330, .T.);
#1006 = EDGE_CURVE('', #38, #42, #334, .T.);
#1007 = EDGE_CURVE('', #42, #44, #338, .T.);
#1008 = EDGE_CURVE('', #40, #44, #342, .T.);
#1009 = EDGE_CURVE('', #42, #14, #346, .T.);
#1010 = EDGE_CURVE('', #44, #20, #350, .T.);
#1011 = EDGE_CURVE('', #10, #46, #355, .T.);
#1012 = EDGE_CURVE('', #46, #6, #360, .T.);
#1013 = EDGE_CURVE('', #48, #10, #365, .T.);
#1014 = EDGE_CURVE('', #50, #54, #370, .T.);
#1015 = EDGE_CURVE('', #50, #52, #374, .T.);
#1016 = EDGE_CURVE('', #52, #56, #379, .T.);
#1017 = EDGE_CURVE('', #54, #50, #384, .T.);
#1018 = EDGE_CURVE('', #56, #52, #389, .T.);
#1019 = EDGE_CURVE('', #54, #56, #393, .T.);
#1020 = EDGE_CURVE('', #8, #238, #398, .T.);
#1021 = EDGE_CURVE('', #58, #226, #403, .T.);
#1022 = EDGE_CURVE('', #60, #214, #408, .T.);
#1023 = EDGE_CURVE('', #62, #80, #413, .T.);
#1024 = EDGE_CURVE('', #64, #68, #418, .T.);
#1025 = EDGE_CURVE('', #68, #64, #423, .T.);
#1026 = EDGE_CURVE('', #66, #78, #428, .T.);
#1027 = EDGE_CURVE('', #70, #84, #433, .T.);
#1028 = EDGE_CURVE('', #70, #82, #438, .T.);
#1029 = EDGE_CURVE('', #74, #88, #443, .T.);
#1030 = EDGE_CURVE('', #74, #86, #448, .T.);
#1031 = EDGE_CURVE('', #78, #62, #453, .T.);
#1032 = EDGE_CURVE('', #80, #66, #458, .T.);
#1033 = EDGE_CURVE('', #82, #72, #463, .T.);
#1034 = EDGE_CURVE('', #84, #72, #468, .T.);
#1035 = EDGE_CURVE('', #86, #76, #473, .T.);
#1036 = EDGE_CURVE('', #88, #76, #478, .T.);
#1037 = EDGE_CURVE('', #76, #104, #482, .T.);
#1038 = EDGE_CURVE('', #74, #102, #486, .T.);
#1039 = EDGE_CURVE('', #72, #68, #490, .T.);
#1040 = EDGE_CURVE('', #70, #64, #494, .T.);
#1041 = EDGE_CURVE('', #90, #94, #499, .T.);
#1042 = EDGE_CURVE('', #90, #98, #503, .T.);
#1043 = EDGE_CURVE('', #92, #112, #508, .T.);
#1044 = EDGE_CURVE('', #94, #90, #513, .T.);
#1045 = EDGE_CURVE('', #94, #100, #517, .T.);
#1046 = EDGE_CURVE('', #98, #108, #522, .T.);
#1047 = EDGE_CURVE('', #98, #106, #527, .T.);
#1048 = EDGE_CURVE('', #92, #110, #532, .T.);
#1049 = EDGE_CURVE('', #102, #116, #537, .T.);
#1050 = EDGE_CURVE('', #102, #114, #542, .T.);
#1051 = EDGE_CURVE('', #106, #100, #547, .T.);
#1052 = EDGE_CURVE('', #108, #100, #552, .T.);
#1053 = EDGE_CURVE('', #110, #96, #557, .T.);
#1054 = EDGE_CURVE('', #112, #96, #562, .T.);
#1055 = EDGE_CURVE('', #114, #104, #567, .T.);
#1056 = EDGE_CURVE('', #116, #104, #572, .T.);
#1057 = EDGE_CURVE('', #118, #128, #577, .T.);
#1058 = EDGE_CURVE('', #118, #126, #582, .T.);
#1059 = EDGE_CURVE('', #122, #132, #587, .T.);
#1060 = EDGE_CURVE('', #122, #130, #592, .T.);
#1061 = EDGE_CURVE('', #126, #120, #597, .T.);
#1062 = EDGE_CURVE('', #128, #120, #602, .T.);
#1063 = EDGE_CURVE('', #130, #124, #607, .T.);
#1064 = EDGE_CURVE('', #132, #124, #612, .T.);
#1065 = EDGE_CURVE('', #120, #124, #616, .T.);
#1066 = EDGE_CURVE('', #118, #122, #620, .T.);
#1067 = EDGE_CURVE('', #134, #144, #625, .T.);
#1068 = EDGE_CURVE('', #134, #142, #630, .T.);
#1069 = EDGE_CURVE('', #138, #148, #635, .T.);
#1070 = EDGE_CURVE('', #138, #146, #640, .T.);
#1071 = EDGE_CURVE('', #142, #136, #645, .T.);
#1072 = EDGE_CURVE('', #144, #136, #650, .T.);
#1073 = EDGE_CURVE('', #146, #140, #655, .T.);
#1074 = EDGE_CURVE('', #148, #140, #660, .T.);
#1075 = EDGE_CURVE('', #136, #140, #664, .T.);
#1076 = EDGE_CURVE('', #134, #138, #668, .T.);
#1077 = EDGE_CURVE('', #150, #160, #673, .T.);
#1078 = EDGE_CURVE('', #150, #158, #678, .T.);
#1079 = EDGE_CURVE('', #154, #164, #683, .T.);
#1080 = EDGE_CURVE('', #154, #162, #688, .T.);
#1081 = EDGE_CURVE('', #158, #152, #693, .T.);
#1082 = EDGE_CURVE('', #160, #152, #698, .T.);
#1083 = EDGE_CURVE('', #162, #156, #703, .T.);
#1084 = EDGE_CURVE('', #164, #156, #708, .T.);
#1085 = EDGE_CURVE('', #152, #156, #712, .T.);
#1086 = EDGE_CURVE('', #150, #154, #716, .T.);
#1087 = EDGE_CURVE('', #166, #176, #721, .T.);
#1088 = EDGE_CURVE('', #166, #174, #726, .T.);
#1089 = EDGE_CURVE('', #170, #180, #731, .T.);
#1090 = EDGE_CURVE('', #170, #178, #736, .T.);
#1091 = EDGE_CURVE('', #174, #168, #741, .T.);
#1092 = EDGE_CURVE('', #176, #168, #746, .T.);
#1093 = EDGE_CURVE('', #178, #172, #751, .T.);
#1094 = EDGE_CURVE('', #180, #172, #756, .T.);
#1095 = EDGE_CURVE('', #168, #172, #760, .T.);
#1096 = EDGE_CURVE('', #166, #170, #764, .T.);
#1097 = EDGE_CURVE('', #182, #192, #769, .T.);
#1098 = EDGE_CURVE('', #182, #190, #774, .T.);
#1099 = EDGE_CURVE('', #186, #196, #779, .T.);
#1100 = EDGE_CURVE('', #186, #194, #784, .T.);
#1101 = EDGE_CURVE('', #190, #184, #789, .T.);
#1102 = EDGE_CURVE('', #192, #184, #794, .T.);
#1103 = EDGE_CURVE('', #194, #188, #799, .T.);
#1104 = EDGE_CURVE('', #196, #188, #804, .T.);
#1105 = EDGE_CURVE('', #184, #188, #808, .T.);
#1106 = EDGE_CURVE('', #182, #186, #812, .T.);
#1107 = EDGE_CURVE('', #198, #200, #817, .T.);
#1108 = EDGE_CURVE('', #198, #206, #821, .T.);
#1109 = EDGE_CURVE('', #200, #198, #826, .T.);
#1110 = EDGE_CURVE('', #200, #208, #830, .T.);
#1111 = EDGE_CURVE('', #202, #204, #835, .T.);
#1112 = EDGE_CURVE('', #206, #208, #840, .T.);
#1113 = EDGE_CURVE('', #206, #202, #845, .T.);
#1114 = EDGE_CURVE('', #204, #208, #850, .T.);
#1115 = EDGE_CURVE('', #204, #60, #855, .T.);
#1116 = EDGE_CURVE('', #210, #212, #860, .T.);
#1117 = EDGE_CURVE('', #210, #218, #864, .T.);
#1118 = EDGE_CURVE('', #212, #210, #869, .T.);
#1119 = EDGE_CURVE('', #212, #220, #873, .T.);
#1120 = EDGE_CURVE('', #214, #216, #878, .T.);
#1121 = EDGE_CURVE('', #218, #220, #883, .T.);
#1122 = EDGE_CURVE('', #218, #214, #888, .T.);
#1123 = EDGE_CURVE('', #216, #220, #893, .T.);
#1124 = EDGE_CURVE('', #216, #12, #898, .T.);
#1125 = EDGE_CURVE('', #222, #224, #903, .T.);
#1126 = EDGE_CURVE('', #222, #230, #907, .T.);
#1127 = EDGE_CURVE('', #224, #222, #912, .T.);
#1128 = EDGE_CURVE('', #224, #232, #916, .T.);
#1129 = EDGE_CURVE('', #226, #228, #921, .T.);
#1130 = EDGE_CURVE('', #230, #226, #926, .T.);
#1131 = EDGE_CURVE('', #228, #232, #931, .T.);
#1132 = EDGE_CURVE('', #230, #232, #936, .T.);
#1133 = EDGE_CURVE('', #228, #12, #941, .T.);
#1134 = EDGE_CURVE('', #234, #236, #946, .T.);
#1135 = EDGE_CURVE('', #234, #242, #950, .T.);
#1136 = EDGE_CURVE('', #236, #234, #955, .T.);
#1137 = EDGE_CURVE('', #236, #244, #959, .T.);
#1138 = EDGE_CURVE('', #238, #240, #964, .T.);
#1139 = EDGE_CURVE('', #242, #238, #969, .T.);
#1140 = EDGE_CURVE('', #240, #244, #974, .T.);
#1141 = EDGE_CURVE('', #242, #244, #979, .T.);
#1142 = EDGE_CURVE('', #240, #58, #984, .T.);
#1143 = CARTESIAN_POINT('', (110., 0., -0.));
#1144 = DIRECTION('', (1., -0., -0.));
#1145 = DIRECTION('', (0., 1., 0.));
#1146 = AXIS2_PLACEMENT_3D('', #1143, #1144, #1145);
#1147 = CYLINDRICAL_SURFACE('', #1146, 10.);
#1148 = CARTESIAN_POINT('', (0., 0., 0.));
#1149 = DIRECTION('', (1., -0., 0.));
#1150 = AXIS2_PLACEMENT_3D('', #1148, #1149, $);
#1151 = PLANE('', #1150);
#1152 = CARTESIAN_POINT('', (220., 0., 0.));
#1153 = DIRECTION('', (1., -0., 0.));
#1154 = AXIS2_PLACEMENT_3D('', #1152, #1153, $);
#1155 = PLANE('', #1154);
#1156 = CARTESIAN_POINT('', (4., 0., 17.));
#1157 = DIRECTION('', (-0., -0., 1.));
#1158 = AXIS2_PLACEMENT_3D('', #1156, #1157, $);
#1159 = PLANE('', #1158);
#1160 = CARTESIAN_POINT('', (4., -22.5, 14.5));
#1161 = DIRECTION('', (0., -0.70710678, 0.70710678));
#1162 = AXIS2_PLACEMENT_3D('', #1160, #1161, $);
#1163 = PLANE('', #1162);
#1164 = CARTESIAN_POINT('', (4., -25., 0.));
#1165 = DIRECTION('', (0., -1., 0.));
#1166 = AXIS2_PLACEMENT_3D('', #1164, #1165, $);
#1167 = PLANE('', #1166);
#1168 = CARTESIAN_POINT('', (4., -22.5, -14.5));
#1169 = DIRECTION('', (0., -0.70710678, -0.70710678));
#1170 = AXIS2_PLACEMENT_3D('', #1168, #1169, $);
#1171 = PLANE('', #1170);
#1172 = CARTESIAN_POINT('', (4., 0., -17.));
#1173 = DIRECTION('', (0., -0., -1.));
#1174 = AXIS2_PLACEMENT_3D('', #1172, #1173, $);
#1175 = PLANE('', #1174);
#1176 = CARTESIAN_POINT('', (4., 22.5, -14.5));
#1177 = DIRECTION('', (0., 0.70710678, -0.70710678));
#1178 = AXIS2_PLACEMENT_3D('', #1176, #1177, $);
#1179 = PLANE('', #1178);
#1180 = CARTESIAN_POINT('', (4., 25., 0.));
#1181 = DIRECTION('', (0., 1., 0.));
#1182 = AXIS2_PLACEMENT_3D('', #1180, #1181, $);
#1183 = PLANE('', #1182);
#1184 = CARTESIAN_POINT('', (4., 22.5, 14.5));
#1185 = DIRECTION('', (-0., 0.70710678, 0.70710678));
#1186 = AXIS2_PLACEMENT_3D('', #1184, #1185, $);
#1187 = PLANE('', #1186);
#1188 = CARTESIAN_POINT('', (0., 0., 0.));
#1189 = DIRECTION('', (1., -0., 0.));
#1190 = AXIS2_PLACEMENT_3D('', #1188, #1189, $);
#1191 = PLANE('', #1190);
#1192 = CARTESIAN_POINT('', (8., 0., 0.));
#1193 = DIRECTION('', (1., -0., 0.));
#1194 = AXIS2_PLACEMENT_3D('', #1192, #1193, $);
#1195 = PLANE('', #1194);
#1196 = CARTESIAN_POINT('', (217., 0., -0.));
#1197 = DIRECTION('', (1., -0., -0.));
#1198 = DIRECTION('', (0., 1., 0.));
#1199 = AXIS2_PLACEMENT_3D('', #1196, #1197, #1198);
#1200 = CYLINDRICAL_SURFACE('', #1199, 22.);
#1201 = CARTESIAN_POINT('', (214., 0., 0.));
#1202 = DIRECTION('', (1., -0., 0.));
#1203 = AXIS2_PLACEMENT_3D('', #1201, #1202, $);
#1204 = PLANE('', #1203);
#1205 = CARTESIAN_POINT('', (220., 0., 0.));
#1206 = DIRECTION('', (1., -0., 0.));
#1207 = AXIS2_PLACEMENT_3D('', #1205, #1206, $);
#1208 = PLANE('', #1207);
#1209 = CARTESIAN_POINT('', (8., -0., -0.));
#1210 = DIRECTION('', (1., -0., -0.));
#1211 = DIRECTION('', (0., 1., 0.));
#1212 = AXIS2_PLACEMENT_3D('', #1209, #1210, #1211);
#1213 = CYLINDRICAL_SURFACE('', #1212, 13.);
#1214 = CARTESIAN_POINT('', (16., 0., 0.));
#1215 = DIRECTION('', (1., -0., 0.));
#1216 = AXIS2_PLACEMENT_3D('', #1214, #1215, $);
#1217 = PLANE('', #1216);
#1218 = CARTESIAN_POINT('', (212., -0., -0.));
#1219 = DIRECTION('', (1., -0., -0.));
#1220 = DIRECTION('', (0., 1., 0.));
#1221 = AXIS2_PLACEMENT_3D('', #1218, #1219, #1220);
#1222 = CYLINDRICAL_SURFACE('', #1221, 13.);
#1223 = CARTESIAN_POINT('', (204., 0., 0.));
#1224 = DIRECTION('', (1., -0., 0.));
#1225 = AXIS2_PLACEMENT_3D('', #1223, #1224, $);
#1226 = PLANE('', #1225);
#1227 = CARTESIAN_POINT('', (110., 0., -0.));
#1228 = DIRECTION('', (1., -0., -0.));
#1229 = DIRECTION('', (0., 1., 0.));
#1230 = AXIS2_PLACEMENT_3D('', #1227, #1228, #1229);
#1231 = CYLINDRICAL_SURFACE('', #1230, 7.);
#1232 = CARTESIAN_POINT('', (4., 16., 10.));
#1233 = DIRECTION('', (1., -0., 0.));
#1234 = DIRECTION('', (0., 1., -0.));
#1235 = AXIS2_PLACEMENT_3D('', #1232, #1233, #1234);
#1236 = CYLINDRICAL_SURFACE('', #1235, 2.1);
#1237 = CARTESIAN_POINT('', (4., -16., 10.));
#1238 = DIRECTION('', (1., -0., -0.));
#1239 = DIRECTION('', (0., 1., 0.));
#1240 = AXIS2_PLACEMENT_3D('', #1237, #1238, #1239);
#1241 = CYLINDRICAL_SURFACE('', #1240, 2.1);
#1242 = CARTESIAN_POINT('', (4., -16., -10.));
#1243 = DIRECTION('', (1., -0., -0.));
#1244 = DIRECTION('', (0., 1., 0.));
#1245 = AXIS2_PLACEMENT_3D('', #1242, #1243, #1244);
#1246 = CYLINDRICAL_SURFACE('', #1245, 2.1);
#1247 = CARTESIAN_POINT('', (4., 16., -10.));
#1248 = DIRECTION('', (1., -0., -0.));
#1249 = DIRECTION('', (0., 1., 0.));
#1250 = AXIS2_PLACEMENT_3D('', #1247, #1248, #1249);
#1251 = CYLINDRICAL_SURFACE('', #1250, 2.1);
#1252 = CARTESIAN_POINT('', (217., 8., 8.));
#1253 = DIRECTION('', (1., -0., -0.));
#1254 = DIRECTION('', (0., 1., 0.));
#1255 = AXIS2_PLACEMENT_3D('', #1252, #1253, #1254);
#1256 = CYLINDRICAL_SURFACE('', #1255, 1.6);
#1257 = CARTESIAN_POINT('', (213., 0., 0.));
#1258 = DIRECTION('', (1., -0., 0.));
#1259 = AXIS2_PLACEMENT_3D('', #1257, #1258, $);
#1260 = PLANE('', #1259);
#1261 = CARTESIAN_POINT('', (217., -8., 8.));
#1262 = DIRECTION('', (1., -0., -0.));
#1263 = DIRECTION('', (0., 1., 0.));
#1264 = AXIS2_PLACEMENT_3D('', #1261, #1262, #1263);
#1265 = CYLINDRICAL_SURFACE('', #1264, 1.6);
#1266 = CARTESIAN_POINT('', (213., 0., 0.));
#1267 = DIRECTION('', (1., -0., 0.));
#1268 = AXIS2_PLACEMENT_3D('', #1266, #1267, $);
#1269 = PLANE('', #1268);
#1270 = CARTESIAN_POINT('', (217., -8., -8.));
#1271 = DIRECTION('', (1., -0., -0.));
#1272 = DIRECTION('', (0., 1., 0.));
#1273 = AXIS2_PLACEMENT_3D('', #1270, #1271, #1272);
#1274 = CYLINDRICAL_SURFACE('', #1273, 1.6);
#1275 = CARTESIAN_POINT('', (213., 0., 0.));
#1276 = DIRECTION('', (1., -0., 0.));
#1277 = AXIS2_PLACEMENT_3D('', #1275, #1276, $);
#1278 = PLANE('', #1277);
#1279 = CARTESIAN_POINT('', (217., 8., -8.));
#1280 = DIRECTION('', (1., -0., -0.));
#1281 = DIRECTION('', (0., 1., 0.));
#1282 = AXIS2_PLACEMENT_3D('', #1279, #1280, #1281);
#1283 = CYLINDRICAL_SURFACE('', #1282, 1.6);
#1284 = CARTESIAN_POINT('', (213., 0., 0.));
#1285 = DIRECTION('', (1., -0., 0.));
#1286 = AXIS2_PLACEMENT_3D('', #1284, #1285, $);
#1287 = PLANE('', #1286);
#1288 = ORIENTED_EDGE('', *, *, #1012, .F.);
#1289 = ORIENTED_EDGE('', *, *, #1011, .F.);
#1290 = ORIENTED_EDGE('', *, *, #1013, .F.);
#1291 = ORIENTED_EDGE('', *, *, #985, .F.);
#1292 = ORIENTED_EDGE('', *, *, #1062, .T.);
#1293 = ORIENTED_EDGE('', *, *, #1061, .F.);
#1294 = ORIENTED_EDGE('', *, *, #1058, .F.);
#1295 = ORIENTED_EDGE('', *, *, #1057, .T.);
#1296 = EDGE_LOOP('', (#1288, #1289, #1290, #1291));
#1297 = FACE_BOUND('', #1296, .T.);
#1298 = EDGE_LOOP('', (#1292, #1293, #1294, #1295));
#1299 = FACE_BOUND('', #1298, .T.);
#1300 = ADVANCED_FACE('', (#1297, #1299), #1151, .F.);
#1301 = ORIENTED_EDGE('', *, *, #986, .T.);
#1302 = ORIENTED_EDGE('', *, *, #1111, .T.);
#1303 = ORIENTED_EDGE('', *, *, #1115, .T.);
#1304 = ORIENTED_EDGE('', *, *, #1022, .T.);
#1305 = ORIENTED_EDGE('', *, *, #1120, .T.);
#1306 = ORIENTED_EDGE('', *, *, #1124, .T.);
#1307 = ORIENTED_EDGE('', *, *, #1133, .F.);
#1308 = ORIENTED_EDGE('', *, *, #1129, .F.);
#1309 = ORIENTED_EDGE('', *, *, #1021, .F.);
#1310 = ORIENTED_EDGE('', *, *, #1142, .F.);
#1311 = ORIENTED_EDGE('', *, *, #1138, .F.);
#1312 = ORIENTED_EDGE('', *, *, #1020, .F.);
#1313 = ORIENTED_EDGE('', *, *, #1059, .F.);
#1314 = ORIENTED_EDGE('', *, *, #1060, .T.);
#1315 = ORIENTED_EDGE('', *, *, #1063, .T.);
#1316 = ORIENTED_EDGE('', *, *, #1064, .F.);
#1317 = EDGE_LOOP('', (#1301, #1302, #1303, #1304, #1305, #1306, #1307, #1308, #1309, #1310, #1311, #1312));
#1318 = FACE_BOUND('', #1317, .T.);
#1319 = EDGE_LOOP('', (#1313, #1314, #1315, #1316));
#1320 = FACE_BOUND('', #1319, .T.);
#1321 = ADVANCED_FACE('', (#1318, #1320), #1155, .T.);
#1322 = ORIENTED_EDGE('', *, *, #987, .T.);
#1323 = ORIENTED_EDGE('', *, *, #988, .T.);
#1324 = ORIENTED_EDGE('', *, *, #989, .F.);
#1325 = ORIENTED_EDGE('', *, *, #990, .F.);
#1326 = EDGE_LOOP('', (#1322, #1323, #1324, #1325));
#1327 = FACE_BOUND('', #1326, .T.);
#1328 = ADVANCED_FACE('', (#1327), #1159, .T.);
#1329 = ORIENTED_EDGE('', *, *, #991, .T.);
#1330 = ORIENTED_EDGE('', *, *, #992, .T.);
#1331 = ORIENTED_EDGE('', *, *, #993, .F.);
#1332 = ORIENTED_EDGE('', *, *, #988, .F.);
#1333 = EDGE_LOOP('', (#1329, #1330, #1331, #1332));
#1334 = FACE_BOUND('', #1333, .T.);
#1335 = ADVANCED_FACE('', (#1334), #1163, .T.);
#1336 = ORIENTED_EDGE('', *, *, #994, .T.);
#1337 = ORIENTED_EDGE('', *, *, #995, .T.);
#1338 = ORIENTED_EDGE('', *, *, #996, .F.);
#1339 = ORIENTED_EDGE('', *, *, #992, .F.);
#1340 = EDGE_LOOP('', (#1336, #1337, #1338, #1339));
#1341 = FACE_BOUND('', #1340, .T.);
#1342 = ADVANCED_FACE('', (#1341), #1167, .T.);
#1343 = ORIENTED_EDGE('', *, *, #997, .T.);
#1344 = ORIENTED_EDGE('', *, *, #998, .T.);
#1345 = ORIENTED_EDGE('', *, *, #999, .F.);
#1346 = ORIENTED_EDGE('', *, *, #995, .F.);
#1347 = EDGE_LOOP('', (#1343, #1344, #1345, #1346));
#1348 = FACE_BOUND('', #1347, .T.);
#1349 = ADVANCED_FACE('', (#1348), #1171, .T.);
#1350 = ORIENTED_EDGE('', *, *, #1000, .T.);
#1351 = ORIENTED_EDGE('', *, *, #1001, .T.);
#1352 = ORIENTED_EDGE('', *, *, #1002, .F.);
#1353 = ORIENTED_EDGE('', *, *, #998, .F.);
#1354 = EDGE_LOOP('', (#1350, #1351, #1352, #1353));
#1355 = FACE_BOUND('', #1354, .T.);
#1356 = ADVANCED_FACE('', (#1355), #1175, .T.);
#1357 = ORIENTED_EDGE('', *, *, #1003, .T.);
#1358 = ORIENTED_EDGE('', *, *, #1004, .T.);
#1359 = ORIENTED_EDGE('', *, *, #1005, .F.);
#1360 = ORIENTED_EDGE('', *, *, #1001, .F.);
#1361 = EDGE_LOOP('', (#1357, #1358, #1359, #1360));
#1362 = FACE_BOUND('', #1361, .T.);
#1363 = ADVANCED_FACE('', (#1362), #1179, .T.);
#1364 = ORIENTED_EDGE('', *, *, #1006, .T.);
#1365 = ORIENTED_EDGE('', *, *, #1007, .T.);
#1366 = ORIENTED_EDGE('', *, *, #1008, .F.);
#1367 = ORIENTED_EDGE('', *, *, #1004, .F.);
#1368 = EDGE_LOOP('', (#1364, #1365, #1366, #1367));
#1369 = FACE_BOUND('', #1368, .T.);
#1370 = ADVANCED_FACE('', (#1369), #1183, .T.);
#1371 = ORIENTED_EDGE('', *, *, #1009, .T.);
#1372 = ORIENTED_EDGE('', *, *, #990, .T.);
#1373 = ORIENTED_EDGE('', *, *, #1010, .F.);
#1374 = ORIENTED_EDGE('', *, *, #1007, .F.);
#1375 = EDGE_LOOP('', (#1371, #1372, #1373, #1374));
#1376 = FACE_BOUND('', #1375, .T.);
#1377 = ADVANCED_FACE('', (#1376), #1187, .T.);
#1378 = ORIENTED_EDGE('', *, *, #1009, .F.);
#1379 = ORIENTED_EDGE('', *, *, #1006, .F.);
#1380 = ORIENTED_EDGE('', *, *, #1003, .F.);
#1381 = ORIENTED_EDGE('', *, *, #1000, .F.);
#1382 = ORIENTED_EDGE('', *, *, #997, .F.);
#1383 = ORIENTED_EDGE('', *, *, #994, .F.);
#1384 = ORIENTED_EDGE('', *, *, #991, .F.);
#1385 = ORIENTED_EDGE('', *, *, #987, .F.);
#1386 = ORIENTED_EDGE('', *, *, #1032, .T.);
#1387 = ORIENTED_EDGE('', *, *, #1026, .T.);
#1388 = ORIENTED_EDGE('', *, *, #1031, .T.);
#1389 = ORIENTED_EDGE('', *, *, #1023, .T.);
#1390 = ORIENTED_EDGE('', *, *, #1072, .T.);
#1391 = ORIENTED_EDGE('', *, *, #1071, .F.);
#1392 = ORIENTED_EDGE('', *, *, #1068, .F.);
#1393 = ORIENTED_EDGE('', *, *, #1067, .T.);
#1394 = ORIENTED_EDGE('', *, *, #1082, .T.);
#1395 = ORIENTED_EDGE('', *, *, #1081, .F.);
#1396 = ORIENTED_EDGE('', *, *, #1078, .F.);
#1397 = ORIENTED_EDGE('', *, *, #1077, .T.);
#1398 = ORIENTED_EDGE('', *, *, #1092, .T.);
#1399 = ORIENTED_EDGE('', *, *, #1091, .F.);
#1400 = ORIENTED_EDGE('', *, *, #1088, .F.);
#1401 = ORIENTED_EDGE('', *, *, #1087, .T.);
#1402 = ORIENTED_EDGE('', *, *, #1102, .T.);
#1403 = ORIENTED_EDGE('', *, *, #1101, .F.);
#1404 = ORIENTED_EDGE('', *, *, #1098, .F.);
#1405 = ORIENTED_EDGE('', *, *, #1097, .T.);
#1406 = EDGE_LOOP('', (#1378, #1379, #1380, #1381, #1382, #1383, #1384, #1385));
#1407 = FACE_BOUND('', #1406, .T.);
#1408 = EDGE_LOOP('', (#1386, #1387, #1388, #1389));
#1409 = FACE_BOUND('', #1408, .T.);
#1410 = EDGE_LOOP('', (#1390, #1391, #1392, #1393));
#1411 = FACE_BOUND('', #1410, .T.);
#1412 = EDGE_LOOP('', (#1394, #1395, #1396, #1397));
#1413 = FACE_BOUND('', #1412, .T.);
#1414 = EDGE_LOOP('', (#1398, #1399, #1400, #1401));
#1415 = FACE_BOUND('', #1414, .T.);
#1416 = EDGE_LOOP('', (#1402, #1403, #1404, #1405));
#1417 = FACE_BOUND('', #1416, .T.);
#1418 = ADVANCED_FACE('', (#1407, #1409, #1411, #1413, #1415, #1417), #1191, .F.);
#1419 = ORIENTED_EDGE('', *, *, #989, .T.);
#1420 = ORIENTED_EDGE('', *, *, #993, .T.);
#1421 = ORIENTED_EDGE('', *, *, #996, .T.);
#1422 = ORIENTED_EDGE('', *, *, #999, .T.);
#1423 = ORIENTED_EDGE('', *, *, #1002, .T.);
#1424 = ORIENTED_EDGE('', *, *, #1005, .T.);
#1425 = ORIENTED_EDGE('', *, *, #1008, .T.);
#1426 = ORIENTED_EDGE('', *, *, #1010, .T.);
#1427 = ORIENTED_EDGE('', *, *, #1027, .F.);
#1428 = ORIENTED_EDGE('', *, *, #1028, .T.);
#1429 = ORIENTED_EDGE('', *, *, #1033, .T.);
#1430 = ORIENTED_EDGE('', *, *, #1034, .F.);
#1431 = ORIENTED_EDGE('', *, *, #1069, .F.);
#1432 = ORIENTED_EDGE('', *, *, #1070, .T.);
#1433 = ORIENTED_EDGE('', *, *, #1073, .T.);
#1434 = ORIENTED_EDGE('', *, *, #1074, .F.);
#1435 = ORIENTED_EDGE('', *, *, #1079, .F.);
#1436 = ORIENTED_EDGE('', *, *, #1080, .T.);
#1437 = ORIENTED_EDGE('', *, *, #1083, .T.);
#1438 = ORIENTED_EDGE('', *, *, #1084, .F.);
#1439 = ORIENTED_EDGE('', *, *, #1089, .F.);
#1440 = ORIENTED_EDGE('', *, *, #1090, .T.);
#1441 = ORIENTED_EDGE('', *, *, #1093, .T.);
#1442 = ORIENTED_EDGE('', *, *, #1094, .F.);
#1443 = ORIENTED_EDGE('', *, *, #1099, .F.);
#1444 = ORIENTED_EDGE('', *, *, #1100, .T.);
#1445 = ORIENTED_EDGE('', *, *, #1103, .T.);
#1446 = ORIENTED_EDGE('', *, *, #1104, .F.);
#1447 = EDGE_LOOP('', (#1419, #1420, #1421, #1422, #1423, #1424, #1425, #1426));
#1448 = FACE_BOUND('', #1447, .T.);
#1449 = EDGE_LOOP('', (#1427, #1428, #1429, #1430));
#1450 = FACE_BOUND('', #1449, .T.);
#1451 = EDGE_LOOP('', (#1431, #1432, #1433, #1434));
#1452 = FACE_BOUND('', #1451, .T.);
#1453 = EDGE_LOOP('', (#1435, #1436, #1437, #1438));
#1454 = FACE_BOUND('', #1453, .T.);
#1455 = EDGE_LOOP('', (#1439, #1440, #1441, #1442));
#1456 = FACE_BOUND('', #1455, .T.);
#1457 = EDGE_LOOP('', (#1443, #1444, #1445, #1446));
#1458 = FACE_BOUND('', #1457, .T.);
#1459 = ADVANCED_FACE('', (#1448, #1450, #1452, #1454, #1456, #1458), #1195, .T.);
#1460 = ORIENTED_EDGE('', *, *, #1019, .T.);
#1461 = ORIENTED_EDGE('', *, *, #1016, .F.);
#1462 = ORIENTED_EDGE('', *, *, #1015, .F.);
#1463 = ORIENTED_EDGE('', *, *, #1014, .T.);
#1464 = EDGE_LOOP('', (#1460, #1461, #1462, #1463));
#1465 = FACE_BOUND('', #1464, .T.);
#1466 = ADVANCED_FACE('', (#1465), #1200, .T.);
#1467 = ORIENTED_EDGE('', *, *, #1017, .F.);
#1468 = ORIENTED_EDGE('', *, *, #1014, .F.);
#1469 = ORIENTED_EDGE('', *, *, #1052, .T.);
#1470 = ORIENTED_EDGE('', *, *, #1051, .F.);
#1471 = ORIENTED_EDGE('', *, *, #1047, .F.);
#1472 = ORIENTED_EDGE('', *, *, #1046, .T.);
#1473 = EDGE_LOOP('', (#1467, #1468));
#1474 = FACE_BOUND('', #1473, .T.);
#1475 = EDGE_LOOP('', (#1469, #1470, #1471, #1472));
#1476 = FACE_BOUND('', #1475, .T.);
#1477 = ADVANCED_FACE('', (#1474, #1476), #1204, .F.);
#1478 = ORIENTED_EDGE('', *, *, #1016, .T.);
#1479 = ORIENTED_EDGE('', *, *, #1018, .T.);
#1480 = ORIENTED_EDGE('', *, *, #1054, .F.);
#1481 = ORIENTED_EDGE('', *, *, #1043, .F.);
#1482 = ORIENTED_EDGE('', *, *, #1048, .T.);
#1483 = ORIENTED_EDGE('', *, *, #1053, .T.);
#1484 = EDGE_LOOP('', (#1478, #1479));
#1485 = FACE_BOUND('', #1484, .T.);
#1486 = EDGE_LOOP('', (#1480, #1481, #1482, #1483));
#1487 = FACE_BOUND('', #1486, .T.);
#1488 = ADVANCED_FACE('', (#1485, #1487), #1208, .T.);
#1489 = ORIENTED_EDGE('', *, *, #1019, .F.);
#1490 = ORIENTED_EDGE('', *, *, #1017, .T.);
#1491 = ORIENTED_EDGE('', *, *, #1015, .T.);
#1492 = ORIENTED_EDGE('', *, *, #1018, .F.);
#1493 = EDGE_LOOP('', (#1489, #1490, #1491, #1492));
#1494 = FACE_BOUND('', #1493, .T.);
#1495 = ADVANCED_FACE('', (#1494), #1200, .T.);
#1496 = ORIENTED_EDGE('', *, *, #1024, .T.);
#1497 = ORIENTED_EDGE('', *, *, #1025, .T.);
#1498 = ORIENTED_EDGE('', *, *, #1029, .F.);
#1499 = ORIENTED_EDGE('', *, *, #1030, .T.);
#1500 = ORIENTED_EDGE('', *, *, #1035, .T.);
#1501 = ORIENTED_EDGE('', *, *, #1036, .F.);
#1502 = EDGE_LOOP('', (#1496, #1497));
#1503 = FACE_BOUND('', #1502, .T.);
#1504 = EDGE_LOOP('', (#1498, #1499, #1500, #1501));
#1505 = FACE_BOUND('', #1504, .T.);
#1506 = ADVANCED_FACE('', (#1503, #1505), #1217, .T.);
#1507 = ORIENTED_EDGE('', *, *, #1037, .T.);
#1508 = ORIENTED_EDGE('', *, *, #1055, .F.);
#1509 = ORIENTED_EDGE('', *, *, #1050, .F.);
#1510 = ORIENTED_EDGE('', *, *, #1038, .F.);
#1511 = ORIENTED_EDGE('', *, *, #1029, .T.);
#1512 = ORIENTED_EDGE('', *, *, #1036, .T.);
#1513 = EDGE_LOOP('', (#1507, #1508, #1509, #1510, #1511, #1512));
#1514 = FACE_BOUND('', #1513, .T.);
#1515 = ADVANCED_FACE('', (#1514), #1147, .T.);
#1516 = ORIENTED_EDGE('', *, *, #1039, .F.);
#1517 = ORIENTED_EDGE('', *, *, #1033, .F.);
#1518 = ORIENTED_EDGE('', *, *, #1028, .F.);
#1519 = ORIENTED_EDGE('', *, *, #1040, .T.);
#1520 = ORIENTED_EDGE('', *, *, #1025, .F.);
#1521 = EDGE_LOOP('', (#1516, #1517, #1518, #1519, #1520));
#1522 = FACE_BOUND('', #1521, .T.);
#1523 = ADVANCED_FACE('', (#1522), #1213, .T.);
#1524 = ORIENTED_EDGE('', *, *, #1039, .T.);
#1525 = ORIENTED_EDGE('', *, *, #1024, .F.);
#1526 = ORIENTED_EDGE('', *, *, #1040, .F.);
#1527 = ORIENTED_EDGE('', *, *, #1027, .T.);
#1528 = ORIENTED_EDGE('', *, *, #1034, .T.);
#1529 = EDGE_LOOP('', (#1524, #1525, #1526, #1527, #1528));
#1530 = FACE_BOUND('', #1529, .T.);
#1531 = ADVANCED_FACE('', (#1530), #1213, .T.);
#1532 = ORIENTED_EDGE('', *, *, #1031, .F.);
#1533 = ORIENTED_EDGE('', *, *, #1026, .F.);
#1534 = ORIENTED_EDGE('', *, *, #1032, .F.);
#1535 = ORIENTED_EDGE('', *, *, #1023, .F.);
#1536 = ORIENTED_EDGE('', *, *, #1013, .T.);
#1537 = ORIENTED_EDGE('', *, *, #1011, .T.);
#1538 = ORIENTED_EDGE('', *, *, #1012, .T.);
#1539 = ORIENTED_EDGE('', *, *, #985, .T.);
#1540 = EDGE_LOOP('', (#1532, #1533, #1534, #1535));
#1541 = FACE_BOUND('', #1540, .T.);
#1542 = EDGE_LOOP('', (#1536, #1537, #1538, #1539));
#1543 = FACE_BOUND('', #1542, .T.);
#1544 = ADVANCED_FACE('', (#1541, #1543), #1191, .F.);
#1545 = ORIENTED_EDGE('', *, *, #1044, .F.);
#1546 = ORIENTED_EDGE('', *, *, #1041, .F.);
#1547 = ORIENTED_EDGE('', *, *, #1050, .T.);
#1548 = ORIENTED_EDGE('', *, *, #1055, .T.);
#1549 = ORIENTED_EDGE('', *, *, #1056, .F.);
#1550 = ORIENTED_EDGE('', *, *, #1049, .F.);
#1551 = EDGE_LOOP('', (#1545, #1546));
#1552 = FACE_BOUND('', #1551, .T.);
#1553 = EDGE_LOOP('', (#1547, #1548, #1549, #1550));
#1554 = FACE_BOUND('', #1553, .T.);
#1555 = ADVANCED_FACE('', (#1552, #1554), #1226, .F.);
#1556 = ORIENTED_EDGE('', *, *, #1037, .F.);
#1557 = ORIENTED_EDGE('', *, *, #1035, .F.);
#1558 = ORIENTED_EDGE('', *, *, #1030, .F.);
#1559 = ORIENTED_EDGE('', *, *, #1038, .T.);
#1560 = ORIENTED_EDGE('', *, *, #1049, .T.);
#1561 = ORIENTED_EDGE('', *, *, #1056, .T.);
#1562 = EDGE_LOOP('', (#1556, #1557, #1558, #1559, #1560, #1561));
#1563 = FACE_BOUND('', #1562, .T.);
#1564 = ADVANCED_FACE('', (#1563), #1147, .T.);
#1565 = ORIENTED_EDGE('', *, *, #1054, .T.);
#1566 = ORIENTED_EDGE('', *, *, #1053, .F.);
#1567 = ORIENTED_EDGE('', *, *, #1048, .F.);
#1568 = ORIENTED_EDGE('', *, *, #1043, .T.);
#1569 = ORIENTED_EDGE('', *, *, #1020, .T.);
#1570 = ORIENTED_EDGE('', *, *, #1139, .F.);
#1571 = ORIENTED_EDGE('', *, *, #1141, .T.);
#1572 = ORIENTED_EDGE('', *, *, #1140, .F.);
#1573 = ORIENTED_EDGE('', *, *, #1142, .T.);
#1574 = ORIENTED_EDGE('', *, *, #1021, .T.);
#1575 = ORIENTED_EDGE('', *, *, #1130, .F.);
#1576 = ORIENTED_EDGE('', *, *, #1132, .T.);
#1577 = ORIENTED_EDGE('', *, *, #1131, .F.);
#1578 = ORIENTED_EDGE('', *, *, #1133, .T.);
#1579 = ORIENTED_EDGE('', *, *, #1124, .F.);
#1580 = ORIENTED_EDGE('', *, *, #1123, .T.);
#1581 = ORIENTED_EDGE('', *, *, #1121, .F.);
#1582 = ORIENTED_EDGE('', *, *, #1122, .T.);
#1583 = ORIENTED_EDGE('', *, *, #1022, .F.);
#1584 = ORIENTED_EDGE('', *, *, #1115, .F.);
#1585 = ORIENTED_EDGE('', *, *, #1114, .T.);
#1586 = ORIENTED_EDGE('', *, *, #1112, .F.);
#1587 = ORIENTED_EDGE('', *, *, #1113, .T.);
#1588 = ORIENTED_EDGE('', *, *, #986, .F.);
#1589 = EDGE_LOOP('', (#1565, #1566, #1567, #1568));
#1590 = FACE_BOUND('', #1589, .T.);
#1591 = EDGE_LOOP('', (#1569, #1570, #1571, #1572, #1573, #1574, #1575, #1576, #1577, #1578, #1579, #1580, #1581, #1582, #1583, #1584, #1585, #1586, #1587, #1588));
#1592 = FACE_BOUND('', #1591, .T.);
#1593 = ADVANCED_FACE('', (#1590, #1592), #1208, .T.);
#1594 = ORIENTED_EDGE('', *, *, #1045, .F.);
#1595 = ORIENTED_EDGE('', *, *, #1044, .T.);
#1596 = ORIENTED_EDGE('', *, *, #1042, .T.);
#1597 = ORIENTED_EDGE('', *, *, #1047, .T.);
#1598 = ORIENTED_EDGE('', *, *, #1051, .T.);
#1599 = EDGE_LOOP('', (#1594, #1595, #1596, #1597, #1598));
#1600 = FACE_BOUND('', #1599, .T.);
#1601 = ADVANCED_FACE('', (#1600), #1222, .T.);
#1602 = ORIENTED_EDGE('', *, *, #1045, .T.);
#1603 = ORIENTED_EDGE('', *, *, #1052, .F.);
#1604 = ORIENTED_EDGE('', *, *, #1046, .F.);
#1605 = ORIENTED_EDGE('', *, *, #1042, .F.);
#1606 = ORIENTED_EDGE('', *, *, #1041, .T.);
#1607 = EDGE_LOOP('', (#1602, #1603, #1604, #1605, #1606));
#1608 = FACE_BOUND('', #1607, .T.);
#1609 = ADVANCED_FACE('', (#1608), #1222, .T.);
#1610 = ORIENTED_EDGE('', *, *, #1062, .F.);
#1611 = ORIENTED_EDGE('', *, *, #1057, .F.);
#1612 = ORIENTED_EDGE('', *, *, #1066, .T.);
#1613 = ORIENTED_EDGE('', *, *, #1059, .T.);
#1614 = ORIENTED_EDGE('', *, *, #1064, .T.);
#1615 = ORIENTED_EDGE('', *, *, #1065, .F.);
#1616 = EDGE_LOOP('', (#1610, #1611, #1612, #1613, #1614, #1615));
#1617 = FACE_BOUND('', #1616, .T.);
#1618 = ADVANCED_FACE('', (#1617), #1231, .F.);
#1619 = ORIENTED_EDGE('', *, *, #1063, .F.);
#1620 = ORIENTED_EDGE('', *, *, #1060, .F.);
#1621 = ORIENTED_EDGE('', *, *, #1066, .F.);
#1622 = ORIENTED_EDGE('', *, *, #1058, .T.);
#1623 = ORIENTED_EDGE('', *, *, #1061, .T.);
#1624 = ORIENTED_EDGE('', *, *, #1065, .T.);
#1625 = EDGE_LOOP('', (#1619, #1620, #1621, #1622, #1623, #1624));
#1626 = FACE_BOUND('', #1625, .T.);
#1627 = ADVANCED_FACE('', (#1626), #1231, .F.);
#1628 = ORIENTED_EDGE('', *, *, #1072, .F.);
#1629 = ORIENTED_EDGE('', *, *, #1067, .F.);
#1630 = ORIENTED_EDGE('', *, *, #1076, .T.);
#1631 = ORIENTED_EDGE('', *, *, #1069, .T.);
#1632 = ORIENTED_EDGE('', *, *, #1074, .T.);
#1633 = ORIENTED_EDGE('', *, *, #1075, .F.);
#1634 = EDGE_LOOP('', (#1628, #1629, #1630, #1631, #1632, #1633));
#1635 = FACE_BOUND('', #1634, .T.);
#1636 = ADVANCED_FACE('', (#1635), #1236, .F.);
#1637 = ORIENTED_EDGE('', *, *, #1073, .F.);
#1638 = ORIENTED_EDGE('', *, *, #1070, .F.);
#1639 = ORIENTED_EDGE('', *, *, #1076, .F.);
#1640 = ORIENTED_EDGE('', *, *, #1068, .T.);
#1641 = ORIENTED_EDGE('', *, *, #1071, .T.);
#1642 = ORIENTED_EDGE('', *, *, #1075, .T.);
#1643 = EDGE_LOOP('', (#1637, #1638, #1639, #1640, #1641, #1642));
#1644 = FACE_BOUND('', #1643, .T.);
#1645 = ADVANCED_FACE('', (#1644), #1236, .F.);
#1646 = ORIENTED_EDGE('', *, *, #1082, .F.);
#1647 = ORIENTED_EDGE('', *, *, #1077, .F.);
#1648 = ORIENTED_EDGE('', *, *, #1086, .T.);
#1649 = ORIENTED_EDGE('', *, *, #1079, .T.);
#1650 = ORIENTED_EDGE('', *, *, #1084, .T.);
#1651 = ORIENTED_EDGE('', *, *, #1085, .F.);
#1652 = EDGE_LOOP('', (#1646, #1647, #1648, #1649, #1650, #1651));
#1653 = FACE_BOUND('', #1652, .T.);
#1654 = ADVANCED_FACE('', (#1653), #1241, .F.);
#1655 = ORIENTED_EDGE('', *, *, #1083, .F.);
#1656 = ORIENTED_EDGE('', *, *, #1080, .F.);
#1657 = ORIENTED_EDGE('', *, *, #1086, .F.);
#1658 = ORIENTED_EDGE('', *, *, #1078, .T.);
#1659 = ORIENTED_EDGE('', *, *, #1081, .T.);
#1660 = ORIENTED_EDGE('', *, *, #1085, .T.);
#1661 = EDGE_LOOP('', (#1655, #1656, #1657, #1658, #1659, #1660));
#1662 = FACE_BOUND('', #1661, .T.);
#1663 = ADVANCED_FACE('', (#1662), #1241, .F.);
#1664 = ORIENTED_EDGE('', *, *, #1092, .F.);
#1665 = ORIENTED_EDGE('', *, *, #1087, .F.);
#1666 = ORIENTED_EDGE('', *, *, #1096, .T.);
#1667 = ORIENTED_EDGE('', *, *, #1089, .T.);
#1668 = ORIENTED_EDGE('', *, *, #1094, .T.);
#1669 = ORIENTED_EDGE('', *, *, #1095, .F.);
#1670 = EDGE_LOOP('', (#1664, #1665, #1666, #1667, #1668, #1669));
#1671 = FACE_BOUND('', #1670, .T.);
#1672 = ADVANCED_FACE('', (#1671), #1246, .F.);
#1673 = ORIENTED_EDGE('', *, *, #1093, .F.);
#1674 = ORIENTED_EDGE('', *, *, #1090, .F.);
#1675 = ORIENTED_EDGE('', *, *, #1096, .F.);
#1676 = ORIENTED_EDGE('', *, *, #1088, .T.);
#1677 = ORIENTED_EDGE('', *, *, #1091, .T.);
#1678 = ORIENTED_EDGE('', *, *, #1095, .T.);
#1679 = EDGE_LOOP('', (#1673, #1674, #1675, #1676, #1677, #1678));
#1680 = FACE_BOUND('', #1679, .T.);
#1681 = ADVANCED_FACE('', (#1680), #1246, .F.);
#1682 = ORIENTED_EDGE('', *, *, #1102, .F.);
#1683 = ORIENTED_EDGE('', *, *, #1097, .F.);
#1684 = ORIENTED_EDGE('', *, *, #1106, .T.);
#1685 = ORIENTED_EDGE('', *, *, #1099, .T.);
#1686 = ORIENTED_EDGE('', *, *, #1104, .T.);
#1687 = ORIENTED_EDGE('', *, *, #1105, .F.);
#1688 = EDGE_LOOP('', (#1682, #1683, #1684, #1685, #1686, #1687));
#1689 = FACE_BOUND('', #1688, .T.);
#1690 = ADVANCED_FACE('', (#1689), #1251, .F.);
#1691 = ORIENTED_EDGE('', *, *, #1103, .F.);
#1692 = ORIENTED_EDGE('', *, *, #1100, .F.);
#1693 = ORIENTED_EDGE('', *, *, #1106, .F.);
#1694 = ORIENTED_EDGE('', *, *, #1098, .T.);
#1695 = ORIENTED_EDGE('', *, *, #1101, .T.);
#1696 = ORIENTED_EDGE('', *, *, #1105, .T.);
#1697 = EDGE_LOOP('', (#1691, #1692, #1693, #1694, #1695, #1696));
#1698 = FACE_BOUND('', #1697, .T.);
#1699 = ADVANCED_FACE('', (#1698), #1251, .F.);
#1700 = ORIENTED_EDGE('', *, *, #1107, .F.);
#1701 = ORIENTED_EDGE('', *, *, #1108, .T.);
#1702 = ORIENTED_EDGE('', *, *, #1112, .T.);
#1703 = ORIENTED_EDGE('', *, *, #1110, .F.);
#1704 = EDGE_LOOP('', (#1700, #1701, #1702, #1703));
#1705 = FACE_BOUND('', #1704, .T.);
#1706 = ADVANCED_FACE('', (#1705), #1256, .F.);
#1707 = ORIENTED_EDGE('', *, *, #1107, .T.);
#1708 = ORIENTED_EDGE('', *, *, #1109, .T.);
#1709 = EDGE_LOOP('', (#1707, #1708));
#1710 = FACE_BOUND('', #1709, .T.);
#1711 = ADVANCED_FACE('', (#1710), #1260, .T.);
#1712 = ORIENTED_EDGE('', *, *, #1114, .F.);
#1713 = ORIENTED_EDGE('', *, *, #1111, .F.);
#1714 = ORIENTED_EDGE('', *, *, #1113, .F.);
#1715 = ORIENTED_EDGE('', *, *, #1108, .F.);
#1716 = ORIENTED_EDGE('', *, *, #1109, .F.);
#1717 = ORIENTED_EDGE('', *, *, #1110, .T.);
#1718 = EDGE_LOOP('', (#1712, #1713, #1714, #1715, #1716, #1717));
#1719 = FACE_BOUND('', #1718, .T.);
#1720 = ADVANCED_FACE('', (#1719), #1256, .F.);
#1721 = ORIENTED_EDGE('', *, *, #1116, .F.);
#1722 = ORIENTED_EDGE('', *, *, #1117, .T.);
#1723 = ORIENTED_EDGE('', *, *, #1121, .T.);
#1724 = ORIENTED_EDGE('', *, *, #1119, .F.);
#1725 = EDGE_LOOP('', (#1721, #1722, #1723, #1724));
#1726 = FACE_BOUND('', #1725, .T.);
#1727 = ADVANCED_FACE('', (#1726), #1265, .F.);
#1728 = ORIENTED_EDGE('', *, *, #1116, .T.);
#1729 = ORIENTED_EDGE('', *, *, #1118, .T.);
#1730 = EDGE_LOOP('', (#1728, #1729));
#1731 = FACE_BOUND('', #1730, .T.);
#1732 = ADVANCED_FACE('', (#1731), #1269, .T.);
#1733 = ORIENTED_EDGE('', *, *, #1123, .F.);
#1734 = ORIENTED_EDGE('', *, *, #1120, .F.);
#1735 = ORIENTED_EDGE('', *, *, #1122, .F.);
#1736 = ORIENTED_EDGE('', *, *, #1117, .F.);
#1737 = ORIENTED_EDGE('', *, *, #1118, .F.);
#1738 = ORIENTED_EDGE('', *, *, #1119, .T.);
#1739 = EDGE_LOOP('', (#1733, #1734, #1735, #1736, #1737, #1738));
#1740 = FACE_BOUND('', #1739, .T.);
#1741 = ADVANCED_FACE('', (#1740), #1265, .F.);
#1742 = ORIENTED_EDGE('', *, *, #1125, .F.);
#1743 = ORIENTED_EDGE('', *, *, #1126, .T.);
#1744 = ORIENTED_EDGE('', *, *, #1130, .T.);
#1745 = ORIENTED_EDGE('', *, *, #1129, .T.);
#1746 = ORIENTED_EDGE('', *, *, #1131, .T.);
#1747 = ORIENTED_EDGE('', *, *, #1128, .F.);
#1748 = EDGE_LOOP('', (#1742, #1743, #1744, #1745, #1746, #1747));
#1749 = FACE_BOUND('', #1748, .T.);
#1750 = ADVANCED_FACE('', (#1749), #1274, .F.);
#1751 = ORIENTED_EDGE('', *, *, #1125, .T.);
#1752 = ORIENTED_EDGE('', *, *, #1127, .T.);
#1753 = EDGE_LOOP('', (#1751, #1752));
#1754 = FACE_BOUND('', #1753, .T.);
#1755 = ADVANCED_FACE('', (#1754), #1278, .T.);
#1756 = ORIENTED_EDGE('', *, *, #1132, .F.);
#1757 = ORIENTED_EDGE('', *, *, #1126, .F.);
#1758 = ORIENTED_EDGE('', *, *, #1127, .F.);
#1759 = ORIENTED_EDGE('', *, *, #1128, .T.);
#1760 = EDGE_LOOP('', (#1756, #1757, #1758, #1759));
#1761 = FACE_BOUND('', #1760, .T.);
#1762 = ADVANCED_FACE('', (#1761), #1274, .F.);
#1763 = ORIENTED_EDGE('', *, *, #1134, .F.);
#1764 = ORIENTED_EDGE('', *, *, #1135, .T.);
#1765 = ORIENTED_EDGE('', *, *, #1139, .T.);
#1766 = ORIENTED_EDGE('', *, *, #1138, .T.);
#1767 = ORIENTED_EDGE('', *, *, #1140, .T.);
#1768 = ORIENTED_EDGE('', *, *, #1137, .F.);
#1769 = EDGE_LOOP('', (#1763, #1764, #1765, #1766, #1767, #1768));
#1770 = FACE_BOUND('', #1769, .T.);
#1771 = ADVANCED_FACE('', (#1770), #1283, .F.);
#1772 = ORIENTED_EDGE('', *, *, #1134, .T.);
#1773 = ORIENTED_EDGE('', *, *, #1136, .T.);
#1774 = EDGE_LOOP('', (#1772, #1773));
#1775 = FACE_BOUND('', #1774, .T.);
#1776 = ADVANCED_FACE('', (#1775), #1287, .T.);
#1777 = ORIENTED_EDGE('', *, *, #1141, .F.);
#1778 = ORIENTED_EDGE('', *, *, #1135, .F.);
#1779 = ORIENTED_EDGE('', *, *, #1136, .F.);
#1780 = ORIENTED_EDGE('', *, *, #1137, .T.);
#1781 = EDGE_LOOP('', (#1777, #1778, #1779, #1780));
#1782 = FACE_BOUND('', #1781, .T.);
#1783 = ADVANCED_FACE('', (#1782), #1283, .F.);
#1784 = CLOSED_SHELL('', (#1300, #1321, #1328, #1335, #1342, #1349, #1356, #1363, #1370, #1377, #1418, #1459, #1466, #1477, #1488, #1495, #1506, #1515, #1523, #1531, #1544, #1555, #1564, #1593, #1601, #1609, #1618, #1627, #1636, #1645, #1654, #1663, #1672, #1681, #1690, #1699, #1706, #1711, #1720, #1727, #1732, #1741, #1750, #1755, #1762, #1771, #1776, #1783));
#1785 = MANIFOLD_SOLID_BREP('', #1784);
#1786 = APPLICATION_CONTEXT('configuration controlled 3D design of mechanical parts and assemblies');
#1787 = PRODUCT_DEFINITION_CONTEXT('part definition', #1786, 'design');
#1788 = PRODUCT_CONTEXT('', #1786, 'mechanical');
#1789 = PRODUCT('UNIDENTIFIED_PRODUCT', '', $, (#1788));
#1790 = PRODUCT_DEFINITION_FORMATION('', $, #1789);
#1791 = PRODUCT_DEFINITION('design', $, #1790, #1787);
#1792 = PRODUCT_DEFINITION_SHAPE('', '', #1791);
#1793 = ADVANCED_BREP_SHAPE_REPRESENTATION('', (#1785), #4);
#1794 = SHAPE_DEFINITION_REPRESENTATION(#1792, #1793);
#1795 = COLOUR_RGB('', 0.13333334, 0.15686275, 0.17647059);
#1796 = FILL_AREA_STYLE_COLOUR('', #1795);
#1797 = FILL_AREA_STYLE('', (#1796));
#1798 = SURFACE_STYLE_FILL_AREA(#1797);
#1799 = SURFACE_SIDE_STYLE('', (#1798));
#1800 = SURFACE_STYLE_USAGE(.BOTH., #1799);
#1801 = PRESENTATION_STYLE_ASSIGNMENT((#1800));
#1802 = STYLED_ITEM('', (#1801), #1785);
#1803 = MECHANICAL_DESIGN_GEOMETRIC_PRESENTATION_REPRESENTATION('', (#1802), #4);
ENDSEC;
END-ISO-10303-21;
