ISO-10303-21;
HEADER;
FILE_DESCRIPTION(('zoo.dev export'), '2;1');
FILE_NAME('output.step', '2026-06-10T16:59:57.709676488+00:00', (''), (''), 'zoo.dev beta', 'zoo.dev', '');
FILE_SCHEMA(('AP242_MANAGED_MODEL_BASED_3D_ENGINEERING_MIM_LF'));
ENDSEC;
DATA;
#1 = (
  LENGTH_UNIT()
  NAMED_UNIT(*)
  SI_UNIT(.MILLI., .METRE.)
);
#2 = (
  NAMED_UNIT(*)
  PLANE_ANGLE_UNIT()
  SI_UNIT($, .RADIAN.)
);
#3 = UNCERTAINTY_MEASURE_WITH_UNIT(LENGTH_MEASURE(0.01), #1, 'DISTANCE_ACCURACY_VALUE', $);
#4 = (
  GEOMETRIC_REPRESENTATION_CONTEXT(3)
  GLOBAL_UNCERTAINTY_ASSIGNED_CONTEXT((#3))
  GLOBAL_UNIT_ASSIGNED_CONTEXT((#1, #2))
  REPRESENTATION_CONTEXT('3D', '3D context')
);
#5 = CARTESIAN_POINT('', (20., 0., 0.));
#6 = VERTEX_POINT('', #5);
#7 = CARTESIAN_POINT('', (20., 0., 3.));
#8 = VERTEX_POINT('', #7);
#9 = CARTESIAN_POINT('', (5., -0., 0.));
#10 = VERTEX_POINT('', #9);
#11 = CARTESIAN_POINT('', (5., -0., 3.));
#12 = VERTEX_POINT('', #11);
#13 = CARTESIAN_POINT('', (9.6, 9.5, 0.));
#14 = VERTEX_POINT('', #13);
#15 = CARTESIAN_POINT('', (9.6, 9.5, 3.));
#16 = VERTEX_POINT('', #15);
#17 = CARTESIAN_POINT('', (-6.4, 9.5, 0.));
#18 = VERTEX_POINT('', #17);
#19 = CARTESIAN_POINT('', (-6.4, 9.5, 3.));
#20 = VERTEX_POINT('', #19);
#21 = CARTESIAN_POINT('', (-6.4, -9.5, 0.));
#22 = VERTEX_POINT('', #21);
#23 = CARTESIAN_POINT('', (-6.4, -9.5, 3.));
#24 = VERTEX_POINT('', #23);
#25 = CARTESIAN_POINT('', (9.6, -9.5, 0.));
#26 = VERTEX_POINT('', #25);
#27 = CARTESIAN_POINT('', (9.6, -9.5, 3.));
#28 = VERTEX_POINT('', #27);
#29 = DIRECTION('', (1., 0., 0.));
#30 = DIRECTION('', (0., -0., 1.));
#31 = CARTESIAN_POINT('', (0., -0., 0.));
#32 = AXIS2_PLACEMENT_3D('', #31, #30, #29);
#33 = CIRCLE('', #32, 20.);
#34 = DIRECTION('', (0., -0., 1.));
#35 = VECTOR('', #34, 1.);
#36 = CARTESIAN_POINT('', (20., 0., 0.));
#37 = LINE('', #36, #35);
#38 = DIRECTION('', (1., 0., 0.));
#39 = DIRECTION('', (0., -0., 1.));
#40 = CARTESIAN_POINT('', (0., -0., 3.));
#41 = AXIS2_PLACEMENT_3D('', #40, #39, #38);
#42 = CIRCLE('', #41, 20.);
#43 = DIRECTION('', (1., -0., 0.));
#44 = DIRECTION('', (0., -0., -1.));
#45 = CARTESIAN_POINT('', (0., 0., -0.));
#46 = AXIS2_PLACEMENT_3D('', #45, #44, #43);
#47 = CIRCLE('', #46, 5.);
#48 = DIRECTION('', (0., -0., 1.));
#49 = VECTOR('', #48, 1.);
#50 = CARTESIAN_POINT('', (5., -0., 0.));
#51 = LINE('', #50, #49);
#52 = DIRECTION('', (1., -0., 0.));
#53 = DIRECTION('', (0., -0., -1.));
#54 = CARTESIAN_POINT('', (0., 0., 3.));
#55 = AXIS2_PLACEMENT_3D('', #54, #53, #52);
#56 = CIRCLE('', #55, 5.);
#57 = DIRECTION('', (1., 0., 0.));
#58 = DIRECTION('', (0., -0., -1.));
#59 = CARTESIAN_POINT('', (8., 9.5, -0.));
#60 = AXIS2_PLACEMENT_3D('', #59, #58, #57);
#61 = CIRCLE('', #60, 1.6);
#62 = DIRECTION('', (0., -0., 1.));
#63 = VECTOR('', #62, 1.);
#64 = CARTESIAN_POINT('', (9.6, 9.5, 0.));
#65 = LINE('', #64, #63);
#66 = DIRECTION('', (1., 0., 0.));
#67 = DIRECTION('', (0., -0., -1.));
#68 = CARTESIAN_POINT('', (8., 9.5, 3.));
#69 = AXIS2_PLACEMENT_3D('', #68, #67, #66);
#70 = CIRCLE('', #69, 1.6);
#71 = DIRECTION('', (1., 0., 0.));
#72 = DIRECTION('', (0., -0., -1.));
#73 = CARTESIAN_POINT('', (-8., 9.5, 0.));
#74 = AXIS2_PLACEMENT_3D('', #73, #72, #71);
#75 = CIRCLE('', #74, 1.6);
#76 = DIRECTION('', (0., -0., 1.));
#77 = VECTOR('', #76, 1.);
#78 = CARTESIAN_POINT('', (-6.4, 9.5, 0.));
#79 = LINE('', #78, #77);
#80 = DIRECTION('', (1., 0., 0.));
#81 = DIRECTION('', (0., -0., -1.));
#82 = CARTESIAN_POINT('', (-8., 9.5, 3.));
#83 = AXIS2_PLACEMENT_3D('', #82, #81, #80);
#84 = CIRCLE('', #83, 1.6);
#85 = DIRECTION('', (1., 0., 0.));
#86 = DIRECTION('', (0., -0., -1.));
#87 = CARTESIAN_POINT('', (-8., -9.5, -0.));
#88 = AXIS2_PLACEMENT_3D('', #87, #86, #85);
#89 = CIRCLE('', #88, 1.6);
#90 = DIRECTION('', (0., -0., 1.));
#91 = VECTOR('', #90, 1.);
#92 = CARTESIAN_POINT('', (-6.4, -9.5, 0.));
#93 = LINE('', #92, #91);
#94 = DIRECTION('', (1., 0., 0.));
#95 = DIRECTION('', (0., -0., -1.));
#96 = CARTESIAN_POINT('', (-8., -9.5, 3.));
#97 = AXIS2_PLACEMENT_3D('', #96, #95, #94);
#98 = CIRCLE('', #97, 1.6);
#99 = DIRECTION('', (1., 0., 0.));
#100 = DIRECTION('', (0., -0., -1.));
#101 = CARTESIAN_POINT('', (8., -9.5, -0.));
#102 = AXIS2_PLACEMENT_3D('', #101, #100, #99);
#103 = CIRCLE('', #102, 1.6);
#104 = DIRECTION('', (0., -0., 1.));
#105 = VECTOR('', #104, 1.);
#106 = CARTESIAN_POINT('', (9.6, -9.5, 0.));
#107 = LINE('', #106, #105);
#108 = DIRECTION('', (1., 0., 0.));
#109 = DIRECTION('', (0., -0., -1.));
#110 = CARTESIAN_POINT('', (8., -9.5, 3.));
#111 = AXIS2_PLACEMENT_3D('', #110, #109, #108);
#112 = CIRCLE('', #111, 1.6);
#113 = EDGE_CURVE('', #6, #6, #33, .T.);
#114 = EDGE_CURVE('', #6, #8, #37, .T.);
#115 = EDGE_CURVE('', #8, #8, #42, .T.);
#116 = EDGE_CURVE('', #10, #10, #47, .T.);
#117 = EDGE_CURVE('', #10, #12, #51, .T.);
#118 = EDGE_CURVE('', #12, #12, #56, .T.);
#119 = EDGE_CURVE('', #14, #14, #61, .T.);
#120 = EDGE_CURVE('', #14, #16, #65, .T.);
#121 = EDGE_CURVE('', #16, #16, #70, .T.);
#122 = EDGE_CURVE('', #18, #18, #75, .T.);
#123 = EDGE_CURVE('', #18, #20, #79, .T.);
#124 = EDGE_CURVE('', #20, #20, #84, .T.);
#125 = EDGE_CURVE('', #22, #22, #89, .T.);
#126 = EDGE_CURVE('', #22, #24, #93, .T.);
#127 = EDGE_CURVE('', #24, #24, #98, .T.);
#128 = EDGE_CURVE('', #26, #26, #103, .T.);
#129 = EDGE_CURVE('', #26, #28, #107, .T.);
#130 = EDGE_CURVE('', #28, #28, #112, .T.);
#131 = CARTESIAN_POINT('', (0., -0., 1.5));
#132 = DIRECTION('', (0., -0., 1.));
#133 = DIRECTION('', (1., 0., 0.));
#134 = AXIS2_PLACEMENT_3D('', #131, #132, #133);
#135 = CYLINDRICAL_SURFACE('', #134, 20.);
#136 = CARTESIAN_POINT('', (0., 0., 1.5));
#137 = DIRECTION('', (0., -0., -1.));
#138 = DIRECTION('', (1., -0., 0.));
#139 = AXIS2_PLACEMENT_3D('', #136, #137, #138);
#140 = CYLINDRICAL_SURFACE('', #139, 5.);
#141 = CARTESIAN_POINT('', (8., 9.5, 1.5));
#142 = DIRECTION('', (0., -0., -1.));
#143 = DIRECTION('', (1., 0., 0.));
#144 = AXIS2_PLACEMENT_3D('', #141, #142, #143);
#145 = CYLINDRICAL_SURFACE('', #144, 1.6);
#146 = CARTESIAN_POINT('', (-8., 9.5, 1.5));
#147 = DIRECTION('', (0., -0., -1.));
#148 = DIRECTION('', (1., 0., 0.));
#149 = AXIS2_PLACEMENT_3D('', #146, #147, #148);
#150 = CYLINDRICAL_SURFACE('', #149, 1.6);
#151 = CARTESIAN_POINT('', (-8., -9.5, 1.5));
#152 = DIRECTION('', (0., -0., -1.));
#153 = DIRECTION('', (1., 0., 0.));
#154 = AXIS2_PLACEMENT_3D('', #151, #152, #153);
#155 = CYLINDRICAL_SURFACE('', #154, 1.6);
#156 = CARTESIAN_POINT('', (8., -9.5, 1.5));
#157 = DIRECTION('', (0., -0., -1.));
#158 = DIRECTION('', (1., 0., 0.));
#159 = AXIS2_PLACEMENT_3D('', #156, #157, #158);
#160 = CYLINDRICAL_SURFACE('', #159, 1.6);
#161 = CARTESIAN_POINT('', (0., 0., 0.));
#162 = DIRECTION('', (0., -0., 1.));
#163 = AXIS2_PLACEMENT_3D('', #161, #162, $);
#164 = PLANE('', #163);
#165 = CARTESIAN_POINT('', (0., 0., 3.));
#166 = DIRECTION('', (0., -0., 1.));
#167 = AXIS2_PLACEMENT_3D('', #165, #166, $);
#168 = PLANE('', #167);
#169 = ORIENTED_EDGE('', *, *, #113, .T.);
#170 = ORIENTED_EDGE('', *, *, #115, .F.);
#171 = EDGE_LOOP('', (#169));
#172 = FACE_BOUND('', #171, .T.);
#173 = EDGE_LOOP('', (#170));
#174 = FACE_BOUND('', #173, .T.);
#175 = ADVANCED_FACE('', (#172, #174), #135, .T.);
#176 = ORIENTED_EDGE('', *, *, #116, .T.);
#177 = ORIENTED_EDGE('', *, *, #118, .F.);
#178 = EDGE_LOOP('', (#176));
#179 = FACE_BOUND('', #178, .T.);
#180 = EDGE_LOOP('', (#177));
#181 = FACE_BOUND('', #180, .T.);
#182 = ADVANCED_FACE('', (#179, #181), #140, .F.);
#183 = ORIENTED_EDGE('', *, *, #119, .T.);
#184 = ORIENTED_EDGE('', *, *, #121, .F.);
#185 = EDGE_LOOP('', (#183));
#186 = FACE_BOUND('', #185, .T.);
#187 = EDGE_LOOP('', (#184));
#188 = FACE_BOUND('', #187, .T.);
#189 = ADVANCED_FACE('', (#186, #188), #145, .F.);
#190 = ORIENTED_EDGE('', *, *, #122, .T.);
#191 = ORIENTED_EDGE('', *, *, #124, .F.);
#192 = EDGE_LOOP('', (#190));
#193 = FACE_BOUND('', #192, .T.);
#194 = EDGE_LOOP('', (#191));
#195 = FACE_BOUND('', #194, .T.);
#196 = ADVANCED_FACE('', (#193, #195), #150, .F.);
#197 = ORIENTED_EDGE('', *, *, #125, .T.);
#198 = ORIENTED_EDGE('', *, *, #127, .F.);
#199 = EDGE_LOOP('', (#197));
#200 = FACE_BOUND('', #199, .T.);
#201 = EDGE_LOOP('', (#198));
#202 = FACE_BOUND('', #201, .T.);
#203 = ADVANCED_FACE('', (#200, #202), #155, .F.);
#204 = ORIENTED_EDGE('', *, *, #128, .T.);
#205 = ORIENTED_EDGE('', *, *, #130, .F.);
#206 = EDGE_LOOP('', (#204));
#207 = FACE_BOUND('', #206, .T.);
#208 = EDGE_LOOP('', (#205));
#209 = FACE_BOUND('', #208, .T.);
#210 = ADVANCED_FACE('', (#207, #209), #160, .F.);
#211 = ORIENTED_EDGE('', *, *, #113, .F.);
#212 = ORIENTED_EDGE('', *, *, #116, .F.);
#213 = ORIENTED_EDGE('', *, *, #119, .F.);
#214 = ORIENTED_EDGE('', *, *, #122, .F.);
#215 = ORIENTED_EDGE('', *, *, #125, .F.);
#216 = ORIENTED_EDGE('', *, *, #128, .F.);
#217 = EDGE_LOOP('', (#211));
#218 = FACE_BOUND('', #217, .T.);
#219 = EDGE_LOOP('', (#212));
#220 = FACE_BOUND('', #219, .T.);
#221 = EDGE_LOOP('', (#213));
#222 = FACE_BOUND('', #221, .T.);
#223 = EDGE_LOOP('', (#214));
#224 = FACE_BOUND('', #223, .T.);
#225 = EDGE_LOOP('', (#215));
#226 = FACE_BOUND('', #225, .T.);
#227 = EDGE_LOOP('', (#216));
#228 = FACE_BOUND('', #227, .T.);
#229 = ADVANCED_FACE('', (#218, #220, #222, #224, #226, #228), #164, .F.);
#230 = ORIENTED_EDGE('', *, *, #115, .T.);
#231 = ORIENTED_EDGE('', *, *, #118, .T.);
#232 = ORIENTED_EDGE('', *, *, #121, .T.);
#233 = ORIENTED_EDGE('', *, *, #124, .T.);
#234 = ORIENTED_EDGE('', *, *, #127, .T.);
#235 = ORIENTED_EDGE('', *, *, #130, .T.);
#236 = EDGE_LOOP('', (#230));
#237 = FACE_BOUND('', #236, .T.);
#238 = EDGE_LOOP('', (#231));
#239 = FACE_BOUND('', #238, .T.);
#240 = EDGE_LOOP('', (#232));
#241 = FACE_BOUND('', #240, .T.);
#242 = EDGE_LOOP('', (#233));
#243 = FACE_BOUND('', #242, .T.);
#244 = EDGE_LOOP('', (#234));
#245 = FACE_BOUND('', #244, .T.);
#246 = EDGE_LOOP('', (#235));
#247 = FACE_BOUND('', #246, .T.);
#248 = ADVANCED_FACE('', (#237, #239, #241, #243, #245, #247), #168, .T.);
#249 = CLOSED_SHELL('', (#175, #182, #189, #196, #203, #210, #229, #248));
#250 = MANIFOLD_SOLID_BREP('', #249);
#251 = APPLICATION_CONTEXT('configuration controlled 3D design of mechanical parts and assemblies');
#252 = PRODUCT_DEFINITION_CONTEXT('part definition', #251, 'design');
#253 = PRODUCT_CONTEXT('', #251, 'mechanical');
#254 = PRODUCT('UNIDENTIFIED_PRODUCT', '', $, (#253));
#255 = PRODUCT_DEFINITION_FORMATION('', $, #254);
#256 = PRODUCT_DEFINITION('design', $, #255, #252);
#257 = PRODUCT_DEFINITION_SHAPE('', '', #256);
#258 = ADVANCED_BREP_SHAPE_REPRESENTATION('', (#250), #4);
#259 = SHAPE_DEFINITION_REPRESENTATION(#257, #258);
#260 = COLOUR_RGB('', 0.17647059, 0.2, 0.21960784);
#261 = FILL_AREA_STYLE_COLOUR('', #260);
#262 = FILL_AREA_STYLE('', (#261));
#263 = SURFACE_STYLE_FILL_AREA(#262);
#264 = SURFACE_SIDE_STYLE('', (#263));
#265 = SURFACE_STYLE_USAGE(.BOTH., #264);
#266 = PRESENTATION_STYLE_ASSIGNMENT((#265));
#267 = STYLED_ITEM('', (#266), #250);
#268 = MECHANICAL_DESIGN_GEOMETRIC_PRESENTATION_REPRESENTATION('', (#267), #4);
ENDSEC;
END-ISO-10303-21;
