%TF.GenerationSoftware,KiCad,Pcbnew,10.0.3*%
%TF.CreationDate,2026-06-11T08:54:34+05:30*%
%TF.ProjectId,RAVEN_PCB,52415645-4e5f-4504-9342-2e6b69636164,rev?*%
%TF.SameCoordinates,Original*%
%TF.FileFunction,Legend,Top*%
%TF.FilePolarity,Positive*%
%FSLAX46Y46*%
G04 Gerber Fmt 4.6, Leading zero omitted, Abs format (unit mm)*
G04 Created by KiCad (PCBNEW 10.0.3) date 2026-06-11 08:54:34*
%MOMM*%
%LPD*%
G01*
G04 APERTURE LIST*
%ADD10C,0.150000*%
%ADD11C,0.120000*%
G04 APERTURE END LIST*
D10*
X122333333Y-77584819D02*
X122000000Y-77108628D01*
X121761905Y-77584819D02*
X121761905Y-76584819D01*
X121761905Y-76584819D02*
X122142857Y-76584819D01*
X122142857Y-76584819D02*
X122238095Y-76632438D01*
X122238095Y-76632438D02*
X122285714Y-76680057D01*
X122285714Y-76680057D02*
X122333333Y-76775295D01*
X122333333Y-76775295D02*
X122333333Y-76918152D01*
X122333333Y-76918152D02*
X122285714Y-77013390D01*
X122285714Y-77013390D02*
X122238095Y-77061009D01*
X122238095Y-77061009D02*
X122142857Y-77108628D01*
X122142857Y-77108628D02*
X121761905Y-77108628D01*
X123190476Y-76918152D02*
X123190476Y-77584819D01*
X122952381Y-76537200D02*
X122714286Y-77251485D01*
X122714286Y-77251485D02*
X123333333Y-77251485D01*
X181833333Y-76584819D02*
X181500000Y-76108628D01*
X181261905Y-76584819D02*
X181261905Y-75584819D01*
X181261905Y-75584819D02*
X181642857Y-75584819D01*
X181642857Y-75584819D02*
X181738095Y-75632438D01*
X181738095Y-75632438D02*
X181785714Y-75680057D01*
X181785714Y-75680057D02*
X181833333Y-75775295D01*
X181833333Y-75775295D02*
X181833333Y-75918152D01*
X181833333Y-75918152D02*
X181785714Y-76013390D01*
X181785714Y-76013390D02*
X181738095Y-76061009D01*
X181738095Y-76061009D02*
X181642857Y-76108628D01*
X181642857Y-76108628D02*
X181261905Y-76108628D01*
X182690476Y-75584819D02*
X182500000Y-75584819D01*
X182500000Y-75584819D02*
X182404762Y-75632438D01*
X182404762Y-75632438D02*
X182357143Y-75680057D01*
X182357143Y-75680057D02*
X182261905Y-75822914D01*
X182261905Y-75822914D02*
X182214286Y-76013390D01*
X182214286Y-76013390D02*
X182214286Y-76394342D01*
X182214286Y-76394342D02*
X182261905Y-76489580D01*
X182261905Y-76489580D02*
X182309524Y-76537200D01*
X182309524Y-76537200D02*
X182404762Y-76584819D01*
X182404762Y-76584819D02*
X182595238Y-76584819D01*
X182595238Y-76584819D02*
X182690476Y-76537200D01*
X182690476Y-76537200D02*
X182738095Y-76489580D01*
X182738095Y-76489580D02*
X182785714Y-76394342D01*
X182785714Y-76394342D02*
X182785714Y-76156247D01*
X182785714Y-76156247D02*
X182738095Y-76061009D01*
X182738095Y-76061009D02*
X182690476Y-76013390D01*
X182690476Y-76013390D02*
X182595238Y-75965771D01*
X182595238Y-75965771D02*
X182404762Y-75965771D01*
X182404762Y-75965771D02*
X182309524Y-76013390D01*
X182309524Y-76013390D02*
X182261905Y-76061009D01*
X182261905Y-76061009D02*
X182214286Y-76156247D01*
X105253333Y-77664819D02*
X104920000Y-77188628D01*
X104681905Y-77664819D02*
X104681905Y-76664819D01*
X104681905Y-76664819D02*
X105062857Y-76664819D01*
X105062857Y-76664819D02*
X105158095Y-76712438D01*
X105158095Y-76712438D02*
X105205714Y-76760057D01*
X105205714Y-76760057D02*
X105253333Y-76855295D01*
X105253333Y-76855295D02*
X105253333Y-76998152D01*
X105253333Y-76998152D02*
X105205714Y-77093390D01*
X105205714Y-77093390D02*
X105158095Y-77141009D01*
X105158095Y-77141009D02*
X105062857Y-77188628D01*
X105062857Y-77188628D02*
X104681905Y-77188628D01*
X105586667Y-76664819D02*
X106205714Y-76664819D01*
X106205714Y-76664819D02*
X105872381Y-77045771D01*
X105872381Y-77045771D02*
X106015238Y-77045771D01*
X106015238Y-77045771D02*
X106110476Y-77093390D01*
X106110476Y-77093390D02*
X106158095Y-77141009D01*
X106158095Y-77141009D02*
X106205714Y-77236247D01*
X106205714Y-77236247D02*
X106205714Y-77474342D01*
X106205714Y-77474342D02*
X106158095Y-77569580D01*
X106158095Y-77569580D02*
X106110476Y-77617200D01*
X106110476Y-77617200D02*
X106015238Y-77664819D01*
X106015238Y-77664819D02*
X105729524Y-77664819D01*
X105729524Y-77664819D02*
X105634286Y-77617200D01*
X105634286Y-77617200D02*
X105586667Y-77569580D01*
X173416666Y-61404819D02*
X173416666Y-62119104D01*
X173416666Y-62119104D02*
X173369047Y-62261961D01*
X173369047Y-62261961D02*
X173273809Y-62357200D01*
X173273809Y-62357200D02*
X173130952Y-62404819D01*
X173130952Y-62404819D02*
X173035714Y-62404819D01*
X174369047Y-61404819D02*
X173892857Y-61404819D01*
X173892857Y-61404819D02*
X173845238Y-61881009D01*
X173845238Y-61881009D02*
X173892857Y-61833390D01*
X173892857Y-61833390D02*
X173988095Y-61785771D01*
X173988095Y-61785771D02*
X174226190Y-61785771D01*
X174226190Y-61785771D02*
X174321428Y-61833390D01*
X174321428Y-61833390D02*
X174369047Y-61881009D01*
X174369047Y-61881009D02*
X174416666Y-61976247D01*
X174416666Y-61976247D02*
X174416666Y-62214342D01*
X174416666Y-62214342D02*
X174369047Y-62309580D01*
X174369047Y-62309580D02*
X174321428Y-62357200D01*
X174321428Y-62357200D02*
X174226190Y-62404819D01*
X174226190Y-62404819D02*
X173988095Y-62404819D01*
X173988095Y-62404819D02*
X173892857Y-62357200D01*
X173892857Y-62357200D02*
X173845238Y-62309580D01*
X149436666Y-65714819D02*
X149436666Y-66429104D01*
X149436666Y-66429104D02*
X149389047Y-66571961D01*
X149389047Y-66571961D02*
X149293809Y-66667200D01*
X149293809Y-66667200D02*
X149150952Y-66714819D01*
X149150952Y-66714819D02*
X149055714Y-66714819D01*
X150436666Y-66714819D02*
X149865238Y-66714819D01*
X150150952Y-66714819D02*
X150150952Y-65714819D01*
X150150952Y-65714819D02*
X150055714Y-65857676D01*
X150055714Y-65857676D02*
X149960476Y-65952914D01*
X149960476Y-65952914D02*
X149865238Y-66000533D01*
X177833333Y-106084819D02*
X177500000Y-105608628D01*
X177261905Y-106084819D02*
X177261905Y-105084819D01*
X177261905Y-105084819D02*
X177642857Y-105084819D01*
X177642857Y-105084819D02*
X177738095Y-105132438D01*
X177738095Y-105132438D02*
X177785714Y-105180057D01*
X177785714Y-105180057D02*
X177833333Y-105275295D01*
X177833333Y-105275295D02*
X177833333Y-105418152D01*
X177833333Y-105418152D02*
X177785714Y-105513390D01*
X177785714Y-105513390D02*
X177738095Y-105561009D01*
X177738095Y-105561009D02*
X177642857Y-105608628D01*
X177642857Y-105608628D02*
X177261905Y-105608628D01*
X178166667Y-105084819D02*
X178833333Y-105084819D01*
X178833333Y-105084819D02*
X178404762Y-106084819D01*
X114916666Y-61904819D02*
X114916666Y-62619104D01*
X114916666Y-62619104D02*
X114869047Y-62761961D01*
X114869047Y-62761961D02*
X114773809Y-62857200D01*
X114773809Y-62857200D02*
X114630952Y-62904819D01*
X114630952Y-62904819D02*
X114535714Y-62904819D01*
X115821428Y-62238152D02*
X115821428Y-62904819D01*
X115583333Y-61857200D02*
X115345238Y-62571485D01*
X115345238Y-62571485D02*
X115964285Y-62571485D01*
X176666666Y-116879819D02*
X176666666Y-117594104D01*
X176666666Y-117594104D02*
X176619047Y-117736961D01*
X176619047Y-117736961D02*
X176523809Y-117832200D01*
X176523809Y-117832200D02*
X176380952Y-117879819D01*
X176380952Y-117879819D02*
X176285714Y-117879819D01*
X177047619Y-116879819D02*
X177714285Y-116879819D01*
X177714285Y-116879819D02*
X177285714Y-117879819D01*
X150166666Y-46494819D02*
X150166666Y-47209104D01*
X150166666Y-47209104D02*
X150119047Y-47351961D01*
X150119047Y-47351961D02*
X150023809Y-47447200D01*
X150023809Y-47447200D02*
X149880952Y-47494819D01*
X149880952Y-47494819D02*
X149785714Y-47494819D01*
X150595238Y-46590057D02*
X150642857Y-46542438D01*
X150642857Y-46542438D02*
X150738095Y-46494819D01*
X150738095Y-46494819D02*
X150976190Y-46494819D01*
X150976190Y-46494819D02*
X151071428Y-46542438D01*
X151071428Y-46542438D02*
X151119047Y-46590057D01*
X151119047Y-46590057D02*
X151166666Y-46685295D01*
X151166666Y-46685295D02*
X151166666Y-46780533D01*
X151166666Y-46780533D02*
X151119047Y-46923390D01*
X151119047Y-46923390D02*
X150547619Y-47494819D01*
X150547619Y-47494819D02*
X151166666Y-47494819D01*
X110416666Y-116904819D02*
X110416666Y-117619104D01*
X110416666Y-117619104D02*
X110369047Y-117761961D01*
X110369047Y-117761961D02*
X110273809Y-117857200D01*
X110273809Y-117857200D02*
X110130952Y-117904819D01*
X110130952Y-117904819D02*
X110035714Y-117904819D01*
X111035714Y-117333390D02*
X110940476Y-117285771D01*
X110940476Y-117285771D02*
X110892857Y-117238152D01*
X110892857Y-117238152D02*
X110845238Y-117142914D01*
X110845238Y-117142914D02*
X110845238Y-117095295D01*
X110845238Y-117095295D02*
X110892857Y-117000057D01*
X110892857Y-117000057D02*
X110940476Y-116952438D01*
X110940476Y-116952438D02*
X111035714Y-116904819D01*
X111035714Y-116904819D02*
X111226190Y-116904819D01*
X111226190Y-116904819D02*
X111321428Y-116952438D01*
X111321428Y-116952438D02*
X111369047Y-117000057D01*
X111369047Y-117000057D02*
X111416666Y-117095295D01*
X111416666Y-117095295D02*
X111416666Y-117142914D01*
X111416666Y-117142914D02*
X111369047Y-117238152D01*
X111369047Y-117238152D02*
X111321428Y-117285771D01*
X111321428Y-117285771D02*
X111226190Y-117333390D01*
X111226190Y-117333390D02*
X111035714Y-117333390D01*
X111035714Y-117333390D02*
X110940476Y-117381009D01*
X110940476Y-117381009D02*
X110892857Y-117428628D01*
X110892857Y-117428628D02*
X110845238Y-117523866D01*
X110845238Y-117523866D02*
X110845238Y-117714342D01*
X110845238Y-117714342D02*
X110892857Y-117809580D01*
X110892857Y-117809580D02*
X110940476Y-117857200D01*
X110940476Y-117857200D02*
X111035714Y-117904819D01*
X111035714Y-117904819D02*
X111226190Y-117904819D01*
X111226190Y-117904819D02*
X111321428Y-117857200D01*
X111321428Y-117857200D02*
X111369047Y-117809580D01*
X111369047Y-117809580D02*
X111416666Y-117714342D01*
X111416666Y-117714342D02*
X111416666Y-117523866D01*
X111416666Y-117523866D02*
X111369047Y-117428628D01*
X111369047Y-117428628D02*
X111321428Y-117381009D01*
X111321428Y-117381009D02*
X111226190Y-117333390D01*
X118333333Y-104584819D02*
X118000000Y-104108628D01*
X117761905Y-104584819D02*
X117761905Y-103584819D01*
X117761905Y-103584819D02*
X118142857Y-103584819D01*
X118142857Y-103584819D02*
X118238095Y-103632438D01*
X118238095Y-103632438D02*
X118285714Y-103680057D01*
X118285714Y-103680057D02*
X118333333Y-103775295D01*
X118333333Y-103775295D02*
X118333333Y-103918152D01*
X118333333Y-103918152D02*
X118285714Y-104013390D01*
X118285714Y-104013390D02*
X118238095Y-104061009D01*
X118238095Y-104061009D02*
X118142857Y-104108628D01*
X118142857Y-104108628D02*
X117761905Y-104108628D01*
X118714286Y-103680057D02*
X118761905Y-103632438D01*
X118761905Y-103632438D02*
X118857143Y-103584819D01*
X118857143Y-103584819D02*
X119095238Y-103584819D01*
X119095238Y-103584819D02*
X119190476Y-103632438D01*
X119190476Y-103632438D02*
X119238095Y-103680057D01*
X119238095Y-103680057D02*
X119285714Y-103775295D01*
X119285714Y-103775295D02*
X119285714Y-103870533D01*
X119285714Y-103870533D02*
X119238095Y-104013390D01*
X119238095Y-104013390D02*
X118666667Y-104584819D01*
X118666667Y-104584819D02*
X119285714Y-104584819D01*
X100753333Y-104584819D02*
X100420000Y-104108628D01*
X100181905Y-104584819D02*
X100181905Y-103584819D01*
X100181905Y-103584819D02*
X100562857Y-103584819D01*
X100562857Y-103584819D02*
X100658095Y-103632438D01*
X100658095Y-103632438D02*
X100705714Y-103680057D01*
X100705714Y-103680057D02*
X100753333Y-103775295D01*
X100753333Y-103775295D02*
X100753333Y-103918152D01*
X100753333Y-103918152D02*
X100705714Y-104013390D01*
X100705714Y-104013390D02*
X100658095Y-104061009D01*
X100658095Y-104061009D02*
X100562857Y-104108628D01*
X100562857Y-104108628D02*
X100181905Y-104108628D01*
X101705714Y-104584819D02*
X101134286Y-104584819D01*
X101420000Y-104584819D02*
X101420000Y-103584819D01*
X101420000Y-103584819D02*
X101324762Y-103727676D01*
X101324762Y-103727676D02*
X101229524Y-103822914D01*
X101229524Y-103822914D02*
X101134286Y-103870533D01*
X166833333Y-76584819D02*
X166500000Y-76108628D01*
X166261905Y-76584819D02*
X166261905Y-75584819D01*
X166261905Y-75584819D02*
X166642857Y-75584819D01*
X166642857Y-75584819D02*
X166738095Y-75632438D01*
X166738095Y-75632438D02*
X166785714Y-75680057D01*
X166785714Y-75680057D02*
X166833333Y-75775295D01*
X166833333Y-75775295D02*
X166833333Y-75918152D01*
X166833333Y-75918152D02*
X166785714Y-76013390D01*
X166785714Y-76013390D02*
X166738095Y-76061009D01*
X166738095Y-76061009D02*
X166642857Y-76108628D01*
X166642857Y-76108628D02*
X166261905Y-76108628D01*
X167738095Y-75584819D02*
X167261905Y-75584819D01*
X167261905Y-75584819D02*
X167214286Y-76061009D01*
X167214286Y-76061009D02*
X167261905Y-76013390D01*
X167261905Y-76013390D02*
X167357143Y-75965771D01*
X167357143Y-75965771D02*
X167595238Y-75965771D01*
X167595238Y-75965771D02*
X167690476Y-76013390D01*
X167690476Y-76013390D02*
X167738095Y-76061009D01*
X167738095Y-76061009D02*
X167785714Y-76156247D01*
X167785714Y-76156247D02*
X167785714Y-76394342D01*
X167785714Y-76394342D02*
X167738095Y-76489580D01*
X167738095Y-76489580D02*
X167690476Y-76537200D01*
X167690476Y-76537200D02*
X167595238Y-76584819D01*
X167595238Y-76584819D02*
X167357143Y-76584819D01*
X167357143Y-76584819D02*
X167261905Y-76537200D01*
X167261905Y-76537200D02*
X167214286Y-76489580D01*
X176166666Y-92994819D02*
X176166666Y-93709104D01*
X176166666Y-93709104D02*
X176119047Y-93851961D01*
X176119047Y-93851961D02*
X176023809Y-93947200D01*
X176023809Y-93947200D02*
X175880952Y-93994819D01*
X175880952Y-93994819D02*
X175785714Y-93994819D01*
X177071428Y-92994819D02*
X176880952Y-92994819D01*
X176880952Y-92994819D02*
X176785714Y-93042438D01*
X176785714Y-93042438D02*
X176738095Y-93090057D01*
X176738095Y-93090057D02*
X176642857Y-93232914D01*
X176642857Y-93232914D02*
X176595238Y-93423390D01*
X176595238Y-93423390D02*
X176595238Y-93804342D01*
X176595238Y-93804342D02*
X176642857Y-93899580D01*
X176642857Y-93899580D02*
X176690476Y-93947200D01*
X176690476Y-93947200D02*
X176785714Y-93994819D01*
X176785714Y-93994819D02*
X176976190Y-93994819D01*
X176976190Y-93994819D02*
X177071428Y-93947200D01*
X177071428Y-93947200D02*
X177119047Y-93899580D01*
X177119047Y-93899580D02*
X177166666Y-93804342D01*
X177166666Y-93804342D02*
X177166666Y-93566247D01*
X177166666Y-93566247D02*
X177119047Y-93471009D01*
X177119047Y-93471009D02*
X177071428Y-93423390D01*
X177071428Y-93423390D02*
X176976190Y-93375771D01*
X176976190Y-93375771D02*
X176785714Y-93375771D01*
X176785714Y-93375771D02*
X176690476Y-93423390D01*
X176690476Y-93423390D02*
X176642857Y-93471009D01*
X176642857Y-93471009D02*
X176595238Y-93566247D01*
X110416666Y-93984819D02*
X110416666Y-94699104D01*
X110416666Y-94699104D02*
X110369047Y-94841961D01*
X110369047Y-94841961D02*
X110273809Y-94937200D01*
X110273809Y-94937200D02*
X110130952Y-94984819D01*
X110130952Y-94984819D02*
X110035714Y-94984819D01*
X110797619Y-93984819D02*
X111416666Y-93984819D01*
X111416666Y-93984819D02*
X111083333Y-94365771D01*
X111083333Y-94365771D02*
X111226190Y-94365771D01*
X111226190Y-94365771D02*
X111321428Y-94413390D01*
X111321428Y-94413390D02*
X111369047Y-94461009D01*
X111369047Y-94461009D02*
X111416666Y-94556247D01*
X111416666Y-94556247D02*
X111416666Y-94794342D01*
X111416666Y-94794342D02*
X111369047Y-94889580D01*
X111369047Y-94889580D02*
X111321428Y-94937200D01*
X111321428Y-94937200D02*
X111226190Y-94984819D01*
X111226190Y-94984819D02*
X110940476Y-94984819D01*
X110940476Y-94984819D02*
X110845238Y-94937200D01*
X110845238Y-94937200D02*
X110797619Y-94889580D01*
%TO.C,R4*%
D11*
X118460000Y-79500000D02*
X119230000Y-79500000D01*
X126540000Y-79500000D02*
X125770000Y-79500000D01*
X119230000Y-78130000D02*
X125770000Y-78130000D01*
X125770000Y-80870000D01*
X119230000Y-80870000D01*
X119230000Y-78130000D01*
%TO.C,R6*%
X177960000Y-78500000D02*
X178730000Y-78500000D01*
X186040000Y-78500000D02*
X185270000Y-78500000D01*
X178730000Y-77130000D02*
X185270000Y-77130000D01*
X185270000Y-79870000D01*
X178730000Y-79870000D01*
X178730000Y-77130000D01*
%TO.C,R3*%
X101380000Y-79580000D02*
X102150000Y-79580000D01*
X109460000Y-79580000D02*
X108690000Y-79580000D01*
X102150000Y-78210000D02*
X108690000Y-78210000D01*
X108690000Y-80950000D01*
X102150000Y-80950000D01*
X102150000Y-78210000D01*
%TO.C,J5*%
X167150000Y-62750000D02*
X167150000Y-64000000D01*
X167450000Y-65300000D02*
X168200000Y-65300000D01*
X168200000Y-65300000D02*
X168200000Y-68250000D01*
X168200000Y-68250000D02*
X173750000Y-68250000D01*
X168400000Y-62750000D02*
X167150000Y-62750000D01*
X179300000Y-65300000D02*
X179300000Y-68250000D01*
X179300000Y-68250000D02*
X173750000Y-68250000D01*
X180050000Y-65300000D02*
X179300000Y-65300000D01*
X167440000Y-63040000D02*
X180060000Y-63040000D01*
X180060000Y-69010000D01*
X167440000Y-69010000D01*
X167440000Y-63040000D01*
X167450000Y-63050000D02*
X169250000Y-63050000D01*
X169250000Y-63800000D01*
X167450000Y-63800000D01*
X167450000Y-63050000D01*
X170750000Y-63050000D02*
X176750000Y-63050000D01*
X176750000Y-63800000D01*
X170750000Y-63800000D01*
X170750000Y-63050000D01*
X178250000Y-63050000D02*
X180050000Y-63050000D01*
X180050000Y-63800000D01*
X178250000Y-63800000D01*
X178250000Y-63050000D01*
%TO.C,J1*%
X147120000Y-67260000D02*
X148500000Y-67260000D01*
X147120000Y-68640000D02*
X147120000Y-67260000D01*
X147120000Y-69910000D02*
X147120000Y-118280000D01*
X147120000Y-69910000D02*
X149770000Y-69910000D01*
X147120000Y-118280000D02*
X152420000Y-118280000D01*
X149770000Y-67260000D02*
X152420000Y-67260000D01*
X149770000Y-69910000D02*
X149770000Y-67260000D01*
X152420000Y-67260000D02*
X152420000Y-118280000D01*
%TO.C,R7*%
X173960000Y-108000000D02*
X174730000Y-108000000D01*
X182040000Y-108000000D02*
X181270000Y-108000000D01*
X174730000Y-106630000D02*
X181270000Y-106630000D01*
X181270000Y-109370000D01*
X174730000Y-109370000D01*
X174730000Y-106630000D01*
%TO.C,J4*%
X108650000Y-63250000D02*
X108650000Y-64500000D01*
X108950000Y-65800000D02*
X109700000Y-65800000D01*
X109700000Y-65800000D02*
X109700000Y-68750000D01*
X109700000Y-68750000D02*
X115250000Y-68750000D01*
X109900000Y-63250000D02*
X108650000Y-63250000D01*
X120800000Y-65800000D02*
X120800000Y-68750000D01*
X120800000Y-68750000D02*
X115250000Y-68750000D01*
X121550000Y-65800000D02*
X120800000Y-65800000D01*
X108940000Y-63540000D02*
X121560000Y-63540000D01*
X121560000Y-69510000D01*
X108940000Y-69510000D01*
X108940000Y-63540000D01*
X108950000Y-63550000D02*
X110750000Y-63550000D01*
X110750000Y-64300000D01*
X108950000Y-64300000D01*
X108950000Y-63550000D01*
X112250000Y-63550000D02*
X118250000Y-63550000D01*
X118250000Y-64300000D01*
X112250000Y-64300000D01*
X112250000Y-63550000D01*
X119750000Y-63550000D02*
X121550000Y-63550000D01*
X121550000Y-64300000D01*
X119750000Y-64300000D01*
X119750000Y-63550000D01*
%TO.C,J7*%
X171650000Y-118225000D02*
X171650000Y-119475000D01*
X171950000Y-120775000D02*
X172700000Y-120775000D01*
X172700000Y-120775000D02*
X172700000Y-123725000D01*
X172700000Y-123725000D02*
X177000000Y-123725000D01*
X172900000Y-118225000D02*
X171650000Y-118225000D01*
X181300000Y-120775000D02*
X181300000Y-123725000D01*
X181300000Y-123725000D02*
X177000000Y-123725000D01*
X182050000Y-120775000D02*
X181300000Y-120775000D01*
X171940000Y-118515000D02*
X182060000Y-118515000D01*
X182060000Y-124485000D01*
X171940000Y-124485000D01*
X171940000Y-118515000D01*
X171950000Y-118525000D02*
X173750000Y-118525000D01*
X173750000Y-119275000D01*
X171950000Y-119275000D01*
X171950000Y-118525000D01*
X175250000Y-118525000D02*
X178750000Y-118525000D01*
X178750000Y-119275000D01*
X175250000Y-119275000D01*
X175250000Y-118525000D01*
X180250000Y-118525000D02*
X182050000Y-118525000D01*
X182050000Y-119275000D01*
X180250000Y-119275000D01*
X180250000Y-118525000D01*
%TO.C,J2*%
X149120000Y-48040000D02*
X150500000Y-48040000D01*
X149120000Y-49420000D02*
X149120000Y-48040000D01*
X149120000Y-50690000D02*
X149120000Y-58420000D01*
X149120000Y-50690000D02*
X151880000Y-50690000D01*
X149120000Y-58420000D02*
X151880000Y-58420000D01*
X151880000Y-50690000D02*
X151880000Y-58420000D01*
%TO.C,J8*%
X104150000Y-118250000D02*
X104150000Y-119500000D01*
X104450000Y-120800000D02*
X105200000Y-120800000D01*
X105200000Y-120800000D02*
X105200000Y-123750000D01*
X105200000Y-123750000D02*
X110750000Y-123750000D01*
X105400000Y-118250000D02*
X104150000Y-118250000D01*
X116300000Y-120800000D02*
X116300000Y-123750000D01*
X116300000Y-123750000D02*
X110750000Y-123750000D01*
X117050000Y-120800000D02*
X116300000Y-120800000D01*
X104440000Y-118540000D02*
X117060000Y-118540000D01*
X117060000Y-124510000D01*
X104440000Y-124510000D01*
X104440000Y-118540000D01*
X104450000Y-118550000D02*
X106250000Y-118550000D01*
X106250000Y-119300000D01*
X104450000Y-119300000D01*
X104450000Y-118550000D01*
X107750000Y-118550000D02*
X113750000Y-118550000D01*
X113750000Y-119300000D01*
X107750000Y-119300000D01*
X107750000Y-118550000D01*
X115250000Y-118550000D02*
X117050000Y-118550000D01*
X117050000Y-119300000D01*
X115250000Y-119300000D01*
X115250000Y-118550000D01*
%TO.C,R2*%
X114460000Y-106500000D02*
X115230000Y-106500000D01*
X122540000Y-106500000D02*
X121770000Y-106500000D01*
X115230000Y-105130000D02*
X121770000Y-105130000D01*
X121770000Y-107870000D01*
X115230000Y-107870000D01*
X115230000Y-105130000D01*
%TO.C,R1*%
X96880000Y-106500000D02*
X97650000Y-106500000D01*
X104960000Y-106500000D02*
X104190000Y-106500000D01*
X97650000Y-105130000D02*
X104190000Y-105130000D01*
X104190000Y-107870000D01*
X97650000Y-107870000D01*
X97650000Y-105130000D01*
%TO.C,R5*%
X162960000Y-78500000D02*
X163730000Y-78500000D01*
X171040000Y-78500000D02*
X170270000Y-78500000D01*
X163730000Y-77130000D02*
X170270000Y-77130000D01*
X170270000Y-79870000D01*
X163730000Y-79870000D01*
X163730000Y-77130000D01*
%TO.C,J6*%
X175120000Y-94540000D02*
X176500000Y-94540000D01*
X175120000Y-95920000D02*
X175120000Y-94540000D01*
X175120000Y-97190000D02*
X175120000Y-102380000D01*
X175120000Y-97190000D02*
X177880000Y-97190000D01*
X175120000Y-102380000D02*
X177880000Y-102380000D01*
X177880000Y-97190000D02*
X177880000Y-102380000D01*
%TO.C,J3*%
X104150000Y-95330000D02*
X104150000Y-96580000D01*
X104450000Y-97880000D02*
X105200000Y-97880000D01*
X105200000Y-97880000D02*
X105200000Y-100830000D01*
X105200000Y-100830000D02*
X110750000Y-100830000D01*
X105400000Y-95330000D02*
X104150000Y-95330000D01*
X116300000Y-97880000D02*
X116300000Y-100830000D01*
X116300000Y-100830000D02*
X110750000Y-100830000D01*
X117050000Y-97880000D02*
X116300000Y-97880000D01*
X104440000Y-95620000D02*
X117060000Y-95620000D01*
X117060000Y-101590000D01*
X104440000Y-101590000D01*
X104440000Y-95620000D01*
X104450000Y-95630000D02*
X106250000Y-95630000D01*
X106250000Y-96380000D01*
X104450000Y-96380000D01*
X104450000Y-95630000D01*
X107750000Y-95630000D02*
X113750000Y-95630000D01*
X113750000Y-96380000D01*
X107750000Y-96380000D01*
X107750000Y-95630000D01*
X115250000Y-95630000D02*
X117050000Y-95630000D01*
X117050000Y-96380000D01*
X115250000Y-96380000D01*
X115250000Y-95630000D01*
%TD*%
M02*
