M48
; DRILL file KiCad 10.0.3 date 2026-06-11T08:55:10
; FORMAT={-:-/ absolute / metric / decimal}
; #@! TF.CreationDate,2026-06-11T08:55:10+05:30
; #@! TF.GenerationSoftware,Kicad,Pcbnew,10.0.3
; #@! TF.FileFunction,Plated,1,2,PTH
FMAT,2
METRIC
; #@! TA.AperFunction,Plated,PTH,ViaDrill
T1C0.300
; #@! TA.AperFunction,Plated,PTH,ComponentDrill
T2C0.800
; #@! TA.AperFunction,Plated,PTH,ComponentDrill
T3C0.950
; #@! TA.AperFunction,Plated,PTH,ComponentDrill
T4C1.000
%
G90
G05
T1
X133.0Y-87.0
X137.0Y-88.5
X141.5Y-71.5
X143.0Y-63.5
X155.5Y-93.0
X185.376Y-77.376
X201.5Y-44.0
T2
X95.84Y-106.5
X100.34Y-79.58
X106.0Y-106.5
X110.5Y-79.58
X113.42Y-106.5
X117.42Y-79.5
X123.58Y-106.5
X127.58Y-79.5
X161.92Y-78.5
X172.08Y-78.5
X172.92Y-108.0
X176.92Y-78.5
X183.08Y-108.0
X187.08Y-78.5
T3
X107.0Y-98.08
X107.0Y-121.0
X109.5Y-98.08
X109.5Y-121.0
X111.5Y-66.0
X112.0Y-98.08
X112.0Y-121.0
X114.0Y-66.0
X114.5Y-98.08
X114.5Y-121.0
X116.5Y-66.0
X119.0Y-66.0
X170.0Y-65.5
X172.5Y-65.5
X174.5Y-120.975
X175.0Y-65.5
X177.0Y-120.975
X177.5Y-65.5
X179.5Y-120.975
T4
X148.5Y-68.64
X148.5Y-71.18
X148.5Y-73.72
X148.5Y-76.26
X148.5Y-78.8
X148.5Y-81.34
X148.5Y-83.88
X148.5Y-86.42
X148.5Y-88.96
X148.5Y-91.5
X148.5Y-94.04
X148.5Y-96.58
X148.5Y-99.12
X148.5Y-101.66
X148.5Y-104.2
X148.5Y-106.74
X148.5Y-109.28
X148.5Y-111.82
X148.5Y-114.36
X148.5Y-116.9
X150.5Y-49.42
X150.5Y-51.96
X150.5Y-54.5
X150.5Y-57.04
X151.04Y-68.64
X151.04Y-71.18
X151.04Y-73.72
X151.04Y-76.26
X151.04Y-78.8
X151.04Y-81.34
X151.04Y-83.88
X151.04Y-86.42
X151.04Y-88.96
X151.04Y-91.5
X151.04Y-94.04
X151.04Y-96.58
X151.04Y-99.12
X151.04Y-101.66
X151.04Y-104.2
X151.04Y-106.74
X151.04Y-109.28
X151.04Y-111.82
X151.04Y-114.36
X151.04Y-116.9
X176.5Y-95.92
X176.5Y-98.46
X176.5Y-101.0
M30
