%TF.GenerationSoftware,KiCad,Pcbnew,10.0.3*%
%TF.CreationDate,2026-06-11T08:54:34+05:30*%
%TF.ProjectId,RAVEN_PCB,52415645-4e5f-4504-9342-2e6b69636164,rev?*%
%TF.SameCoordinates,Original*%
%TF.FileFunction,Soldermask,Top*%
%TF.FilePolarity,Negative*%
%FSLAX46Y46*%
G04 Gerber Fmt 4.6, Leading zero omitted, Abs format (unit mm)*
G04 Created by KiCad (PCBNEW 10.0.3) date 2026-06-11 08:54:34*
%MOMM*%
%LPD*%
G01*
G04 APERTURE LIST*
G04 Aperture macros list*
%AMRoundRect*
0 Rectangle with rounded corners*
0 $1 Rounding radius*
0 $2 $3 $4 $5 $6 $7 $8 $9 X,Y pos of 4 corners*
0 Add a 4 corners polygon primitive as box body*
4,1,4,$2,$3,$4,$5,$6,$7,$8,$9,$2,$3,0*
0 Add four circle primitives for the rounded corners*
1,1,$1+$1,$2,$3*
1,1,$1+$1,$4,$5*
1,1,$1+$1,$6,$7*
1,1,$1+$1,$8,$9*
0 Add four rect primitives between the rounded corners*
20,1,$1+$1,$2,$3,$4,$5,0*
20,1,$1+$1,$4,$5,$6,$7,0*
20,1,$1+$1,$6,$7,$8,$9,0*
20,1,$1+$1,$8,$9,$2,$3,0*%
G04 Aperture macros list end*
%ADD10C,1.600000*%
%ADD11RoundRect,0.250000X-0.600000X-0.725000X0.600000X-0.725000X0.600000X0.725000X-0.600000X0.725000X0*%
%ADD12O,1.700000X1.950000*%
%ADD13R,1.700000X1.700000*%
%ADD14C,1.700000*%
G04 APERTURE END LIST*
D10*
%TO.C,R4*%
X117420000Y-79500000D03*
X127580000Y-79500000D03*
%TD*%
%TO.C,R6*%
X176920000Y-78500000D03*
X187080000Y-78500000D03*
%TD*%
%TO.C,R3*%
X100340000Y-79580000D03*
X110500000Y-79580000D03*
%TD*%
D11*
%TO.C,J5*%
X170000000Y-65500000D03*
D12*
X172500000Y-65500000D03*
X175000000Y-65500000D03*
X177500000Y-65500000D03*
%TD*%
D13*
%TO.C,J1*%
X148500000Y-68640000D03*
D14*
X151040000Y-68640000D03*
X148500000Y-71180000D03*
X151040000Y-71180000D03*
X148500000Y-73720000D03*
X151040000Y-73720000D03*
X148500000Y-76260000D03*
X151040000Y-76260000D03*
X148500000Y-78800000D03*
X151040000Y-78800000D03*
X148500000Y-81340000D03*
X151040000Y-81340000D03*
X148500000Y-83880000D03*
X151040000Y-83880000D03*
X148500000Y-86420000D03*
X151040000Y-86420000D03*
X148500000Y-88960000D03*
X151040000Y-88960000D03*
X148500000Y-91500000D03*
X151040000Y-91500000D03*
X148500000Y-94040000D03*
X151040000Y-94040000D03*
X148500000Y-96580000D03*
X151040000Y-96580000D03*
X148500000Y-99120000D03*
X151040000Y-99120000D03*
X148500000Y-101660000D03*
X151040000Y-101660000D03*
X148500000Y-104200000D03*
X151040000Y-104200000D03*
X148500000Y-106740000D03*
X151040000Y-106740000D03*
X148500000Y-109280000D03*
X151040000Y-109280000D03*
X148500000Y-111820000D03*
X151040000Y-111820000D03*
X148500000Y-114360000D03*
X151040000Y-114360000D03*
X148500000Y-116900000D03*
X151040000Y-116900000D03*
%TD*%
D10*
%TO.C,R7*%
X172920000Y-108000000D03*
X183080000Y-108000000D03*
%TD*%
D11*
%TO.C,J4*%
X111500000Y-66000000D03*
D12*
X114000000Y-66000000D03*
X116500000Y-66000000D03*
X119000000Y-66000000D03*
%TD*%
D11*
%TO.C,J7*%
X174500000Y-120975000D03*
D12*
X177000000Y-120975000D03*
X179500000Y-120975000D03*
%TD*%
D13*
%TO.C,J2*%
X150500000Y-49420000D03*
D14*
X150500000Y-51960000D03*
X150500000Y-54500000D03*
X150500000Y-57040000D03*
%TD*%
D11*
%TO.C,J8*%
X107000000Y-121000000D03*
D12*
X109500000Y-121000000D03*
X112000000Y-121000000D03*
X114500000Y-121000000D03*
%TD*%
D10*
%TO.C,R2*%
X113420000Y-106500000D03*
X123580000Y-106500000D03*
%TD*%
%TO.C,R1*%
X95840000Y-106500000D03*
X106000000Y-106500000D03*
%TD*%
%TO.C,R5*%
X161920000Y-78500000D03*
X172080000Y-78500000D03*
%TD*%
D13*
%TO.C,J6*%
X176500000Y-95920000D03*
D14*
X176500000Y-98460000D03*
X176500000Y-101000000D03*
%TD*%
D11*
%TO.C,J3*%
X107000000Y-98080000D03*
D12*
X109500000Y-98080000D03*
X112000000Y-98080000D03*
X114500000Y-98080000D03*
%TD*%
M02*
