%TF.GenerationSoftware,KiCad,Pcbnew,10.0.3*%
%TF.CreationDate,2026-06-11T08:54:34+05:30*%
%TF.ProjectId,RAVEN_PCB,52415645-4e5f-4504-9342-2e6b69636164,rev?*%
%TF.SameCoordinates,Original*%
%TF.FileFunction,Copper,L2,Bot*%
%TF.FilePolarity,Positive*%
%FSLAX46Y46*%
G04 Gerber Fmt 4.6, Leading zero omitted, Abs format (unit mm)*
G04 Created by KiCad (PCBNEW 10.0.3) date 2026-06-11 08:54:34*
%MOMM*%
%LPD*%
G01*
G04 APERTURE LIST*
G04 Aperture macros list*
%AMRoundRect*
0 Rectangle with rounded corners*
0 $1 Rounding radius*
0 $2 $3 $4 $5 $6 $7 $8 $9 X,Y pos of 4 corners*
0 Add a 4 corners polygon primitive as box body*
4,1,4,$2,$3,$4,$5,$6,$7,$8,$9,$2,$3,0*
0 Add four circle primitives for the rounded corners*
1,1,$1+$1,$2,$3*
1,1,$1+$1,$4,$5*
1,1,$1+$1,$6,$7*
1,1,$1+$1,$8,$9*
0 Add four rect primitives between the rounded corners*
20,1,$1+$1,$2,$3,$4,$5,0*
20,1,$1+$1,$4,$5,$6,$7,0*
20,1,$1+$1,$6,$7,$8,$9,0*
20,1,$1+$1,$8,$9,$2,$3,0*%
G04 Aperture macros list end*
%TA.AperFunction,ComponentPad*%
%ADD10C,1.600000*%
%TD*%
%TA.AperFunction,ComponentPad*%
%ADD11RoundRect,0.250000X-0.600000X-0.725000X0.600000X-0.725000X0.600000X0.725000X-0.600000X0.725000X0*%
%TD*%
%TA.AperFunction,ComponentPad*%
%ADD12O,1.700000X1.950000*%
%TD*%
%TA.AperFunction,ComponentPad*%
%ADD13R,1.700000X1.700000*%
%TD*%
%TA.AperFunction,ComponentPad*%
%ADD14C,1.700000*%
%TD*%
%TA.AperFunction,ViaPad*%
%ADD15C,0.600000*%
%TD*%
%TA.AperFunction,Conductor*%
%ADD16C,0.200000*%
%TD*%
%TA.AperFunction,Conductor*%
%ADD17C,0.500000*%
%TD*%
G04 APERTURE END LIST*
D10*
%TO.P,R4,1*%
%TO.N,Net-(J1-Pin_27)*%
X117420000Y-79500000D03*
%TO.P,R4,2*%
%TO.N,GND*%
X127580000Y-79500000D03*
%TD*%
%TO.P,R6,1*%
%TO.N,Net-(J1-Pin_23)*%
X176920000Y-78500000D03*
%TO.P,R6,2*%
%TO.N,GND*%
X187080000Y-78500000D03*
%TD*%
%TO.P,R3,1*%
%TO.N,Net-(J4-Pin_4)*%
X100340000Y-79580000D03*
%TO.P,R3,2*%
%TO.N,Net-(J1-Pin_27)*%
X110500000Y-79580000D03*
%TD*%
D11*
%TO.P,J5,1,Pin_1_1*%
%TO.N,+5V*%
X170000000Y-65500000D03*
D12*
%TO.P,J5,2,Pin_2_2*%
%TO.N,GND*%
X172500000Y-65500000D03*
%TO.P,J5,3,Pin_3_3*%
%TO.N,Net-(J1-Pin_22)*%
X175000000Y-65500000D03*
%TO.P,J5,4,Pin_4_4*%
%TO.N,Net-(J5-Pin_4)*%
X177500000Y-65500000D03*
%TD*%
D13*
%TO.P,J1,1,Pin_1_1*%
%TO.N,unconnected-(J1-Pin_1-Pad1)*%
X148500000Y-68640000D03*
D14*
%TO.P,J1,2,Pin_2_2*%
%TO.N,/I2C_SDA*%
X151040000Y-68640000D03*
%TO.P,J1,3,Pin_3_3*%
%TO.N,/I2C_SCL*%
X148500000Y-71180000D03*
%TO.P,J1,4,Pin_4_4*%
%TO.N,unconnected-(J1-Pin_4-Pad4)*%
X151040000Y-71180000D03*
%TO.P,J1,5,Pin_5_5*%
%TO.N,unconnected-(J1-Pin_5-Pad5)*%
X148500000Y-73720000D03*
%TO.P,J1,6,Pin_6_6*%
%TO.N,unconnected-(J1-Pin_6-Pad6)*%
X151040000Y-73720000D03*
%TO.P,J1,7,Pin_7_7*%
%TO.N,unconnected-(J1-Pin_7-Pad7)*%
X148500000Y-76260000D03*
%TO.P,J1,8,Pin_8_8*%
%TO.N,unconnected-(J1-Pin_8-Pad8)*%
X151040000Y-76260000D03*
%TO.P,J1,9,Pin_9_9*%
%TO.N,unconnected-(J1-Pin_9-Pad9)*%
X148500000Y-78800000D03*
%TO.P,J1,10,Pin_10_10*%
%TO.N,unconnected-(J1-Pin_10-Pad10)*%
X151040000Y-78800000D03*
%TO.P,J1,11,Pin_11_11*%
%TO.N,unconnected-(J1-Pin_11-Pad11)*%
X148500000Y-81340000D03*
%TO.P,J1,12,Pin_12_12*%
%TO.N,unconnected-(J1-Pin_12-Pad12)*%
X151040000Y-81340000D03*
%TO.P,J1,13,Pin_13_13*%
%TO.N,Net-(J1-Pin_13)*%
X148500000Y-83880000D03*
%TO.P,J1,14,Pin_14_14*%
%TO.N,/GPS_RX*%
X151040000Y-83880000D03*
%TO.P,J1,15,Pin_15_15*%
%TO.N,/GPS_TX*%
X148500000Y-86420000D03*
%TO.P,J1,16,Pin_16_16*%
%TO.N,unconnected-(J1-Pin_16-Pad16)*%
X151040000Y-86420000D03*
%TO.P,J1,17,Pin_17_17*%
%TO.N,/TRIG1*%
X148500000Y-88960000D03*
%TO.P,J1,18,Pin_18_18*%
%TO.N,/LED_DATA*%
X151040000Y-88960000D03*
%TO.P,J1,19,Pin_19_19*%
%TO.N,unconnected-(J1-Pin_19-Pad19)*%
X148500000Y-91500000D03*
%TO.P,J1,20,Pin_20_20*%
%TO.N,unconnected-(J1-Pin_20-Pad20)*%
X151040000Y-91500000D03*
%TO.P,J1,21,Pin_21_21*%
%TO.N,unconnected-(J1-Pin_21-Pad21)*%
X148500000Y-94040000D03*
%TO.P,J1,22,Pin_22_22*%
%TO.N,Net-(J1-Pin_22)*%
X151040000Y-94040000D03*
%TO.P,J1,23,Pin_23_23*%
%TO.N,Net-(J1-Pin_23)*%
X148500000Y-96580000D03*
%TO.P,J1,24,Pin_24_24*%
%TO.N,unconnected-(J1-Pin_24-Pad24)*%
X151040000Y-96580000D03*
%TO.P,J1,25,Pin_25_25*%
%TO.N,unconnected-(J1-Pin_25-Pad25)*%
X148500000Y-99120000D03*
%TO.P,J1,26,Pin_26_26*%
%TO.N,unconnected-(J1-Pin_26-Pad26)*%
X151040000Y-99120000D03*
%TO.P,J1,27,Pin_27_27*%
%TO.N,Net-(J1-Pin_27)*%
X148500000Y-101660000D03*
%TO.P,J1,28,Pin_28_28*%
%TO.N,unconnected-(J1-Pin_28-Pad28)*%
X151040000Y-101660000D03*
%TO.P,J1,29,Pin_29_29*%
%TO.N,unconnected-(J1-Pin_29-Pad29)*%
X148500000Y-104200000D03*
%TO.P,J1,30,Pin_30_30*%
%TO.N,unconnected-(J1-Pin_30-Pad30)*%
X151040000Y-104200000D03*
%TO.P,J1,31,Pin_31_31*%
%TO.N,unconnected-(J1-Pin_31-Pad31)*%
X148500000Y-106740000D03*
%TO.P,J1,32,Pin_32_32*%
%TO.N,unconnected-(J1-Pin_32-Pad32)*%
X151040000Y-106740000D03*
%TO.P,J1,33,Pin_33_33*%
%TO.N,unconnected-(J1-Pin_33-Pad33)*%
X148500000Y-109280000D03*
%TO.P,J1,34,Pin_34_34*%
%TO.N,unconnected-(J1-Pin_34-Pad34)*%
X151040000Y-109280000D03*
%TO.P,J1,35,Pin_35_35*%
%TO.N,unconnected-(J1-Pin_35-Pad35)*%
X148500000Y-111820000D03*
%TO.P,J1,36,Pin_36_36*%
%TO.N,unconnected-(J1-Pin_36-Pad36)*%
X151040000Y-111820000D03*
%TO.P,J1,37,Pin_37_37*%
%TO.N,unconnected-(J1-Pin_37-Pad37)*%
X148500000Y-114360000D03*
%TO.P,J1,38,Pin_38_38*%
%TO.N,unconnected-(J1-Pin_38-Pad38)*%
X151040000Y-114360000D03*
%TO.P,J1,39,Pin_39_39*%
%TO.N,unconnected-(J1-Pin_39-Pad39)*%
X148500000Y-116900000D03*
%TO.P,J1,40,Pin_40_40*%
%TO.N,unconnected-(J1-Pin_40-Pad40)*%
X151040000Y-116900000D03*
%TD*%
D10*
%TO.P,R7,1*%
%TO.N,/LED_DATA*%
X172920000Y-108000000D03*
%TO.P,R7,2*%
%TO.N,Net-(J7-Pin_3)*%
X183080000Y-108000000D03*
%TD*%
D11*
%TO.P,J4,1,Pin_1_1*%
%TO.N,+5V*%
X111500000Y-66000000D03*
D12*
%TO.P,J4,2,Pin_2_2*%
%TO.N,GND*%
X114000000Y-66000000D03*
%TO.P,J4,3,Pin_3_3*%
%TO.N,/TRIG1*%
X116500000Y-66000000D03*
%TO.P,J4,4,Pin_4_4*%
%TO.N,Net-(J4-Pin_4)*%
X119000000Y-66000000D03*
%TD*%
D11*
%TO.P,J7,1,Pin_1_1*%
%TO.N,+5V*%
X174500000Y-120975000D03*
D12*
%TO.P,J7,2,Pin_2_2*%
%TO.N,GND*%
X177000000Y-120975000D03*
%TO.P,J7,3,Pin_3_3*%
%TO.N,Net-(J7-Pin_3)*%
X179500000Y-120975000D03*
%TD*%
D13*
%TO.P,J2,1,Pin_1_1*%
%TO.N,+5V*%
X150500000Y-49420000D03*
D14*
%TO.P,J2,2,Pin_2_2*%
%TO.N,GND*%
X150500000Y-51960000D03*
%TO.P,J2,3,Pin_3_3*%
%TO.N,/GPS_TX*%
X150500000Y-54500000D03*
%TO.P,J2,4,Pin_4_4*%
%TO.N,/GPS_RX*%
X150500000Y-57040000D03*
%TD*%
D11*
%TO.P,J8,1,Pin_1_1*%
%TO.N,+5V*%
X107000000Y-121000000D03*
D12*
%TO.P,J8,2,Pin_2_2*%
%TO.N,GND*%
X109500000Y-121000000D03*
%TO.P,J8,3,Pin_3_3*%
%TO.N,/AUDIO_L*%
X112000000Y-121000000D03*
%TO.P,J8,4,Pin_4_4*%
%TO.N,unconnected-(J8-Pin_4-Pad4)*%
X114500000Y-121000000D03*
%TD*%
D10*
%TO.P,R2,1*%
%TO.N,+3V3*%
X113420000Y-106500000D03*
%TO.P,R2,2*%
%TO.N,/I2C_SCL*%
X123580000Y-106500000D03*
%TD*%
%TO.P,R1,1*%
%TO.N,+3V3*%
X95840000Y-106500000D03*
%TO.P,R1,2*%
%TO.N,/I2C_SDA*%
X106000000Y-106500000D03*
%TD*%
%TO.P,R5,1*%
%TO.N,Net-(J5-Pin_4)*%
X161920000Y-78500000D03*
%TO.P,R5,2*%
%TO.N,Net-(J1-Pin_23)*%
X172080000Y-78500000D03*
%TD*%
D13*
%TO.P,J6,1,Pin_1_1*%
%TO.N,/SERVO_5V*%
X176500000Y-95920000D03*
D14*
%TO.P,J6,2,Pin_2_2*%
%TO.N,GND*%
X176500000Y-98460000D03*
%TO.P,J6,3,Pin_3_3*%
%TO.N,Net-(J1-Pin_13)*%
X176500000Y-101000000D03*
%TD*%
D11*
%TO.P,J3,1,Pin_1_1*%
%TO.N,+3V3*%
X107000000Y-98080000D03*
D12*
%TO.P,J3,2,Pin_2_2*%
%TO.N,GND*%
X109500000Y-98080000D03*
%TO.P,J3,3,Pin_3_3*%
%TO.N,/I2C_SDA*%
X112000000Y-98080000D03*
%TO.P,J3,4,Pin_4_4*%
%TO.N,/I2C_SCL*%
X114500000Y-98080000D03*
%TD*%
D15*
%TO.N,Net-(J1-Pin_27)*%
X133000000Y-87000000D03*
%TO.N,/I2C_SDA*%
X143000000Y-63500000D03*
%TO.N,Net-(J1-Pin_13)*%
X201500000Y-44000000D03*
%TO.N,/I2C_SCL*%
X141500000Y-71500000D03*
%TO.N,/TRIG1*%
X137000000Y-88500000D03*
%TO.N,/LED_DATA*%
X155500000Y-93000000D03*
%TO.N,GND*%
X185375786Y-77375786D03*
%TD*%
%TO.N,Net-(J5-Pin_4)*%
D16*
X168000000Y-61000000D02*
X161920000Y-67080000D01*
X161920000Y-67080000D02*
X161920000Y-78500000D01*
X173000000Y-61000000D02*
X168000000Y-61000000D01*
X177500000Y-65500000D02*
X173000000Y-61000000D01*
%TO.N,Net-(J1-Pin_23)*%
D17*
X148500000Y-96580000D02*
X147920000Y-96580000D01*
%TO.N,Net-(J1-Pin_27)*%
X133840000Y-87000000D02*
X148500000Y-101660000D01*
X133000000Y-87000000D02*
X133840000Y-87000000D01*
%TO.N,/I2C_SDA*%
X154000000Y-69000000D02*
X153640000Y-68640000D01*
X153640000Y-68640000D02*
X151040000Y-68640000D01*
X154500000Y-68500000D02*
X154000000Y-69000000D01*
X143000000Y-63500000D02*
X154500000Y-63500000D01*
X154500000Y-63500000D02*
X154500000Y-68500000D01*
%TO.N,Net-(J1-Pin_13)*%
X140620000Y-76000000D02*
X130500000Y-76000000D01*
X130500000Y-76000000D02*
X130500000Y-43500000D01*
X130500000Y-43500000D02*
X201000000Y-43500000D01*
X148500000Y-83880000D02*
X140620000Y-76000000D01*
X201000000Y-43500000D02*
X201500000Y-44000000D01*
%TO.N,/I2C_SCL*%
X148180000Y-71500000D02*
X148500000Y-71180000D01*
X147000000Y-71500000D02*
X148180000Y-71500000D01*
X141500000Y-71500000D02*
X147000000Y-71500000D01*
%TO.N,/TRIG1*%
X137460000Y-88960000D02*
X137000000Y-88500000D01*
X148500000Y-88960000D02*
X137460000Y-88960000D01*
%TO.N,/LED_DATA*%
X155080000Y-93000000D02*
X151040000Y-88960000D01*
X155500000Y-93000000D02*
X155080000Y-93000000D01*
%TO.N,GND*%
X185375786Y-77375786D02*
X185955786Y-77375786D01*
X114000000Y-66000000D02*
X114080000Y-66000000D01*
X185955786Y-77375786D02*
X187080000Y-78500000D01*
X114080000Y-66000000D02*
X127580000Y-79500000D01*
%TO.N,+5V*%
X174500000Y-71285109D02*
X174500000Y-120975000D01*
X169389891Y-66175000D02*
X174500000Y-71285109D01*
%TO.N,+3V3*%
X95500000Y-106500000D02*
X95840000Y-106500000D01*
%TD*%
%TA.AperFunction,Conductor*%
%TO.N,GND*%
G36*
X176034075Y-98652993D02*
G01*
X176099901Y-98767007D01*
X176192993Y-98860099D01*
X176307007Y-98925925D01*
X176370590Y-98942962D01*
X175738282Y-99575269D01*
X175738282Y-99575270D01*
X175792452Y-99614626D01*
X175792451Y-99614626D01*
X175801495Y-99619234D01*
X175852292Y-99667208D01*
X175869087Y-99735029D01*
X175846550Y-99801164D01*
X175801499Y-99840202D01*
X175792182Y-99844949D01*
X175620213Y-99969890D01*
X175469892Y-100120211D01*
X175468778Y-100121516D01*
X175468231Y-100121872D01*
X175466451Y-100123653D01*
X175466076Y-100123278D01*
X175410266Y-100159700D01*
X175340398Y-100160188D01*
X175281357Y-100122826D01*
X175251888Y-100059474D01*
X175250500Y-100040970D01*
X175250500Y-99345295D01*
X175270185Y-99278256D01*
X175322989Y-99232501D01*
X175384230Y-99221677D01*
X175384728Y-99221716D01*
X176017037Y-98589408D01*
X176034075Y-98652993D01*
G37*
%TD.AperFunction*%
%TA.AperFunction,Conductor*%
G36*
X175417833Y-97217587D02*
G01*
X175542517Y-97264091D01*
X175602127Y-97270500D01*
X175612685Y-97270499D01*
X175679723Y-97290179D01*
X175700372Y-97306818D01*
X176370591Y-97977037D01*
X176307007Y-97994075D01*
X176192993Y-98059901D01*
X176099901Y-98152993D01*
X176034075Y-98267007D01*
X176017037Y-98330591D01*
X175384727Y-97698281D01*
X175384228Y-97698321D01*
X175370618Y-97695461D01*
X175356853Y-97697441D01*
X175337099Y-97688420D01*
X175315851Y-97683956D01*
X175305948Y-97674193D01*
X175293297Y-97668416D01*
X175281556Y-97650147D01*
X175266095Y-97634905D01*
X175262268Y-97620134D01*
X175255523Y-97609638D01*
X175250500Y-97574703D01*
X175250500Y-97333769D01*
X175270185Y-97266730D01*
X175322989Y-97220975D01*
X175392147Y-97211031D01*
X175417833Y-97217587D01*
G37*
%TD.AperFunction*%
%TA.AperFunction,Conductor*%
G36*
X225442539Y-32020185D02*
G01*
X225488294Y-32072989D01*
X225499500Y-32124500D01*
X225499500Y-142875500D01*
X225479815Y-142942539D01*
X225427011Y-142988294D01*
X225375500Y-142999500D01*
X75124500Y-142999500D01*
X75057461Y-142979815D01*
X75011706Y-142927011D01*
X75000500Y-142875500D01*
X75000500Y-120224983D01*
X105649500Y-120224983D01*
X105649500Y-121775001D01*
X105649501Y-121775018D01*
X105660000Y-121877796D01*
X105660001Y-121877799D01*
X105693797Y-121979786D01*
X105715186Y-122044334D01*
X105807288Y-122193656D01*
X105931344Y-122317712D01*
X106080666Y-122409814D01*
X106247203Y-122464999D01*
X106349991Y-122475500D01*
X107650008Y-122475499D01*
X107752797Y-122464999D01*
X107919334Y-122409814D01*
X108068656Y-122317712D01*
X108192712Y-122193656D01*
X108284814Y-122044334D01*
X108284814Y-122044331D01*
X108288448Y-122038441D01*
X108340395Y-121991716D01*
X108409358Y-121980493D01*
X108473440Y-122008336D01*
X108481668Y-122015856D01*
X108620535Y-122154723D01*
X108620540Y-122154727D01*
X108792442Y-122279620D01*
X108981782Y-122376095D01*
X109183871Y-122441757D01*
X109250000Y-122452231D01*
X109250000Y-121404145D01*
X109316657Y-121442630D01*
X109437465Y-121475000D01*
X109562535Y-121475000D01*
X109683343Y-121442630D01*
X109750000Y-121404145D01*
X109750000Y-122452230D01*
X109816126Y-122441757D01*
X109816129Y-122441757D01*
X110018217Y-122376095D01*
X110207557Y-122279620D01*
X110379459Y-122154727D01*
X110379464Y-122154723D01*
X110529721Y-122004466D01*
X110649371Y-121839781D01*
X110704701Y-121797115D01*
X110774314Y-121791136D01*
X110836110Y-121823741D01*
X110850008Y-121839781D01*
X110969890Y-122004785D01*
X110969894Y-122004790D01*
X111120213Y-122155109D01*
X111292179Y-122280048D01*
X111292181Y-122280049D01*
X111292184Y-122280051D01*
X111481588Y-122376557D01*
X111683757Y-122442246D01*
X111893713Y-122475500D01*
X111893714Y-122475500D01*
X112106286Y-122475500D01*
X112106287Y-122475500D01*
X112316243Y-122442246D01*
X112518412Y-122376557D01*
X112707816Y-122280051D01*
X112742819Y-122254620D01*
X112879786Y-122155109D01*
X112879788Y-122155106D01*
X112879792Y-122155104D01*
X113030104Y-122004792D01*
X113149683Y-121840204D01*
X113205011Y-121797540D01*
X113274624Y-121791561D01*
X113336420Y-121824166D01*
X113350313Y-121840199D01*
X113459771Y-121990856D01*
X113469896Y-122004792D01*
X113620213Y-122155109D01*
X113792179Y-122280048D01*
X113792181Y-122280049D01*
X113792184Y-122280051D01*
X113981588Y-122376557D01*
X114183757Y-122442246D01*
X114393713Y-122475500D01*
X114393714Y-122475500D01*
X114606286Y-122475500D01*
X114606287Y-122475500D01*
X114816243Y-122442246D01*
X115018412Y-122376557D01*
X115207816Y-122280051D01*
X115242819Y-122254620D01*
X115379786Y-122155109D01*
X115379788Y-122155106D01*
X115379792Y-122155104D01*
X115530104Y-122004792D01*
X115530106Y-122004788D01*
X115530109Y-122004786D01*
X115655048Y-121832820D01*
X115655047Y-121832820D01*
X115655051Y-121832816D01*
X115751557Y-121643412D01*
X115817246Y-121441243D01*
X115850500Y-121231287D01*
X115850500Y-120768713D01*
X115817246Y-120558757D01*
X115751557Y-120356588D01*
X115655051Y-120167184D01*
X115655049Y-120167181D01*
X115655048Y-120167179D01*
X115530109Y-119995213D01*
X115379786Y-119844890D01*
X115207820Y-119719951D01*
X115018414Y-119623444D01*
X115018413Y-119623443D01*
X115018412Y-119623443D01*
X114816243Y-119557754D01*
X114816241Y-119557753D01*
X114816240Y-119557753D01*
X114654957Y-119532208D01*
X114606287Y-119524500D01*
X114393713Y-119524500D01*
X114345042Y-119532208D01*
X114183760Y-119557753D01*
X113981585Y-119623444D01*
X113792179Y-119719951D01*
X113620213Y-119844890D01*
X113469894Y-119995209D01*
X113469890Y-119995214D01*
X113350318Y-120159793D01*
X113294989Y-120202459D01*
X113225375Y-120208438D01*
X113163580Y-120175833D01*
X113149682Y-120159793D01*
X113030109Y-119995214D01*
X113030105Y-119995209D01*
X112879786Y-119844890D01*
X112707820Y-119719951D01*
X112518414Y-119623444D01*
X112518413Y-119623443D01*
X112518412Y-119623443D01*
X112316243Y-119557754D01*
X112316241Y-119557753D01*
X112316240Y-119557753D01*
X112154957Y-119532208D01*
X112106287Y-119524500D01*
X111893713Y-119524500D01*
X111845042Y-119532208D01*
X111683760Y-119557753D01*
X111481585Y-119623444D01*
X111292179Y-119719951D01*
X111120213Y-119844890D01*
X110969894Y-119995209D01*
X110969890Y-119995214D01*
X110850008Y-120160218D01*
X110794678Y-120202884D01*
X110725065Y-120208863D01*
X110663270Y-120176257D01*
X110649372Y-120160218D01*
X110529727Y-119995540D01*
X110529723Y-119995535D01*
X110379464Y-119845276D01*
X110379459Y-119845272D01*
X110207557Y-119720379D01*
X110018215Y-119623903D01*
X109816124Y-119558241D01*
X109750000Y-119547768D01*
X109750000Y-120595854D01*
X109683343Y-120557370D01*
X109562535Y-120525000D01*
X109437465Y-120525000D01*
X109316657Y-120557370D01*
X109250000Y-120595854D01*
X109250000Y-119547768D01*
X109249999Y-119547768D01*
X109183875Y-119558241D01*
X108981784Y-119623903D01*
X108792442Y-119720379D01*
X108620541Y-119845271D01*
X108481668Y-119984144D01*
X108420345Y-120017628D01*
X108350653Y-120012644D01*
X108294720Y-119970772D01*
X108288448Y-119961558D01*
X108192712Y-119806344D01*
X108068657Y-119682289D01*
X108068656Y-119682288D01*
X107933467Y-119598903D01*
X107919336Y-119590187D01*
X107919331Y-119590185D01*
X107917862Y-119589698D01*
X107752797Y-119535001D01*
X107752795Y-119535000D01*
X107650010Y-119524500D01*
X106349998Y-119524500D01*
X106349981Y-119524501D01*
X106247203Y-119535000D01*
X106247200Y-119535001D01*
X106080668Y-119590185D01*
X106080663Y-119590187D01*
X105931342Y-119682289D01*
X105807289Y-119806342D01*
X105715187Y-119955663D01*
X105715185Y-119955668D01*
X105702938Y-119992628D01*
X105660001Y-120122203D01*
X105660001Y-120122204D01*
X105660000Y-120122204D01*
X105649500Y-120224983D01*
X75000500Y-120224983D01*
X75000500Y-106397648D01*
X94539500Y-106397648D01*
X94539500Y-106602351D01*
X94571522Y-106804534D01*
X94634781Y-106999223D01*
X94639271Y-107008034D01*
X94713026Y-107152786D01*
X94727715Y-107181613D01*
X94848028Y-107347213D01*
X94992786Y-107491971D01*
X95147749Y-107604556D01*
X95158390Y-107612287D01*
X95274607Y-107671503D01*
X95340776Y-107705218D01*
X95340778Y-107705218D01*
X95340781Y-107705220D01*
X95445137Y-107739127D01*
X95535465Y-107768477D01*
X95636557Y-107784488D01*
X95737648Y-107800500D01*
X95737649Y-107800500D01*
X95942351Y-107800500D01*
X95942352Y-107800500D01*
X96144534Y-107768477D01*
X96339219Y-107705220D01*
X96521610Y-107612287D01*
X96614590Y-107544732D01*
X96687213Y-107491971D01*
X96687215Y-107491968D01*
X96687219Y-107491966D01*
X96831966Y-107347219D01*
X96831968Y-107347215D01*
X96831971Y-107347213D01*
X96896486Y-107258414D01*
X96952287Y-107181610D01*
X97045220Y-106999219D01*
X97108477Y-106804534D01*
X97140500Y-106602352D01*
X97140500Y-106397648D01*
X104699500Y-106397648D01*
X104699500Y-106602351D01*
X104731522Y-106804534D01*
X104794781Y-106999223D01*
X104799271Y-107008034D01*
X104873026Y-107152786D01*
X104887715Y-107181613D01*
X105008028Y-107347213D01*
X105152786Y-107491971D01*
X105307749Y-107604556D01*
X105318390Y-107612287D01*
X105434607Y-107671503D01*
X105500776Y-107705218D01*
X105500778Y-107705218D01*
X105500781Y-107705220D01*
X105605137Y-107739127D01*
X105695465Y-107768477D01*
X105796557Y-107784488D01*
X105897648Y-107800500D01*
X105897649Y-107800500D01*
X106102351Y-107800500D01*
X106102352Y-107800500D01*
X106304534Y-107768477D01*
X106499219Y-107705220D01*
X106681610Y-107612287D01*
X106774590Y-107544732D01*
X106847213Y-107491971D01*
X106847215Y-107491968D01*
X106847219Y-107491966D01*
X106991966Y-107347219D01*
X106991968Y-107347215D01*
X106991971Y-107347213D01*
X107056486Y-107258414D01*
X107112287Y-107181610D01*
X107205220Y-106999219D01*
X107268477Y-106804534D01*
X107300500Y-106602352D01*
X107300500Y-106397648D01*
X112119500Y-106397648D01*
X112119500Y-106602351D01*
X112151522Y-106804534D01*
X112214781Y-106999223D01*
X112219271Y-107008034D01*
X112293026Y-107152786D01*
X112307715Y-107181613D01*
X112428028Y-107347213D01*
X112572786Y-107491971D01*
X112727749Y-107604556D01*
X112738390Y-107612287D01*
X112854607Y-107671503D01*
X112920776Y-107705218D01*
X112920778Y-107705218D01*
X112920781Y-107705220D01*
X113025137Y-107739127D01*
X113115465Y-107768477D01*
X113216557Y-107784488D01*
X113317648Y-107800500D01*
X113317649Y-107800500D01*
X113522351Y-107800500D01*
X113522352Y-107800500D01*
X113724534Y-107768477D01*
X113919219Y-107705220D01*
X114101610Y-107612287D01*
X114194590Y-107544732D01*
X114267213Y-107491971D01*
X114267215Y-107491968D01*
X114267219Y-107491966D01*
X114411966Y-107347219D01*
X114411968Y-107347215D01*
X114411971Y-107347213D01*
X114476486Y-107258414D01*
X114532287Y-107181610D01*
X114625220Y-106999219D01*
X114688477Y-106804534D01*
X114720500Y-106602352D01*
X114720500Y-106397648D01*
X122279500Y-106397648D01*
X122279500Y-106602351D01*
X122311522Y-106804534D01*
X122374781Y-106999223D01*
X122379271Y-107008034D01*
X122453026Y-107152786D01*
X122467715Y-107181613D01*
X122588028Y-107347213D01*
X122732786Y-107491971D01*
X122887749Y-107604556D01*
X122898390Y-107612287D01*
X123014607Y-107671503D01*
X123080776Y-107705218D01*
X123080778Y-107705218D01*
X123080781Y-107705220D01*
X123185137Y-107739127D01*
X123275465Y-107768477D01*
X123376557Y-107784488D01*
X123477648Y-107800500D01*
X123477649Y-107800500D01*
X123682351Y-107800500D01*
X123682352Y-107800500D01*
X123884534Y-107768477D01*
X124079219Y-107705220D01*
X124261610Y-107612287D01*
X124354590Y-107544732D01*
X124427213Y-107491971D01*
X124427215Y-107491968D01*
X124427219Y-107491966D01*
X124571966Y-107347219D01*
X124571968Y-107347215D01*
X124571971Y-107347213D01*
X124636486Y-107258414D01*
X124692287Y-107181610D01*
X124785220Y-106999219D01*
X124848477Y-106804534D01*
X124880500Y-106602352D01*
X124880500Y-106397648D01*
X124861605Y-106278349D01*
X124848477Y-106195465D01*
X124785218Y-106000776D01*
X124751503Y-105934607D01*
X124692287Y-105818390D01*
X124684556Y-105807749D01*
X124571971Y-105652786D01*
X124427213Y-105508028D01*
X124261613Y-105387715D01*
X124261612Y-105387714D01*
X124261610Y-105387713D01*
X124197505Y-105355050D01*
X124079223Y-105294781D01*
X123884534Y-105231522D01*
X123709995Y-105203878D01*
X123682352Y-105199500D01*
X123477648Y-105199500D01*
X123453329Y-105203351D01*
X123275465Y-105231522D01*
X123080776Y-105294781D01*
X122898386Y-105387715D01*
X122732786Y-105508028D01*
X122588028Y-105652786D01*
X122467715Y-105818386D01*
X122374781Y-106000776D01*
X122311522Y-106195465D01*
X122279500Y-106397648D01*
X114720500Y-106397648D01*
X114701605Y-106278349D01*
X114688477Y-106195465D01*
X114625218Y-106000776D01*
X114591503Y-105934607D01*
X114532287Y-105818390D01*
X114524556Y-105807749D01*
X114411971Y-105652786D01*
X114267213Y-105508028D01*
X114101613Y-105387715D01*
X114101612Y-105387714D01*
X114101610Y-105387713D01*
X114037505Y-105355050D01*
X113919223Y-105294781D01*
X113724534Y-105231522D01*
X113549995Y-105203878D01*
X113522352Y-105199500D01*
X113317648Y-105199500D01*
X113293329Y-105203351D01*
X113115465Y-105231522D01*
X112920776Y-105294781D01*
X112738386Y-105387715D01*
X112572786Y-105508028D01*
X112428028Y-105652786D01*
X112307715Y-105818386D01*
X112214781Y-106000776D01*
X112151522Y-106195465D01*
X112119500Y-106397648D01*
X107300500Y-106397648D01*
X107281605Y-106278349D01*
X107268477Y-106195465D01*
X107205218Y-106000776D01*
X107171503Y-105934607D01*
X107112287Y-105818390D01*
X107104556Y-105807749D01*
X106991971Y-105652786D01*
X106847213Y-105508028D01*
X106681613Y-105387715D01*
X106681612Y-105387714D01*
X106681610Y-105387713D01*
X106617505Y-105355050D01*
X106499223Y-105294781D01*
X106304534Y-105231522D01*
X106129995Y-105203878D01*
X106102352Y-105199500D01*
X105897648Y-105199500D01*
X105873329Y-105203351D01*
X105695465Y-105231522D01*
X105500776Y-105294781D01*
X105318386Y-105387715D01*
X105152786Y-105508028D01*
X105008028Y-105652786D01*
X104887715Y-105818386D01*
X104794781Y-106000776D01*
X104731522Y-106195465D01*
X104699500Y-106397648D01*
X97140500Y-106397648D01*
X97121605Y-106278349D01*
X97108477Y-106195465D01*
X97045218Y-106000776D01*
X97011503Y-105934607D01*
X96952287Y-105818390D01*
X96944556Y-105807749D01*
X96831971Y-105652786D01*
X96687213Y-105508028D01*
X96521613Y-105387715D01*
X96521612Y-105387714D01*
X96521610Y-105387713D01*
X96457505Y-105355050D01*
X96339223Y-105294781D01*
X96144534Y-105231522D01*
X95969995Y-105203878D01*
X95942352Y-105199500D01*
X95737648Y-105199500D01*
X95713329Y-105203351D01*
X95535465Y-105231522D01*
X95340776Y-105294781D01*
X95158386Y-105387715D01*
X94992786Y-105508028D01*
X94848028Y-105652786D01*
X94727715Y-105818386D01*
X94634781Y-106000776D01*
X94571522Y-106195465D01*
X94539500Y-106397648D01*
X75000500Y-106397648D01*
X75000500Y-97304983D01*
X105649500Y-97304983D01*
X105649500Y-98855001D01*
X105649501Y-98855018D01*
X105660000Y-98957796D01*
X105660001Y-98957799D01*
X105694031Y-99060493D01*
X105715186Y-99124334D01*
X105807288Y-99273656D01*
X105931344Y-99397712D01*
X106080666Y-99489814D01*
X106247203Y-99544999D01*
X106349991Y-99555500D01*
X107650008Y-99555499D01*
X107752797Y-99544999D01*
X107919334Y-99489814D01*
X108068656Y-99397712D01*
X108192712Y-99273656D01*
X108284814Y-99124334D01*
X108284814Y-99124331D01*
X108288448Y-99118441D01*
X108340395Y-99071716D01*
X108409358Y-99060493D01*
X108473440Y-99088336D01*
X108481668Y-99095856D01*
X108620535Y-99234723D01*
X108620540Y-99234727D01*
X108792442Y-99359620D01*
X108981782Y-99456095D01*
X109183871Y-99521757D01*
X109250000Y-99532231D01*
X109250000Y-98484145D01*
X109316657Y-98522630D01*
X109437465Y-98555000D01*
X109562535Y-98555000D01*
X109683343Y-98522630D01*
X109750000Y-98484145D01*
X109750000Y-99532230D01*
X109816126Y-99521757D01*
X109816129Y-99521757D01*
X110018217Y-99456095D01*
X110207557Y-99359620D01*
X110379459Y-99234727D01*
X110379464Y-99234723D01*
X110529721Y-99084466D01*
X110649371Y-98919781D01*
X110704701Y-98877115D01*
X110774314Y-98871136D01*
X110836110Y-98903741D01*
X110850008Y-98919781D01*
X110969890Y-99084785D01*
X110969894Y-99084790D01*
X111120213Y-99235109D01*
X111292179Y-99360048D01*
X111292181Y-99360049D01*
X111292184Y-99360051D01*
X111481588Y-99456557D01*
X111683757Y-99522246D01*
X111893713Y-99555500D01*
X111893714Y-99555500D01*
X112106286Y-99555500D01*
X112106287Y-99555500D01*
X112316243Y-99522246D01*
X112518412Y-99456557D01*
X112707816Y-99360051D01*
X112820398Y-99278256D01*
X112879786Y-99235109D01*
X112879788Y-99235106D01*
X112879792Y-99235104D01*
X113030104Y-99084792D01*
X113149683Y-98920204D01*
X113205011Y-98877540D01*
X113274624Y-98871561D01*
X113336420Y-98904166D01*
X113350313Y-98920199D01*
X113436516Y-99038848D01*
X113469896Y-99084792D01*
X113620213Y-99235109D01*
X113792179Y-99360048D01*
X113792181Y-99360049D01*
X113792184Y-99360051D01*
X113981588Y-99456557D01*
X114183757Y-99522246D01*
X114393713Y-99555500D01*
X114393714Y-99555500D01*
X114606286Y-99555500D01*
X114606287Y-99555500D01*
X114816243Y-99522246D01*
X115018412Y-99456557D01*
X115207816Y-99360051D01*
X115320398Y-99278256D01*
X115379786Y-99235109D01*
X115379788Y-99235106D01*
X115379792Y-99235104D01*
X115530104Y-99084792D01*
X115530106Y-99084788D01*
X115530109Y-99084786D01*
X115655048Y-98912820D01*
X115655047Y-98912820D01*
X115655051Y-98912816D01*
X115751557Y-98723412D01*
X115817246Y-98521243D01*
X115850500Y-98311287D01*
X115850500Y-97848713D01*
X115817246Y-97638757D01*
X115751557Y-97436588D01*
X115655051Y-97247184D01*
X115655049Y-97247181D01*
X115655048Y-97247179D01*
X115530109Y-97075213D01*
X115379786Y-96924890D01*
X115207820Y-96799951D01*
X115018414Y-96703444D01*
X115018413Y-96703443D01*
X115018412Y-96703443D01*
X114816243Y-96637754D01*
X114816241Y-96637753D01*
X114816240Y-96637753D01*
X114654957Y-96612208D01*
X114606287Y-96604500D01*
X114393713Y-96604500D01*
X114345042Y-96612208D01*
X114183760Y-96637753D01*
X114183757Y-96637754D01*
X114034389Y-96686287D01*
X113981585Y-96703444D01*
X113792179Y-96799951D01*
X113620213Y-96924890D01*
X113469894Y-97075209D01*
X113469890Y-97075214D01*
X113350318Y-97239793D01*
X113294989Y-97282459D01*
X113225375Y-97288438D01*
X113163580Y-97255833D01*
X113149682Y-97239793D01*
X113030109Y-97075214D01*
X113030105Y-97075209D01*
X112879786Y-96924890D01*
X112707820Y-96799951D01*
X112518414Y-96703444D01*
X112518413Y-96703443D01*
X112518412Y-96703443D01*
X112316243Y-96637754D01*
X112316241Y-96637753D01*
X112316240Y-96637753D01*
X112154957Y-96612208D01*
X112106287Y-96604500D01*
X111893713Y-96604500D01*
X111845042Y-96612208D01*
X111683760Y-96637753D01*
X111683757Y-96637754D01*
X111534389Y-96686287D01*
X111481585Y-96703444D01*
X111292179Y-96799951D01*
X111120213Y-96924890D01*
X110969894Y-97075209D01*
X110969890Y-97075214D01*
X110850008Y-97240218D01*
X110794678Y-97282884D01*
X110725065Y-97288863D01*
X110663270Y-97256257D01*
X110649372Y-97240218D01*
X110529727Y-97075540D01*
X110529723Y-97075535D01*
X110379464Y-96925276D01*
X110379459Y-96925272D01*
X110207557Y-96800379D01*
X110018215Y-96703903D01*
X109816124Y-96638241D01*
X109750000Y-96627768D01*
X109750000Y-97675854D01*
X109683343Y-97637370D01*
X109562535Y-97605000D01*
X109437465Y-97605000D01*
X109316657Y-97637370D01*
X109250000Y-97675854D01*
X109250000Y-96627768D01*
X109249999Y-96627768D01*
X109183875Y-96638241D01*
X108981784Y-96703903D01*
X108792442Y-96800379D01*
X108620541Y-96925271D01*
X108481668Y-97064144D01*
X108420345Y-97097628D01*
X108350653Y-97092644D01*
X108294720Y-97050772D01*
X108288448Y-97041558D01*
X108192712Y-96886344D01*
X108068657Y-96762289D01*
X108068656Y-96762288D01*
X107945438Y-96686287D01*
X107919336Y-96670187D01*
X107919331Y-96670185D01*
X107917862Y-96669698D01*
X107752797Y-96615001D01*
X107752795Y-96615000D01*
X107650010Y-96604500D01*
X106349998Y-96604500D01*
X106349981Y-96604501D01*
X106247203Y-96615000D01*
X106247200Y-96615001D01*
X106080668Y-96670185D01*
X106080663Y-96670187D01*
X105931342Y-96762289D01*
X105807289Y-96886342D01*
X105715187Y-97035663D01*
X105715185Y-97035668D01*
X105713203Y-97041650D01*
X105660001Y-97202203D01*
X105660001Y-97202204D01*
X105660000Y-97202204D01*
X105649500Y-97304983D01*
X75000500Y-97304983D01*
X75000500Y-79477648D01*
X99039500Y-79477648D01*
X99039500Y-79682351D01*
X99071522Y-79884534D01*
X99134781Y-80079223D01*
X99227715Y-80261613D01*
X99348028Y-80427213D01*
X99492786Y-80571971D01*
X99647749Y-80684556D01*
X99658390Y-80692287D01*
X99774607Y-80751503D01*
X99840776Y-80785218D01*
X99840778Y-80785218D01*
X99840781Y-80785220D01*
X99945137Y-80819127D01*
X100035465Y-80848477D01*
X100136557Y-80864488D01*
X100237648Y-80880500D01*
X100237649Y-80880500D01*
X100442351Y-80880500D01*
X100442352Y-80880500D01*
X100644534Y-80848477D01*
X100839219Y-80785220D01*
X101021610Y-80692287D01*
X101114590Y-80624732D01*
X101187213Y-80571971D01*
X101187215Y-80571968D01*
X101187219Y-80571966D01*
X101331966Y-80427219D01*
X101331968Y-80427215D01*
X101331971Y-80427213D01*
X101417205Y-80309896D01*
X101452287Y-80261610D01*
X101545220Y-80079219D01*
X101608477Y-79884534D01*
X101640500Y-79682352D01*
X101640500Y-79477648D01*
X109199500Y-79477648D01*
X109199500Y-79682351D01*
X109231522Y-79884534D01*
X109294781Y-80079223D01*
X109387715Y-80261613D01*
X109508028Y-80427213D01*
X109652786Y-80571971D01*
X109807749Y-80684556D01*
X109818390Y-80692287D01*
X109934607Y-80751503D01*
X110000776Y-80785218D01*
X110000778Y-80785218D01*
X110000781Y-80785220D01*
X110105137Y-80819127D01*
X110195465Y-80848477D01*
X110296557Y-80864488D01*
X110397648Y-80880500D01*
X110397649Y-80880500D01*
X110602351Y-80880500D01*
X110602352Y-80880500D01*
X110804534Y-80848477D01*
X110999219Y-80785220D01*
X111181610Y-80692287D01*
X111274590Y-80624732D01*
X111347213Y-80571971D01*
X111347215Y-80571968D01*
X111347219Y-80571966D01*
X111491966Y-80427219D01*
X111491968Y-80427215D01*
X111491971Y-80427213D01*
X111577205Y-80309896D01*
X111612287Y-80261610D01*
X111705220Y-80079219D01*
X111768477Y-79884534D01*
X111800500Y-79682352D01*
X111800500Y-79477648D01*
X111795845Y-79448259D01*
X111790130Y-79412174D01*
X111787829Y-79397648D01*
X116119500Y-79397648D01*
X116119500Y-79602351D01*
X116151522Y-79804534D01*
X116214781Y-79999223D01*
X116253551Y-80075312D01*
X116307585Y-80181359D01*
X116307715Y-80181613D01*
X116428028Y-80347213D01*
X116572786Y-80491971D01*
X116682892Y-80571966D01*
X116738390Y-80612287D01*
X116854607Y-80671503D01*
X116920776Y-80705218D01*
X116920778Y-80705218D01*
X116920781Y-80705220D01*
X117025137Y-80739127D01*
X117115465Y-80768477D01*
X117216557Y-80784488D01*
X117317648Y-80800500D01*
X117317649Y-80800500D01*
X117522351Y-80800500D01*
X117522352Y-80800500D01*
X117724534Y-80768477D01*
X117919219Y-80705220D01*
X118101610Y-80612287D01*
X118194590Y-80544732D01*
X118267213Y-80491971D01*
X118267215Y-80491968D01*
X118267219Y-80491966D01*
X118411966Y-80347219D01*
X118411968Y-80347215D01*
X118411971Y-80347213D01*
X118474164Y-80261610D01*
X118532287Y-80181610D01*
X118625220Y-79999219D01*
X118688477Y-79804534D01*
X118720500Y-79602352D01*
X118720500Y-79397682D01*
X126280000Y-79397682D01*
X126280000Y-79602317D01*
X126312009Y-79804417D01*
X126375244Y-79999031D01*
X126468141Y-80181350D01*
X126468147Y-80181359D01*
X126500523Y-80225921D01*
X126500524Y-80225922D01*
X127180000Y-79546446D01*
X127180000Y-79552661D01*
X127207259Y-79654394D01*
X127259920Y-79745606D01*
X127334394Y-79820080D01*
X127425606Y-79872741D01*
X127527339Y-79900000D01*
X127533553Y-79900000D01*
X126854076Y-80579474D01*
X126898650Y-80611859D01*
X127080968Y-80704755D01*
X127275582Y-80767990D01*
X127477683Y-80800000D01*
X127682317Y-80800000D01*
X127884417Y-80767990D01*
X128079031Y-80704755D01*
X128261349Y-80611859D01*
X128305921Y-80579474D01*
X127626447Y-79900000D01*
X127632661Y-79900000D01*
X127734394Y-79872741D01*
X127825606Y-79820080D01*
X127900080Y-79745606D01*
X127952741Y-79654394D01*
X127980000Y-79552661D01*
X127980000Y-79546448D01*
X128659474Y-80225922D01*
X128659474Y-80225921D01*
X128691859Y-80181349D01*
X128784755Y-79999031D01*
X128847990Y-79804417D01*
X128880000Y-79602317D01*
X128880000Y-79397682D01*
X128847990Y-79195582D01*
X128784755Y-79000968D01*
X128691859Y-78818650D01*
X128659474Y-78774077D01*
X128659474Y-78774076D01*
X127980000Y-79453551D01*
X127980000Y-79447339D01*
X127952741Y-79345606D01*
X127900080Y-79254394D01*
X127825606Y-79179920D01*
X127734394Y-79127259D01*
X127632661Y-79100000D01*
X127626446Y-79100000D01*
X128305922Y-78420524D01*
X128305921Y-78420523D01*
X128261359Y-78388147D01*
X128261350Y-78388141D01*
X128079031Y-78295244D01*
X127884417Y-78232009D01*
X127682317Y-78200000D01*
X127477683Y-78200000D01*
X127275582Y-78232009D01*
X127080968Y-78295244D01*
X126898644Y-78388143D01*
X126854077Y-78420523D01*
X126854077Y-78420524D01*
X127533554Y-79100000D01*
X127527339Y-79100000D01*
X127425606Y-79127259D01*
X127334394Y-79179920D01*
X127259920Y-79254394D01*
X127207259Y-79345606D01*
X127180000Y-79447339D01*
X127180000Y-79453553D01*
X126500524Y-78774077D01*
X126500523Y-78774077D01*
X126468143Y-78818644D01*
X126375244Y-79000968D01*
X126312009Y-79195582D01*
X126280000Y-79397682D01*
X118720500Y-79397682D01*
X118720500Y-79397648D01*
X118698960Y-79261650D01*
X118688477Y-79195465D01*
X118657458Y-79100000D01*
X118625220Y-79000781D01*
X118625218Y-79000778D01*
X118625218Y-79000776D01*
X118550203Y-78853553D01*
X118532287Y-78818390D01*
X118500092Y-78774077D01*
X118411971Y-78652786D01*
X118267213Y-78508028D01*
X118101613Y-78387715D01*
X118101612Y-78387714D01*
X118101610Y-78387713D01*
X118044653Y-78358691D01*
X117919223Y-78294781D01*
X117724534Y-78231522D01*
X117549995Y-78203878D01*
X117522352Y-78199500D01*
X117317648Y-78199500D01*
X117293329Y-78203351D01*
X117115465Y-78231522D01*
X116920776Y-78294781D01*
X116738386Y-78387715D01*
X116572786Y-78508028D01*
X116428028Y-78652786D01*
X116307715Y-78818386D01*
X116214781Y-79000776D01*
X116151522Y-79195465D01*
X116119500Y-79397648D01*
X111787829Y-79397648D01*
X111768477Y-79275465D01*
X111726556Y-79146446D01*
X111705220Y-79080781D01*
X111705218Y-79080778D01*
X111705218Y-79080776D01*
X111663566Y-78999031D01*
X111612287Y-78898390D01*
X111593652Y-78872741D01*
X111491971Y-78732786D01*
X111347213Y-78588028D01*
X111181613Y-78467715D01*
X111181612Y-78467714D01*
X111181610Y-78467713D01*
X111109743Y-78431095D01*
X110999223Y-78374781D01*
X110804534Y-78311522D01*
X110629995Y-78283878D01*
X110602352Y-78279500D01*
X110397648Y-78279500D01*
X110373329Y-78283351D01*
X110195465Y-78311522D01*
X110000776Y-78374781D01*
X109818386Y-78467715D01*
X109652786Y-78588028D01*
X109508028Y-78732786D01*
X109387715Y-78898386D01*
X109294781Y-79080776D01*
X109231522Y-79275465D01*
X109199500Y-79477648D01*
X101640500Y-79477648D01*
X101619842Y-79347219D01*
X101608477Y-79275465D01*
X101566556Y-79146446D01*
X101545220Y-79080781D01*
X101545218Y-79080778D01*
X101545218Y-79080776D01*
X101503566Y-78999031D01*
X101452287Y-78898390D01*
X101433652Y-78872741D01*
X101331971Y-78732786D01*
X101187213Y-78588028D01*
X101021613Y-78467715D01*
X101021612Y-78467714D01*
X101021610Y-78467713D01*
X100949743Y-78431095D01*
X100839223Y-78374781D01*
X100644534Y-78311522D01*
X100469995Y-78283878D01*
X100442352Y-78279500D01*
X100237648Y-78279500D01*
X100213329Y-78283351D01*
X100035465Y-78311522D01*
X99840776Y-78374781D01*
X99658386Y-78467715D01*
X99492786Y-78588028D01*
X99348028Y-78732786D01*
X99227715Y-78898386D01*
X99134781Y-79080776D01*
X99071522Y-79275465D01*
X99039500Y-79477648D01*
X75000500Y-79477648D01*
X75000500Y-76073920D01*
X129749499Y-76073920D01*
X129778340Y-76218907D01*
X129778343Y-76218917D01*
X129834912Y-76355488D01*
X129834919Y-76355501D01*
X129917048Y-76478415D01*
X129917051Y-76478419D01*
X130021580Y-76582948D01*
X130021584Y-76582951D01*
X130144498Y-76665080D01*
X130144511Y-76665087D01*
X130281068Y-76721650D01*
X130281087Y-76721658D01*
X130281091Y-76721658D01*
X130281092Y-76721659D01*
X130426079Y-76750500D01*
X130426082Y-76750500D01*
X130573918Y-76750500D01*
X140257770Y-76750500D01*
X140324809Y-76770185D01*
X140345451Y-76786819D01*
X147129824Y-83571192D01*
X147163309Y-83632515D01*
X147164616Y-83678271D01*
X147149500Y-83773707D01*
X147149500Y-83986286D01*
X147182753Y-84196239D01*
X147248444Y-84398414D01*
X147344951Y-84587820D01*
X147469890Y-84759786D01*
X147620213Y-84910109D01*
X147792182Y-85035050D01*
X147800946Y-85039516D01*
X147851742Y-85087491D01*
X147868536Y-85155312D01*
X147845998Y-85221447D01*
X147800946Y-85260484D01*
X147792182Y-85264949D01*
X147620213Y-85389890D01*
X147469890Y-85540213D01*
X147344951Y-85712179D01*
X147248444Y-85901585D01*
X147182753Y-86103760D01*
X147155102Y-86278342D01*
X147149500Y-86313713D01*
X147149500Y-86526287D01*
X147182754Y-86736243D01*
X147242835Y-86921153D01*
X147248444Y-86938414D01*
X147344951Y-87127820D01*
X147469890Y-87299786D01*
X147620213Y-87450109D01*
X147792182Y-87575050D01*
X147800946Y-87579516D01*
X147851742Y-87627491D01*
X147868536Y-87695312D01*
X147845998Y-87761447D01*
X147800946Y-87800484D01*
X147792182Y-87804949D01*
X147620213Y-87929890D01*
X147469892Y-88080211D01*
X147413097Y-88158385D01*
X147357767Y-88201051D01*
X147312779Y-88209500D01*
X137828980Y-88209500D01*
X137761941Y-88189815D01*
X137716186Y-88137011D01*
X137714418Y-88132949D01*
X137709397Y-88120828D01*
X137709396Y-88120826D01*
X137709394Y-88120821D01*
X137680324Y-88077315D01*
X137621789Y-87989710D01*
X137510292Y-87878213D01*
X137510288Y-87878210D01*
X137379185Y-87790609D01*
X137379172Y-87790602D01*
X137233501Y-87730264D01*
X137233489Y-87730261D01*
X137078845Y-87699500D01*
X137078842Y-87699500D01*
X136921158Y-87699500D01*
X136921155Y-87699500D01*
X136766510Y-87730261D01*
X136766498Y-87730264D01*
X136620827Y-87790602D01*
X136620814Y-87790609D01*
X136489711Y-87878210D01*
X136489707Y-87878213D01*
X136378213Y-87989707D01*
X136378210Y-87989711D01*
X136290609Y-88120814D01*
X136290606Y-88120820D01*
X136283006Y-88139169D01*
X136239164Y-88193572D01*
X136172870Y-88215636D01*
X136105171Y-88198356D01*
X136080764Y-88179396D01*
X134318421Y-86417052D01*
X134318414Y-86417046D01*
X134244729Y-86367812D01*
X134244729Y-86367813D01*
X134195491Y-86334913D01*
X134058917Y-86278343D01*
X134058907Y-86278340D01*
X133913920Y-86249500D01*
X133913918Y-86249500D01*
X133304604Y-86249500D01*
X133257155Y-86240062D01*
X133233497Y-86230263D01*
X133233493Y-86230262D01*
X133233488Y-86230260D01*
X133078845Y-86199500D01*
X133078842Y-86199500D01*
X132921158Y-86199500D01*
X132921155Y-86199500D01*
X132766510Y-86230261D01*
X132766498Y-86230264D01*
X132620827Y-86290602D01*
X132620814Y-86290609D01*
X132489711Y-86378210D01*
X132489707Y-86378213D01*
X132378213Y-86489707D01*
X132378210Y-86489711D01*
X132290609Y-86620814D01*
X132290602Y-86620827D01*
X132230264Y-86766498D01*
X132230261Y-86766510D01*
X132199500Y-86921153D01*
X132199500Y-87078846D01*
X132230261Y-87233489D01*
X132230264Y-87233501D01*
X132290602Y-87379172D01*
X132290609Y-87379185D01*
X132378210Y-87510288D01*
X132378213Y-87510292D01*
X132489707Y-87621786D01*
X132489711Y-87621789D01*
X132620814Y-87709390D01*
X132620827Y-87709397D01*
X132732187Y-87755523D01*
X132766503Y-87769737D01*
X132921078Y-87800484D01*
X132921153Y-87800499D01*
X132921156Y-87800500D01*
X132921158Y-87800500D01*
X133078844Y-87800500D01*
X133078845Y-87800499D01*
X133155152Y-87785320D01*
X133233488Y-87769739D01*
X133233489Y-87769738D01*
X133233497Y-87769737D01*
X133257155Y-87759937D01*
X133265329Y-87758311D01*
X133269669Y-87755523D01*
X133304604Y-87750500D01*
X133477770Y-87750500D01*
X133544809Y-87770185D01*
X133565451Y-87786819D01*
X147129824Y-101351192D01*
X147163309Y-101412515D01*
X147164616Y-101458271D01*
X147149500Y-101553707D01*
X147149500Y-101766286D01*
X147180027Y-101959029D01*
X147182754Y-101976243D01*
X147200256Y-102030109D01*
X147248444Y-102178414D01*
X147344951Y-102367820D01*
X147469890Y-102539786D01*
X147620213Y-102690109D01*
X147792182Y-102815050D01*
X147800946Y-102819516D01*
X147851742Y-102867491D01*
X147868536Y-102935312D01*
X147845998Y-103001447D01*
X147800946Y-103040484D01*
X147792182Y-103044949D01*
X147620213Y-103169890D01*
X147469890Y-103320213D01*
X147344951Y-103492179D01*
X147248444Y-103681585D01*
X147182753Y-103883760D01*
X147149500Y-104093713D01*
X147149500Y-104306286D01*
X147182753Y-104516239D01*
X147248444Y-104718414D01*
X147344951Y-104907820D01*
X147469890Y-105079786D01*
X147620213Y-105230109D01*
X147792182Y-105355050D01*
X147800946Y-105359516D01*
X147851742Y-105407491D01*
X147868536Y-105475312D01*
X147845998Y-105541447D01*
X147800946Y-105580484D01*
X147792182Y-105584949D01*
X147620213Y-105709890D01*
X147469890Y-105860213D01*
X147344951Y-106032179D01*
X147248444Y-106221585D01*
X147182753Y-106423760D01*
X147154467Y-106602351D01*
X147149500Y-106633713D01*
X147149500Y-106846287D01*
X147182754Y-107056243D01*
X147223489Y-107181613D01*
X147248444Y-107258414D01*
X147344951Y-107447820D01*
X147469890Y-107619786D01*
X147620213Y-107770109D01*
X147792182Y-107895050D01*
X147800946Y-107899516D01*
X147851742Y-107947491D01*
X147868536Y-108015312D01*
X147845998Y-108081447D01*
X147800946Y-108120484D01*
X147792182Y-108124949D01*
X147620213Y-108249890D01*
X147469890Y-108400213D01*
X147344951Y-108572179D01*
X147248444Y-108761585D01*
X147182753Y-108963760D01*
X147149500Y-109173713D01*
X147149500Y-109386286D01*
X147182753Y-109596239D01*
X147248444Y-109798414D01*
X147344951Y-109987820D01*
X147469890Y-110159786D01*
X147620213Y-110310109D01*
X147792182Y-110435050D01*
X147800946Y-110439516D01*
X147851742Y-110487491D01*
X147868536Y-110555312D01*
X147845998Y-110621447D01*
X147800946Y-110660484D01*
X147792182Y-110664949D01*
X147620213Y-110789890D01*
X147469890Y-110940213D01*
X147344951Y-111112179D01*
X147248444Y-111301585D01*
X147182753Y-111503760D01*
X147149500Y-111713713D01*
X147149500Y-111926286D01*
X147182753Y-112136239D01*
X147248444Y-112338414D01*
X147344951Y-112527820D01*
X147469890Y-112699786D01*
X147620213Y-112850109D01*
X147792182Y-112975050D01*
X147800946Y-112979516D01*
X147851742Y-113027491D01*
X147868536Y-113095312D01*
X147845998Y-113161447D01*
X147800946Y-113200484D01*
X147792182Y-113204949D01*
X147620213Y-113329890D01*
X147469890Y-113480213D01*
X147344951Y-113652179D01*
X147248444Y-113841585D01*
X147182753Y-114043760D01*
X147149500Y-114253713D01*
X147149500Y-114466286D01*
X147182753Y-114676239D01*
X147248444Y-114878414D01*
X147344951Y-115067820D01*
X147469890Y-115239786D01*
X147620213Y-115390109D01*
X147792182Y-115515050D01*
X147800946Y-115519516D01*
X147851742Y-115567491D01*
X147868536Y-115635312D01*
X147845998Y-115701447D01*
X147800946Y-115740484D01*
X147792182Y-115744949D01*
X147620213Y-115869890D01*
X147469890Y-116020213D01*
X147344951Y-116192179D01*
X147248444Y-116381585D01*
X147182753Y-116583760D01*
X147149500Y-116793713D01*
X147149500Y-117006286D01*
X147182753Y-117216239D01*
X147248444Y-117418414D01*
X147344951Y-117607820D01*
X147469890Y-117779786D01*
X147620213Y-117930109D01*
X147792179Y-118055048D01*
X147792181Y-118055049D01*
X147792184Y-118055051D01*
X147981588Y-118151557D01*
X148183757Y-118217246D01*
X148393713Y-118250500D01*
X148393714Y-118250500D01*
X148606286Y-118250500D01*
X148606287Y-118250500D01*
X148816243Y-118217246D01*
X149018412Y-118151557D01*
X149207816Y-118055051D01*
X149229789Y-118039086D01*
X149379786Y-117930109D01*
X149379788Y-117930106D01*
X149379792Y-117930104D01*
X149530104Y-117779792D01*
X149530106Y-117779788D01*
X149530109Y-117779786D01*
X149655048Y-117607820D01*
X149655047Y-117607820D01*
X149655051Y-117607816D01*
X149659514Y-117599054D01*
X149707488Y-117548259D01*
X149775308Y-117531463D01*
X149841444Y-117553999D01*
X149880486Y-117599056D01*
X149884951Y-117607820D01*
X150009890Y-117779786D01*
X150160213Y-117930109D01*
X150332179Y-118055048D01*
X150332181Y-118055049D01*
X150332184Y-118055051D01*
X150521588Y-118151557D01*
X150723757Y-118217246D01*
X150933713Y-118250500D01*
X150933714Y-118250500D01*
X151146286Y-118250500D01*
X151146287Y-118250500D01*
X151356243Y-118217246D01*
X151558412Y-118151557D01*
X151747816Y-118055051D01*
X151769789Y-118039086D01*
X151919786Y-117930109D01*
X151919788Y-117930106D01*
X151919792Y-117930104D01*
X152070104Y-117779792D01*
X152070106Y-117779788D01*
X152070109Y-117779786D01*
X152195048Y-117607820D01*
X152195047Y-117607820D01*
X152195051Y-117607816D01*
X152291557Y-117418412D01*
X152357246Y-117216243D01*
X152390500Y-117006287D01*
X152390500Y-116793713D01*
X152357246Y-116583757D01*
X152291557Y-116381588D01*
X152195051Y-116192184D01*
X152195049Y-116192181D01*
X152195048Y-116192179D01*
X152070109Y-116020213D01*
X151919786Y-115869890D01*
X151747820Y-115744951D01*
X151747115Y-115744591D01*
X151739054Y-115740485D01*
X151688259Y-115692512D01*
X151671463Y-115624692D01*
X151693999Y-115558556D01*
X151739054Y-115519515D01*
X151747816Y-115515051D01*
X151769789Y-115499086D01*
X151919786Y-115390109D01*
X151919788Y-115390106D01*
X151919792Y-115390104D01*
X152070104Y-115239792D01*
X152070106Y-115239788D01*
X152070109Y-115239786D01*
X152195048Y-115067820D01*
X152195047Y-115067820D01*
X152195051Y-115067816D01*
X152291557Y-114878412D01*
X152357246Y-114676243D01*
X152390500Y-114466287D01*
X152390500Y-114253713D01*
X152357246Y-114043757D01*
X152291557Y-113841588D01*
X152195051Y-113652184D01*
X152195049Y-113652181D01*
X152195048Y-113652179D01*
X152070109Y-113480213D01*
X151919786Y-113329890D01*
X151747820Y-113204951D01*
X151747115Y-113204591D01*
X151739054Y-113200485D01*
X151688259Y-113152512D01*
X151671463Y-113084692D01*
X151693999Y-113018556D01*
X151739054Y-112979515D01*
X151747816Y-112975051D01*
X151769789Y-112959086D01*
X151919786Y-112850109D01*
X151919788Y-112850106D01*
X151919792Y-112850104D01*
X152070104Y-112699792D01*
X152070106Y-112699788D01*
X152070109Y-112699786D01*
X152195048Y-112527820D01*
X152195047Y-112527820D01*
X152195051Y-112527816D01*
X152291557Y-112338412D01*
X152357246Y-112136243D01*
X152390500Y-111926287D01*
X152390500Y-111713713D01*
X152357246Y-111503757D01*
X152291557Y-111301588D01*
X152195051Y-111112184D01*
X152195049Y-111112181D01*
X152195048Y-111112179D01*
X152070109Y-110940213D01*
X151919786Y-110789890D01*
X151747820Y-110664951D01*
X151747115Y-110664591D01*
X151739054Y-110660485D01*
X151688259Y-110612512D01*
X151671463Y-110544692D01*
X151693999Y-110478556D01*
X151739054Y-110439515D01*
X151747816Y-110435051D01*
X151769789Y-110419086D01*
X151919786Y-110310109D01*
X151919788Y-110310106D01*
X151919792Y-110310104D01*
X152070104Y-110159792D01*
X152070106Y-110159788D01*
X152070109Y-110159786D01*
X152195048Y-109987820D01*
X152195047Y-109987820D01*
X152195051Y-109987816D01*
X152291557Y-109798412D01*
X152357246Y-109596243D01*
X152390500Y-109386287D01*
X152390500Y-109173713D01*
X152357246Y-108963757D01*
X152291557Y-108761588D01*
X152195051Y-108572184D01*
X152195049Y-108572181D01*
X152195048Y-108572179D01*
X152070109Y-108400213D01*
X151919786Y-108249890D01*
X151747820Y-108124951D01*
X151747115Y-108124591D01*
X151739054Y-108120485D01*
X151688259Y-108072512D01*
X151671463Y-108004692D01*
X151693999Y-107938556D01*
X151739054Y-107899515D01*
X151747816Y-107895051D01*
X151769789Y-107879086D01*
X151919786Y-107770109D01*
X151919788Y-107770106D01*
X151919792Y-107770104D01*
X152070104Y-107619792D01*
X152070106Y-107619788D01*
X152070109Y-107619786D01*
X152195048Y-107447820D01*
X152195047Y-107447820D01*
X152195051Y-107447816D01*
X152291557Y-107258412D01*
X152357246Y-107056243D01*
X152390500Y-106846287D01*
X152390500Y-106633713D01*
X152357246Y-106423757D01*
X152291557Y-106221588D01*
X152195051Y-106032184D01*
X152195049Y-106032181D01*
X152195048Y-106032179D01*
X152070109Y-105860213D01*
X151919786Y-105709890D01*
X151747820Y-105584951D01*
X151747115Y-105584591D01*
X151739054Y-105580485D01*
X151688259Y-105532512D01*
X151671463Y-105464692D01*
X151693999Y-105398556D01*
X151739054Y-105359515D01*
X151747816Y-105355051D01*
X151830771Y-105294781D01*
X151919786Y-105230109D01*
X151919788Y-105230106D01*
X151919792Y-105230104D01*
X152070104Y-105079792D01*
X152070106Y-105079788D01*
X152070109Y-105079786D01*
X152195048Y-104907820D01*
X152195047Y-104907820D01*
X152195051Y-104907816D01*
X152291557Y-104718412D01*
X152357246Y-104516243D01*
X152390500Y-104306287D01*
X152390500Y-104093713D01*
X152357246Y-103883757D01*
X152291557Y-103681588D01*
X152195051Y-103492184D01*
X152195049Y-103492181D01*
X152195048Y-103492179D01*
X152070109Y-103320213D01*
X151919786Y-103169890D01*
X151747820Y-103044951D01*
X151747115Y-103044591D01*
X151739054Y-103040485D01*
X151688259Y-102992512D01*
X151671463Y-102924692D01*
X151693999Y-102858556D01*
X151739054Y-102819515D01*
X151747816Y-102815051D01*
X151769789Y-102799086D01*
X151919786Y-102690109D01*
X151919788Y-102690106D01*
X151919792Y-102690104D01*
X152070104Y-102539792D01*
X152070106Y-102539788D01*
X152070109Y-102539786D01*
X152195048Y-102367820D01*
X152195047Y-102367820D01*
X152195051Y-102367816D01*
X152291557Y-102178412D01*
X152357246Y-101976243D01*
X152390500Y-101766287D01*
X152390500Y-101553713D01*
X152357246Y-101343757D01*
X152291557Y-101141588D01*
X152195051Y-100952184D01*
X152195049Y-100952181D01*
X152195048Y-100952179D01*
X152070109Y-100780213D01*
X151919786Y-100629890D01*
X151747820Y-100504951D01*
X151747115Y-100504591D01*
X151739054Y-100500485D01*
X151688259Y-100452512D01*
X151671463Y-100384692D01*
X151693999Y-100318556D01*
X151739054Y-100279515D01*
X151747816Y-100275051D01*
X151769789Y-100259086D01*
X151919786Y-100150109D01*
X151919788Y-100150106D01*
X151919792Y-100150104D01*
X152070104Y-99999792D01*
X152070106Y-99999788D01*
X152070109Y-99999786D01*
X152195048Y-99827820D01*
X152195047Y-99827820D01*
X152195051Y-99827816D01*
X152291557Y-99638412D01*
X152357246Y-99436243D01*
X152390500Y-99226287D01*
X152390500Y-99013713D01*
X152357246Y-98803757D01*
X152291557Y-98601588D01*
X152195051Y-98412184D01*
X152195049Y-98412181D01*
X152195048Y-98412179D01*
X152070109Y-98240213D01*
X151919786Y-98089890D01*
X151747820Y-97964951D01*
X151747115Y-97964591D01*
X151739054Y-97960485D01*
X151688259Y-97912512D01*
X151671463Y-97844692D01*
X151693999Y-97778556D01*
X151739054Y-97739515D01*
X151747816Y-97735051D01*
X151799582Y-97697441D01*
X151919786Y-97610109D01*
X151919788Y-97610106D01*
X151919792Y-97610104D01*
X152070104Y-97459792D01*
X152070106Y-97459788D01*
X152070109Y-97459786D01*
X152195048Y-97287820D01*
X152195047Y-97287820D01*
X152195051Y-97287816D01*
X152291557Y-97098412D01*
X152357246Y-96896243D01*
X152390500Y-96686287D01*
X152390500Y-96473713D01*
X152357246Y-96263757D01*
X152291557Y-96061588D01*
X152195051Y-95872184D01*
X152195049Y-95872181D01*
X152195048Y-95872179D01*
X152070109Y-95700213D01*
X151919786Y-95549890D01*
X151747820Y-95424951D01*
X151747115Y-95424591D01*
X151739054Y-95420485D01*
X151688259Y-95372512D01*
X151671463Y-95304692D01*
X151693999Y-95238556D01*
X151739054Y-95199515D01*
X151747816Y-95195051D01*
X151769789Y-95179086D01*
X151919786Y-95070109D01*
X151919788Y-95070106D01*
X151919792Y-95070104D01*
X152070104Y-94919792D01*
X152070106Y-94919788D01*
X152070109Y-94919786D01*
X152195048Y-94747820D01*
X152195047Y-94747820D01*
X152195051Y-94747816D01*
X152291557Y-94558412D01*
X152357246Y-94356243D01*
X152390500Y-94146287D01*
X152390500Y-93933713D01*
X152357246Y-93723757D01*
X152291557Y-93521588D01*
X152195051Y-93332184D01*
X152195049Y-93332181D01*
X152195048Y-93332179D01*
X152070109Y-93160213D01*
X151919786Y-93009890D01*
X151747820Y-92884951D01*
X151747115Y-92884591D01*
X151739054Y-92880485D01*
X151688259Y-92832512D01*
X151671463Y-92764692D01*
X151693999Y-92698556D01*
X151739054Y-92659515D01*
X151747816Y-92655051D01*
X151794940Y-92620814D01*
X151919786Y-92530109D01*
X151919788Y-92530106D01*
X151919792Y-92530104D01*
X152070104Y-92379792D01*
X152070106Y-92379788D01*
X152070109Y-92379786D01*
X152195048Y-92207820D01*
X152195047Y-92207820D01*
X152195051Y-92207816D01*
X152291557Y-92018412D01*
X152357246Y-91816243D01*
X152384481Y-91644284D01*
X152414410Y-91581152D01*
X152473721Y-91544220D01*
X152543584Y-91545218D01*
X152594635Y-91576003D01*
X154601578Y-93582947D01*
X154601585Y-93582953D01*
X154659704Y-93621786D01*
X154659706Y-93621787D01*
X154659709Y-93621789D01*
X154724505Y-93665084D01*
X154861087Y-93721658D01*
X154861091Y-93721658D01*
X154861092Y-93721659D01*
X155006079Y-93750500D01*
X155006082Y-93750500D01*
X155006083Y-93750500D01*
X155153918Y-93750500D01*
X155195396Y-93750500D01*
X155242844Y-93759937D01*
X155266503Y-93769737D01*
X155266508Y-93769738D01*
X155266511Y-93769739D01*
X155421153Y-93800499D01*
X155421156Y-93800500D01*
X155421158Y-93800500D01*
X155578844Y-93800500D01*
X155578845Y-93800499D01*
X155733497Y-93769737D01*
X155879179Y-93709394D01*
X156010289Y-93621789D01*
X156121789Y-93510289D01*
X156209394Y-93379179D01*
X156269737Y-93233497D01*
X156300500Y-93078842D01*
X156300500Y-92921158D01*
X156300500Y-92921155D01*
X156300499Y-92921153D01*
X156293298Y-92884951D01*
X156269737Y-92766503D01*
X156225421Y-92659514D01*
X156209397Y-92620827D01*
X156209390Y-92620814D01*
X156121789Y-92489711D01*
X156121786Y-92489707D01*
X156010292Y-92378213D01*
X156010288Y-92378210D01*
X155879185Y-92290609D01*
X155879172Y-92290602D01*
X155733501Y-92230264D01*
X155733489Y-92230261D01*
X155578845Y-92199500D01*
X155578842Y-92199500D01*
X155421158Y-92199500D01*
X155421156Y-92199500D01*
X155419195Y-92199890D01*
X155418147Y-92199796D01*
X155415093Y-92200097D01*
X155415035Y-92199517D01*
X155349603Y-92193663D01*
X155307322Y-92165954D01*
X152410175Y-89268807D01*
X152376690Y-89207484D01*
X152375383Y-89161728D01*
X152390500Y-89066285D01*
X152390500Y-88853713D01*
X152357246Y-88643760D01*
X152357246Y-88643757D01*
X152291557Y-88441588D01*
X152195051Y-88252184D01*
X152195049Y-88252181D01*
X152195048Y-88252179D01*
X152070109Y-88080213D01*
X151919786Y-87929890D01*
X151747820Y-87804951D01*
X151747115Y-87804591D01*
X151739054Y-87800485D01*
X151688259Y-87752512D01*
X151671463Y-87684692D01*
X151693999Y-87618556D01*
X151739054Y-87579515D01*
X151747816Y-87575051D01*
X151836954Y-87510289D01*
X151919786Y-87450109D01*
X151919788Y-87450106D01*
X151919792Y-87450104D01*
X152070104Y-87299792D01*
X152070106Y-87299788D01*
X152070109Y-87299786D01*
X152195048Y-87127820D01*
X152195047Y-87127820D01*
X152195051Y-87127816D01*
X152291557Y-86938412D01*
X152357246Y-86736243D01*
X152390500Y-86526287D01*
X152390500Y-86313713D01*
X152357246Y-86103757D01*
X152291557Y-85901588D01*
X152195051Y-85712184D01*
X152195049Y-85712181D01*
X152195048Y-85712179D01*
X152070109Y-85540213D01*
X151919786Y-85389890D01*
X151747820Y-85264951D01*
X151747115Y-85264591D01*
X151739054Y-85260485D01*
X151688259Y-85212512D01*
X151671463Y-85144692D01*
X151693999Y-85078556D01*
X151739054Y-85039515D01*
X151747816Y-85035051D01*
X151769789Y-85019086D01*
X151919786Y-84910109D01*
X151919788Y-84910106D01*
X151919792Y-84910104D01*
X152070104Y-84759792D01*
X152070106Y-84759788D01*
X152070109Y-84759786D01*
X152195048Y-84587820D01*
X152195047Y-84587820D01*
X152195051Y-84587816D01*
X152291557Y-84398412D01*
X152357246Y-84196243D01*
X152390500Y-83986287D01*
X152390500Y-83773713D01*
X152357246Y-83563757D01*
X152291557Y-83361588D01*
X152195051Y-83172184D01*
X152195049Y-83172181D01*
X152195048Y-83172179D01*
X152070109Y-83000213D01*
X151919786Y-82849890D01*
X151747820Y-82724951D01*
X151747115Y-82724591D01*
X151739054Y-82720485D01*
X151688259Y-82672512D01*
X151671463Y-82604692D01*
X151693999Y-82538556D01*
X151739054Y-82499515D01*
X151747816Y-82495051D01*
X151769789Y-82479086D01*
X151919786Y-82370109D01*
X151919788Y-82370106D01*
X151919792Y-82370104D01*
X152070104Y-82219792D01*
X152070106Y-82219788D01*
X152070109Y-82219786D01*
X152195048Y-82047820D01*
X152195047Y-82047820D01*
X152195051Y-82047816D01*
X152291557Y-81858412D01*
X152357246Y-81656243D01*
X152390500Y-81446287D01*
X152390500Y-81233713D01*
X152357246Y-81023757D01*
X152291557Y-80821588D01*
X152195051Y-80632184D01*
X152195049Y-80632181D01*
X152195048Y-80632179D01*
X152070109Y-80460213D01*
X151919786Y-80309890D01*
X151747820Y-80184951D01*
X151747115Y-80184591D01*
X151739054Y-80180485D01*
X151688259Y-80132512D01*
X151671463Y-80064692D01*
X151693999Y-79998556D01*
X151739054Y-79959515D01*
X151747816Y-79955051D01*
X151861107Y-79872741D01*
X151919786Y-79830109D01*
X151919788Y-79830106D01*
X151919792Y-79830104D01*
X152070104Y-79679792D01*
X152070106Y-79679788D01*
X152070109Y-79679786D01*
X152195048Y-79507820D01*
X152195047Y-79507820D01*
X152195051Y-79507816D01*
X152291557Y-79318412D01*
X152357246Y-79116243D01*
X152390500Y-78906287D01*
X152390500Y-78693713D01*
X152357246Y-78483757D01*
X152329267Y-78397648D01*
X160619500Y-78397648D01*
X160619500Y-78602351D01*
X160651522Y-78804534D01*
X160714781Y-78999223D01*
X160774405Y-79116239D01*
X160807585Y-79181359D01*
X160807715Y-79181613D01*
X160928028Y-79347213D01*
X161072786Y-79491971D01*
X161227749Y-79604556D01*
X161238390Y-79612287D01*
X161321030Y-79654394D01*
X161420776Y-79705218D01*
X161420778Y-79705218D01*
X161420781Y-79705220D01*
X161525137Y-79739127D01*
X161615465Y-79768477D01*
X161716557Y-79784488D01*
X161817648Y-79800500D01*
X161817649Y-79800500D01*
X162022351Y-79800500D01*
X162022352Y-79800500D01*
X162224534Y-79768477D01*
X162419219Y-79705220D01*
X162601610Y-79612287D01*
X162745398Y-79507820D01*
X162767213Y-79491971D01*
X162767215Y-79491968D01*
X162767219Y-79491966D01*
X162911966Y-79347219D01*
X162911968Y-79347215D01*
X162911971Y-79347213D01*
X162979407Y-79254394D01*
X163032287Y-79181610D01*
X163125220Y-78999219D01*
X163188477Y-78804534D01*
X163220500Y-78602352D01*
X163220500Y-78397648D01*
X170779500Y-78397648D01*
X170779500Y-78602351D01*
X170811522Y-78804534D01*
X170874781Y-78999223D01*
X170934405Y-79116239D01*
X170967585Y-79181359D01*
X170967715Y-79181613D01*
X171088028Y-79347213D01*
X171232786Y-79491971D01*
X171387749Y-79604556D01*
X171398390Y-79612287D01*
X171481030Y-79654394D01*
X171580776Y-79705218D01*
X171580778Y-79705218D01*
X171580781Y-79705220D01*
X171685137Y-79739127D01*
X171775465Y-79768477D01*
X171876557Y-79784488D01*
X171977648Y-79800500D01*
X171977649Y-79800500D01*
X172182351Y-79800500D01*
X172182352Y-79800500D01*
X172384534Y-79768477D01*
X172579219Y-79705220D01*
X172761610Y-79612287D01*
X172905398Y-79507820D01*
X172927213Y-79491971D01*
X172927215Y-79491968D01*
X172927219Y-79491966D01*
X173071966Y-79347219D01*
X173071968Y-79347215D01*
X173071971Y-79347213D01*
X173139407Y-79254394D01*
X173192287Y-79181610D01*
X173285220Y-78999219D01*
X173348477Y-78804534D01*
X173380500Y-78602352D01*
X173380500Y-78397648D01*
X173361787Y-78279500D01*
X173348477Y-78195465D01*
X173314917Y-78092179D01*
X173285220Y-78000781D01*
X173285218Y-78000778D01*
X173285218Y-78000776D01*
X173192419Y-77818650D01*
X173192287Y-77818390D01*
X173160092Y-77774077D01*
X173071971Y-77652786D01*
X172927213Y-77508028D01*
X172761613Y-77387715D01*
X172761612Y-77387714D01*
X172761610Y-77387713D01*
X172704653Y-77358691D01*
X172579223Y-77294781D01*
X172384534Y-77231522D01*
X172209995Y-77203878D01*
X172182352Y-77199500D01*
X171977648Y-77199500D01*
X171953329Y-77203351D01*
X171775465Y-77231522D01*
X171580776Y-77294781D01*
X171398386Y-77387715D01*
X171232786Y-77508028D01*
X171088028Y-77652786D01*
X170967715Y-77818386D01*
X170874781Y-78000776D01*
X170811522Y-78195465D01*
X170779500Y-78397648D01*
X163220500Y-78397648D01*
X163201787Y-78279500D01*
X163188477Y-78195465D01*
X163154917Y-78092179D01*
X163125220Y-78000781D01*
X163125218Y-78000778D01*
X163125218Y-78000776D01*
X163032419Y-77818650D01*
X163032287Y-77818390D01*
X163000092Y-77774077D01*
X162911971Y-77652786D01*
X162767213Y-77508028D01*
X162601610Y-77387712D01*
X162588200Y-77380879D01*
X162537406Y-77332903D01*
X162520500Y-77270397D01*
X162520500Y-67380097D01*
X162540185Y-67313058D01*
X162556819Y-67292416D01*
X168212416Y-61636819D01*
X168273739Y-61603334D01*
X168300097Y-61600500D01*
X172699903Y-61600500D01*
X172766942Y-61620185D01*
X172787584Y-61636819D01*
X174964685Y-63813920D01*
X174998170Y-63875243D01*
X174993186Y-63944935D01*
X174951314Y-64000868D01*
X174896402Y-64024074D01*
X174683760Y-64057753D01*
X174583945Y-64090185D01*
X174486679Y-64121789D01*
X174481585Y-64123444D01*
X174292179Y-64219951D01*
X174120213Y-64344890D01*
X173969894Y-64495209D01*
X173969890Y-64495214D01*
X173850008Y-64660218D01*
X173794678Y-64702884D01*
X173725065Y-64708863D01*
X173663270Y-64676257D01*
X173649372Y-64660218D01*
X173529727Y-64495540D01*
X173529723Y-64495535D01*
X173379464Y-64345276D01*
X173379459Y-64345272D01*
X173207557Y-64220379D01*
X173018215Y-64123903D01*
X172816124Y-64058241D01*
X172750000Y-64047768D01*
X172750000Y-65095854D01*
X172683343Y-65057370D01*
X172562535Y-65025000D01*
X172437465Y-65025000D01*
X172316657Y-65057370D01*
X172250000Y-65095854D01*
X172250000Y-64047768D01*
X172249999Y-64047768D01*
X172183875Y-64058241D01*
X171981784Y-64123903D01*
X171792442Y-64220379D01*
X171620541Y-64345271D01*
X171481668Y-64484144D01*
X171420345Y-64517628D01*
X171350653Y-64512644D01*
X171294720Y-64470772D01*
X171288448Y-64461558D01*
X171192712Y-64306344D01*
X171068657Y-64182289D01*
X171068656Y-64182288D01*
X170970566Y-64121786D01*
X170919336Y-64090187D01*
X170919331Y-64090185D01*
X170917862Y-64089698D01*
X170752797Y-64035001D01*
X170752795Y-64035000D01*
X170650010Y-64024500D01*
X169349998Y-64024500D01*
X169349981Y-64024501D01*
X169247203Y-64035000D01*
X169247200Y-64035001D01*
X169080668Y-64090185D01*
X169080663Y-64090187D01*
X168931342Y-64182289D01*
X168807289Y-64306342D01*
X168715187Y-64455663D01*
X168715185Y-64455668D01*
X168710180Y-64470772D01*
X168660001Y-64622203D01*
X168660001Y-64622204D01*
X168660000Y-64622204D01*
X168649500Y-64724983D01*
X168649500Y-66038044D01*
X168647704Y-66056280D01*
X168647591Y-66059717D01*
X168647361Y-66061008D01*
X168639391Y-66101083D01*
X168639391Y-66105910D01*
X168639391Y-66248921D01*
X168653548Y-66320093D01*
X168655289Y-66331680D01*
X168660000Y-66377791D01*
X168660001Y-66377798D01*
X168704486Y-66512044D01*
X168715186Y-66544334D01*
X168776297Y-66643412D01*
X168807289Y-66693657D01*
X168931344Y-66817712D01*
X169023108Y-66874312D01*
X169045693Y-66892170D01*
X173713181Y-71559657D01*
X173746666Y-71620980D01*
X173749500Y-71647338D01*
X173749500Y-106760716D01*
X173729815Y-106827755D01*
X173677011Y-106873510D01*
X173607853Y-106883454D01*
X173569205Y-106871201D01*
X173419223Y-106794782D01*
X173419222Y-106794781D01*
X173419219Y-106794780D01*
X173314381Y-106760716D01*
X173224534Y-106731522D01*
X173049995Y-106703878D01*
X173022352Y-106699500D01*
X172817648Y-106699500D01*
X172793329Y-106703351D01*
X172615465Y-106731522D01*
X172420776Y-106794781D01*
X172238386Y-106887715D01*
X172072786Y-107008028D01*
X171928028Y-107152786D01*
X171807715Y-107318386D01*
X171714781Y-107500776D01*
X171651522Y-107695465D01*
X171619500Y-107897648D01*
X171619500Y-108102351D01*
X171651522Y-108304534D01*
X171714781Y-108499223D01*
X171807715Y-108681613D01*
X171928028Y-108847213D01*
X172072786Y-108991971D01*
X172227749Y-109104556D01*
X172238390Y-109112287D01*
X172354607Y-109171503D01*
X172420776Y-109205218D01*
X172420778Y-109205218D01*
X172420781Y-109205220D01*
X172525137Y-109239127D01*
X172615465Y-109268477D01*
X172716557Y-109284488D01*
X172817648Y-109300500D01*
X172817649Y-109300500D01*
X173022351Y-109300500D01*
X173022352Y-109300500D01*
X173224534Y-109268477D01*
X173419219Y-109205220D01*
X173569205Y-109128797D01*
X173637874Y-109115902D01*
X173702615Y-109142178D01*
X173742872Y-109199285D01*
X173749500Y-109239283D01*
X173749500Y-119419699D01*
X173729815Y-119486738D01*
X173677011Y-119532493D01*
X173664507Y-119537403D01*
X173633230Y-119547768D01*
X173580668Y-119565185D01*
X173580663Y-119565187D01*
X173431342Y-119657289D01*
X173307289Y-119781342D01*
X173215187Y-119930663D01*
X173215185Y-119930668D01*
X173193689Y-119995540D01*
X173160001Y-120097203D01*
X173160001Y-120097204D01*
X173160000Y-120097204D01*
X173149500Y-120199983D01*
X173149500Y-121750001D01*
X173149501Y-121750018D01*
X173160000Y-121852796D01*
X173160001Y-121852799D01*
X173215185Y-122019331D01*
X173215186Y-122019334D01*
X173307288Y-122168656D01*
X173431344Y-122292712D01*
X173580666Y-122384814D01*
X173747203Y-122439999D01*
X173849991Y-122450500D01*
X175150008Y-122450499D01*
X175252797Y-122439999D01*
X175419334Y-122384814D01*
X175568656Y-122292712D01*
X175692712Y-122168656D01*
X175784814Y-122019334D01*
X175784814Y-122019331D01*
X175788448Y-122013441D01*
X175840395Y-121966716D01*
X175909358Y-121955493D01*
X175973440Y-121983336D01*
X175981668Y-121990856D01*
X176120535Y-122129723D01*
X176120540Y-122129727D01*
X176292442Y-122254620D01*
X176481782Y-122351095D01*
X176683871Y-122416757D01*
X176750000Y-122427231D01*
X176750000Y-121379145D01*
X176816657Y-121417630D01*
X176937465Y-121450000D01*
X177062535Y-121450000D01*
X177183343Y-121417630D01*
X177250000Y-121379145D01*
X177250000Y-122427230D01*
X177316126Y-122416757D01*
X177316129Y-122416757D01*
X177518217Y-122351095D01*
X177707557Y-122254620D01*
X177879459Y-122129727D01*
X177879464Y-122129723D01*
X178029721Y-121979466D01*
X178149371Y-121814781D01*
X178204701Y-121772115D01*
X178274314Y-121766136D01*
X178336110Y-121798741D01*
X178350008Y-121814781D01*
X178469890Y-121979785D01*
X178469894Y-121979790D01*
X178620213Y-122130109D01*
X178792179Y-122255048D01*
X178792181Y-122255049D01*
X178792184Y-122255051D01*
X178981588Y-122351557D01*
X179183757Y-122417246D01*
X179393713Y-122450500D01*
X179393714Y-122450500D01*
X179606286Y-122450500D01*
X179606287Y-122450500D01*
X179816243Y-122417246D01*
X180018412Y-122351557D01*
X180207816Y-122255051D01*
X180229789Y-122239086D01*
X180379786Y-122130109D01*
X180379788Y-122130106D01*
X180379792Y-122130104D01*
X180530104Y-121979792D01*
X180530106Y-121979788D01*
X180530109Y-121979786D01*
X180655048Y-121807820D01*
X180655047Y-121807820D01*
X180655051Y-121807816D01*
X180751557Y-121618412D01*
X180817246Y-121416243D01*
X180850500Y-121206287D01*
X180850500Y-120743713D01*
X180817246Y-120533757D01*
X180751557Y-120331588D01*
X180655051Y-120142184D01*
X180655049Y-120142181D01*
X180655048Y-120142179D01*
X180530109Y-119970213D01*
X180379786Y-119819890D01*
X180207820Y-119694951D01*
X180018414Y-119598444D01*
X180018413Y-119598443D01*
X180018412Y-119598443D01*
X179816243Y-119532754D01*
X179816241Y-119532753D01*
X179816240Y-119532753D01*
X179654957Y-119507208D01*
X179606287Y-119499500D01*
X179393713Y-119499500D01*
X179345042Y-119507208D01*
X179183760Y-119532753D01*
X178981585Y-119598444D01*
X178792179Y-119694951D01*
X178620213Y-119819890D01*
X178469894Y-119970209D01*
X178469890Y-119970214D01*
X178350008Y-120135218D01*
X178294678Y-120177884D01*
X178225065Y-120183863D01*
X178163270Y-120151257D01*
X178149372Y-120135218D01*
X178029727Y-119970540D01*
X178029723Y-119970535D01*
X177879464Y-119820276D01*
X177879459Y-119820272D01*
X177707557Y-119695379D01*
X177518215Y-119598903D01*
X177316124Y-119533241D01*
X177250000Y-119522768D01*
X177250000Y-120570854D01*
X177183343Y-120532370D01*
X177062535Y-120500000D01*
X176937465Y-120500000D01*
X176816657Y-120532370D01*
X176750000Y-120570854D01*
X176750000Y-119522768D01*
X176749999Y-119522768D01*
X176683875Y-119533241D01*
X176481784Y-119598903D01*
X176292442Y-119695379D01*
X176120541Y-119820271D01*
X175981668Y-119959144D01*
X175920345Y-119992628D01*
X175850653Y-119987644D01*
X175794720Y-119945772D01*
X175788448Y-119936558D01*
X175692712Y-119781344D01*
X175568657Y-119657289D01*
X175568656Y-119657288D01*
X175419334Y-119565186D01*
X175335495Y-119537404D01*
X175278051Y-119497632D01*
X175251228Y-119433116D01*
X175250500Y-119419699D01*
X175250500Y-107897648D01*
X181779500Y-107897648D01*
X181779500Y-108102351D01*
X181811522Y-108304534D01*
X181874781Y-108499223D01*
X181967715Y-108681613D01*
X182088028Y-108847213D01*
X182232786Y-108991971D01*
X182387749Y-109104556D01*
X182398390Y-109112287D01*
X182514607Y-109171503D01*
X182580776Y-109205218D01*
X182580778Y-109205218D01*
X182580781Y-109205220D01*
X182685137Y-109239127D01*
X182775465Y-109268477D01*
X182876557Y-109284488D01*
X182977648Y-109300500D01*
X182977649Y-109300500D01*
X183182351Y-109300500D01*
X183182352Y-109300500D01*
X183384534Y-109268477D01*
X183579219Y-109205220D01*
X183761610Y-109112287D01*
X183909501Y-109004839D01*
X183927213Y-108991971D01*
X183927215Y-108991968D01*
X183927219Y-108991966D01*
X184071966Y-108847219D01*
X184071968Y-108847215D01*
X184071971Y-108847213D01*
X184134182Y-108761585D01*
X184192287Y-108681610D01*
X184285220Y-108499219D01*
X184348477Y-108304534D01*
X184380500Y-108102352D01*
X184380500Y-107897648D01*
X184365113Y-107800500D01*
X184348477Y-107695465D01*
X184285218Y-107500776D01*
X184251503Y-107434607D01*
X184192287Y-107318390D01*
X184184556Y-107307749D01*
X184071971Y-107152786D01*
X183927213Y-107008028D01*
X183761613Y-106887715D01*
X183761612Y-106887714D01*
X183761610Y-106887713D01*
X183680305Y-106846286D01*
X183579223Y-106794781D01*
X183384534Y-106731522D01*
X183209995Y-106703878D01*
X183182352Y-106699500D01*
X182977648Y-106699500D01*
X182953329Y-106703351D01*
X182775465Y-106731522D01*
X182580776Y-106794781D01*
X182398386Y-106887715D01*
X182232786Y-107008028D01*
X182088028Y-107152786D01*
X181967715Y-107318386D01*
X181874781Y-107500776D01*
X181811522Y-107695465D01*
X181779500Y-107897648D01*
X175250500Y-107897648D01*
X175250500Y-101959029D01*
X175270185Y-101891990D01*
X175322989Y-101846235D01*
X175392147Y-101836291D01*
X175455703Y-101865316D01*
X175468786Y-101878493D01*
X175469893Y-101879789D01*
X175620213Y-102030109D01*
X175792179Y-102155048D01*
X175792181Y-102155049D01*
X175792184Y-102155051D01*
X175981588Y-102251557D01*
X176183757Y-102317246D01*
X176393713Y-102350500D01*
X176393714Y-102350500D01*
X176606286Y-102350500D01*
X176606287Y-102350500D01*
X176816243Y-102317246D01*
X177018412Y-102251557D01*
X177207816Y-102155051D01*
X177253789Y-102121650D01*
X177379786Y-102030109D01*
X177379788Y-102030106D01*
X177379792Y-102030104D01*
X177530104Y-101879792D01*
X177530106Y-101879788D01*
X177530109Y-101879786D01*
X177655048Y-101707820D01*
X177655047Y-101707820D01*
X177655051Y-101707816D01*
X177751557Y-101518412D01*
X177817246Y-101316243D01*
X177850500Y-101106287D01*
X177850500Y-100893713D01*
X177817246Y-100683757D01*
X177751557Y-100481588D01*
X177655051Y-100292184D01*
X177655049Y-100292181D01*
X177655048Y-100292179D01*
X177530109Y-100120213D01*
X177379786Y-99969890D01*
X177207817Y-99844949D01*
X177198504Y-99840204D01*
X177147707Y-99792230D01*
X177130912Y-99724409D01*
X177153449Y-99658274D01*
X177198507Y-99619232D01*
X177207555Y-99614622D01*
X177261716Y-99575270D01*
X177261717Y-99575270D01*
X176629408Y-98942962D01*
X176692993Y-98925925D01*
X176807007Y-98860099D01*
X176900099Y-98767007D01*
X176965925Y-98652993D01*
X176982962Y-98589409D01*
X177615270Y-99221717D01*
X177615270Y-99221716D01*
X177654622Y-99167554D01*
X177751095Y-98978217D01*
X177816757Y-98776130D01*
X177816757Y-98776127D01*
X177850000Y-98566246D01*
X177850000Y-98353753D01*
X177816757Y-98143872D01*
X177816757Y-98143869D01*
X177751095Y-97941782D01*
X177654624Y-97752449D01*
X177615270Y-97698282D01*
X177615269Y-97698282D01*
X176982962Y-98330590D01*
X176965925Y-98267007D01*
X176900099Y-98152993D01*
X176807007Y-98059901D01*
X176692993Y-97994075D01*
X176629409Y-97977037D01*
X177299627Y-97306818D01*
X177360950Y-97273333D01*
X177387307Y-97270499D01*
X177397872Y-97270499D01*
X177457483Y-97264091D01*
X177592331Y-97213796D01*
X177707546Y-97127546D01*
X177793796Y-97012331D01*
X177844091Y-96877483D01*
X177850500Y-96817873D01*
X177850499Y-95022128D01*
X177844091Y-94962517D01*
X177828153Y-94919786D01*
X177793797Y-94827671D01*
X177793793Y-94827664D01*
X177707547Y-94712455D01*
X177707544Y-94712452D01*
X177592335Y-94626206D01*
X177592328Y-94626202D01*
X177457482Y-94575908D01*
X177457483Y-94575908D01*
X177397883Y-94569501D01*
X177397881Y-94569500D01*
X177397873Y-94569500D01*
X177397864Y-94569500D01*
X175602129Y-94569500D01*
X175602123Y-94569501D01*
X175542515Y-94575909D01*
X175417832Y-94622412D01*
X175348141Y-94627396D01*
X175286818Y-94593910D01*
X175253334Y-94532587D01*
X175250500Y-94506230D01*
X175250500Y-78397648D01*
X175619500Y-78397648D01*
X175619500Y-78602351D01*
X175651522Y-78804534D01*
X175714781Y-78999223D01*
X175774405Y-79116239D01*
X175807585Y-79181359D01*
X175807715Y-79181613D01*
X175928028Y-79347213D01*
X176072786Y-79491971D01*
X176227749Y-79604556D01*
X176238390Y-79612287D01*
X176321030Y-79654394D01*
X176420776Y-79705218D01*
X176420778Y-79705218D01*
X176420781Y-79705220D01*
X176525137Y-79739127D01*
X176615465Y-79768477D01*
X176716557Y-79784488D01*
X176817648Y-79800500D01*
X176817649Y-79800500D01*
X177022351Y-79800500D01*
X177022352Y-79800500D01*
X177224534Y-79768477D01*
X177419219Y-79705220D01*
X177601610Y-79612287D01*
X177745398Y-79507820D01*
X177767213Y-79491971D01*
X177767215Y-79491968D01*
X177767219Y-79491966D01*
X177911966Y-79347219D01*
X177911968Y-79347215D01*
X177911971Y-79347213D01*
X177979407Y-79254394D01*
X178032287Y-79181610D01*
X178125220Y-78999219D01*
X178188477Y-78804534D01*
X178220500Y-78602352D01*
X178220500Y-78397682D01*
X185780000Y-78397682D01*
X185780000Y-78602317D01*
X185812009Y-78804417D01*
X185875244Y-78999031D01*
X185968141Y-79181350D01*
X185968147Y-79181359D01*
X186000523Y-79225921D01*
X186000524Y-79225922D01*
X186680000Y-78546446D01*
X186680000Y-78552661D01*
X186707259Y-78654394D01*
X186759920Y-78745606D01*
X186834394Y-78820080D01*
X186925606Y-78872741D01*
X187027339Y-78900000D01*
X187033553Y-78900000D01*
X186354076Y-79579474D01*
X186398650Y-79611859D01*
X186580968Y-79704755D01*
X186775582Y-79767990D01*
X186977683Y-79800000D01*
X187182317Y-79800000D01*
X187384417Y-79767990D01*
X187579031Y-79704755D01*
X187761349Y-79611859D01*
X187805921Y-79579474D01*
X187126447Y-78900000D01*
X187132661Y-78900000D01*
X187234394Y-78872741D01*
X187325606Y-78820080D01*
X187400080Y-78745606D01*
X187452741Y-78654394D01*
X187480000Y-78552661D01*
X187480000Y-78546447D01*
X188159474Y-79225921D01*
X188191859Y-79181349D01*
X188284755Y-78999031D01*
X188347990Y-78804417D01*
X188380000Y-78602317D01*
X188380000Y-78397682D01*
X188347990Y-78195582D01*
X188284755Y-78000968D01*
X188191859Y-77818650D01*
X188159474Y-77774077D01*
X188159474Y-77774076D01*
X187480000Y-78453551D01*
X187480000Y-78447339D01*
X187452741Y-78345606D01*
X187400080Y-78254394D01*
X187325606Y-78179920D01*
X187234394Y-78127259D01*
X187132661Y-78100000D01*
X187126446Y-78100000D01*
X187805922Y-77420524D01*
X187805921Y-77420523D01*
X187761359Y-77388147D01*
X187761350Y-77388141D01*
X187579031Y-77295244D01*
X187384417Y-77232009D01*
X187182317Y-77200000D01*
X186977683Y-77200000D01*
X186775582Y-77232009D01*
X186580968Y-77295244D01*
X186398644Y-77388143D01*
X186354077Y-77420523D01*
X186354077Y-77420524D01*
X187033554Y-78100000D01*
X187027339Y-78100000D01*
X186925606Y-78127259D01*
X186834394Y-78179920D01*
X186759920Y-78254394D01*
X186707259Y-78345606D01*
X186680000Y-78447339D01*
X186680000Y-78453553D01*
X186000524Y-77774077D01*
X186000523Y-77774077D01*
X185968143Y-77818644D01*
X185875244Y-78000968D01*
X185812009Y-78195582D01*
X185780000Y-78397682D01*
X178220500Y-78397682D01*
X178220500Y-78397648D01*
X178201787Y-78279500D01*
X178188477Y-78195465D01*
X178154917Y-78092179D01*
X178125220Y-78000781D01*
X178125218Y-78000778D01*
X178125218Y-78000776D01*
X178032419Y-77818650D01*
X178032287Y-77818390D01*
X178000092Y-77774077D01*
X177911971Y-77652786D01*
X177767213Y-77508028D01*
X177601613Y-77387715D01*
X177601612Y-77387714D01*
X177601610Y-77387713D01*
X177544653Y-77358691D01*
X177419223Y-77294781D01*
X177224534Y-77231522D01*
X177049995Y-77203878D01*
X177022352Y-77199500D01*
X176817648Y-77199500D01*
X176793329Y-77203351D01*
X176615465Y-77231522D01*
X176420776Y-77294781D01*
X176238386Y-77387715D01*
X176072786Y-77508028D01*
X175928028Y-77652786D01*
X175807715Y-77818386D01*
X175714781Y-78000776D01*
X175651522Y-78195465D01*
X175619500Y-78397648D01*
X175250500Y-78397648D01*
X175250500Y-71211188D01*
X175221659Y-71066201D01*
X175221658Y-71066200D01*
X175221658Y-71066196D01*
X175189977Y-70989711D01*
X175165087Y-70929620D01*
X175165080Y-70929607D01*
X175082952Y-70806694D01*
X175066860Y-70790602D01*
X174978416Y-70702158D01*
X171168994Y-66892735D01*
X171135509Y-66831412D01*
X171140493Y-66761720D01*
X171154202Y-66735230D01*
X171160755Y-66725612D01*
X171192712Y-66693656D01*
X171284814Y-66544334D01*
X171285322Y-66542799D01*
X171291514Y-66533713D01*
X171316432Y-66513269D01*
X171340395Y-66491716D01*
X171343275Y-66491247D01*
X171345531Y-66489397D01*
X171377534Y-66485671D01*
X171409358Y-66480493D01*
X171412035Y-66481656D01*
X171414932Y-66481319D01*
X171443876Y-66495490D01*
X171473440Y-66508336D01*
X171477281Y-66511846D01*
X171477684Y-66512044D01*
X171477915Y-66512426D01*
X171481668Y-66515856D01*
X171620535Y-66654723D01*
X171620540Y-66654727D01*
X171792442Y-66779620D01*
X171981782Y-66876095D01*
X172183871Y-66941757D01*
X172250000Y-66952231D01*
X172250000Y-65904145D01*
X172316657Y-65942630D01*
X172437465Y-65975000D01*
X172562535Y-65975000D01*
X172683343Y-65942630D01*
X172750000Y-65904145D01*
X172750000Y-66952230D01*
X172816126Y-66941757D01*
X172816129Y-66941757D01*
X173018217Y-66876095D01*
X173207557Y-66779620D01*
X173379459Y-66654727D01*
X173379464Y-66654723D01*
X173529721Y-66504466D01*
X173649371Y-66339781D01*
X173704701Y-66297115D01*
X173774314Y-66291136D01*
X173836110Y-66323741D01*
X173850008Y-66339781D01*
X173969890Y-66504785D01*
X173969894Y-66504790D01*
X174120213Y-66655109D01*
X174292179Y-66780048D01*
X174292181Y-66780049D01*
X174292184Y-66780051D01*
X174481588Y-66876557D01*
X174683757Y-66942246D01*
X174893713Y-66975500D01*
X174893714Y-66975500D01*
X175106286Y-66975500D01*
X175106287Y-66975500D01*
X175316243Y-66942246D01*
X175518412Y-66876557D01*
X175707816Y-66780051D01*
X175802458Y-66711290D01*
X175879786Y-66655109D01*
X175879788Y-66655106D01*
X175879792Y-66655104D01*
X176030104Y-66504792D01*
X176149683Y-66340204D01*
X176205011Y-66297540D01*
X176274624Y-66291561D01*
X176336420Y-66324166D01*
X176350313Y-66340199D01*
X176424733Y-66442630D01*
X176469896Y-66504792D01*
X176620213Y-66655109D01*
X176792179Y-66780048D01*
X176792181Y-66780049D01*
X176792184Y-66780051D01*
X176981588Y-66876557D01*
X177183757Y-66942246D01*
X177393713Y-66975500D01*
X177393714Y-66975500D01*
X177606286Y-66975500D01*
X177606287Y-66975500D01*
X177816243Y-66942246D01*
X178018412Y-66876557D01*
X178207816Y-66780051D01*
X178302458Y-66711290D01*
X178379786Y-66655109D01*
X178379788Y-66655106D01*
X178379792Y-66655104D01*
X178530104Y-66504792D01*
X178530106Y-66504788D01*
X178530109Y-66504786D01*
X178655048Y-66332820D01*
X178655047Y-66332820D01*
X178655051Y-66332816D01*
X178751557Y-66143412D01*
X178817246Y-65941243D01*
X178850500Y-65731287D01*
X178850500Y-65268713D01*
X178817246Y-65058757D01*
X178751557Y-64856588D01*
X178655051Y-64667184D01*
X178655049Y-64667181D01*
X178655048Y-64667179D01*
X178530109Y-64495213D01*
X178379786Y-64344890D01*
X178207820Y-64219951D01*
X178018414Y-64123444D01*
X178018413Y-64123443D01*
X178018412Y-64123443D01*
X177816243Y-64057754D01*
X177816241Y-64057753D01*
X177816240Y-64057753D01*
X177654957Y-64032208D01*
X177606287Y-64024500D01*
X177393713Y-64024500D01*
X177345042Y-64032208D01*
X177183760Y-64057753D01*
X177183757Y-64057754D01*
X177047129Y-64102147D01*
X176977290Y-64104142D01*
X176921132Y-64071897D01*
X173487590Y-60638355D01*
X173487588Y-60638352D01*
X173368717Y-60519481D01*
X173368716Y-60519480D01*
X173281904Y-60469360D01*
X173281904Y-60469359D01*
X173281900Y-60469358D01*
X173231785Y-60440423D01*
X173079057Y-60399499D01*
X172920943Y-60399499D01*
X172913347Y-60399499D01*
X172913331Y-60399500D01*
X167920940Y-60399500D01*
X167880019Y-60410464D01*
X167880019Y-60410465D01*
X167842751Y-60420451D01*
X167768214Y-60440423D01*
X167768209Y-60440426D01*
X167631290Y-60519475D01*
X167631282Y-60519481D01*
X161439481Y-66711282D01*
X161439475Y-66711290D01*
X161402689Y-66775007D01*
X161402689Y-66775009D01*
X161360423Y-66848214D01*
X161360423Y-66848215D01*
X161319499Y-67000943D01*
X161319499Y-67000945D01*
X161319499Y-67169046D01*
X161319500Y-67169059D01*
X161319500Y-77270397D01*
X161299815Y-77337436D01*
X161251800Y-77380879D01*
X161238389Y-77387712D01*
X161072786Y-77508028D01*
X160928028Y-77652786D01*
X160807715Y-77818386D01*
X160714781Y-78000776D01*
X160651522Y-78195465D01*
X160619500Y-78397648D01*
X152329267Y-78397648D01*
X152291557Y-78281588D01*
X152195051Y-78092184D01*
X152195049Y-78092181D01*
X152195048Y-78092179D01*
X152070109Y-77920213D01*
X151919786Y-77769890D01*
X151747820Y-77644951D01*
X151747115Y-77644591D01*
X151739054Y-77640485D01*
X151688259Y-77592512D01*
X151671463Y-77524692D01*
X151693999Y-77458556D01*
X151739054Y-77419515D01*
X151747816Y-77415051D01*
X151769789Y-77399086D01*
X151919786Y-77290109D01*
X151919788Y-77290106D01*
X151919792Y-77290104D01*
X152070104Y-77139792D01*
X152070106Y-77139788D01*
X152070109Y-77139786D01*
X152195048Y-76967820D01*
X152195047Y-76967820D01*
X152195051Y-76967816D01*
X152291557Y-76778412D01*
X152357246Y-76576243D01*
X152390500Y-76366287D01*
X152390500Y-76153713D01*
X152357246Y-75943757D01*
X152291557Y-75741588D01*
X152195051Y-75552184D01*
X152195049Y-75552181D01*
X152195048Y-75552179D01*
X152070109Y-75380213D01*
X151919786Y-75229890D01*
X151747820Y-75104951D01*
X151747115Y-75104591D01*
X151739054Y-75100485D01*
X151688259Y-75052512D01*
X151671463Y-74984692D01*
X151693999Y-74918556D01*
X151739054Y-74879515D01*
X151747816Y-74875051D01*
X151769789Y-74859086D01*
X151919786Y-74750109D01*
X151919788Y-74750106D01*
X151919792Y-74750104D01*
X152070104Y-74599792D01*
X152070106Y-74599788D01*
X152070109Y-74599786D01*
X152195048Y-74427820D01*
X152195047Y-74427820D01*
X152195051Y-74427816D01*
X152291557Y-74238412D01*
X152357246Y-74036243D01*
X152390500Y-73826287D01*
X152390500Y-73613713D01*
X152357246Y-73403757D01*
X152291557Y-73201588D01*
X152195051Y-73012184D01*
X152195049Y-73012181D01*
X152195048Y-73012179D01*
X152070109Y-72840213D01*
X151919786Y-72689890D01*
X151747820Y-72564951D01*
X151747115Y-72564591D01*
X151739054Y-72560485D01*
X151688259Y-72512512D01*
X151671463Y-72444692D01*
X151693999Y-72378556D01*
X151739054Y-72339515D01*
X151747816Y-72335051D01*
X151795373Y-72300499D01*
X151919786Y-72210109D01*
X151919788Y-72210106D01*
X151919792Y-72210104D01*
X152070104Y-72059792D01*
X152070106Y-72059788D01*
X152070109Y-72059786D01*
X152195048Y-71887820D01*
X152195047Y-71887820D01*
X152195051Y-71887816D01*
X152291557Y-71698412D01*
X152357246Y-71496243D01*
X152390500Y-71286287D01*
X152390500Y-71073713D01*
X152357246Y-70863757D01*
X152291557Y-70661588D01*
X152195051Y-70472184D01*
X152195049Y-70472181D01*
X152195048Y-70472179D01*
X152070109Y-70300213D01*
X151919786Y-70149890D01*
X151747820Y-70024951D01*
X151747115Y-70024591D01*
X151739054Y-70020485D01*
X151688259Y-69972512D01*
X151671463Y-69904692D01*
X151693999Y-69838556D01*
X151739054Y-69799515D01*
X151747816Y-69795051D01*
X151834138Y-69732335D01*
X151919786Y-69670109D01*
X151919788Y-69670106D01*
X151919792Y-69670104D01*
X152070104Y-69519792D01*
X152070107Y-69519788D01*
X152126903Y-69441615D01*
X152182233Y-69398949D01*
X152227221Y-69390500D01*
X153277770Y-69390500D01*
X153307210Y-69399144D01*
X153337197Y-69405668D01*
X153342212Y-69409422D01*
X153344809Y-69410185D01*
X153365451Y-69426819D01*
X153417048Y-69478416D01*
X153521584Y-69582952D01*
X153644506Y-69665084D01*
X153781088Y-69721658D01*
X153781092Y-69721658D01*
X153781093Y-69721659D01*
X153926080Y-69750500D01*
X153926083Y-69750500D01*
X154073919Y-69750500D01*
X154171463Y-69731096D01*
X154218913Y-69721658D01*
X154355494Y-69665084D01*
X154478416Y-69582952D01*
X154582952Y-69478416D01*
X155082952Y-68978416D01*
X155103049Y-68948337D01*
X155162801Y-68858913D01*
X155162803Y-68858907D01*
X155165084Y-68855495D01*
X155221658Y-68718913D01*
X155250500Y-68573918D01*
X155250500Y-63426082D01*
X155250500Y-63426079D01*
X155221659Y-63281092D01*
X155221658Y-63281091D01*
X155221658Y-63281087D01*
X155215615Y-63266498D01*
X155165087Y-63144511D01*
X155165080Y-63144498D01*
X155082951Y-63021584D01*
X155082948Y-63021580D01*
X154978419Y-62917051D01*
X154978415Y-62917048D01*
X154855501Y-62834919D01*
X154855488Y-62834912D01*
X154718917Y-62778343D01*
X154718907Y-62778340D01*
X154573920Y-62749500D01*
X154573918Y-62749500D01*
X143304604Y-62749500D01*
X143257155Y-62740062D01*
X143233497Y-62730263D01*
X143233493Y-62730262D01*
X143233488Y-62730260D01*
X143078845Y-62699500D01*
X143078842Y-62699500D01*
X142921158Y-62699500D01*
X142921155Y-62699500D01*
X142766510Y-62730261D01*
X142766498Y-62730264D01*
X142620827Y-62790602D01*
X142620814Y-62790609D01*
X142489711Y-62878210D01*
X142489707Y-62878213D01*
X142378213Y-62989707D01*
X142378210Y-62989711D01*
X142290609Y-63120814D01*
X142290602Y-63120827D01*
X142230264Y-63266498D01*
X142230261Y-63266510D01*
X142199500Y-63421153D01*
X142199500Y-63578846D01*
X142230261Y-63733489D01*
X142230264Y-63733501D01*
X142290602Y-63879172D01*
X142290609Y-63879185D01*
X142378210Y-64010288D01*
X142378213Y-64010292D01*
X142489707Y-64121786D01*
X142489711Y-64121789D01*
X142620814Y-64209390D01*
X142620827Y-64209397D01*
X142720060Y-64250500D01*
X142766503Y-64269737D01*
X142921153Y-64300499D01*
X142921156Y-64300500D01*
X142921158Y-64300500D01*
X143078844Y-64300500D01*
X143078845Y-64300499D01*
X143155152Y-64285320D01*
X143233488Y-64269739D01*
X143233489Y-64269738D01*
X143233497Y-64269737D01*
X143257155Y-64259937D01*
X143304604Y-64250500D01*
X153625500Y-64250500D01*
X153692539Y-64270185D01*
X153738294Y-64322989D01*
X153749500Y-64374500D01*
X153749500Y-67765500D01*
X153729815Y-67832539D01*
X153677011Y-67878294D01*
X153625500Y-67889500D01*
X152227221Y-67889500D01*
X152160182Y-67869815D01*
X152126903Y-67838385D01*
X152070107Y-67760211D01*
X151919786Y-67609890D01*
X151747820Y-67484951D01*
X151558414Y-67388444D01*
X151558413Y-67388443D01*
X151558412Y-67388443D01*
X151356243Y-67322754D01*
X151356241Y-67322753D01*
X151356240Y-67322753D01*
X151194957Y-67297208D01*
X151146287Y-67289500D01*
X150933713Y-67289500D01*
X150885042Y-67297208D01*
X150723760Y-67322753D01*
X150521585Y-67388444D01*
X150332179Y-67484951D01*
X150160215Y-67609889D01*
X150046673Y-67723431D01*
X149985350Y-67756915D01*
X149915658Y-67751931D01*
X149859725Y-67710059D01*
X149842810Y-67679082D01*
X149793797Y-67547671D01*
X149793793Y-67547664D01*
X149707547Y-67432455D01*
X149707544Y-67432452D01*
X149592335Y-67346206D01*
X149592328Y-67346202D01*
X149457482Y-67295908D01*
X149457483Y-67295908D01*
X149397883Y-67289501D01*
X149397881Y-67289500D01*
X149397873Y-67289500D01*
X149397864Y-67289500D01*
X147602129Y-67289500D01*
X147602123Y-67289501D01*
X147542516Y-67295908D01*
X147407671Y-67346202D01*
X147407664Y-67346206D01*
X147292455Y-67432452D01*
X147292452Y-67432455D01*
X147206206Y-67547664D01*
X147206202Y-67547671D01*
X147155908Y-67682517D01*
X147149501Y-67742116D01*
X147149500Y-67742135D01*
X147149500Y-69537870D01*
X147149501Y-69537876D01*
X147155908Y-69597483D01*
X147206202Y-69732328D01*
X147206206Y-69732335D01*
X147292452Y-69847544D01*
X147292455Y-69847547D01*
X147407664Y-69933793D01*
X147407671Y-69933797D01*
X147539082Y-69982810D01*
X147595016Y-70024681D01*
X147619433Y-70090145D01*
X147604582Y-70158418D01*
X147583431Y-70186673D01*
X147469889Y-70300215D01*
X147344951Y-70472179D01*
X147248443Y-70661587D01*
X147247718Y-70663819D01*
X147247212Y-70664557D01*
X147246579Y-70666088D01*
X147246257Y-70665954D01*
X147208280Y-70721494D01*
X147143921Y-70748692D01*
X147129787Y-70749500D01*
X141804604Y-70749500D01*
X141757155Y-70740062D01*
X141733497Y-70730263D01*
X141733493Y-70730262D01*
X141733488Y-70730260D01*
X141578845Y-70699500D01*
X141578842Y-70699500D01*
X141421158Y-70699500D01*
X141421155Y-70699500D01*
X141266510Y-70730261D01*
X141266498Y-70730264D01*
X141120827Y-70790602D01*
X141120814Y-70790609D01*
X140989711Y-70878210D01*
X140989707Y-70878213D01*
X140878213Y-70989707D01*
X140878210Y-70989711D01*
X140790609Y-71120814D01*
X140790602Y-71120827D01*
X140730264Y-71266498D01*
X140730261Y-71266510D01*
X140699500Y-71421153D01*
X140699500Y-71578846D01*
X140730261Y-71733489D01*
X140730264Y-71733501D01*
X140790602Y-71879172D01*
X140790609Y-71879185D01*
X140878210Y-72010288D01*
X140878213Y-72010292D01*
X140989707Y-72121786D01*
X140989711Y-72121789D01*
X141120814Y-72209390D01*
X141120827Y-72209397D01*
X141242846Y-72259938D01*
X141266503Y-72269737D01*
X141421153Y-72300499D01*
X141421156Y-72300500D01*
X141421158Y-72300500D01*
X141578844Y-72300500D01*
X141578845Y-72300499D01*
X141655152Y-72285320D01*
X141733488Y-72269739D01*
X141733489Y-72269738D01*
X141733497Y-72269737D01*
X141757155Y-72259937D01*
X141804604Y-72250500D01*
X146926082Y-72250500D01*
X147635519Y-72250500D01*
X147654601Y-72256103D01*
X147674481Y-72256780D01*
X147698007Y-72268848D01*
X147702558Y-72270185D01*
X147706068Y-72272525D01*
X147707239Y-72273335D01*
X147792184Y-72335051D01*
X147808357Y-72343291D01*
X147815199Y-72348025D01*
X147832146Y-72368983D01*
X147851742Y-72387491D01*
X147853785Y-72395744D01*
X147859131Y-72402355D01*
X147862057Y-72429148D01*
X147868536Y-72455312D01*
X147865793Y-72463358D01*
X147866717Y-72471812D01*
X147854691Y-72495936D01*
X147845998Y-72521447D01*
X147838916Y-72527582D01*
X147835547Y-72534343D01*
X147821369Y-72542787D01*
X147800946Y-72560484D01*
X147792182Y-72564949D01*
X147620213Y-72689890D01*
X147469890Y-72840213D01*
X147344951Y-73012179D01*
X147248444Y-73201585D01*
X147182753Y-73403760D01*
X147149500Y-73613713D01*
X147149500Y-73826286D01*
X147182753Y-74036239D01*
X147248444Y-74238414D01*
X147344951Y-74427820D01*
X147469890Y-74599786D01*
X147620213Y-74750109D01*
X147792182Y-74875050D01*
X147800946Y-74879516D01*
X147851742Y-74927491D01*
X147868536Y-74995312D01*
X147845998Y-75061447D01*
X147800946Y-75100484D01*
X147792182Y-75104949D01*
X147620213Y-75229890D01*
X147469890Y-75380213D01*
X147344951Y-75552179D01*
X147248444Y-75741585D01*
X147182753Y-75943760D01*
X147149500Y-76153713D01*
X147149500Y-76366286D01*
X147167259Y-76478416D01*
X147182754Y-76576243D01*
X147230002Y-76721658D01*
X147248444Y-76778414D01*
X147344951Y-76967820D01*
X147469890Y-77139786D01*
X147620213Y-77290109D01*
X147792182Y-77415050D01*
X147800946Y-77419516D01*
X147851742Y-77467491D01*
X147868536Y-77535312D01*
X147845998Y-77601447D01*
X147800946Y-77640484D01*
X147792182Y-77644949D01*
X147620213Y-77769890D01*
X147469890Y-77920213D01*
X147344951Y-78092179D01*
X147248444Y-78281585D01*
X147248443Y-78281587D01*
X147248443Y-78281588D01*
X147230000Y-78338349D01*
X147182753Y-78483760D01*
X147149500Y-78693713D01*
X147149500Y-78906286D01*
X147177136Y-79080776D01*
X147182754Y-79116243D01*
X147227642Y-79254394D01*
X147248444Y-79318414D01*
X147344951Y-79507820D01*
X147469890Y-79679786D01*
X147620213Y-79830109D01*
X147792182Y-79955050D01*
X147800946Y-79959516D01*
X147851742Y-80007491D01*
X147868536Y-80075312D01*
X147845998Y-80141447D01*
X147800946Y-80180484D01*
X147792182Y-80184949D01*
X147620213Y-80309890D01*
X147469890Y-80460213D01*
X147344951Y-80632179D01*
X147248444Y-80821585D01*
X147182753Y-81023760D01*
X147155518Y-81195713D01*
X147125589Y-81258848D01*
X147066277Y-81295779D01*
X146996414Y-81294781D01*
X146945364Y-81263996D01*
X141098421Y-75417052D01*
X141098414Y-75417046D01*
X141024729Y-75367812D01*
X141024729Y-75367813D01*
X140975491Y-75334913D01*
X140838917Y-75278343D01*
X140838907Y-75278340D01*
X140693920Y-75249500D01*
X140693918Y-75249500D01*
X131374500Y-75249500D01*
X131307461Y-75229815D01*
X131261706Y-75177011D01*
X131250500Y-75125500D01*
X131250500Y-48522135D01*
X149149500Y-48522135D01*
X149149500Y-50317870D01*
X149149501Y-50317876D01*
X149155908Y-50377483D01*
X149206202Y-50512328D01*
X149206206Y-50512335D01*
X149292452Y-50627544D01*
X149292455Y-50627547D01*
X149407664Y-50713793D01*
X149407671Y-50713797D01*
X149452618Y-50730561D01*
X149542517Y-50764091D01*
X149602127Y-50770500D01*
X149612685Y-50770499D01*
X149679723Y-50790179D01*
X149700372Y-50806818D01*
X150370591Y-51477037D01*
X150307007Y-51494075D01*
X150192993Y-51559901D01*
X150099901Y-51652993D01*
X150034075Y-51767007D01*
X150017037Y-51830591D01*
X149384728Y-51198282D01*
X149384727Y-51198282D01*
X149345380Y-51252439D01*
X149248904Y-51441782D01*
X149183242Y-51643869D01*
X149183242Y-51643872D01*
X149150000Y-51853753D01*
X149150000Y-52066246D01*
X149183242Y-52276127D01*
X149183242Y-52276130D01*
X149248904Y-52478217D01*
X149345375Y-52667550D01*
X149384728Y-52721716D01*
X150017037Y-52089408D01*
X150034075Y-52152993D01*
X150099901Y-52267007D01*
X150192993Y-52360099D01*
X150307007Y-52425925D01*
X150370590Y-52442962D01*
X149738282Y-53075269D01*
X149738282Y-53075270D01*
X149792452Y-53114626D01*
X149792451Y-53114626D01*
X149801495Y-53119234D01*
X149852292Y-53167208D01*
X149869087Y-53235029D01*
X149846550Y-53301164D01*
X149801499Y-53340202D01*
X149792182Y-53344949D01*
X149620213Y-53469890D01*
X149469890Y-53620213D01*
X149344951Y-53792179D01*
X149248444Y-53981585D01*
X149182753Y-54183760D01*
X149149500Y-54393713D01*
X149149500Y-54606286D01*
X149182753Y-54816239D01*
X149248444Y-55018414D01*
X149344951Y-55207820D01*
X149469890Y-55379786D01*
X149620213Y-55530109D01*
X149792182Y-55655050D01*
X149800946Y-55659516D01*
X149851742Y-55707491D01*
X149868536Y-55775312D01*
X149845998Y-55841447D01*
X149800946Y-55880484D01*
X149792182Y-55884949D01*
X149620213Y-56009890D01*
X149469890Y-56160213D01*
X149344951Y-56332179D01*
X149248444Y-56521585D01*
X149182753Y-56723760D01*
X149149500Y-56933713D01*
X149149500Y-57146286D01*
X149182753Y-57356239D01*
X149248444Y-57558414D01*
X149344951Y-57747820D01*
X149469890Y-57919786D01*
X149620213Y-58070109D01*
X149792179Y-58195048D01*
X149792181Y-58195049D01*
X149792184Y-58195051D01*
X149981588Y-58291557D01*
X150183757Y-58357246D01*
X150393713Y-58390500D01*
X150393714Y-58390500D01*
X150606286Y-58390500D01*
X150606287Y-58390500D01*
X150816243Y-58357246D01*
X151018412Y-58291557D01*
X151207816Y-58195051D01*
X151229789Y-58179086D01*
X151379786Y-58070109D01*
X151379788Y-58070106D01*
X151379792Y-58070104D01*
X151530104Y-57919792D01*
X151530106Y-57919788D01*
X151530109Y-57919786D01*
X151655048Y-57747820D01*
X151655047Y-57747820D01*
X151655051Y-57747816D01*
X151751557Y-57558412D01*
X151817246Y-57356243D01*
X151850500Y-57146287D01*
X151850500Y-56933713D01*
X151817246Y-56723757D01*
X151751557Y-56521588D01*
X151655051Y-56332184D01*
X151655049Y-56332181D01*
X151655048Y-56332179D01*
X151530109Y-56160213D01*
X151379786Y-56009890D01*
X151207820Y-55884951D01*
X151207115Y-55884591D01*
X151199054Y-55880485D01*
X151148259Y-55832512D01*
X151131463Y-55764692D01*
X151153999Y-55698556D01*
X151199054Y-55659515D01*
X151207816Y-55655051D01*
X151229789Y-55639086D01*
X151379786Y-55530109D01*
X151379788Y-55530106D01*
X151379792Y-55530104D01*
X151530104Y-55379792D01*
X151530106Y-55379788D01*
X151530109Y-55379786D01*
X151655048Y-55207820D01*
X151655047Y-55207820D01*
X151655051Y-55207816D01*
X151751557Y-55018412D01*
X151817246Y-54816243D01*
X151850500Y-54606287D01*
X151850500Y-54393713D01*
X151817246Y-54183757D01*
X151751557Y-53981588D01*
X151655051Y-53792184D01*
X151655049Y-53792181D01*
X151655048Y-53792179D01*
X151530109Y-53620213D01*
X151379786Y-53469890D01*
X151207817Y-53344949D01*
X151198504Y-53340204D01*
X151147707Y-53292230D01*
X151130912Y-53224409D01*
X151153449Y-53158274D01*
X151198507Y-53119232D01*
X151207555Y-53114622D01*
X151261716Y-53075270D01*
X151261717Y-53075270D01*
X150629408Y-52442962D01*
X150692993Y-52425925D01*
X150807007Y-52360099D01*
X150900099Y-52267007D01*
X150965925Y-52152993D01*
X150982962Y-52089408D01*
X151615270Y-52721717D01*
X151615270Y-52721716D01*
X151654622Y-52667554D01*
X151751095Y-52478217D01*
X151816757Y-52276130D01*
X151816757Y-52276127D01*
X151850000Y-52066246D01*
X151850000Y-51853753D01*
X151816757Y-51643872D01*
X151816757Y-51643869D01*
X151751095Y-51441782D01*
X151654624Y-51252449D01*
X151615270Y-51198282D01*
X151615269Y-51198282D01*
X150982962Y-51830590D01*
X150965925Y-51767007D01*
X150900099Y-51652993D01*
X150807007Y-51559901D01*
X150692993Y-51494075D01*
X150629409Y-51477037D01*
X151299627Y-50806818D01*
X151360950Y-50773333D01*
X151387307Y-50770499D01*
X151397872Y-50770499D01*
X151457483Y-50764091D01*
X151592331Y-50713796D01*
X151707546Y-50627546D01*
X151793796Y-50512331D01*
X151844091Y-50377483D01*
X151850500Y-50317873D01*
X151850499Y-48522128D01*
X151844091Y-48462517D01*
X151793796Y-48327669D01*
X151793795Y-48327668D01*
X151793793Y-48327664D01*
X151707547Y-48212455D01*
X151707544Y-48212452D01*
X151592335Y-48126206D01*
X151592328Y-48126202D01*
X151457482Y-48075908D01*
X151457483Y-48075908D01*
X151397883Y-48069501D01*
X151397881Y-48069500D01*
X151397873Y-48069500D01*
X151397864Y-48069500D01*
X149602129Y-48069500D01*
X149602123Y-48069501D01*
X149542516Y-48075908D01*
X149407671Y-48126202D01*
X149407664Y-48126206D01*
X149292455Y-48212452D01*
X149292452Y-48212455D01*
X149206206Y-48327664D01*
X149206202Y-48327671D01*
X149155908Y-48462517D01*
X149149501Y-48522116D01*
X149149501Y-48522123D01*
X149149500Y-48522135D01*
X131250500Y-48522135D01*
X131250500Y-44374500D01*
X131270185Y-44307461D01*
X131322989Y-44261706D01*
X131374500Y-44250500D01*
X200637770Y-44250500D01*
X200667210Y-44259144D01*
X200697197Y-44265668D01*
X200702212Y-44269422D01*
X200704809Y-44270185D01*
X200725451Y-44286819D01*
X200753927Y-44315295D01*
X200780807Y-44355523D01*
X200790604Y-44379175D01*
X200790609Y-44379185D01*
X200878210Y-44510288D01*
X200878213Y-44510292D01*
X200989707Y-44621786D01*
X200989711Y-44621789D01*
X201120814Y-44709390D01*
X201120827Y-44709397D01*
X201266498Y-44769735D01*
X201266503Y-44769737D01*
X201421153Y-44800499D01*
X201421156Y-44800500D01*
X201421158Y-44800500D01*
X201578844Y-44800500D01*
X201578845Y-44800499D01*
X201733497Y-44769737D01*
X201879179Y-44709394D01*
X202010289Y-44621789D01*
X202121789Y-44510289D01*
X202209394Y-44379179D01*
X202269737Y-44233497D01*
X202300500Y-44078842D01*
X202300500Y-43921158D01*
X202300500Y-43921155D01*
X202300499Y-43921153D01*
X202269738Y-43766510D01*
X202269737Y-43766503D01*
X202269735Y-43766498D01*
X202209397Y-43620827D01*
X202209390Y-43620814D01*
X202121789Y-43489711D01*
X202121786Y-43489707D01*
X202010292Y-43378213D01*
X202010288Y-43378210D01*
X201879185Y-43290609D01*
X201879175Y-43290604D01*
X201855523Y-43280807D01*
X201815295Y-43253927D01*
X201478421Y-42917052D01*
X201478414Y-42917046D01*
X201404729Y-42867812D01*
X201404729Y-42867813D01*
X201355491Y-42834913D01*
X201218917Y-42778343D01*
X201218907Y-42778340D01*
X201073920Y-42749500D01*
X201073918Y-42749500D01*
X130573918Y-42749500D01*
X130426082Y-42749500D01*
X130426080Y-42749500D01*
X130281092Y-42778340D01*
X130281082Y-42778343D01*
X130144511Y-42834912D01*
X130144498Y-42834919D01*
X130021584Y-42917048D01*
X130021580Y-42917051D01*
X129917051Y-43021580D01*
X129917048Y-43021584D01*
X129834919Y-43144498D01*
X129834912Y-43144511D01*
X129778343Y-43281082D01*
X129778340Y-43281092D01*
X129749500Y-43426079D01*
X129749500Y-43426082D01*
X129749500Y-76073918D01*
X129749500Y-76073920D01*
X129749499Y-76073920D01*
X75000500Y-76073920D01*
X75000500Y-65224983D01*
X110149500Y-65224983D01*
X110149500Y-66775001D01*
X110149501Y-66775007D01*
X110160000Y-66877796D01*
X110160001Y-66877799D01*
X110200808Y-67000945D01*
X110215186Y-67044334D01*
X110307288Y-67193656D01*
X110431344Y-67317712D01*
X110580666Y-67409814D01*
X110747203Y-67464999D01*
X110849991Y-67475500D01*
X112150008Y-67475499D01*
X112252797Y-67464999D01*
X112419334Y-67409814D01*
X112568656Y-67317712D01*
X112692712Y-67193656D01*
X112784814Y-67044334D01*
X112784814Y-67044331D01*
X112788448Y-67038441D01*
X112840395Y-66991716D01*
X112909358Y-66980493D01*
X112973440Y-67008336D01*
X112981668Y-67015856D01*
X113120535Y-67154723D01*
X113120540Y-67154727D01*
X113292442Y-67279620D01*
X113481782Y-67376095D01*
X113683871Y-67441757D01*
X113750000Y-67452231D01*
X113750000Y-66404145D01*
X113816657Y-66442630D01*
X113937465Y-66475000D01*
X114062535Y-66475000D01*
X114183343Y-66442630D01*
X114250000Y-66404145D01*
X114250000Y-67452230D01*
X114316126Y-67441757D01*
X114316129Y-67441757D01*
X114518217Y-67376095D01*
X114707557Y-67279620D01*
X114879459Y-67154727D01*
X114879464Y-67154723D01*
X115029721Y-67004466D01*
X115149371Y-66839781D01*
X115204701Y-66797115D01*
X115274314Y-66791136D01*
X115336110Y-66823741D01*
X115350008Y-66839781D01*
X115469890Y-67004785D01*
X115469894Y-67004790D01*
X115620213Y-67155109D01*
X115792179Y-67280048D01*
X115792181Y-67280049D01*
X115792184Y-67280051D01*
X115981588Y-67376557D01*
X116183757Y-67442246D01*
X116393713Y-67475500D01*
X116393714Y-67475500D01*
X116606286Y-67475500D01*
X116606287Y-67475500D01*
X116816243Y-67442246D01*
X117018412Y-67376557D01*
X117207816Y-67280051D01*
X117229789Y-67264086D01*
X117379786Y-67155109D01*
X117379788Y-67155106D01*
X117379792Y-67155104D01*
X117530104Y-67004792D01*
X117649683Y-66840204D01*
X117705011Y-66797540D01*
X117774624Y-66791561D01*
X117836420Y-66824166D01*
X117850313Y-66840199D01*
X117948614Y-66975500D01*
X117969896Y-67004792D01*
X118120213Y-67155109D01*
X118292179Y-67280048D01*
X118292181Y-67280049D01*
X118292184Y-67280051D01*
X118481588Y-67376557D01*
X118683757Y-67442246D01*
X118893713Y-67475500D01*
X118893714Y-67475500D01*
X119106286Y-67475500D01*
X119106287Y-67475500D01*
X119316243Y-67442246D01*
X119518412Y-67376557D01*
X119707816Y-67280051D01*
X119729789Y-67264086D01*
X119879786Y-67155109D01*
X119879788Y-67155106D01*
X119879792Y-67155104D01*
X120030104Y-67004792D01*
X120030106Y-67004788D01*
X120030109Y-67004786D01*
X120155048Y-66832820D01*
X120155047Y-66832820D01*
X120155051Y-66832816D01*
X120251557Y-66643412D01*
X120317246Y-66441243D01*
X120350500Y-66231287D01*
X120350500Y-65768713D01*
X120317246Y-65558757D01*
X120251557Y-65356588D01*
X120155051Y-65167184D01*
X120155049Y-65167181D01*
X120155048Y-65167179D01*
X120030109Y-64995213D01*
X119879786Y-64844890D01*
X119707820Y-64719951D01*
X119518414Y-64623444D01*
X119518413Y-64623443D01*
X119518412Y-64623443D01*
X119316243Y-64557754D01*
X119316241Y-64557753D01*
X119316240Y-64557753D01*
X119154957Y-64532208D01*
X119106287Y-64524500D01*
X118893713Y-64524500D01*
X118845042Y-64532208D01*
X118683760Y-64557753D01*
X118481585Y-64623444D01*
X118292179Y-64719951D01*
X118120213Y-64844890D01*
X117969894Y-64995209D01*
X117969890Y-64995214D01*
X117850318Y-65159793D01*
X117794989Y-65202459D01*
X117725375Y-65208438D01*
X117663580Y-65175833D01*
X117649682Y-65159793D01*
X117530109Y-64995214D01*
X117530105Y-64995209D01*
X117379786Y-64844890D01*
X117207820Y-64719951D01*
X117018414Y-64623444D01*
X117018413Y-64623443D01*
X117018412Y-64623443D01*
X116816243Y-64557754D01*
X116816241Y-64557753D01*
X116816240Y-64557753D01*
X116654957Y-64532208D01*
X116606287Y-64524500D01*
X116393713Y-64524500D01*
X116345042Y-64532208D01*
X116183760Y-64557753D01*
X115981585Y-64623444D01*
X115792179Y-64719951D01*
X115620213Y-64844890D01*
X115469894Y-64995209D01*
X115469890Y-64995214D01*
X115350008Y-65160218D01*
X115294678Y-65202884D01*
X115225065Y-65208863D01*
X115163270Y-65176257D01*
X115149372Y-65160218D01*
X115029727Y-64995540D01*
X115029723Y-64995535D01*
X114879464Y-64845276D01*
X114879459Y-64845272D01*
X114707557Y-64720379D01*
X114518215Y-64623903D01*
X114316124Y-64558241D01*
X114250000Y-64547768D01*
X114250000Y-65595854D01*
X114183343Y-65557370D01*
X114062535Y-65525000D01*
X113937465Y-65525000D01*
X113816657Y-65557370D01*
X113750000Y-65595854D01*
X113750000Y-64547768D01*
X113749999Y-64547768D01*
X113683875Y-64558241D01*
X113481784Y-64623903D01*
X113292442Y-64720379D01*
X113120541Y-64845271D01*
X112981668Y-64984144D01*
X112920345Y-65017628D01*
X112850653Y-65012644D01*
X112794720Y-64970772D01*
X112788448Y-64961558D01*
X112692712Y-64806344D01*
X112568657Y-64682289D01*
X112568656Y-64682288D01*
X112419334Y-64590186D01*
X112252797Y-64535001D01*
X112252795Y-64535000D01*
X112150010Y-64524500D01*
X110849998Y-64524500D01*
X110849981Y-64524501D01*
X110747203Y-64535000D01*
X110747200Y-64535001D01*
X110580668Y-64590185D01*
X110580663Y-64590187D01*
X110431342Y-64682289D01*
X110307289Y-64806342D01*
X110215187Y-64955663D01*
X110215185Y-64955668D01*
X110210180Y-64970772D01*
X110160001Y-65122203D01*
X110160001Y-65122204D01*
X110160000Y-65122204D01*
X110149500Y-65224983D01*
X75000500Y-65224983D01*
X75000500Y-32124500D01*
X75020185Y-32057461D01*
X75072989Y-32011706D01*
X75124500Y-32000500D01*
X225375500Y-32000500D01*
X225442539Y-32020185D01*
G37*
%TD.AperFunction*%
%TD*%
M02*
