ISO-10303-21;
HEADER;
FILE_DESCRIPTION(('zoo.dev export'), '2;1');
FILE_NAME('output.step', '2026-06-10T14:39:52.533995730+00:00', (''), (''), 'zoo.dev beta', 'zoo.dev', '');
FILE_SCHEMA(('AP242_MANAGED_MODEL_BASED_3D_ENGINEERING_MIM_LF'));
ENDSEC;
DATA;
#1 = (
  LENGTH_UNIT()
  NAMED_UNIT(*)
  SI_UNIT(.MILLI., .METRE.)
);
#2 = (
  NAMED_UNIT(*)
  PLANE_ANGLE_UNIT()
  SI_UNIT($, .RADIAN.)
);
#3 = UNCERTAINTY_MEASURE_WITH_UNIT(LENGTH_MEASURE(0.01), #1, 'DISTANCE_ACCURACY_VALUE', $);
#4 = (
  GEOMETRIC_REPRESENTATION_CONTEXT(3)
  GLOBAL_UNCERTAINTY_ASSIGNED_CONTEXT((#3))
  GLOBAL_UNIT_ASSIGNED_CONTEXT((#1, #2))
  REPRESENTATION_CONTEXT('3D', '3D context')
);
#5 = CARTESIAN_POINT('', (0.49999999, 7.5, 0.49999999));
#6 = VERTEX_POINT('', #5);
#7 = CARTESIAN_POINT('', (11.49999998, 7.5, 0.49999998));
#8 = VERTEX_POINT('', #7);
#9 = CARTESIAN_POINT('', (0.49999999, 7.5, 11.49999996));
#10 = VERTEX_POINT('', #9);
#11 = CARTESIAN_POINT('', (0.49999999, -7.5, 0.49999999));
#12 = VERTEX_POINT('', #11);
#13 = CARTESIAN_POINT('', (11.49999998, -7.5, 0.49999998));
#14 = VERTEX_POINT('', #13);
#15 = CARTESIAN_POINT('', (0.49999999, -7.5, 11.49999996));
#16 = VERTEX_POINT('', #15);
#17 = CARTESIAN_POINT('', (0.49999999, -7., -0.00000001));
#18 = VERTEX_POINT('', #17);
#19 = CARTESIAN_POINT('', (0.49999999, 7., -0.00000001));
#20 = VERTEX_POINT('', #19);
#21 = CARTESIAN_POINT('', (0.24999999, 7.25, 0.24999999));
#22 = VERTEX_POINT('', #21);
#23 = CARTESIAN_POINT('', (-0.00000001, -7., 0.49999999));
#24 = VERTEX_POINT('', #23);
#25 = CARTESIAN_POINT('', (-0.00000001, 7., 0.49999999));
#26 = VERTEX_POINT('', #25);
#27 = CARTESIAN_POINT('', (0.24999999, -7.25, 0.24999999));
#28 = VERTEX_POINT('', #27);
#29 = CARTESIAN_POINT('', (11.49999998, 7., -0.00000002));
#30 = VERTEX_POINT('', #29);
#31 = CARTESIAN_POINT('', (11.74999998, 7.25, 0.24999998));
#32 = VERTEX_POINT('', #31);
#33 = CARTESIAN_POINT('', (11.99999998, 7., 0.49999998));
#34 = VERTEX_POINT('', #33);
#35 = CARTESIAN_POINT('', (11.99999998, -7., 0.49999998));
#36 = VERTEX_POINT('', #35);
#37 = CARTESIAN_POINT('', (11.49999998, -7., -0.00000002));
#38 = VERTEX_POINT('', #37);
#39 = CARTESIAN_POINT('', (11.74999998, -7.25, 0.24999998));
#40 = VERTEX_POINT('', #39);
#41 = CARTESIAN_POINT('', (-0.00000001, 7., 11.49999996));
#42 = VERTEX_POINT('', #41);
#43 = CARTESIAN_POINT('', (0.24999999, 7.25, 11.74999996));
#44 = VERTEX_POINT('', #43);
#45 = CARTESIAN_POINT('', (0.49999999, 7., 11.99999996));
#46 = VERTEX_POINT('', #45);
#47 = CARTESIAN_POINT('', (0.49999999, -7., 11.99999996));
#48 = VERTEX_POINT('', #47);
#49 = CARTESIAN_POINT('', (-0.00000001, -7., 11.49999996));
#50 = VERTEX_POINT('', #49);
#51 = CARTESIAN_POINT('', (0.24999999, -7.25, 11.74999996));
#52 = VERTEX_POINT('', #51);
#53 = CARTESIAN_POINT('', (11.99999998, 7., 2.49999998));
#54 = VERTEX_POINT('', #53);
#55 = CARTESIAN_POINT('', (11.49999998, 7.5, 2.49999998));
#56 = VERTEX_POINT('', #55);
#57 = CARTESIAN_POINT('', (2.49999999, 7.5, 11.49999997));
#58 = VERTEX_POINT('', #57);
#59 = CARTESIAN_POINT('', (2.49999999, 7.5, 2.49999999));
#60 = VERTEX_POINT('', #59);
#61 = CARTESIAN_POINT('', (2.49999999, 7., 11.99999996));
#62 = VERTEX_POINT('', #61);
#63 = CARTESIAN_POINT('', (11.99999998, -7., 2.49999998));
#64 = VERTEX_POINT('', #63);
#65 = CARTESIAN_POINT('', (11.49999998, -7.5, 2.49999998));
#66 = VERTEX_POINT('', #65);
#67 = CARTESIAN_POINT('', (2.49999999, -7.5, 11.49999997));
#68 = VERTEX_POINT('', #67);
#69 = CARTESIAN_POINT('', (2.49999999, -7.5, 2.49999999));
#70 = VERTEX_POINT('', #69);
#71 = CARTESIAN_POINT('', (2.49999999, -7., 11.99999996));
#72 = VERTEX_POINT('', #71);
#73 = CARTESIAN_POINT('', (-0.00000001, 1.6, 6.));
#74 = VERTEX_POINT('', #73);
#75 = CARTESIAN_POINT('', (-0.00000001, -1.6, 6.));
#76 = VERTEX_POINT('', #75);
#77 = CARTESIAN_POINT('', (2.49999999, 1.6, 6.));
#78 = VERTEX_POINT('', #77);
#79 = CARTESIAN_POINT('', (2.49999999, -1.6, 6.));
#80 = VERTEX_POINT('', #79);
#81 = CARTESIAN_POINT('', (-0.00000001, -0.00000001, 4.4));
#82 = VERTEX_POINT('', #81);
#83 = CARTESIAN_POINT('', (-0.00000001, 0.00000002, 7.6));
#84 = VERTEX_POINT('', #83);
#85 = CARTESIAN_POINT('', (2.49999999, -0.00000021, 4.4));
#86 = VERTEX_POINT('', #85);
#87 = CARTESIAN_POINT('', (2.49999999, 0., 7.6));
#88 = VERTEX_POINT('', #87);
#89 = CARTESIAN_POINT('', (7.6, 0., -0.00000001));
#90 = VERTEX_POINT('', #89);
#91 = CARTESIAN_POINT('', (4.4, 0., -0.00000001));
#92 = VERTEX_POINT('', #91);
#93 = CARTESIAN_POINT('', (7.6, 0., 2.49999999));
#94 = VERTEX_POINT('', #93);
#95 = CARTESIAN_POINT('', (4.4, 0., 2.49999999));
#96 = VERTEX_POINT('', #95);
#97 = CARTESIAN_POINT('', (5.99999999, -1.6, -0.00000001));
#98 = VERTEX_POINT('', #97);
#99 = CARTESIAN_POINT('', (6.00000001, 1.6, -0.00000001));
#100 = VERTEX_POINT('', #99);
#101 = CARTESIAN_POINT('', (6.00000001, -1.6, 2.49999999));
#102 = VERTEX_POINT('', #101);
#103 = CARTESIAN_POINT('', (6.00000001, 1.6, 2.49999999));
#104 = VERTEX_POINT('', #103);
#105 = DIRECTION('', (-0., -0., 1.));
#106 = VECTOR('', #105, 1.);
#107 = CARTESIAN_POINT('', (11.49999998, 7.5, 0.49999998));
#108 = LINE('', #107, #106);
#109 = DIRECTION('', (0.57735027, -0.57735027, -0.57735027));
#110 = VECTOR('', #109, 1.);
#111 = CARTESIAN_POINT('', (11.49999998, 7.5, 0.49999998));
#112 = LINE('', #111, #110);
#113 = DIRECTION('', (-1., -0., 0.));
#114 = VECTOR('', #113, 1.);
#115 = CARTESIAN_POINT('', (11.49999998, 7.5, 0.49999998));
#116 = LINE('', #115, #114);
#117 = DIRECTION('', (0., -0., -1.));
#118 = VECTOR('', #117, 1.);
#119 = CARTESIAN_POINT('', (0.49999999, 7.5, 11.49999996));
#120 = LINE('', #119, #118);
#121 = DIRECTION('', (-0., 0., 1.));
#122 = VECTOR('', #121, 1.);
#123 = CARTESIAN_POINT('', (11.49999998, -7.5, 0.49999998));
#124 = LINE('', #123, #122);
#125 = DIRECTION('', (0.57735027, 0.57735027, -0.57735027));
#126 = VECTOR('', #125, 1.);
#127 = CARTESIAN_POINT('', (11.49999998, -7.5, 0.49999998));
#128 = LINE('', #127, #126);
#129 = DIRECTION('', (-1., -0., 0.));
#130 = VECTOR('', #129, 1.);
#131 = CARTESIAN_POINT('', (11.49999998, -7.5, 0.49999998));
#132 = LINE('', #131, #130);
#133 = DIRECTION('', (-0.57735027, 0.57735027, 0.57735027));
#134 = VECTOR('', #133, 1.);
#135 = CARTESIAN_POINT('', (0.49999999, -7.5, 11.49999996));
#136 = LINE('', #135, #134);
#137 = DIRECTION('', (0., -0., -1.));
#138 = VECTOR('', #137, 1.);
#139 = CARTESIAN_POINT('', (0.49999999, -7.5, 11.49999996));
#140 = LINE('', #139, #138);
#141 = DIRECTION('', (0., 1., 0.));
#142 = VECTOR('', #141, 1.);
#143 = CARTESIAN_POINT('', (0.49999999, -7., -0.00000001));
#144 = LINE('', #143, #142);
#145 = DIRECTION('', (-0.57735027, 0.57735027, 0.57735027));
#146 = VECTOR('', #145, 1.);
#147 = CARTESIAN_POINT('', (0.49999999, 7., -0.00000001));
#148 = LINE('', #147, #146);
#149 = DIRECTION('', (0., 1., 0.));
#150 = VECTOR('', #149, 1.);
#151 = CARTESIAN_POINT('', (-0.00000001, -7., 0.49999999));
#152 = LINE('', #151, #150);
#153 = DIRECTION('', (-0.57735027, -0.57735027, 0.57735027));
#154 = VECTOR('', #153, 1.);
#155 = CARTESIAN_POINT('', (0.24999999, 7.25, 0.24999999));
#156 = LINE('', #155, #154);
#157 = DIRECTION('', (-0.57735027, -0.57735027, 0.57735027));
#158 = VECTOR('', #157, 1.);
#159 = CARTESIAN_POINT('', (0.49999999, -7., -0.00000001));
#160 = LINE('', #159, #158);
#161 = DIRECTION('', (0.57735027, -0.57735027, -0.57735027));
#162 = VECTOR('', #161, 1.);
#163 = CARTESIAN_POINT('', (-0.00000001, -7., 0.49999999));
#164 = LINE('', #163, #162);
#165 = DIRECTION('', (0.57735027, -0.57735027, 0.57735027));
#166 = VECTOR('', #165, 1.);
#167 = CARTESIAN_POINT('', (0.24999999, -7.25, 0.24999999));
#168 = LINE('', #167, #166);
#169 = DIRECTION('', (0.57735027, 0.57735027, 0.57735027));
#170 = VECTOR('', #169, 1.);
#171 = CARTESIAN_POINT('', (0.24999999, 7.25, 0.24999999));
#172 = LINE('', #171, #170);
#173 = DIRECTION('', (1., -0., -0.));
#174 = VECTOR('', #173, 1.);
#175 = CARTESIAN_POINT('', (0.49999999, 7., -0.00000001));
#176 = LINE('', #175, #174);
#177 = DIRECTION('', (1., -0., -0.));
#178 = VECTOR('', #177, 1.);
#179 = CARTESIAN_POINT('', (0.49999999, -7., -0.00000001));
#180 = LINE('', #179, #178);
#181 = DIRECTION('', (-0.57735027, -0.57735027, -0.57735027));
#182 = VECTOR('', #181, 1.);
#183 = CARTESIAN_POINT('', (11.74999998, 7.25, 0.24999998));
#184 = LINE('', #183, #182);
#185 = DIRECTION('', (-0.57735027, 0.57735027, -0.57735027));
#186 = VECTOR('', #185, 1.);
#187 = CARTESIAN_POINT('', (11.99999998, 7., 0.49999998));
#188 = LINE('', #187, #186);
#189 = DIRECTION('', (0., -1., 0.));
#190 = VECTOR('', #189, 1.);
#191 = CARTESIAN_POINT('', (11.99999998, 7., 0.49999998));
#192 = LINE('', #191, #190);
#193 = DIRECTION('', (-0.57735027, 0.57735027, -0.57735027));
#194 = VECTOR('', #193, 1.);
#195 = CARTESIAN_POINT('', (11.74999998, -7.25, 0.24999998));
#196 = LINE('', #195, #194);
#197 = DIRECTION('', (0.57735027, 0.57735027, 0.57735027));
#198 = VECTOR('', #197, 1.);
#199 = CARTESIAN_POINT('', (11.74999998, -7.25, 0.24999998));
#200 = LINE('', #199, #198);
#201 = DIRECTION('', (0., -1., 0.));
#202 = VECTOR('', #201, 1.);
#203 = CARTESIAN_POINT('', (11.49999998, 7., -0.00000002));
#204 = LINE('', #203, #202);
#205 = DIRECTION('', (-0., -0., 1.));
#206 = VECTOR('', #205, 1.);
#207 = CARTESIAN_POINT('', (11.99999998, -7., 0.49999998));
#208 = LINE('', #207, #206);
#209 = DIRECTION('', (-0., -0., 1.));
#210 = VECTOR('', #209, 1.);
#211 = CARTESIAN_POINT('', (11.99999998, 7., 0.49999998));
#212 = LINE('', #211, #210);
#213 = DIRECTION('', (0.57735027, 0.57735027, 0.57735027));
#214 = VECTOR('', #213, 1.);
#215 = CARTESIAN_POINT('', (-0.00000001, 7., 11.49999996));
#216 = LINE('', #215, #214);
#217 = DIRECTION('', (0.57735027, -0.57735027, 0.57735027));
#218 = VECTOR('', #217, 1.);
#219 = CARTESIAN_POINT('', (0.24999999, 7.25, 11.74999996));
#220 = LINE('', #219, #218);
#221 = DIRECTION('', (0., -1., 0.));
#222 = VECTOR('', #221, 1.);
#223 = CARTESIAN_POINT('', (0.49999999, 7., 11.99999996));
#224 = LINE('', #223, #222);
#225 = DIRECTION('', (-0.57735027, 0.57735027, -0.57735027));
#226 = VECTOR('', #225, 1.);
#227 = CARTESIAN_POINT('', (0.24999999, -7.25, 11.74999996));
#228 = LINE('', #227, #226);
#229 = DIRECTION('', (-0.57735027, -0.57735027, -0.57735027));
#230 = VECTOR('', #229, 1.);
#231 = CARTESIAN_POINT('', (0.49999999, -7., 11.99999996));
#232 = LINE('', #231, #230);
#233 = DIRECTION('', (0., -1., 0.));
#234 = VECTOR('', #233, 1.);
#235 = CARTESIAN_POINT('', (-0.00000001, 7., 11.49999996));
#236 = LINE('', #235, #234);
#237 = DIRECTION('', (-0., -0., -1.));
#238 = VECTOR('', #237, 1.);
#239 = CARTESIAN_POINT('', (-0.00000001, -7., 11.49999996));
#240 = LINE('', #239, #238);
#241 = DIRECTION('', (0.57735027, 0.57735027, -0.57735027));
#242 = VECTOR('', #241, 1.);
#243 = CARTESIAN_POINT('', (0.24999999, 7.25, 11.74999996));
#244 = LINE('', #243, #242);
#245 = DIRECTION('', (-0., -0., -1.));
#246 = VECTOR('', #245, 1.);
#247 = CARTESIAN_POINT('', (-0.00000001, 7., 11.49999996));
#248 = LINE('', #247, #246);
#249 = DIRECTION('', (0.70710678, -0.70710678, -0.));
#250 = VECTOR('', #249, 1.);
#251 = CARTESIAN_POINT('', (11.49999998, 7.5, 2.49999998));
#252 = LINE('', #251, #250);
#253 = DIRECTION('', (0., -0., -1.));
#254 = VECTOR('', #253, 1.);
#255 = CARTESIAN_POINT('', (2.49999999, 7.5, 11.49999997));
#256 = LINE('', #255, #254);
#257 = DIRECTION('', (1., -0., -0.));
#258 = VECTOR('', #257, 1.);
#259 = CARTESIAN_POINT('', (2.49999999, 7.5, 2.49999999));
#260 = LINE('', #259, #258);
#261 = DIRECTION('', (0., 0.70710678, -0.70710678));
#262 = VECTOR('', #261, 1.);
#263 = CARTESIAN_POINT('', (2.49999999, 7., 11.99999996));
#264 = LINE('', #263, #262);
#265 = DIRECTION('', (-0.70710678, -0.70710678, 0.));
#266 = VECTOR('', #265, 1.);
#267 = CARTESIAN_POINT('', (11.99999998, -7., 2.49999998));
#268 = LINE('', #267, #266);
#269 = DIRECTION('', (0., -0., -1.));
#270 = VECTOR('', #269, 1.);
#271 = CARTESIAN_POINT('', (2.49999999, -7.5, 11.49999997));
#272 = LINE('', #271, #270);
#273 = DIRECTION('', (1., -0., -0.));
#274 = VECTOR('', #273, 1.);
#275 = CARTESIAN_POINT('', (2.49999999, -7.5, 2.49999999));
#276 = LINE('', #275, #274);
#277 = DIRECTION('', (0., 0.70710678, 0.70710678));
#278 = VECTOR('', #277, 1.);
#279 = CARTESIAN_POINT('', (2.49999999, -7.5, 11.49999996));
#280 = LINE('', #279, #278);
#281 = DIRECTION('', (0., -1., 0.));
#282 = VECTOR('', #281, 1.);
#283 = CARTESIAN_POINT('', (2.49999999, 7., 11.99999996));
#284 = LINE('', #283, #282);
#285 = DIRECTION('', (0., -1., 0.));
#286 = VECTOR('', #285, 1.);
#287 = CARTESIAN_POINT('', (11.99999998, 7., 2.49999998));
#288 = LINE('', #287, #286);
#289 = DIRECTION('', (-1., -0., -0.));
#290 = VECTOR('', #289, 1.);
#291 = CARTESIAN_POINT('', (2.49999999, -7., 11.99999996));
#292 = LINE('', #291, #290);
#293 = DIRECTION('', (-1., -0., -0.));
#294 = VECTOR('', #293, 1.);
#295 = CARTESIAN_POINT('', (2.49999999, 7.5, 11.49999996));
#296 = LINE('', #295, #294);
#297 = DIRECTION('', (0., -1., 0.));
#298 = VECTOR('', #297, 1.);
#299 = CARTESIAN_POINT('', (2.49999999, 7.5, 2.49999999));
#300 = LINE('', #299, #298);
#301 = DIRECTION('', (-1., -0., -0.));
#302 = VECTOR('', #301, 1.);
#303 = CARTESIAN_POINT('', (2.49999999, 7., 11.99999996));
#304 = LINE('', #303, #302);
#305 = DIRECTION('', (-1., -0., -0.));
#306 = VECTOR('', #305, 1.);
#307 = CARTESIAN_POINT('', (2.49999999, -7.5, 11.49999996));
#308 = LINE('', #307, #306);
#309 = DIRECTION('', (-0., 1., -0.));
#310 = DIRECTION('', (1., 0., -0.));
#311 = CARTESIAN_POINT('', (-0.00000001, 0., 6.));
#312 = AXIS2_PLACEMENT_3D('', #311, #310, #309);
#313 = CIRCLE('', #312, 1.6);
#314 = DIRECTION('', (-0., 1., 0.));
#315 = DIRECTION('', (-1., -0., 0.));
#316 = CARTESIAN_POINT('', (-0.00000001, 0., 6.));
#317 = AXIS2_PLACEMENT_3D('', #316, #315, #314);
#318 = CIRCLE('', #317, 1.6);
#319 = DIRECTION('', (0., 1., 0.));
#320 = DIRECTION('', (1., -0., -0.));
#321 = CARTESIAN_POINT('', (2.49999999, 0., 6.));
#322 = AXIS2_PLACEMENT_3D('', #321, #320, #319);
#323 = CIRCLE('', #322, 1.6);
#324 = DIRECTION('', (-0., 1., 0.));
#325 = DIRECTION('', (-1., -0., 0.));
#326 = CARTESIAN_POINT('', (2.49999999, 0., 6.));
#327 = AXIS2_PLACEMENT_3D('', #326, #325, #324);
#328 = CIRCLE('', #327, 1.6);
#329 = DIRECTION('', (0., -0.00000001, -1.));
#330 = DIRECTION('', (-1., -0., -0.));
#331 = CARTESIAN_POINT('', (-0.00000001, 0., 6.));
#332 = AXIS2_PLACEMENT_3D('', #331, #330, #329);
#333 = CIRCLE('', #332, 1.6);
#334 = DIRECTION('', (-0., 0.00000001, 1.));
#335 = DIRECTION('', (1., -0., 0.));
#336 = CARTESIAN_POINT('', (-0.00000001, 0., 6.));
#337 = AXIS2_PLACEMENT_3D('', #336, #335, #334);
#338 = CIRCLE('', #337, 1.6);
#339 = DIRECTION('', (0., -0.00000013, -1.));
#340 = DIRECTION('', (-1., -0., 0.));
#341 = CARTESIAN_POINT('', (2.49999999, 0., 6.));
#342 = AXIS2_PLACEMENT_3D('', #341, #340, #339);
#343 = CIRCLE('', #342, 1.6);
#344 = DIRECTION('', (0., 0., 1.));
#345 = DIRECTION('', (1., -0., -0.));
#346 = CARTESIAN_POINT('', (2.49999999, 0., 6.));
#347 = AXIS2_PLACEMENT_3D('', #346, #345, #344);
#348 = CIRCLE('', #347, 1.6);
#349 = DIRECTION('', (1., -0., 0.));
#350 = VECTOR('', #349, 1.);
#351 = CARTESIAN_POINT('', (-0.00000001, -1.6, 6.));
#352 = LINE('', #351, #350);
#353 = DIRECTION('', (1., -0., 0.));
#354 = VECTOR('', #353, 1.);
#355 = CARTESIAN_POINT('', (-0.00000001, 1.6, 6.));
#356 = LINE('', #355, #354);
#357 = DIRECTION('', (1., 0., -0.));
#358 = DIRECTION('', (0., -0., 1.));
#359 = CARTESIAN_POINT('', (6., -0., -0.00000001));
#360 = AXIS2_PLACEMENT_3D('', #359, #358, #357);
#361 = CIRCLE('', #360, 1.6);
#362 = DIRECTION('', (1., -0., -0.));
#363 = DIRECTION('', (-0., 0., -1.));
#364 = CARTESIAN_POINT('', (6., 0., -0.00000001));
#365 = AXIS2_PLACEMENT_3D('', #364, #363, #362);
#366 = CIRCLE('', #365, 1.6);
#367 = DIRECTION('', (1., -0., -0.));
#368 = DIRECTION('', (0., 0., 1.));
#369 = CARTESIAN_POINT('', (6., 0., 2.49999999));
#370 = AXIS2_PLACEMENT_3D('', #369, #368, #367);
#371 = CIRCLE('', #370, 1.6);
#372 = DIRECTION('', (1., -0., -0.));
#373 = DIRECTION('', (-0., -0., -1.));
#374 = CARTESIAN_POINT('', (6., 0., 2.49999999));
#375 = AXIS2_PLACEMENT_3D('', #374, #373, #372);
#376 = CIRCLE('', #375, 1.6);
#377 = DIRECTION('', (-0.00000001, -1., -0.));
#378 = DIRECTION('', (-0., 0., -1.));
#379 = CARTESIAN_POINT('', (6., 0., -0.00000001));
#380 = AXIS2_PLACEMENT_3D('', #379, #378, #377);
#381 = CIRCLE('', #380, 1.6);
#382 = DIRECTION('', (0.00000001, 1., -0.));
#383 = DIRECTION('', (0., 0., 1.));
#384 = CARTESIAN_POINT('', (6., -0., -0.00000001));
#385 = AXIS2_PLACEMENT_3D('', #384, #383, #382);
#386 = CIRCLE('', #385, 1.6);
#387 = DIRECTION('', (0.00000001, -1., 0.));
#388 = DIRECTION('', (-0., -0., -1.));
#389 = CARTESIAN_POINT('', (6., 0., 2.49999999));
#390 = AXIS2_PLACEMENT_3D('', #389, #388, #387);
#391 = CIRCLE('', #390, 1.6);
#392 = DIRECTION('', (0., 1., 0.));
#393 = DIRECTION('', (0., -0., 1.));
#394 = CARTESIAN_POINT('', (6., 0., 2.49999999));
#395 = AXIS2_PLACEMENT_3D('', #394, #393, #392);
#396 = CIRCLE('', #395, 1.6);
#397 = DIRECTION('', (0., -0., 1.));
#398 = VECTOR('', #397, 1.);
#399 = CARTESIAN_POINT('', (4.4, 0., -0.00000001));
#400 = LINE('', #399, #398);
#401 = DIRECTION('', (0., -0., 1.));
#402 = VECTOR('', #401, 1.);
#403 = CARTESIAN_POINT('', (7.6, 0., -0.00000001));
#404 = LINE('', #403, #402);
#405 = EDGE_CURVE('', #8, #56, #108, .T.);
#406 = EDGE_CURVE('', #8, #32, #112, .T.);
#407 = EDGE_CURVE('', #8, #6, #116, .T.);
#408 = EDGE_CURVE('', #10, #6, #120, .T.);
#409 = EDGE_CURVE('', #14, #66, #124, .T.);
#410 = EDGE_CURVE('', #14, #40, #128, .T.);
#411 = EDGE_CURVE('', #14, #12, #132, .T.);
#412 = EDGE_CURVE('', #16, #52, #136, .T.);
#413 = EDGE_CURVE('', #16, #12, #140, .T.);
#414 = EDGE_CURVE('', #18, #20, #144, .T.);
#415 = EDGE_CURVE('', #20, #22, #148, .T.);
#416 = EDGE_CURVE('', #24, #26, #152, .T.);
#417 = EDGE_CURVE('', #22, #26, #156, .T.);
#418 = EDGE_CURVE('', #18, #28, #160, .T.);
#419 = EDGE_CURVE('', #24, #28, #164, .T.);
#420 = EDGE_CURVE('', #28, #12, #168, .T.);
#421 = EDGE_CURVE('', #22, #6, #172, .T.);
#422 = EDGE_CURVE('', #20, #30, #176, .T.);
#423 = EDGE_CURVE('', #18, #38, #180, .T.);
#424 = EDGE_CURVE('', #32, #30, #184, .T.);
#425 = EDGE_CURVE('', #34, #32, #188, .T.);
#426 = EDGE_CURVE('', #34, #36, #192, .T.);
#427 = EDGE_CURVE('', #40, #38, #196, .T.);
#428 = EDGE_CURVE('', #40, #36, #200, .T.);
#429 = EDGE_CURVE('', #30, #38, #204, .T.);
#430 = EDGE_CURVE('', #36, #64, #208, .T.);
#431 = EDGE_CURVE('', #34, #54, #212, .T.);
#432 = EDGE_CURVE('', #42, #44, #216, .T.);
#433 = EDGE_CURVE('', #44, #46, #220, .T.);
#434 = EDGE_CURVE('', #46, #48, #224, .T.);
#435 = EDGE_CURVE('', #52, #50, #228, .T.);
#436 = EDGE_CURVE('', #48, #52, #232, .T.);
#437 = EDGE_CURVE('', #42, #50, #236, .T.);
#438 = EDGE_CURVE('', #50, #24, #240, .T.);
#439 = EDGE_CURVE('', #44, #10, #244, .T.);
#440 = EDGE_CURVE('', #42, #26, #248, .T.);
#441 = EDGE_CURVE('', #56, #54, #252, .T.);
#442 = EDGE_CURVE('', #58, #60, #256, .T.);
#443 = EDGE_CURVE('', #60, #56, #260, .T.);
#444 = EDGE_CURVE('', #62, #58, #264, .T.);
#445 = EDGE_CURVE('', #64, #66, #268, .T.);
#446 = EDGE_CURVE('', #68, #70, #272, .T.);
#447 = EDGE_CURVE('', #70, #66, #276, .T.);
#448 = EDGE_CURVE('', #68, #72, #280, .T.);
#449 = EDGE_CURVE('', #62, #72, #284, .T.);
#450 = EDGE_CURVE('', #54, #64, #288, .T.);
#451 = EDGE_CURVE('', #72, #48, #292, .T.);
#452 = EDGE_CURVE('', #58, #10, #296, .T.);
#453 = EDGE_CURVE('', #60, #70, #300, .T.);
#454 = EDGE_CURVE('', #62, #46, #304, .T.);
#455 = EDGE_CURVE('', #68, #16, #308, .T.);
#456 = EDGE_CURVE('', #74, #84, #313, .T.);
#457 = EDGE_CURVE('', #74, #82, #318, .T.);
#458 = EDGE_CURVE('', #78, #88, #323, .T.);
#459 = EDGE_CURVE('', #78, #86, #328, .T.);
#460 = EDGE_CURVE('', #82, #76, #333, .T.);
#461 = EDGE_CURVE('', #84, #76, #338, .T.);
#462 = EDGE_CURVE('', #86, #80, #343, .T.);
#463 = EDGE_CURVE('', #88, #80, #348, .T.);
#464 = EDGE_CURVE('', #76, #80, #352, .T.);
#465 = EDGE_CURVE('', #74, #78, #356, .T.);
#466 = EDGE_CURVE('', #90, #100, #361, .T.);
#467 = EDGE_CURVE('', #90, #98, #366, .T.);
#468 = EDGE_CURVE('', #94, #104, #371, .T.);
#469 = EDGE_CURVE('', #94, #102, #376, .T.);
#470 = EDGE_CURVE('', #98, #92, #381, .T.);
#471 = EDGE_CURVE('', #100, #92, #386, .T.);
#472 = EDGE_CURVE('', #102, #96, #391, .T.);
#473 = EDGE_CURVE('', #104, #96, #396, .T.);
#474 = EDGE_CURVE('', #92, #96, #400, .T.);
#475 = EDGE_CURVE('', #90, #94, #404, .T.);
#476 = CARTESIAN_POINT('', (5.99999999, 7.47855339, 0.47855338));
#477 = DIRECTION('', (0., -0.70710678, 0.70710678));
#478 = AXIS2_PLACEMENT_3D('', #476, #477, $);
#479 = PLANE('', #478);
#480 = CARTESIAN_POINT('', (0.24999999, 7.25, 6.24999998));
#481 = DIRECTION('', (0.70710678, -0.70710678, -0.));
#482 = AXIS2_PLACEMENT_3D('', #480, #481, $);
#483 = PLANE('', #482);
#484 = CARTESIAN_POINT('', (11.74999998, 7.25, 6.24999998));
#485 = DIRECTION('', (-0.70710678, -0.70710678, -0.));
#486 = AXIS2_PLACEMENT_3D('', #484, #485, $);
#487 = PLANE('', #486);
#488 = CARTESIAN_POINT('', (0., 7.5, 0.));
#489 = DIRECTION('', (0., -1., 0.));
#490 = AXIS2_PLACEMENT_3D('', #488, #489, $);
#491 = PLANE('', #490);
#492 = CARTESIAN_POINT('', (5.99999999, -7.47855339, 0.47855338));
#493 = DIRECTION('', (-0., -0.70710678, -0.70710678));
#494 = AXIS2_PLACEMENT_3D('', #492, #493, $);
#495 = PLANE('', #494);
#496 = CARTESIAN_POINT('', (0.24999999, -7.25, 6.24999998));
#497 = DIRECTION('', (0.70710678, 0.70710678, -0.));
#498 = AXIS2_PLACEMENT_3D('', #496, #497, $);
#499 = PLANE('', #498);
#500 = CARTESIAN_POINT('', (11.74999998, -7.25, 6.24999998));
#501 = DIRECTION('', (-0.70710678, 0.70710678, -0.));
#502 = AXIS2_PLACEMENT_3D('', #500, #501, $);
#503 = PLANE('', #502);
#504 = CARTESIAN_POINT('', (0., -7.5, 0.));
#505 = DIRECTION('', (0., -1., 0.));
#506 = AXIS2_PLACEMENT_3D('', #504, #505, $);
#507 = PLANE('', #506);
#508 = CARTESIAN_POINT('', (0.24999999, -0., 0.24999999));
#509 = DIRECTION('', (0.70710678, -0., 0.70710678));
#510 = AXIS2_PLACEMENT_3D('', #508, #509, $);
#511 = PLANE('', #510);
#512 = CARTESIAN_POINT('', (-0.00000001, 0., 5.99999997));
#513 = DIRECTION('', (-1., -0., -0.));
#514 = AXIS2_PLACEMENT_3D('', #512, #513, $);
#515 = PLANE('', #514);
#516 = CARTESIAN_POINT('', (5.99999999, 0., -0.00000001));
#517 = DIRECTION('', (-0., -0., -1.));
#518 = AXIS2_PLACEMENT_3D('', #516, #517, $);
#519 = PLANE('', #518);
#520 = CARTESIAN_POINT('', (11.74999998, 0., 0.24999998));
#521 = DIRECTION('', (-0.70710678, 0., 0.70710678));
#522 = AXIS2_PLACEMENT_3D('', #520, #521, $);
#523 = PLANE('', #522);
#524 = CARTESIAN_POINT('', (0.24999999, 0., 11.74999996));
#525 = DIRECTION('', (0.70710678, -0., -0.70710678));
#526 = AXIS2_PLACEMENT_3D('', #524, #525, $);
#527 = PLANE('', #526);
#528 = CARTESIAN_POINT('', (5.99999998, 0., 11.99999996));
#529 = DIRECTION('', (-0., 0., 1.));
#530 = AXIS2_PLACEMENT_3D('', #528, #529, $);
#531 = PLANE('', #530);
#532 = CARTESIAN_POINT('', (2.49999999, 0., 7.24999997));
#533 = DIRECTION('', (-1., -0., -0.));
#534 = AXIS2_PLACEMENT_3D('', #532, #533, $);
#535 = PLANE('', #534);
#536 = CARTESIAN_POINT('', (7.24999999, 0., 2.49999999));
#537 = DIRECTION('', (-0., -0., -1.));
#538 = AXIS2_PLACEMENT_3D('', #536, #537, $);
#539 = PLANE('', #538);
#540 = CARTESIAN_POINT('', (5.99999998, -7.25, 11.74999996));
#541 = DIRECTION('', (0., 0.70710678, -0.70710678));
#542 = AXIS2_PLACEMENT_3D('', #540, #541, $);
#543 = PLANE('', #542);
#544 = CARTESIAN_POINT('', (11.99999998, 0., 5.99999998));
#545 = DIRECTION('', (1., 0., 0.));
#546 = AXIS2_PLACEMENT_3D('', #544, #545, $);
#547 = PLANE('', #546);
#548 = CARTESIAN_POINT('', (5.99999998, 7.25, 11.74999996));
#549 = DIRECTION('', (0., -0.70710678, -0.70710678));
#550 = AXIS2_PLACEMENT_3D('', #548, #549, $);
#551 = PLANE('', #550);
#552 = CARTESIAN_POINT('', (1.25, 0., 6.));
#553 = DIRECTION('', (1., -0., -0.));
#554 = DIRECTION('', (0., 1., 0.));
#555 = AXIS2_PLACEMENT_3D('', #552, #553, #554);
#556 = CYLINDRICAL_SURFACE('', #555, 1.6);
#557 = CARTESIAN_POINT('', (6., -0., 1.25));
#558 = DIRECTION('', (0., -0., 1.));
#559 = DIRECTION('', (1., 0., 0.));
#560 = AXIS2_PLACEMENT_3D('', #557, #558, #559);
#561 = CYLINDRICAL_SURFACE('', #560, 1.6);
#562 = ORIENTED_EDGE('', *, *, #415, .T.);
#563 = ORIENTED_EDGE('', *, *, #421, .T.);
#564 = ORIENTED_EDGE('', *, *, #407, .F.);
#565 = ORIENTED_EDGE('', *, *, #406, .T.);
#566 = ORIENTED_EDGE('', *, *, #424, .T.);
#567 = ORIENTED_EDGE('', *, *, #422, .F.);
#568 = EDGE_LOOP('', (#562, #563, #564, #565, #566, #567));
#569 = FACE_BOUND('', #568, .T.);
#570 = ADVANCED_FACE('', (#569), #479, .F.);
#571 = ORIENTED_EDGE('', *, *, #432, .T.);
#572 = ORIENTED_EDGE('', *, *, #439, .T.);
#573 = ORIENTED_EDGE('', *, *, #408, .T.);
#574 = ORIENTED_EDGE('', *, *, #421, .F.);
#575 = ORIENTED_EDGE('', *, *, #417, .T.);
#576 = ORIENTED_EDGE('', *, *, #440, .F.);
#577 = EDGE_LOOP('', (#571, #572, #573, #574, #575, #576));
#578 = FACE_BOUND('', #577, .T.);
#579 = ADVANCED_FACE('', (#578), #483, .F.);
#580 = ORIENTED_EDGE('', *, *, #425, .T.);
#581 = ORIENTED_EDGE('', *, *, #406, .F.);
#582 = ORIENTED_EDGE('', *, *, #405, .T.);
#583 = ORIENTED_EDGE('', *, *, #441, .T.);
#584 = ORIENTED_EDGE('', *, *, #431, .F.);
#585 = EDGE_LOOP('', (#580, #581, #582, #583, #584));
#586 = FACE_BOUND('', #585, .T.);
#587 = ADVANCED_FACE('', (#586), #487, .F.);
#588 = ORIENTED_EDGE('', *, *, #452, .F.);
#589 = ORIENTED_EDGE('', *, *, #442, .T.);
#590 = ORIENTED_EDGE('', *, *, #443, .T.);
#591 = ORIENTED_EDGE('', *, *, #405, .F.);
#592 = ORIENTED_EDGE('', *, *, #407, .T.);
#593 = ORIENTED_EDGE('', *, *, #408, .F.);
#594 = EDGE_LOOP('', (#588, #589, #590, #591, #592, #593));
#595 = FACE_BOUND('', #594, .T.);
#596 = ADVANCED_FACE('', (#595), #491, .F.);
#597 = ORIENTED_EDGE('', *, *, #423, .T.);
#598 = ORIENTED_EDGE('', *, *, #427, .F.);
#599 = ORIENTED_EDGE('', *, *, #410, .F.);
#600 = ORIENTED_EDGE('', *, *, #411, .T.);
#601 = ORIENTED_EDGE('', *, *, #420, .F.);
#602 = ORIENTED_EDGE('', *, *, #418, .F.);
#603 = EDGE_LOOP('', (#597, #598, #599, #600, #601, #602));
#604 = FACE_BOUND('', #603, .T.);
#605 = ADVANCED_FACE('', (#604), #495, .T.);
#606 = ORIENTED_EDGE('', *, *, #412, .T.);
#607 = ORIENTED_EDGE('', *, *, #435, .T.);
#608 = ORIENTED_EDGE('', *, *, #438, .T.);
#609 = ORIENTED_EDGE('', *, *, #419, .T.);
#610 = ORIENTED_EDGE('', *, *, #420, .T.);
#611 = ORIENTED_EDGE('', *, *, #413, .F.);
#612 = EDGE_LOOP('', (#606, #607, #608, #609, #610, #611));
#613 = FACE_BOUND('', #612, .T.);
#614 = ADVANCED_FACE('', (#613), #499, .F.);
#615 = ORIENTED_EDGE('', *, *, #410, .T.);
#616 = ORIENTED_EDGE('', *, *, #428, .T.);
#617 = ORIENTED_EDGE('', *, *, #430, .T.);
#618 = ORIENTED_EDGE('', *, *, #445, .T.);
#619 = ORIENTED_EDGE('', *, *, #409, .F.);
#620 = EDGE_LOOP('', (#615, #616, #617, #618, #619));
#621 = FACE_BOUND('', #620, .T.);
#622 = ADVANCED_FACE('', (#621), #503, .F.);
#623 = ORIENTED_EDGE('', *, *, #413, .T.);
#624 = ORIENTED_EDGE('', *, *, #411, .F.);
#625 = ORIENTED_EDGE('', *, *, #409, .T.);
#626 = ORIENTED_EDGE('', *, *, #447, .F.);
#627 = ORIENTED_EDGE('', *, *, #446, .F.);
#628 = ORIENTED_EDGE('', *, *, #455, .T.);
#629 = EDGE_LOOP('', (#623, #624, #625, #626, #627, #628));
#630 = FACE_BOUND('', #629, .T.);
#631 = ADVANCED_FACE('', (#630), #507, .T.);
#632 = ORIENTED_EDGE('', *, *, #418, .T.);
#633 = ORIENTED_EDGE('', *, *, #419, .F.);
#634 = ORIENTED_EDGE('', *, *, #416, .T.);
#635 = ORIENTED_EDGE('', *, *, #417, .F.);
#636 = ORIENTED_EDGE('', *, *, #415, .F.);
#637 = ORIENTED_EDGE('', *, *, #414, .F.);
#638 = EDGE_LOOP('', (#632, #633, #634, #635, #636, #637));
#639 = FACE_BOUND('', #638, .T.);
#640 = ADVANCED_FACE('', (#639), #511, .F.);
#641 = ORIENTED_EDGE('', *, *, #438, .F.);
#642 = ORIENTED_EDGE('', *, *, #437, .F.);
#643 = ORIENTED_EDGE('', *, *, #440, .T.);
#644 = ORIENTED_EDGE('', *, *, #416, .F.);
#645 = ORIENTED_EDGE('', *, *, #456, .T.);
#646 = ORIENTED_EDGE('', *, *, #461, .T.);
#647 = ORIENTED_EDGE('', *, *, #460, .F.);
#648 = ORIENTED_EDGE('', *, *, #457, .F.);
#649 = EDGE_LOOP('', (#641, #642, #643, #644));
#650 = FACE_BOUND('', #649, .T.);
#651 = EDGE_LOOP('', (#645, #646, #647, #648));
#652 = FACE_BOUND('', #651, .T.);
#653 = ADVANCED_FACE('', (#650, #652), #515, .T.);
#654 = ORIENTED_EDGE('', *, *, #422, .T.);
#655 = ORIENTED_EDGE('', *, *, #429, .T.);
#656 = ORIENTED_EDGE('', *, *, #423, .F.);
#657 = ORIENTED_EDGE('', *, *, #414, .T.);
#658 = ORIENTED_EDGE('', *, *, #466, .T.);
#659 = ORIENTED_EDGE('', *, *, #471, .T.);
#660 = ORIENTED_EDGE('', *, *, #470, .F.);
#661 = ORIENTED_EDGE('', *, *, #467, .F.);
#662 = EDGE_LOOP('', (#654, #655, #656, #657));
#663 = FACE_BOUND('', #662, .T.);
#664 = EDGE_LOOP('', (#658, #659, #660, #661));
#665 = FACE_BOUND('', #664, .T.);
#666 = ADVANCED_FACE('', (#663, #665), #519, .T.);
#667 = ORIENTED_EDGE('', *, *, #424, .F.);
#668 = ORIENTED_EDGE('', *, *, #425, .F.);
#669 = ORIENTED_EDGE('', *, *, #426, .T.);
#670 = ORIENTED_EDGE('', *, *, #428, .F.);
#671 = ORIENTED_EDGE('', *, *, #427, .T.);
#672 = ORIENTED_EDGE('', *, *, #429, .F.);
#673 = EDGE_LOOP('', (#667, #668, #669, #670, #671, #672));
#674 = FACE_BOUND('', #673, .T.);
#675 = ADVANCED_FACE('', (#674), #523, .F.);
#676 = ORIENTED_EDGE('', *, *, #433, .F.);
#677 = ORIENTED_EDGE('', *, *, #432, .F.);
#678 = ORIENTED_EDGE('', *, *, #437, .T.);
#679 = ORIENTED_EDGE('', *, *, #435, .F.);
#680 = ORIENTED_EDGE('', *, *, #436, .F.);
#681 = ORIENTED_EDGE('', *, *, #434, .F.);
#682 = EDGE_LOOP('', (#676, #677, #678, #679, #680, #681));
#683 = FACE_BOUND('', #682, .T.);
#684 = ADVANCED_FACE('', (#683), #527, .F.);
#685 = ORIENTED_EDGE('', *, *, #451, .F.);
#686 = ORIENTED_EDGE('', *, *, #449, .F.);
#687 = ORIENTED_EDGE('', *, *, #454, .T.);
#688 = ORIENTED_EDGE('', *, *, #434, .T.);
#689 = EDGE_LOOP('', (#685, #686, #687, #688));
#690 = FACE_BOUND('', #689, .T.);
#691 = ADVANCED_FACE('', (#690), #531, .T.);
#692 = ORIENTED_EDGE('', *, *, #442, .F.);
#693 = ORIENTED_EDGE('', *, *, #444, .F.);
#694 = ORIENTED_EDGE('', *, *, #449, .T.);
#695 = ORIENTED_EDGE('', *, *, #448, .F.);
#696 = ORIENTED_EDGE('', *, *, #446, .T.);
#697 = ORIENTED_EDGE('', *, *, #453, .F.);
#698 = ORIENTED_EDGE('', *, *, #459, .T.);
#699 = ORIENTED_EDGE('', *, *, #462, .T.);
#700 = ORIENTED_EDGE('', *, *, #463, .F.);
#701 = ORIENTED_EDGE('', *, *, #458, .F.);
#702 = EDGE_LOOP('', (#692, #693, #694, #695, #696, #697));
#703 = FACE_BOUND('', #702, .T.);
#704 = EDGE_LOOP('', (#698, #699, #700, #701));
#705 = FACE_BOUND('', #704, .T.);
#706 = ADVANCED_FACE('', (#703, #705), #535, .F.);
#707 = ORIENTED_EDGE('', *, *, #441, .F.);
#708 = ORIENTED_EDGE('', *, *, #443, .F.);
#709 = ORIENTED_EDGE('', *, *, #453, .T.);
#710 = ORIENTED_EDGE('', *, *, #447, .T.);
#711 = ORIENTED_EDGE('', *, *, #445, .F.);
#712 = ORIENTED_EDGE('', *, *, #450, .F.);
#713 = ORIENTED_EDGE('', *, *, #469, .T.);
#714 = ORIENTED_EDGE('', *, *, #472, .T.);
#715 = ORIENTED_EDGE('', *, *, #473, .F.);
#716 = ORIENTED_EDGE('', *, *, #468, .F.);
#717 = EDGE_LOOP('', (#707, #708, #709, #710, #711, #712));
#718 = FACE_BOUND('', #717, .T.);
#719 = EDGE_LOOP('', (#713, #714, #715, #716));
#720 = FACE_BOUND('', #719, .T.);
#721 = ADVANCED_FACE('', (#718, #720), #539, .F.);
#722 = ORIENTED_EDGE('', *, *, #448, .T.);
#723 = ORIENTED_EDGE('', *, *, #451, .T.);
#724 = ORIENTED_EDGE('', *, *, #436, .T.);
#725 = ORIENTED_EDGE('', *, *, #412, .F.);
#726 = ORIENTED_EDGE('', *, *, #455, .F.);
#727 = EDGE_LOOP('', (#722, #723, #724, #725, #726));
#728 = FACE_BOUND('', #727, .T.);
#729 = ADVANCED_FACE('', (#728), #543, .F.);
#730 = ORIENTED_EDGE('', *, *, #430, .F.);
#731 = ORIENTED_EDGE('', *, *, #426, .F.);
#732 = ORIENTED_EDGE('', *, *, #431, .T.);
#733 = ORIENTED_EDGE('', *, *, #450, .T.);
#734 = EDGE_LOOP('', (#730, #731, #732, #733));
#735 = FACE_BOUND('', #734, .T.);
#736 = ADVANCED_FACE('', (#735), #547, .T.);
#737 = ORIENTED_EDGE('', *, *, #444, .T.);
#738 = ORIENTED_EDGE('', *, *, #452, .T.);
#739 = ORIENTED_EDGE('', *, *, #439, .F.);
#740 = ORIENTED_EDGE('', *, *, #433, .T.);
#741 = ORIENTED_EDGE('', *, *, #454, .F.);
#742 = EDGE_LOOP('', (#737, #738, #739, #740, #741));
#743 = FACE_BOUND('', #742, .T.);
#744 = ADVANCED_FACE('', (#743), #551, .F.);
#745 = ORIENTED_EDGE('', *, *, #461, .F.);
#746 = ORIENTED_EDGE('', *, *, #456, .F.);
#747 = ORIENTED_EDGE('', *, *, #465, .T.);
#748 = ORIENTED_EDGE('', *, *, #458, .T.);
#749 = ORIENTED_EDGE('', *, *, #463, .T.);
#750 = ORIENTED_EDGE('', *, *, #464, .F.);
#751 = EDGE_LOOP('', (#745, #746, #747, #748, #749, #750));
#752 = FACE_BOUND('', #751, .T.);
#753 = ADVANCED_FACE('', (#752), #556, .F.);
#754 = ORIENTED_EDGE('', *, *, #462, .F.);
#755 = ORIENTED_EDGE('', *, *, #459, .F.);
#756 = ORIENTED_EDGE('', *, *, #465, .F.);
#757 = ORIENTED_EDGE('', *, *, #457, .T.);
#758 = ORIENTED_EDGE('', *, *, #460, .T.);
#759 = ORIENTED_EDGE('', *, *, #464, .T.);
#760 = EDGE_LOOP('', (#754, #755, #756, #757, #758, #759));
#761 = FACE_BOUND('', #760, .T.);
#762 = ADVANCED_FACE('', (#761), #556, .F.);
#763 = ORIENTED_EDGE('', *, *, #471, .F.);
#764 = ORIENTED_EDGE('', *, *, #466, .F.);
#765 = ORIENTED_EDGE('', *, *, #475, .T.);
#766 = ORIENTED_EDGE('', *, *, #468, .T.);
#767 = ORIENTED_EDGE('', *, *, #473, .T.);
#768 = ORIENTED_EDGE('', *, *, #474, .F.);
#769 = EDGE_LOOP('', (#763, #764, #765, #766, #767, #768));
#770 = FACE_BOUND('', #769, .T.);
#771 = ADVANCED_FACE('', (#770), #561, .F.);
#772 = ORIENTED_EDGE('', *, *, #472, .F.);
#773 = ORIENTED_EDGE('', *, *, #469, .F.);
#774 = ORIENTED_EDGE('', *, *, #475, .F.);
#775 = ORIENTED_EDGE('', *, *, #467, .T.);
#776 = ORIENTED_EDGE('', *, *, #470, .T.);
#777 = ORIENTED_EDGE('', *, *, #474, .T.);
#778 = EDGE_LOOP('', (#772, #773, #774, #775, #776, #777));
#779 = FACE_BOUND('', #778, .T.);
#780 = ADVANCED_FACE('', (#779), #561, .F.);
#781 = CLOSED_SHELL('', (#570, #579, #587, #596, #605, #614, #622, #631, #640, #653, #666, #675, #684, #691, #706, #721, #729, #736, #744, #753, #762, #771, #780));
#782 = MANIFOLD_SOLID_BREP('', #781);
#783 = APPLICATION_CONTEXT('configuration controlled 3D design of mechanical parts and assemblies');
#784 = PRODUCT_DEFINITION_CONTEXT('part definition', #783, 'design');
#785 = PRODUCT_CONTEXT('', #783, 'mechanical');
#786 = PRODUCT('UNIDENTIFIED_PRODUCT', '', $, (#785));
#787 = PRODUCT_DEFINITION_FORMATION('', $, #786);
#788 = PRODUCT_DEFINITION('design', $, #787, #784);
#789 = PRODUCT_DEFINITION_SHAPE('', '', #788);
#790 = ADVANCED_BREP_SHAPE_REPRESENTATION('', (#782), #4);
#791 = SHAPE_DEFINITION_REPRESENTATION(#789, #790);
#792 = COLOUR_RGB('', 0.43921569, 0.4627451, 0.49411765);
#793 = FILL_AREA_STYLE_COLOUR('', #792);
#794 = FILL_AREA_STYLE('', (#793));
#795 = SURFACE_STYLE_FILL_AREA(#794);
#796 = SURFACE_SIDE_STYLE('', (#795));
#797 = SURFACE_STYLE_USAGE(.BOTH., #796);
#798 = PRESENTATION_STYLE_ASSIGNMENT((#797));
#799 = STYLED_ITEM('', (#798), #782);
#800 = MECHANICAL_DESIGN_GEOMETRIC_PRESENTATION_REPRESENTATION('', (#799), #4);
ENDSEC;
END-ISO-10303-21;
