ISO-10303-21;
HEADER;
FILE_DESCRIPTION(('zoo.dev export'), '2;1');
FILE_NAME('output.step', '2026-06-10T14:22:35.594814912+00:00', (''), (''), 'zoo.dev beta', 'zoo.dev', '');
FILE_SCHEMA(('AP242_MANAGED_MODEL_BASED_3D_ENGINEERING_MIM_LF'));
ENDSEC;
DATA;
#1 = (
  LENGTH_UNIT()
  NAMED_UNIT(*)
  SI_UNIT(.MILLI., .METRE.)
);
#2 = (
  NAMED_UNIT(*)
  PLANE_ANGLE_UNIT()
  SI_UNIT($, .RADIAN.)
);
#3 = UNCERTAINTY_MEASURE_WITH_UNIT(LENGTH_MEASURE(0.01), #1, 'DISTANCE_ACCURACY_VALUE', $);
#4 = (
  GEOMETRIC_REPRESENTATION_CONTEXT(3)
  GLOBAL_UNCERTAINTY_ASSIGNED_CONTEXT((#3))
  GLOBAL_UNIT_ASSIGNED_CONTEXT((#1, #2))
  REPRESENTATION_CONTEXT('3D', '3D context')
);
#5 = CARTESIAN_POINT('', (-52., 40., 0.));
#6 = VERTEX_POINT('', #5);
#7 = CARTESIAN_POINT('', (-60., 32., 0.));
#8 = VERTEX_POINT('', #7);
#9 = CARTESIAN_POINT('', (-60., 32., 60.));
#10 = VERTEX_POINT('', #9);
#11 = CARTESIAN_POINT('', (-52., 40., 60.));
#12 = VERTEX_POINT('', #11);
#13 = CARTESIAN_POINT('', (-60., -32., 0.));
#14 = VERTEX_POINT('', #13);
#15 = CARTESIAN_POINT('', (-60., -32., 60.));
#16 = VERTEX_POINT('', #15);
#17 = CARTESIAN_POINT('', (-52., -40., 0.));
#18 = VERTEX_POINT('', #17);
#19 = CARTESIAN_POINT('', (-52., -40., 60.));
#20 = VERTEX_POINT('', #19);
#21 = CARTESIAN_POINT('', (52., -40., 0.));
#22 = VERTEX_POINT('', #21);
#23 = CARTESIAN_POINT('', (52., -40., 60.));
#24 = VERTEX_POINT('', #23);
#25 = CARTESIAN_POINT('', (60., -32., 0.));
#26 = VERTEX_POINT('', #25);
#27 = CARTESIAN_POINT('', (60., -32., 60.));
#28 = VERTEX_POINT('', #27);
#29 = CARTESIAN_POINT('', (60., 32., 0.));
#30 = VERTEX_POINT('', #29);
#31 = CARTESIAN_POINT('', (60., 32., 60.));
#32 = VERTEX_POINT('', #31);
#33 = CARTESIAN_POINT('', (52., 40., 0.));
#34 = VERTEX_POINT('', #33);
#35 = CARTESIAN_POINT('', (52., 40., 60.));
#36 = VERTEX_POINT('', #35);
#37 = CARTESIAN_POINT('', (-52., 37.5, 2.5));
#38 = VERTEX_POINT('', #37);
#39 = CARTESIAN_POINT('', (-57.5, 32., 2.5));
#40 = VERTEX_POINT('', #39);
#41 = CARTESIAN_POINT('', (-57.5, -32., 2.5));
#42 = VERTEX_POINT('', #41);
#43 = CARTESIAN_POINT('', (-52., -37.5, 2.5));
#44 = VERTEX_POINT('', #43);
#45 = CARTESIAN_POINT('', (52., -37.5, 2.5));
#46 = VERTEX_POINT('', #45);
#47 = CARTESIAN_POINT('', (57.5, -32., 2.5));
#48 = VERTEX_POINT('', #47);
#49 = CARTESIAN_POINT('', (57.5, 32., 2.5));
#50 = VERTEX_POINT('', #49);
#51 = CARTESIAN_POINT('', (52., 37.5, 2.5));
#52 = VERTEX_POINT('', #51);
#53 = CARTESIAN_POINT('', (-52., 37.5, 60.));
#54 = VERTEX_POINT('', #53);
#55 = CARTESIAN_POINT('', (-57.5, 32., 60.));
#56 = VERTEX_POINT('', #55);
#57 = CARTESIAN_POINT('', (-57.5, -32., 60.));
#58 = VERTEX_POINT('', #57);
#59 = CARTESIAN_POINT('', (-52., -37.5, 60.));
#60 = VERTEX_POINT('', #59);
#61 = CARTESIAN_POINT('', (52., -37.5, 60.));
#62 = VERTEX_POINT('', #61);
#63 = CARTESIAN_POINT('', (57.5, -32., 60.));
#64 = VERTEX_POINT('', #63);
#65 = CARTESIAN_POINT('', (57.5, 32., 60.));
#66 = VERTEX_POINT('', #65);
#67 = CARTESIAN_POINT('', (52., 37.5, 60.));
#68 = VERTEX_POINT('', #67);
#69 = CARTESIAN_POINT('', (3., -40., 10.));
#70 = VERTEX_POINT('', #69);
#71 = CARTESIAN_POINT('', (3., -40., 30.));
#72 = VERTEX_POINT('', #71);
#73 = CARTESIAN_POINT('', (-3., -40., 30.));
#74 = VERTEX_POINT('', #73);
#75 = CARTESIAN_POINT('', (-3., -40., 10.));
#76 = VERTEX_POINT('', #75);
#77 = CARTESIAN_POINT('', (3., -37.5, 10.));
#78 = VERTEX_POINT('', #77);
#79 = CARTESIAN_POINT('', (3., -37.5, 30.));
#80 = VERTEX_POINT('', #79);
#81 = CARTESIAN_POINT('', (-3., -37.5, 30.));
#82 = VERTEX_POINT('', #81);
#83 = CARTESIAN_POINT('', (-3., -37.5, 10.));
#84 = VERTEX_POINT('', #83);
#85 = CARTESIAN_POINT('', (-25.5, 40., 37.5));
#86 = VERTEX_POINT('', #85);
#87 = CARTESIAN_POINT('', (-25.5, 40., 22.5));
#88 = VERTEX_POINT('', #87);
#89 = CARTESIAN_POINT('', (-27.5, 40., 37.5));
#90 = VERTEX_POINT('', #89);
#91 = CARTESIAN_POINT('', (-27.5, 40., 22.5));
#92 = VERTEX_POINT('', #91);
#93 = CARTESIAN_POINT('', (-25.5, 37.5, 37.5));
#94 = VERTEX_POINT('', #93);
#95 = CARTESIAN_POINT('', (-25.5, 37.5, 22.5));
#96 = VERTEX_POINT('', #95);
#97 = CARTESIAN_POINT('', (-27.5, 37.5, 37.5));
#98 = VERTEX_POINT('', #97);
#99 = CARTESIAN_POINT('', (-27.5, 37.5, 22.5));
#100 = VERTEX_POINT('', #99);
#101 = CARTESIAN_POINT('', (1., 40., 37.5));
#102 = VERTEX_POINT('', #101);
#103 = CARTESIAN_POINT('', (1., 40., 22.5));
#104 = VERTEX_POINT('', #103);
#105 = CARTESIAN_POINT('', (-1., 40., 37.5));
#106 = VERTEX_POINT('', #105);
#107 = CARTESIAN_POINT('', (-1., 40., 22.5));
#108 = VERTEX_POINT('', #107);
#109 = CARTESIAN_POINT('', (1., 37.5, 37.5));
#110 = VERTEX_POINT('', #109);
#111 = CARTESIAN_POINT('', (1., 37.5, 22.5));
#112 = VERTEX_POINT('', #111);
#113 = CARTESIAN_POINT('', (-1., 37.5, 37.5));
#114 = VERTEX_POINT('', #113);
#115 = CARTESIAN_POINT('', (-1., 37.5, 22.5));
#116 = VERTEX_POINT('', #115);
#117 = CARTESIAN_POINT('', (27.5, 40., 37.5));
#118 = VERTEX_POINT('', #117);
#119 = CARTESIAN_POINT('', (27.5, 40., 22.5));
#120 = VERTEX_POINT('', #119);
#121 = CARTESIAN_POINT('', (25.5, 40., 37.5));
#122 = VERTEX_POINT('', #121);
#123 = CARTESIAN_POINT('', (25.5, 40., 22.5));
#124 = VERTEX_POINT('', #123);
#125 = CARTESIAN_POINT('', (27.5, 37.5, 37.5));
#126 = VERTEX_POINT('', #125);
#127 = CARTESIAN_POINT('', (27.5, 37.5, 22.5));
#128 = VERTEX_POINT('', #127);
#129 = CARTESIAN_POINT('', (25.5, 37.5, 37.5));
#130 = VERTEX_POINT('', #129);
#131 = CARTESIAN_POINT('', (25.5, 37.5, 22.5));
#132 = VERTEX_POINT('', #131);
#133 = DIRECTION('', (0., 1., 0.));
#134 = DIRECTION('', (0., -0., 1.));
#135 = CARTESIAN_POINT('', (-52., 32., 0.));
#136 = AXIS2_PLACEMENT_3D('', #135, #134, #133);
#137 = CIRCLE('', #136, 8.);
#138 = DIRECTION('', (0., -0., 1.));
#139 = VECTOR('', #138, 1.);
#140 = CARTESIAN_POINT('', (-60., 32., 0.));
#141 = LINE('', #140, #139);
#142 = DIRECTION('', (0., 1., 0.));
#143 = DIRECTION('', (0., -0., 1.));
#144 = CARTESIAN_POINT('', (-52., 32., 60.));
#145 = AXIS2_PLACEMENT_3D('', #144, #143, #142);
#146 = CIRCLE('', #145, 8.);
#147 = DIRECTION('', (0., -0., 1.));
#148 = VECTOR('', #147, 1.);
#149 = CARTESIAN_POINT('', (-52., 40., 0.));
#150 = LINE('', #149, #148);
#151 = DIRECTION('', (0., -1., 0.));
#152 = VECTOR('', #151, 1.);
#153 = CARTESIAN_POINT('', (-60., 32., 0.));
#154 = LINE('', #153, #152);
#155 = DIRECTION('', (0., -0., 1.));
#156 = VECTOR('', #155, 1.);
#157 = CARTESIAN_POINT('', (-60., -32., 0.));
#158 = LINE('', #157, #156);
#159 = DIRECTION('', (0., -1., 0.));
#160 = VECTOR('', #159, 1.);
#161 = CARTESIAN_POINT('', (-60., 32., 60.));
#162 = LINE('', #161, #160);
#163 = DIRECTION('', (-1., -0., 0.));
#164 = DIRECTION('', (0., 0., 1.));
#165 = CARTESIAN_POINT('', (-52., -32., 0.));
#166 = AXIS2_PLACEMENT_3D('', #165, #164, #163);
#167 = CIRCLE('', #166, 8.);
#168 = DIRECTION('', (0., -0., 1.));
#169 = VECTOR('', #168, 1.);
#170 = CARTESIAN_POINT('', (-52., -40., 0.));
#171 = LINE('', #170, #169);
#172 = DIRECTION('', (-1., -0., 0.));
#173 = DIRECTION('', (0., 0., 1.));
#174 = CARTESIAN_POINT('', (-52., -32., 60.));
#175 = AXIS2_PLACEMENT_3D('', #174, #173, #172);
#176 = CIRCLE('', #175, 8.);
#177 = DIRECTION('', (1., -0., 0.));
#178 = VECTOR('', #177, 1.);
#179 = CARTESIAN_POINT('', (-52., -40., 0.));
#180 = LINE('', #179, #178);
#181 = DIRECTION('', (0., -0., 1.));
#182 = VECTOR('', #181, 1.);
#183 = CARTESIAN_POINT('', (52., -40., 0.));
#184 = LINE('', #183, #182);
#185 = DIRECTION('', (1., -0., 0.));
#186 = VECTOR('', #185, 1.);
#187 = CARTESIAN_POINT('', (-52., -40., 60.));
#188 = LINE('', #187, #186);
#189 = DIRECTION('', (0., -1., 0.));
#190 = DIRECTION('', (-0., -0., 1.));
#191 = CARTESIAN_POINT('', (52., -32., 0.));
#192 = AXIS2_PLACEMENT_3D('', #191, #190, #189);
#193 = CIRCLE('', #192, 8.);
#194 = DIRECTION('', (0., -0., 1.));
#195 = VECTOR('', #194, 1.);
#196 = CARTESIAN_POINT('', (60., -32., 0.));
#197 = LINE('', #196, #195);
#198 = DIRECTION('', (0., -1., 0.));
#199 = DIRECTION('', (-0., -0., 1.));
#200 = CARTESIAN_POINT('', (52., -32., 60.));
#201 = AXIS2_PLACEMENT_3D('', #200, #199, #198);
#202 = CIRCLE('', #201, 8.);
#203 = DIRECTION('', (0., 1., 0.));
#204 = VECTOR('', #203, 1.);
#205 = CARTESIAN_POINT('', (60., -32., 0.));
#206 = LINE('', #205, #204);
#207 = DIRECTION('', (0., -0., 1.));
#208 = VECTOR('', #207, 1.);
#209 = CARTESIAN_POINT('', (60., 32., 0.));
#210 = LINE('', #209, #208);
#211 = DIRECTION('', (0., 1., 0.));
#212 = VECTOR('', #211, 1.);
#213 = CARTESIAN_POINT('', (60., -32., 60.));
#214 = LINE('', #213, #212);
#215 = DIRECTION('', (1., 0., 0.));
#216 = DIRECTION('', (0., -0., 1.));
#217 = CARTESIAN_POINT('', (52., 32., 0.));
#218 = AXIS2_PLACEMENT_3D('', #217, #216, #215);
#219 = CIRCLE('', #218, 8.);
#220 = DIRECTION('', (0., -0., 1.));
#221 = VECTOR('', #220, 1.);
#222 = CARTESIAN_POINT('', (52., 40., 0.));
#223 = LINE('', #222, #221);
#224 = DIRECTION('', (1., 0., 0.));
#225 = DIRECTION('', (0., -0., 1.));
#226 = CARTESIAN_POINT('', (52., 32., 60.));
#227 = AXIS2_PLACEMENT_3D('', #226, #225, #224);
#228 = CIRCLE('', #227, 8.);
#229 = DIRECTION('', (-1., -0., 0.));
#230 = VECTOR('', #229, 1.);
#231 = CARTESIAN_POINT('', (52., 40., 0.));
#232 = LINE('', #231, #230);
#233 = DIRECTION('', (-1., -0., 0.));
#234 = VECTOR('', #233, 1.);
#235 = CARTESIAN_POINT('', (52., 40., 60.));
#236 = LINE('', #235, #234);
#237 = DIRECTION('', (0., 1., 0.));
#238 = DIRECTION('', (0., -0., 1.));
#239 = CARTESIAN_POINT('', (-52., 32., 2.5));
#240 = AXIS2_PLACEMENT_3D('', #239, #238, #237);
#241 = CIRCLE('', #240, 5.5);
#242 = DIRECTION('', (0., -0., 1.));
#243 = VECTOR('', #242, 1.);
#244 = CARTESIAN_POINT('', (-57.5, 32., 2.5));
#245 = LINE('', #244, #243);
#246 = DIRECTION('', (0., -0., 1.));
#247 = VECTOR('', #246, 1.);
#248 = CARTESIAN_POINT('', (-52., 37.5, 2.5));
#249 = LINE('', #248, #247);
#250 = DIRECTION('', (0., -1., 0.));
#251 = VECTOR('', #250, 1.);
#252 = CARTESIAN_POINT('', (-57.5, 32., 2.5));
#253 = LINE('', #252, #251);
#254 = DIRECTION('', (0., -0., 1.));
#255 = VECTOR('', #254, 1.);
#256 = CARTESIAN_POINT('', (-57.5, -32., 2.5));
#257 = LINE('', #256, #255);
#258 = DIRECTION('', (-1., 0., 0.));
#259 = DIRECTION('', (0., -0., 1.));
#260 = CARTESIAN_POINT('', (-52., -32., 2.5));
#261 = AXIS2_PLACEMENT_3D('', #260, #259, #258);
#262 = CIRCLE('', #261, 5.5);
#263 = DIRECTION('', (0., -0., 1.));
#264 = VECTOR('', #263, 1.);
#265 = CARTESIAN_POINT('', (-52., -37.5, 2.5));
#266 = LINE('', #265, #264);
#267 = DIRECTION('', (1., -0., 0.));
#268 = VECTOR('', #267, 1.);
#269 = CARTESIAN_POINT('', (-52., -37.5, 2.5));
#270 = LINE('', #269, #268);
#271 = DIRECTION('', (0., -0., 1.));
#272 = VECTOR('', #271, 1.);
#273 = CARTESIAN_POINT('', (52., -37.5, 2.5));
#274 = LINE('', #273, #272);
#275 = DIRECTION('', (-0., -1., 0.));
#276 = DIRECTION('', (-0., 0., 1.));
#277 = CARTESIAN_POINT('', (52., -32., 2.5));
#278 = AXIS2_PLACEMENT_3D('', #277, #276, #275);
#279 = CIRCLE('', #278, 5.5);
#280 = DIRECTION('', (0., -0., 1.));
#281 = VECTOR('', #280, 1.);
#282 = CARTESIAN_POINT('', (57.5, -32., 2.5));
#283 = LINE('', #282, #281);
#284 = DIRECTION('', (0., 1., 0.));
#285 = VECTOR('', #284, 1.);
#286 = CARTESIAN_POINT('', (57.5, -32., 2.5));
#287 = LINE('', #286, #285);
#288 = DIRECTION('', (0., -0., 1.));
#289 = VECTOR('', #288, 1.);
#290 = CARTESIAN_POINT('', (57.5, 32., 2.5));
#291 = LINE('', #290, #289);
#292 = DIRECTION('', (1., -0., 0.));
#293 = DIRECTION('', (-0., -0., 1.));
#294 = CARTESIAN_POINT('', (52., 32., 2.5));
#295 = AXIS2_PLACEMENT_3D('', #294, #293, #292);
#296 = CIRCLE('', #295, 5.5);
#297 = DIRECTION('', (0., -0., 1.));
#298 = VECTOR('', #297, 1.);
#299 = CARTESIAN_POINT('', (52., 37.5, 2.5));
#300 = LINE('', #299, #298);
#301 = DIRECTION('', (-1., -0., 0.));
#302 = VECTOR('', #301, 1.);
#303 = CARTESIAN_POINT('', (52., 37.5, 2.5));
#304 = LINE('', #303, #302);
#305 = DIRECTION('', (-0., 1., 0.));
#306 = DIRECTION('', (0., -0., 1.));
#307 = CARTESIAN_POINT('', (-52., 32., 60.));
#308 = AXIS2_PLACEMENT_3D('', #307, #306, #305);
#309 = CIRCLE('', #308, 5.5);
#310 = DIRECTION('', (0., -1., 0.));
#311 = VECTOR('', #310, 1.);
#312 = CARTESIAN_POINT('', (-57.5, 32., 60.));
#313 = LINE('', #312, #311);
#314 = DIRECTION('', (-0., -1., 0.));
#315 = DIRECTION('', (-0., -0., -1.));
#316 = CARTESIAN_POINT('', (-52., -32., 60.));
#317 = AXIS2_PLACEMENT_3D('', #316, #315, #314);
#318 = CIRCLE('', #317, 5.5);
#319 = DIRECTION('', (1., -0., 0.));
#320 = VECTOR('', #319, 1.);
#321 = CARTESIAN_POINT('', (-52., -37.5, 60.));
#322 = LINE('', #321, #320);
#323 = DIRECTION('', (1., -0., 0.));
#324 = DIRECTION('', (0., -0., -1.));
#325 = CARTESIAN_POINT('', (52., -32., 60.));
#326 = AXIS2_PLACEMENT_3D('', #325, #324, #323);
#327 = CIRCLE('', #326, 5.5);
#328 = DIRECTION('', (0., 1., 0.));
#329 = VECTOR('', #328, 1.);
#330 = CARTESIAN_POINT('', (57.5, -32., 60.));
#331 = LINE('', #330, #329);
#332 = DIRECTION('', (1., 0., 0.));
#333 = DIRECTION('', (-0., -0., 1.));
#334 = CARTESIAN_POINT('', (52., 32., 60.));
#335 = AXIS2_PLACEMENT_3D('', #334, #333, #332);
#336 = CIRCLE('', #335, 5.5);
#337 = DIRECTION('', (-1., -0., 0.));
#338 = VECTOR('', #337, 1.);
#339 = CARTESIAN_POINT('', (52., 37.5, 60.));
#340 = LINE('', #339, #338);
#341 = DIRECTION('', (0., -0., 1.));
#342 = VECTOR('', #341, 1.);
#343 = CARTESIAN_POINT('', (3., -40., 10.));
#344 = LINE('', #343, #342);
#345 = DIRECTION('', (-1., -0., 0.));
#346 = VECTOR('', #345, 1.);
#347 = CARTESIAN_POINT('', (3., -40., 30.));
#348 = LINE('', #347, #346);
#349 = DIRECTION('', (0., -0., -1.));
#350 = VECTOR('', #349, 1.);
#351 = CARTESIAN_POINT('', (-3., -40., 30.));
#352 = LINE('', #351, #350);
#353 = DIRECTION('', (1., -0., 0.));
#354 = VECTOR('', #353, 1.);
#355 = CARTESIAN_POINT('', (-3., -40., 10.));
#356 = LINE('', #355, #354);
#357 = DIRECTION('', (0., -0., 1.));
#358 = VECTOR('', #357, 1.);
#359 = CARTESIAN_POINT('', (3., -37.5, 10.));
#360 = LINE('', #359, #358);
#361 = DIRECTION('', (-1., -0., 0.));
#362 = VECTOR('', #361, 1.);
#363 = CARTESIAN_POINT('', (3., -37.5, 30.));
#364 = LINE('', #363, #362);
#365 = DIRECTION('', (0., 0., -1.));
#366 = VECTOR('', #365, 1.);
#367 = CARTESIAN_POINT('', (-3., -37.5, 30.));
#368 = LINE('', #367, #366);
#369 = DIRECTION('', (1., -0., 0.));
#370 = VECTOR('', #369, 1.);
#371 = CARTESIAN_POINT('', (-3., -37.5, 10.));
#372 = LINE('', #371, #370);
#373 = DIRECTION('', (0., -1., 0.));
#374 = VECTOR('', #373, 1.);
#375 = CARTESIAN_POINT('', (-3., -37.5, 10.));
#376 = LINE('', #375, #374);
#377 = DIRECTION('', (0., -1., 0.));
#378 = VECTOR('', #377, 1.);
#379 = CARTESIAN_POINT('', (-3., -37.5, 30.));
#380 = LINE('', #379, #378);
#381 = DIRECTION('', (0., -1., 0.));
#382 = VECTOR('', #381, 1.);
#383 = CARTESIAN_POINT('', (3., -37.5, 30.));
#384 = LINE('', #383, #382);
#385 = DIRECTION('', (0., -1., 0.));
#386 = VECTOR('', #385, 1.);
#387 = CARTESIAN_POINT('', (3., -37.5, 10.));
#388 = LINE('', #387, #386);
#389 = DIRECTION('', (0., -0., -1.));
#390 = VECTOR('', #389, 1.);
#391 = CARTESIAN_POINT('', (-25.5, 40., 37.5));
#392 = LINE('', #391, #390);
#393 = DIRECTION('', (1., -0., 0.));
#394 = VECTOR('', #393, 1.);
#395 = CARTESIAN_POINT('', (-27.5, 40., 37.5));
#396 = LINE('', #395, #394);
#397 = DIRECTION('', (0., -0., 1.));
#398 = VECTOR('', #397, 1.);
#399 = CARTESIAN_POINT('', (-27.5, 40., 22.5));
#400 = LINE('', #399, #398);
#401 = DIRECTION('', (-1., -0., 0.));
#402 = VECTOR('', #401, 1.);
#403 = CARTESIAN_POINT('', (-25.5, 40., 22.5));
#404 = LINE('', #403, #402);
#405 = DIRECTION('', (0., -0., -1.));
#406 = VECTOR('', #405, 1.);
#407 = CARTESIAN_POINT('', (-25.5, 37.5, 37.5));
#408 = LINE('', #407, #406);
#409 = DIRECTION('', (1., -0., 0.));
#410 = VECTOR('', #409, 1.);
#411 = CARTESIAN_POINT('', (-27.5, 37.5, 37.5));
#412 = LINE('', #411, #410);
#413 = DIRECTION('', (0., 0., 1.));
#414 = VECTOR('', #413, 1.);
#415 = CARTESIAN_POINT('', (-27.5, 37.5, 22.5));
#416 = LINE('', #415, #414);
#417 = DIRECTION('', (-1., -0., 0.));
#418 = VECTOR('', #417, 1.);
#419 = CARTESIAN_POINT('', (-25.5, 37.5, 22.5));
#420 = LINE('', #419, #418);
#421 = DIRECTION('', (0., -1., 0.));
#422 = VECTOR('', #421, 1.);
#423 = CARTESIAN_POINT('', (-27.5, 40., 22.5));
#424 = LINE('', #423, #422);
#425 = DIRECTION('', (0., -1., 0.));
#426 = VECTOR('', #425, 1.);
#427 = CARTESIAN_POINT('', (-27.5, 40., 37.5));
#428 = LINE('', #427, #426);
#429 = DIRECTION('', (0., -1., 0.));
#430 = VECTOR('', #429, 1.);
#431 = CARTESIAN_POINT('', (-25.5, 40., 22.5));
#432 = LINE('', #431, #430);
#433 = DIRECTION('', (0., -1., 0.));
#434 = VECTOR('', #433, 1.);
#435 = CARTESIAN_POINT('', (-25.5, 40., 37.5));
#436 = LINE('', #435, #434);
#437 = DIRECTION('', (0., -0., -1.));
#438 = VECTOR('', #437, 1.);
#439 = CARTESIAN_POINT('', (1., 40., 37.5));
#440 = LINE('', #439, #438);
#441 = DIRECTION('', (1., -0., 0.));
#442 = VECTOR('', #441, 1.);
#443 = CARTESIAN_POINT('', (-1., 40., 37.5));
#444 = LINE('', #443, #442);
#445 = DIRECTION('', (0., -0., 1.));
#446 = VECTOR('', #445, 1.);
#447 = CARTESIAN_POINT('', (-1., 40., 22.5));
#448 = LINE('', #447, #446);
#449 = DIRECTION('', (-1., -0., 0.));
#450 = VECTOR('', #449, 1.);
#451 = CARTESIAN_POINT('', (1., 40., 22.5));
#452 = LINE('', #451, #450);
#453 = DIRECTION('', (0., -0., -1.));
#454 = VECTOR('', #453, 1.);
#455 = CARTESIAN_POINT('', (1., 37.5, 37.5));
#456 = LINE('', #455, #454);
#457 = DIRECTION('', (1., -0., 0.));
#458 = VECTOR('', #457, 1.);
#459 = CARTESIAN_POINT('', (-1., 37.5, 37.5));
#460 = LINE('', #459, #458);
#461 = DIRECTION('', (0., 0., 1.));
#462 = VECTOR('', #461, 1.);
#463 = CARTESIAN_POINT('', (-1., 37.5, 22.5));
#464 = LINE('', #463, #462);
#465 = DIRECTION('', (-1., -0., 0.));
#466 = VECTOR('', #465, 1.);
#467 = CARTESIAN_POINT('', (1., 37.5, 22.5));
#468 = LINE('', #467, #466);
#469 = DIRECTION('', (0., -1., 0.));
#470 = VECTOR('', #469, 1.);
#471 = CARTESIAN_POINT('', (-1., 40., 22.5));
#472 = LINE('', #471, #470);
#473 = DIRECTION('', (0., -1., 0.));
#474 = VECTOR('', #473, 1.);
#475 = CARTESIAN_POINT('', (-1., 40., 37.5));
#476 = LINE('', #475, #474);
#477 = DIRECTION('', (0., -1., 0.));
#478 = VECTOR('', #477, 1.);
#479 = CARTESIAN_POINT('', (1., 40., 22.5));
#480 = LINE('', #479, #478);
#481 = DIRECTION('', (0., -1., 0.));
#482 = VECTOR('', #481, 1.);
#483 = CARTESIAN_POINT('', (1., 40., 37.5));
#484 = LINE('', #483, #482);
#485 = DIRECTION('', (0., -0., -1.));
#486 = VECTOR('', #485, 1.);
#487 = CARTESIAN_POINT('', (27.5, 40., 37.5));
#488 = LINE('', #487, #486);
#489 = DIRECTION('', (1., -0., 0.));
#490 = VECTOR('', #489, 1.);
#491 = CARTESIAN_POINT('', (25.5, 40., 37.5));
#492 = LINE('', #491, #490);
#493 = DIRECTION('', (0., -0., 1.));
#494 = VECTOR('', #493, 1.);
#495 = CARTESIAN_POINT('', (25.5, 40., 22.5));
#496 = LINE('', #495, #494);
#497 = DIRECTION('', (-1., -0., 0.));
#498 = VECTOR('', #497, 1.);
#499 = CARTESIAN_POINT('', (27.5, 40., 22.5));
#500 = LINE('', #499, #498);
#501 = DIRECTION('', (0., -0., -1.));
#502 = VECTOR('', #501, 1.);
#503 = CARTESIAN_POINT('', (27.5, 37.5, 37.5));
#504 = LINE('', #503, #502);
#505 = DIRECTION('', (1., -0., 0.));
#506 = VECTOR('', #505, 1.);
#507 = CARTESIAN_POINT('', (25.5, 37.5, 37.5));
#508 = LINE('', #507, #506);
#509 = DIRECTION('', (0., 0., 1.));
#510 = VECTOR('', #509, 1.);
#511 = CARTESIAN_POINT('', (25.5, 37.5, 22.5));
#512 = LINE('', #511, #510);
#513 = DIRECTION('', (-1., -0., 0.));
#514 = VECTOR('', #513, 1.);
#515 = CARTESIAN_POINT('', (27.5, 37.5, 22.5));
#516 = LINE('', #515, #514);
#517 = DIRECTION('', (0., -1., 0.));
#518 = VECTOR('', #517, 1.);
#519 = CARTESIAN_POINT('', (25.5, 40., 22.5));
#520 = LINE('', #519, #518);
#521 = DIRECTION('', (0., -1., 0.));
#522 = VECTOR('', #521, 1.);
#523 = CARTESIAN_POINT('', (25.5, 40., 37.5));
#524 = LINE('', #523, #522);
#525 = DIRECTION('', (0., -1., 0.));
#526 = VECTOR('', #525, 1.);
#527 = CARTESIAN_POINT('', (27.5, 40., 22.5));
#528 = LINE('', #527, #526);
#529 = DIRECTION('', (0., -1., 0.));
#530 = VECTOR('', #529, 1.);
#531 = CARTESIAN_POINT('', (27.5, 40., 37.5));
#532 = LINE('', #531, #530);
#533 = EDGE_CURVE('', #6, #8, #137, .T.);
#534 = EDGE_CURVE('', #8, #10, #141, .T.);
#535 = EDGE_CURVE('', #12, #10, #146, .T.);
#536 = EDGE_CURVE('', #6, #12, #150, .T.);
#537 = EDGE_CURVE('', #8, #14, #154, .T.);
#538 = EDGE_CURVE('', #14, #16, #158, .T.);
#539 = EDGE_CURVE('', #10, #16, #162, .T.);
#540 = EDGE_CURVE('', #14, #18, #167, .T.);
#541 = EDGE_CURVE('', #18, #20, #171, .T.);
#542 = EDGE_CURVE('', #16, #20, #176, .T.);
#543 = EDGE_CURVE('', #18, #22, #180, .T.);
#544 = EDGE_CURVE('', #22, #24, #184, .T.);
#545 = EDGE_CURVE('', #20, #24, #188, .T.);
#546 = EDGE_CURVE('', #22, #26, #193, .T.);
#547 = EDGE_CURVE('', #26, #28, #197, .T.);
#548 = EDGE_CURVE('', #24, #28, #202, .T.);
#549 = EDGE_CURVE('', #26, #30, #206, .T.);
#550 = EDGE_CURVE('', #30, #32, #210, .T.);
#551 = EDGE_CURVE('', #28, #32, #214, .T.);
#552 = EDGE_CURVE('', #30, #34, #219, .T.);
#553 = EDGE_CURVE('', #34, #36, #223, .T.);
#554 = EDGE_CURVE('', #32, #36, #228, .T.);
#555 = EDGE_CURVE('', #34, #6, #232, .T.);
#556 = EDGE_CURVE('', #36, #12, #236, .T.);
#557 = EDGE_CURVE('', #38, #40, #241, .T.);
#558 = EDGE_CURVE('', #40, #56, #245, .T.);
#559 = EDGE_CURVE('', #38, #54, #249, .T.);
#560 = EDGE_CURVE('', #40, #42, #253, .T.);
#561 = EDGE_CURVE('', #42, #58, #257, .T.);
#562 = EDGE_CURVE('', #42, #44, #262, .T.);
#563 = EDGE_CURVE('', #44, #60, #266, .T.);
#564 = EDGE_CURVE('', #44, #46, #270, .T.);
#565 = EDGE_CURVE('', #46, #62, #274, .T.);
#566 = EDGE_CURVE('', #46, #48, #279, .T.);
#567 = EDGE_CURVE('', #48, #64, #283, .T.);
#568 = EDGE_CURVE('', #48, #50, #287, .T.);
#569 = EDGE_CURVE('', #50, #66, #291, .T.);
#570 = EDGE_CURVE('', #50, #52, #296, .T.);
#571 = EDGE_CURVE('', #52, #68, #300, .T.);
#572 = EDGE_CURVE('', #52, #38, #304, .T.);
#573 = EDGE_CURVE('', #54, #56, #309, .T.);
#574 = EDGE_CURVE('', #56, #58, #313, .T.);
#575 = EDGE_CURVE('', #60, #58, #318, .T.);
#576 = EDGE_CURVE('', #60, #62, #322, .T.);
#577 = EDGE_CURVE('', #64, #62, #327, .T.);
#578 = EDGE_CURVE('', #64, #66, #331, .T.);
#579 = EDGE_CURVE('', #66, #68, #336, .T.);
#580 = EDGE_CURVE('', #68, #54, #340, .T.);
#581 = EDGE_CURVE('', #70, #72, #344, .T.);
#582 = EDGE_CURVE('', #72, #74, #348, .T.);
#583 = EDGE_CURVE('', #74, #76, #352, .T.);
#584 = EDGE_CURVE('', #76, #70, #356, .T.);
#585 = EDGE_CURVE('', #78, #80, #360, .T.);
#586 = EDGE_CURVE('', #80, #82, #364, .T.);
#587 = EDGE_CURVE('', #82, #84, #368, .T.);
#588 = EDGE_CURVE('', #84, #78, #372, .T.);
#589 = EDGE_CURVE('', #84, #76, #376, .T.);
#590 = EDGE_CURVE('', #82, #74, #380, .T.);
#591 = EDGE_CURVE('', #80, #72, #384, .T.);
#592 = EDGE_CURVE('', #78, #70, #388, .T.);
#593 = EDGE_CURVE('', #86, #88, #392, .T.);
#594 = EDGE_CURVE('', #90, #86, #396, .T.);
#595 = EDGE_CURVE('', #92, #90, #400, .T.);
#596 = EDGE_CURVE('', #88, #92, #404, .T.);
#597 = EDGE_CURVE('', #94, #96, #408, .T.);
#598 = EDGE_CURVE('', #98, #94, #412, .T.);
#599 = EDGE_CURVE('', #100, #98, #416, .T.);
#600 = EDGE_CURVE('', #96, #100, #420, .T.);
#601 = EDGE_CURVE('', #92, #100, #424, .T.);
#602 = EDGE_CURVE('', #90, #98, #428, .T.);
#603 = EDGE_CURVE('', #88, #96, #432, .T.);
#604 = EDGE_CURVE('', #86, #94, #436, .T.);
#605 = EDGE_CURVE('', #102, #104, #440, .T.);
#606 = EDGE_CURVE('', #106, #102, #444, .T.);
#607 = EDGE_CURVE('', #108, #106, #448, .T.);
#608 = EDGE_CURVE('', #104, #108, #452, .T.);
#609 = EDGE_CURVE('', #110, #112, #456, .T.);
#610 = EDGE_CURVE('', #114, #110, #460, .T.);
#611 = EDGE_CURVE('', #116, #114, #464, .T.);
#612 = EDGE_CURVE('', #112, #116, #468, .T.);
#613 = EDGE_CURVE('', #108, #116, #472, .T.);
#614 = EDGE_CURVE('', #106, #114, #476, .T.);
#615 = EDGE_CURVE('', #104, #112, #480, .T.);
#616 = EDGE_CURVE('', #102, #110, #484, .T.);
#617 = EDGE_CURVE('', #118, #120, #488, .T.);
#618 = EDGE_CURVE('', #122, #118, #492, .T.);
#619 = EDGE_CURVE('', #124, #122, #496, .T.);
#620 = EDGE_CURVE('', #120, #124, #500, .T.);
#621 = EDGE_CURVE('', #126, #128, #504, .T.);
#622 = EDGE_CURVE('', #130, #126, #508, .T.);
#623 = EDGE_CURVE('', #132, #130, #512, .T.);
#624 = EDGE_CURVE('', #128, #132, #516, .T.);
#625 = EDGE_CURVE('', #124, #132, #520, .T.);
#626 = EDGE_CURVE('', #122, #130, #524, .T.);
#627 = EDGE_CURVE('', #120, #128, #528, .T.);
#628 = EDGE_CURVE('', #118, #126, #532, .T.);
#629 = CARTESIAN_POINT('', (-52., 32., 30.));
#630 = DIRECTION('', (0., -0., 1.));
#631 = DIRECTION('', (0., 1., 0.));
#632 = AXIS2_PLACEMENT_3D('', #629, #630, #631);
#633 = CYLINDRICAL_SURFACE('', #632, 8.);
#634 = CARTESIAN_POINT('', (-60., 0., 30.));
#635 = DIRECTION('', (-1., -0., 0.));
#636 = AXIS2_PLACEMENT_3D('', #634, #635, $);
#637 = PLANE('', #636);
#638 = CARTESIAN_POINT('', (-52., -32., 30.));
#639 = DIRECTION('', (0., 0., 1.));
#640 = DIRECTION('', (-1., -0., 0.));
#641 = AXIS2_PLACEMENT_3D('', #638, #639, #640);
#642 = CYLINDRICAL_SURFACE('', #641, 8.);
#643 = CARTESIAN_POINT('', (0., -40., 30.));
#644 = DIRECTION('', (0., -1., 0.));
#645 = AXIS2_PLACEMENT_3D('', #643, #644, $);
#646 = PLANE('', #645);
#647 = CARTESIAN_POINT('', (52., -32., 30.));
#648 = DIRECTION('', (-0., -0., 1.));
#649 = DIRECTION('', (0., -1., 0.));
#650 = AXIS2_PLACEMENT_3D('', #647, #648, #649);
#651 = CYLINDRICAL_SURFACE('', #650, 8.);
#652 = CARTESIAN_POINT('', (60., 0., 30.));
#653 = DIRECTION('', (1., -0., 0.));
#654 = AXIS2_PLACEMENT_3D('', #652, #653, $);
#655 = PLANE('', #654);
#656 = CARTESIAN_POINT('', (52., 32., 30.));
#657 = DIRECTION('', (0., -0., 1.));
#658 = DIRECTION('', (1., 0., 0.));
#659 = AXIS2_PLACEMENT_3D('', #656, #657, #658);
#660 = CYLINDRICAL_SURFACE('', #659, 8.);
#661 = CARTESIAN_POINT('', (0., 40., 30.));
#662 = DIRECTION('', (0., 1., -0.));
#663 = AXIS2_PLACEMENT_3D('', #661, #662, $);
#664 = PLANE('', #663);
#665 = CARTESIAN_POINT('', (0., 0., 0.));
#666 = DIRECTION('', (0., -0., 1.));
#667 = AXIS2_PLACEMENT_3D('', #665, #666, $);
#668 = PLANE('', #667);
#669 = CARTESIAN_POINT('', (0., 0., 60.));
#670 = DIRECTION('', (0., -0., 1.));
#671 = AXIS2_PLACEMENT_3D('', #669, #670, $);
#672 = PLANE('', #671);
#673 = CARTESIAN_POINT('', (-52., 32., 31.5));
#674 = DIRECTION('', (0., -0., 1.));
#675 = DIRECTION('', (0., 1., 0.));
#676 = AXIS2_PLACEMENT_3D('', #673, #674, #675);
#677 = CYLINDRICAL_SURFACE('', #676, 5.5);
#678 = CARTESIAN_POINT('', (-57.5, 0., 31.5));
#679 = DIRECTION('', (-1., -0., 0.));
#680 = AXIS2_PLACEMENT_3D('', #678, #679, $);
#681 = PLANE('', #680);
#682 = CARTESIAN_POINT('', (-52., -32., 31.5));
#683 = DIRECTION('', (0., -0., 1.));
#684 = DIRECTION('', (-1., 0., 0.));
#685 = AXIS2_PLACEMENT_3D('', #682, #683, #684);
#686 = CYLINDRICAL_SURFACE('', #685, 5.5);
#687 = CARTESIAN_POINT('', (0., -37.5, 31.5));
#688 = DIRECTION('', (0., -1., 0.));
#689 = AXIS2_PLACEMENT_3D('', #687, #688, $);
#690 = PLANE('', #689);
#691 = CARTESIAN_POINT('', (52., -32., 31.5));
#692 = DIRECTION('', (0., 0., 1.));
#693 = DIRECTION('', (-0., -1., 0.));
#694 = AXIS2_PLACEMENT_3D('', #691, #692, #693);
#695 = CYLINDRICAL_SURFACE('', #694, 5.5);
#696 = CARTESIAN_POINT('', (57.5, 0., 31.5));
#697 = DIRECTION('', (1., -0., 0.));
#698 = AXIS2_PLACEMENT_3D('', #696, #697, $);
#699 = PLANE('', #698);
#700 = CARTESIAN_POINT('', (52., 32., 31.5));
#701 = DIRECTION('', (-0., -0., 1.));
#702 = DIRECTION('', (1., -0., 0.));
#703 = AXIS2_PLACEMENT_3D('', #700, #701, #702);
#704 = CYLINDRICAL_SURFACE('', #703, 5.5);
#705 = CARTESIAN_POINT('', (0., 37.5, 31.5));
#706 = DIRECTION('', (0., 1., -0.));
#707 = AXIS2_PLACEMENT_3D('', #705, #706, $);
#708 = PLANE('', #707);
#709 = CARTESIAN_POINT('', (0., 0., 2.5));
#710 = DIRECTION('', (0., -0., 1.));
#711 = AXIS2_PLACEMENT_3D('', #709, #710, $);
#712 = PLANE('', #711);
#713 = CARTESIAN_POINT('', (0., -38.75, 10.));
#714 = DIRECTION('', (0., -0., -1.));
#715 = AXIS2_PLACEMENT_3D('', #713, #714, $);
#716 = PLANE('', #715);
#717 = CARTESIAN_POINT('', (-3., -38.75, 20.));
#718 = DIRECTION('', (-1., -0., -0.));
#719 = AXIS2_PLACEMENT_3D('', #717, #718, $);
#720 = PLANE('', #719);
#721 = CARTESIAN_POINT('', (0., -38.75, 30.));
#722 = DIRECTION('', (0., 0., 1.));
#723 = AXIS2_PLACEMENT_3D('', #721, #722, $);
#724 = PLANE('', #723);
#725 = CARTESIAN_POINT('', (3., -38.75, 20.));
#726 = DIRECTION('', (1., -0., -0.));
#727 = AXIS2_PLACEMENT_3D('', #725, #726, $);
#728 = PLANE('', #727);
#729 = CARTESIAN_POINT('', (-26.5, 38.75, 22.5));
#730 = DIRECTION('', (0., -0., -1.));
#731 = AXIS2_PLACEMENT_3D('', #729, #730, $);
#732 = PLANE('', #731);
#733 = CARTESIAN_POINT('', (-27.5, 38.75, 30.));
#734 = DIRECTION('', (-1., -0., -0.));
#735 = AXIS2_PLACEMENT_3D('', #733, #734, $);
#736 = PLANE('', #735);
#737 = CARTESIAN_POINT('', (-26.5, 38.75, 37.5));
#738 = DIRECTION('', (0., 0., 1.));
#739 = AXIS2_PLACEMENT_3D('', #737, #738, $);
#740 = PLANE('', #739);
#741 = CARTESIAN_POINT('', (-25.5, 38.75, 30.));
#742 = DIRECTION('', (1., -0., -0.));
#743 = AXIS2_PLACEMENT_3D('', #741, #742, $);
#744 = PLANE('', #743);
#745 = CARTESIAN_POINT('', (0., 38.75, 22.5));
#746 = DIRECTION('', (0., -0., -1.));
#747 = AXIS2_PLACEMENT_3D('', #745, #746, $);
#748 = PLANE('', #747);
#749 = CARTESIAN_POINT('', (-1., 38.75, 30.));
#750 = DIRECTION('', (-1., -0., -0.));
#751 = AXIS2_PLACEMENT_3D('', #749, #750, $);
#752 = PLANE('', #751);
#753 = CARTESIAN_POINT('', (0., 38.75, 37.5));
#754 = DIRECTION('', (0., 0., 1.));
#755 = AXIS2_PLACEMENT_3D('', #753, #754, $);
#756 = PLANE('', #755);
#757 = CARTESIAN_POINT('', (1., 38.75, 30.));
#758 = DIRECTION('', (1., -0., -0.));
#759 = AXIS2_PLACEMENT_3D('', #757, #758, $);
#760 = PLANE('', #759);
#761 = CARTESIAN_POINT('', (26.5, 38.75, 22.5));
#762 = DIRECTION('', (0., -0., -1.));
#763 = AXIS2_PLACEMENT_3D('', #761, #762, $);
#764 = PLANE('', #763);
#765 = CARTESIAN_POINT('', (26.5, 38.75, 37.5));
#766 = DIRECTION('', (0., 0., 1.));
#767 = AXIS2_PLACEMENT_3D('', #765, #766, $);
#768 = PLANE('', #767);
#769 = CARTESIAN_POINT('', (27.5, 38.75, 30.));
#770 = DIRECTION('', (1., -0., -0.));
#771 = AXIS2_PLACEMENT_3D('', #769, #770, $);
#772 = PLANE('', #771);
#773 = CARTESIAN_POINT('', (25.5, 38.75, 30.));
#774 = DIRECTION('', (-1., -0., -0.));
#775 = AXIS2_PLACEMENT_3D('', #773, #774, $);
#776 = PLANE('', #775);
#777 = ORIENTED_EDGE('', *, *, #533, .T.);
#778 = ORIENTED_EDGE('', *, *, #534, .T.);
#779 = ORIENTED_EDGE('', *, *, #535, .F.);
#780 = ORIENTED_EDGE('', *, *, #536, .F.);
#781 = EDGE_LOOP('', (#777, #778, #779, #780));
#782 = FACE_BOUND('', #781, .T.);
#783 = ADVANCED_FACE('', (#782), #633, .T.);
#784 = ORIENTED_EDGE('', *, *, #537, .T.);
#785 = ORIENTED_EDGE('', *, *, #538, .T.);
#786 = ORIENTED_EDGE('', *, *, #539, .F.);
#787 = ORIENTED_EDGE('', *, *, #534, .F.);
#788 = EDGE_LOOP('', (#784, #785, #786, #787));
#789 = FACE_BOUND('', #788, .T.);
#790 = ADVANCED_FACE('', (#789), #637, .T.);
#791 = ORIENTED_EDGE('', *, *, #540, .T.);
#792 = ORIENTED_EDGE('', *, *, #541, .T.);
#793 = ORIENTED_EDGE('', *, *, #542, .F.);
#794 = ORIENTED_EDGE('', *, *, #538, .F.);
#795 = EDGE_LOOP('', (#791, #792, #793, #794));
#796 = FACE_BOUND('', #795, .T.);
#797 = ADVANCED_FACE('', (#796), #642, .T.);
#798 = ORIENTED_EDGE('', *, *, #543, .T.);
#799 = ORIENTED_EDGE('', *, *, #544, .T.);
#800 = ORIENTED_EDGE('', *, *, #545, .F.);
#801 = ORIENTED_EDGE('', *, *, #541, .F.);
#802 = ORIENTED_EDGE('', *, *, #581, .F.);
#803 = ORIENTED_EDGE('', *, *, #584, .F.);
#804 = ORIENTED_EDGE('', *, *, #583, .F.);
#805 = ORIENTED_EDGE('', *, *, #582, .F.);
#806 = EDGE_LOOP('', (#798, #799, #800, #801));
#807 = FACE_BOUND('', #806, .T.);
#808 = EDGE_LOOP('', (#802, #803, #804, #805));
#809 = FACE_BOUND('', #808, .T.);
#810 = ADVANCED_FACE('', (#807, #809), #646, .T.);
#811 = ORIENTED_EDGE('', *, *, #546, .T.);
#812 = ORIENTED_EDGE('', *, *, #547, .T.);
#813 = ORIENTED_EDGE('', *, *, #548, .F.);
#814 = ORIENTED_EDGE('', *, *, #544, .F.);
#815 = EDGE_LOOP('', (#811, #812, #813, #814));
#816 = FACE_BOUND('', #815, .T.);
#817 = ADVANCED_FACE('', (#816), #651, .T.);
#818 = ORIENTED_EDGE('', *, *, #549, .T.);
#819 = ORIENTED_EDGE('', *, *, #550, .T.);
#820 = ORIENTED_EDGE('', *, *, #551, .F.);
#821 = ORIENTED_EDGE('', *, *, #547, .F.);
#822 = EDGE_LOOP('', (#818, #819, #820, #821));
#823 = FACE_BOUND('', #822, .T.);
#824 = ADVANCED_FACE('', (#823), #655, .T.);
#825 = ORIENTED_EDGE('', *, *, #552, .T.);
#826 = ORIENTED_EDGE('', *, *, #553, .T.);
#827 = ORIENTED_EDGE('', *, *, #554, .F.);
#828 = ORIENTED_EDGE('', *, *, #550, .F.);
#829 = EDGE_LOOP('', (#825, #826, #827, #828));
#830 = FACE_BOUND('', #829, .T.);
#831 = ADVANCED_FACE('', (#830), #660, .T.);
#832 = ORIENTED_EDGE('', *, *, #555, .T.);
#833 = ORIENTED_EDGE('', *, *, #536, .T.);
#834 = ORIENTED_EDGE('', *, *, #556, .F.);
#835 = ORIENTED_EDGE('', *, *, #553, .F.);
#836 = ORIENTED_EDGE('', *, *, #593, .F.);
#837 = ORIENTED_EDGE('', *, *, #594, .F.);
#838 = ORIENTED_EDGE('', *, *, #595, .F.);
#839 = ORIENTED_EDGE('', *, *, #596, .F.);
#840 = ORIENTED_EDGE('', *, *, #605, .F.);
#841 = ORIENTED_EDGE('', *, *, #606, .F.);
#842 = ORIENTED_EDGE('', *, *, #607, .F.);
#843 = ORIENTED_EDGE('', *, *, #608, .F.);
#844 = ORIENTED_EDGE('', *, *, #617, .F.);
#845 = ORIENTED_EDGE('', *, *, #618, .F.);
#846 = ORIENTED_EDGE('', *, *, #619, .F.);
#847 = ORIENTED_EDGE('', *, *, #620, .F.);
#848 = EDGE_LOOP('', (#832, #833, #834, #835));
#849 = FACE_BOUND('', #848, .T.);
#850 = EDGE_LOOP('', (#836, #837, #838, #839));
#851 = FACE_BOUND('', #850, .T.);
#852 = EDGE_LOOP('', (#840, #841, #842, #843));
#853 = FACE_BOUND('', #852, .T.);
#854 = EDGE_LOOP('', (#844, #845, #846, #847));
#855 = FACE_BOUND('', #854, .T.);
#856 = ADVANCED_FACE('', (#849, #851, #853, #855), #664, .T.);
#857 = ORIENTED_EDGE('', *, *, #555, .F.);
#858 = ORIENTED_EDGE('', *, *, #552, .F.);
#859 = ORIENTED_EDGE('', *, *, #549, .F.);
#860 = ORIENTED_EDGE('', *, *, #546, .F.);
#861 = ORIENTED_EDGE('', *, *, #543, .F.);
#862 = ORIENTED_EDGE('', *, *, #540, .F.);
#863 = ORIENTED_EDGE('', *, *, #537, .F.);
#864 = ORIENTED_EDGE('', *, *, #533, .F.);
#865 = EDGE_LOOP('', (#857, #858, #859, #860, #861, #862, #863, #864));
#866 = FACE_BOUND('', #865, .T.);
#867 = ADVANCED_FACE('', (#866), #668, .F.);
#868 = ORIENTED_EDGE('', *, *, #535, .T.);
#869 = ORIENTED_EDGE('', *, *, #539, .T.);
#870 = ORIENTED_EDGE('', *, *, #542, .T.);
#871 = ORIENTED_EDGE('', *, *, #545, .T.);
#872 = ORIENTED_EDGE('', *, *, #548, .T.);
#873 = ORIENTED_EDGE('', *, *, #551, .T.);
#874 = ORIENTED_EDGE('', *, *, #554, .T.);
#875 = ORIENTED_EDGE('', *, *, #556, .T.);
#876 = ORIENTED_EDGE('', *, *, #573, .F.);
#877 = ORIENTED_EDGE('', *, *, #580, .F.);
#878 = ORIENTED_EDGE('', *, *, #579, .F.);
#879 = ORIENTED_EDGE('', *, *, #578, .F.);
#880 = ORIENTED_EDGE('', *, *, #577, .T.);
#881 = ORIENTED_EDGE('', *, *, #576, .F.);
#882 = ORIENTED_EDGE('', *, *, #575, .T.);
#883 = ORIENTED_EDGE('', *, *, #574, .F.);
#884 = EDGE_LOOP('', (#868, #869, #870, #871, #872, #873, #874, #875));
#885 = FACE_BOUND('', #884, .T.);
#886 = EDGE_LOOP('', (#876, #877, #878, #879, #880, #881, #882, #883));
#887 = FACE_BOUND('', #886, .T.);
#888 = ADVANCED_FACE('', (#885, #887), #672, .T.);
#889 = ORIENTED_EDGE('', *, *, #559, .T.);
#890 = ORIENTED_EDGE('', *, *, #573, .T.);
#891 = ORIENTED_EDGE('', *, *, #558, .F.);
#892 = ORIENTED_EDGE('', *, *, #557, .F.);
#893 = EDGE_LOOP('', (#889, #890, #891, #892));
#894 = FACE_BOUND('', #893, .T.);
#895 = ADVANCED_FACE('', (#894), #677, .F.);
#896 = ORIENTED_EDGE('', *, *, #558, .T.);
#897 = ORIENTED_EDGE('', *, *, #574, .T.);
#898 = ORIENTED_EDGE('', *, *, #561, .F.);
#899 = ORIENTED_EDGE('', *, *, #560, .F.);
#900 = EDGE_LOOP('', (#896, #897, #898, #899));
#901 = FACE_BOUND('', #900, .T.);
#902 = ADVANCED_FACE('', (#901), #681, .F.);
#903 = ORIENTED_EDGE('', *, *, #561, .T.);
#904 = ORIENTED_EDGE('', *, *, #575, .F.);
#905 = ORIENTED_EDGE('', *, *, #563, .F.);
#906 = ORIENTED_EDGE('', *, *, #562, .F.);
#907 = EDGE_LOOP('', (#903, #904, #905, #906));
#908 = FACE_BOUND('', #907, .T.);
#909 = ADVANCED_FACE('', (#908), #686, .F.);
#910 = ORIENTED_EDGE('', *, *, #563, .T.);
#911 = ORIENTED_EDGE('', *, *, #576, .T.);
#912 = ORIENTED_EDGE('', *, *, #565, .F.);
#913 = ORIENTED_EDGE('', *, *, #564, .F.);
#914 = ORIENTED_EDGE('', *, *, #586, .T.);
#915 = ORIENTED_EDGE('', *, *, #587, .T.);
#916 = ORIENTED_EDGE('', *, *, #588, .T.);
#917 = ORIENTED_EDGE('', *, *, #585, .T.);
#918 = EDGE_LOOP('', (#910, #911, #912, #913));
#919 = FACE_BOUND('', #918, .T.);
#920 = EDGE_LOOP('', (#914, #915, #916, #917));
#921 = FACE_BOUND('', #920, .T.);
#922 = ADVANCED_FACE('', (#919, #921), #690, .F.);
#923 = ORIENTED_EDGE('', *, *, #565, .T.);
#924 = ORIENTED_EDGE('', *, *, #577, .F.);
#925 = ORIENTED_EDGE('', *, *, #567, .F.);
#926 = ORIENTED_EDGE('', *, *, #566, .F.);
#927 = EDGE_LOOP('', (#923, #924, #925, #926));
#928 = FACE_BOUND('', #927, .T.);
#929 = ADVANCED_FACE('', (#928), #695, .F.);
#930 = ORIENTED_EDGE('', *, *, #567, .T.);
#931 = ORIENTED_EDGE('', *, *, #578, .T.);
#932 = ORIENTED_EDGE('', *, *, #569, .F.);
#933 = ORIENTED_EDGE('', *, *, #568, .F.);
#934 = EDGE_LOOP('', (#930, #931, #932, #933));
#935 = FACE_BOUND('', #934, .T.);
#936 = ADVANCED_FACE('', (#935), #699, .F.);
#937 = ORIENTED_EDGE('', *, *, #569, .T.);
#938 = ORIENTED_EDGE('', *, *, #579, .T.);
#939 = ORIENTED_EDGE('', *, *, #571, .F.);
#940 = ORIENTED_EDGE('', *, *, #570, .F.);
#941 = EDGE_LOOP('', (#937, #938, #939, #940));
#942 = FACE_BOUND('', #941, .T.);
#943 = ADVANCED_FACE('', (#942), #704, .F.);
#944 = ORIENTED_EDGE('', *, *, #571, .T.);
#945 = ORIENTED_EDGE('', *, *, #580, .T.);
#946 = ORIENTED_EDGE('', *, *, #559, .F.);
#947 = ORIENTED_EDGE('', *, *, #572, .F.);
#948 = ORIENTED_EDGE('', *, *, #600, .T.);
#949 = ORIENTED_EDGE('', *, *, #599, .T.);
#950 = ORIENTED_EDGE('', *, *, #598, .T.);
#951 = ORIENTED_EDGE('', *, *, #597, .T.);
#952 = ORIENTED_EDGE('', *, *, #612, .T.);
#953 = ORIENTED_EDGE('', *, *, #611, .T.);
#954 = ORIENTED_EDGE('', *, *, #610, .T.);
#955 = ORIENTED_EDGE('', *, *, #609, .T.);
#956 = ORIENTED_EDGE('', *, *, #624, .T.);
#957 = ORIENTED_EDGE('', *, *, #623, .T.);
#958 = ORIENTED_EDGE('', *, *, #622, .T.);
#959 = ORIENTED_EDGE('', *, *, #621, .T.);
#960 = EDGE_LOOP('', (#944, #945, #946, #947));
#961 = FACE_BOUND('', #960, .T.);
#962 = EDGE_LOOP('', (#948, #949, #950, #951));
#963 = FACE_BOUND('', #962, .T.);
#964 = EDGE_LOOP('', (#952, #953, #954, #955));
#965 = FACE_BOUND('', #964, .T.);
#966 = EDGE_LOOP('', (#956, #957, #958, #959));
#967 = FACE_BOUND('', #966, .T.);
#968 = ADVANCED_FACE('', (#961, #963, #965, #967), #708, .F.);
#969 = ORIENTED_EDGE('', *, *, #557, .T.);
#970 = ORIENTED_EDGE('', *, *, #560, .T.);
#971 = ORIENTED_EDGE('', *, *, #562, .T.);
#972 = ORIENTED_EDGE('', *, *, #564, .T.);
#973 = ORIENTED_EDGE('', *, *, #566, .T.);
#974 = ORIENTED_EDGE('', *, *, #568, .T.);
#975 = ORIENTED_EDGE('', *, *, #570, .T.);
#976 = ORIENTED_EDGE('', *, *, #572, .T.);
#977 = EDGE_LOOP('', (#969, #970, #971, #972, #973, #974, #975, #976));
#978 = FACE_BOUND('', #977, .T.);
#979 = ADVANCED_FACE('', (#978), #712, .T.);
#980 = ORIENTED_EDGE('', *, *, #588, .F.);
#981 = ORIENTED_EDGE('', *, *, #589, .T.);
#982 = ORIENTED_EDGE('', *, *, #584, .T.);
#983 = ORIENTED_EDGE('', *, *, #592, .F.);
#984 = EDGE_LOOP('', (#980, #981, #982, #983));
#985 = FACE_BOUND('', #984, .T.);
#986 = ADVANCED_FACE('', (#985), #716, .F.);
#987 = ORIENTED_EDGE('', *, *, #587, .F.);
#988 = ORIENTED_EDGE('', *, *, #590, .T.);
#989 = ORIENTED_EDGE('', *, *, #583, .T.);
#990 = ORIENTED_EDGE('', *, *, #589, .F.);
#991 = EDGE_LOOP('', (#987, #988, #989, #990));
#992 = FACE_BOUND('', #991, .T.);
#993 = ADVANCED_FACE('', (#992), #720, .F.);
#994 = ORIENTED_EDGE('', *, *, #586, .F.);
#995 = ORIENTED_EDGE('', *, *, #591, .T.);
#996 = ORIENTED_EDGE('', *, *, #582, .T.);
#997 = ORIENTED_EDGE('', *, *, #590, .F.);
#998 = EDGE_LOOP('', (#994, #995, #996, #997));
#999 = FACE_BOUND('', #998, .T.);
#1000 = ADVANCED_FACE('', (#999), #724, .F.);
#1001 = ORIENTED_EDGE('', *, *, #585, .F.);
#1002 = ORIENTED_EDGE('', *, *, #592, .T.);
#1003 = ORIENTED_EDGE('', *, *, #581, .T.);
#1004 = ORIENTED_EDGE('', *, *, #591, .F.);
#1005 = EDGE_LOOP('', (#1001, #1002, #1003, #1004));
#1006 = FACE_BOUND('', #1005, .T.);
#1007 = ADVANCED_FACE('', (#1006), #728, .F.);
#1008 = ORIENTED_EDGE('', *, *, #596, .T.);
#1009 = ORIENTED_EDGE('', *, *, #601, .T.);
#1010 = ORIENTED_EDGE('', *, *, #600, .F.);
#1011 = ORIENTED_EDGE('', *, *, #603, .F.);
#1012 = EDGE_LOOP('', (#1008, #1009, #1010, #1011));
#1013 = FACE_BOUND('', #1012, .T.);
#1014 = ADVANCED_FACE('', (#1013), #732, .F.);
#1015 = ORIENTED_EDGE('', *, *, #595, .T.);
#1016 = ORIENTED_EDGE('', *, *, #602, .T.);
#1017 = ORIENTED_EDGE('', *, *, #599, .F.);
#1018 = ORIENTED_EDGE('', *, *, #601, .F.);
#1019 = EDGE_LOOP('', (#1015, #1016, #1017, #1018));
#1020 = FACE_BOUND('', #1019, .T.);
#1021 = ADVANCED_FACE('', (#1020), #736, .F.);
#1022 = ORIENTED_EDGE('', *, *, #594, .T.);
#1023 = ORIENTED_EDGE('', *, *, #604, .T.);
#1024 = ORIENTED_EDGE('', *, *, #598, .F.);
#1025 = ORIENTED_EDGE('', *, *, #602, .F.);
#1026 = EDGE_LOOP('', (#1022, #1023, #1024, #1025));
#1027 = FACE_BOUND('', #1026, .T.);
#1028 = ADVANCED_FACE('', (#1027), #740, .F.);
#1029 = ORIENTED_EDGE('', *, *, #593, .T.);
#1030 = ORIENTED_EDGE('', *, *, #603, .T.);
#1031 = ORIENTED_EDGE('', *, *, #597, .F.);
#1032 = ORIENTED_EDGE('', *, *, #604, .F.);
#1033 = EDGE_LOOP('', (#1029, #1030, #1031, #1032));
#1034 = FACE_BOUND('', #1033, .T.);
#1035 = ADVANCED_FACE('', (#1034), #744, .F.);
#1036 = ORIENTED_EDGE('', *, *, #608, .T.);
#1037 = ORIENTED_EDGE('', *, *, #613, .T.);
#1038 = ORIENTED_EDGE('', *, *, #612, .F.);
#1039 = ORIENTED_EDGE('', *, *, #615, .F.);
#1040 = EDGE_LOOP('', (#1036, #1037, #1038, #1039));
#1041 = FACE_BOUND('', #1040, .T.);
#1042 = ADVANCED_FACE('', (#1041), #748, .F.);
#1043 = ORIENTED_EDGE('', *, *, #607, .T.);
#1044 = ORIENTED_EDGE('', *, *, #614, .T.);
#1045 = ORIENTED_EDGE('', *, *, #611, .F.);
#1046 = ORIENTED_EDGE('', *, *, #613, .F.);
#1047 = EDGE_LOOP('', (#1043, #1044, #1045, #1046));
#1048 = FACE_BOUND('', #1047, .T.);
#1049 = ADVANCED_FACE('', (#1048), #752, .F.);
#1050 = ORIENTED_EDGE('', *, *, #606, .T.);
#1051 = ORIENTED_EDGE('', *, *, #616, .T.);
#1052 = ORIENTED_EDGE('', *, *, #610, .F.);
#1053 = ORIENTED_EDGE('', *, *, #614, .F.);
#1054 = EDGE_LOOP('', (#1050, #1051, #1052, #1053));
#1055 = FACE_BOUND('', #1054, .T.);
#1056 = ADVANCED_FACE('', (#1055), #756, .F.);
#1057 = ORIENTED_EDGE('', *, *, #605, .T.);
#1058 = ORIENTED_EDGE('', *, *, #615, .T.);
#1059 = ORIENTED_EDGE('', *, *, #609, .F.);
#1060 = ORIENTED_EDGE('', *, *, #616, .F.);
#1061 = EDGE_LOOP('', (#1057, #1058, #1059, #1060));
#1062 = FACE_BOUND('', #1061, .T.);
#1063 = ADVANCED_FACE('', (#1062), #760, .F.);
#1064 = ORIENTED_EDGE('', *, *, #620, .T.);
#1065 = ORIENTED_EDGE('', *, *, #625, .T.);
#1066 = ORIENTED_EDGE('', *, *, #624, .F.);
#1067 = ORIENTED_EDGE('', *, *, #627, .F.);
#1068 = EDGE_LOOP('', (#1064, #1065, #1066, #1067));
#1069 = FACE_BOUND('', #1068, .T.);
#1070 = ADVANCED_FACE('', (#1069), #764, .F.);
#1071 = ORIENTED_EDGE('', *, *, #618, .T.);
#1072 = ORIENTED_EDGE('', *, *, #628, .T.);
#1073 = ORIENTED_EDGE('', *, *, #622, .F.);
#1074 = ORIENTED_EDGE('', *, *, #626, .F.);
#1075 = EDGE_LOOP('', (#1071, #1072, #1073, #1074));
#1076 = FACE_BOUND('', #1075, .T.);
#1077 = ADVANCED_FACE('', (#1076), #768, .F.);
#1078 = ORIENTED_EDGE('', *, *, #617, .T.);
#1079 = ORIENTED_EDGE('', *, *, #627, .T.);
#1080 = ORIENTED_EDGE('', *, *, #621, .F.);
#1081 = ORIENTED_EDGE('', *, *, #628, .F.);
#1082 = EDGE_LOOP('', (#1078, #1079, #1080, #1081));
#1083 = FACE_BOUND('', #1082, .T.);
#1084 = ADVANCED_FACE('', (#1083), #772, .F.);
#1085 = ORIENTED_EDGE('', *, *, #619, .T.);
#1086 = ORIENTED_EDGE('', *, *, #626, .T.);
#1087 = ORIENTED_EDGE('', *, *, #623, .F.);
#1088 = ORIENTED_EDGE('', *, *, #625, .F.);
#1089 = EDGE_LOOP('', (#1085, #1086, #1087, #1088));
#1090 = FACE_BOUND('', #1089, .T.);
#1091 = ADVANCED_FACE('', (#1090), #776, .F.);
#1092 = CLOSED_SHELL('', (#783, #790, #797, #810, #817, #824, #831, #856, #867, #888, #895, #902, #909, #922, #929, #936, #943, #968, #979, #986, #993, #1000, #1007, #1014, #1021, #1028, #1035, #1042, #1049, #1056, #1063, #1070, #1077, #1084, #1091));
#1093 = MANIFOLD_SOLID_BREP('', #1092);
#1094 = APPLICATION_CONTEXT('configuration controlled 3D design of mechanical parts and assemblies');
#1095 = PRODUCT_DEFINITION_CONTEXT('part definition', #1094, 'design');
#1096 = PRODUCT_CONTEXT('', #1094, 'mechanical');
#1097 = PRODUCT('UNIDENTIFIED_PRODUCT', '', $, (#1096));
#1098 = PRODUCT_DEFINITION_FORMATION('', $, #1097);
#1099 = PRODUCT_DEFINITION('design', $, #1098, #1095);
#1100 = PRODUCT_DEFINITION_SHAPE('', '', #1099);
#1101 = ADVANCED_BREP_SHAPE_REPRESENTATION('', (#1093), #4);
#1102 = SHAPE_DEFINITION_REPRESENTATION(#1100, #1101);
#1103 = COLOUR_RGB('', 0.39215687, 0.42745098, 0.47058824);
#1104 = FILL_AREA_STYLE_COLOUR('', #1103);
#1105 = FILL_AREA_STYLE('', (#1104));
#1106 = SURFACE_STYLE_FILL_AREA(#1105);
#1107 = SURFACE_SIDE_STYLE('', (#1106));
#1108 = SURFACE_STYLE_USAGE(.BOTH., #1107);
#1109 = PRESENTATION_STYLE_ASSIGNMENT((#1108));
#1110 = STYLED_ITEM('', (#1109), #1093);
#1111 = MECHANICAL_DESIGN_GEOMETRIC_PRESENTATION_REPRESENTATION('', (#1110), #4);
ENDSEC;
END-ISO-10303-21;
